<?xml version="1.0" encoding="UTF-8"?>
<svg width="24px" height="24px" viewBox="0 0 24 24" version="1.1" xmlns="http://www.w3.org/2000/svg" xmlns:xlink="http://www.w3.org/1999/xlink">
    <title>主工具栏/Camera Capture/Normal</title>
    <g id="主工具栏/Camera-Capture/Normal" stroke="none" stroke-width="1" fill="none" fill-rule="evenodd">
        <g id="编组-2" fill-rule="nonzero">
            <g id="编组" transform="translate(1.000000, 2.000000)">
                <path d="M19.1753935,1.82563163 L16.0265714,1.82563163 L14.5946187,0.21638958 C14.4718098,0.0795915696 14.297421,0 14.1156637,0 L7.75907112,0 C7.58222619,0 7.4127498,0.0746170965 7.29239701,0.203953397 L5.77202188,1.82563163 L2.82460645,1.82563163 C1.26738863,1.82563163 0,3.10904569 0,4.68595366 L0,17.139678 C0,18.7165859 1.26738863,20 2.82460645,20 L19.1753935,20 C20.7326114,20 22,18.7165859 22,17.139678 L22,4.68346642 C22,3.10655845 20.7326114,1.82563163 19.1753935,1.82563163 Z M20.2797477,16.8428381 C20.2797477,17.6604878 19.622529,18.3260166 18.8150889,18.3260166 L3.18736728,18.3260166 C2.37992717,18.3260166 1.72270847,17.6604878 1.72270847,16.8428381 L1.72270847,4.89726523 C1.72270847,4.07961549 2.37992717,3.41408663 3.18736728,3.41408663 L6.31619769,3.41408663 C6.32323932,3.41408663 6.33028095,3.41170974 6.33732258,3.41170974 L6.34671142,3.41170974 C6.35375305,3.41170974 6.36079468,3.40933285 6.36783631,3.40933285 C6.38191956,3.40457908 6.38896119,3.40457908 6.39600282,3.40220219 C6.39835003,3.40220219 6.40069724,3.3998253 6.40304445,3.3998253 C6.41008608,3.39744841 6.41712771,3.39744841 6.42416934,3.39507152 C6.42651655,3.39507152 6.43121097,3.39269463 6.43355818,3.39269463 C6.4405998,3.39031774 6.44529422,3.38794086 6.45233585,3.38794086 C6.45703027,3.38556397 6.45937748,3.38556397 6.4640719,3.38318708 C6.46876632,3.38081019 6.47580795,3.3784333 6.48050237,3.3784333 C6.48519679,3.37605641 6.48989121,3.37367952 6.49458563,3.37367952 C6.49928004,3.37130263 6.50397446,3.37130263 6.50632167,3.36892575 C6.51101609,3.36654886 6.51805772,3.36417197 6.52275214,3.36179508 C6.52509935,3.35941819 6.52979377,3.35941819 6.53214098,3.3570413 C6.53918261,3.35466441 6.54622424,3.34991064 6.55091866,3.34753375 C6.55326587,3.34753375 6.55561308,3.34515686 6.55796029,3.34515686 C6.56500191,3.34040308 6.57204354,3.33802619 6.57908517,3.33327241 C6.59082122,3.32614175 6.59786285,3.32138797 6.60255727,3.31901108 C6.61429332,3.30950353 6.61898774,3.30474975 6.62602936,3.30237286 C6.62837657,3.29999597 6.63072378,3.29761908 6.63307099,3.29761908 C6.63776541,3.2928653 6.64245983,3.29048842 6.64715425,3.28573464 C6.64950146,3.28335775 6.65419588,3.28098086 6.65654309,3.27860397 C6.66123751,3.27622708 6.66358472,3.27147331 6.66827914,3.26909642 L6.68001519,3.25721197 C6.6823624,3.25483508 6.68705681,3.2524582 6.68940402,3.24770442 L6.70348728,3.23344309 L6.7081817,3.22868931 L8.16110445,1.67895782 L13.6958247,1.67895782 L15.0642479,3.21680486 C15.0712896,3.22631242 15.0806784,3.23344309 15.08772,3.24295064 L15.0900672,3.24532753 C15.0971089,3.2524582 15.1041505,3.25958886 15.1111921,3.26434264 C15.1158865,3.26671953 15.1182338,3.27147331 15.1229282,3.27385019 C15.1276226,3.27622708 15.1299698,3.28098086 15.1346642,3.28335775 C15.1393586,3.28811153 15.1440531,3.29048842 15.1487475,3.29524219 C15.1510947,3.29761908 15.1557891,3.29999597 15.1581363,3.30237286 C15.1628307,3.30712664 15.1675252,3.30950353 15.1745668,3.3142573 C15.176914,3.31663419 15.1816084,3.31901108 15.1839556,3.32138797 C15.18865,3.32614175 15.1956917,3.32851864 15.2003861,3.33327241 C15.2027333,3.3356493 15.2074277,3.33802619 15.2097749,3.33802619 C15.2144694,3.34040308 15.221511,3.34515686 15.2262054,3.34753375 C15.2308998,3.34991064 15.233247,3.35228752 15.2379414,3.35466441 C15.2426359,3.3570413 15.2473303,3.35941819 15.2543719,3.36179508 L15.2684552,3.36892575 L15.2825384,3.37605641 C15.2895801,3.3784333 15.2942745,3.38081019 15.3013161,3.38318708 C15.3036633,3.38318708 15.3060105,3.38556397 15.3107049,3.38556397 C15.3200938,3.38794086 15.3294826,3.39269463 15.3365243,3.39507152 L15.3388715,3.39507152 C15.3975517,3.41408663 15.4609264,3.42359419 15.524301,3.42359419 L18.8080473,3.42359419 C19.6154874,3.42359419 20.2727061,4.08912305 20.2727061,4.90677278 L20.2727061,16.8428381 L20.2797477,16.8428381 Z" id="形状" fill="#85888C"></path>
                <path d="M11,6.88 C12.1360815,6.88 13.165652,7.34247927 13.9114438,8.08827111 C14.6575764,8.83440371 15.12,9.86439006 15.12,11 C15.12,12.1360815 14.6575207,13.165652 13.9117289,13.9114438 C13.1655963,14.6575764 12.1356099,15.12 11,15.12 C9.86391845,15.12 8.834348,14.6575207 8.08855616,13.9117289 C7.34242356,13.1655963 6.88,12.1356099 6.88,11 C6.88,9.86391845 7.34247927,8.834348 8.08827111,8.08855616 C8.83440371,7.34242356 9.86439006,6.88 11,6.88 L11,6.88 Z" id="路径" stroke="#85888C" stroke-width="1.76" fill="#D5D6D9"></path>
                <path d="M17.6795802,5.93952088 C17.6795802,6.41068723 18.0567667,6.79264302 18.5220498,6.79264302 C18.9873329,6.79264302 19.3645194,6.41068723 19.3645194,5.93952088 C19.3645194,5.46835453 18.9873329,5.08639874 18.5220498,5.08639874 C18.0567667,5.08639874 17.6795802,5.46835453 17.6795802,5.93952088 Z" id="路径" fill="#85888C"></path>
            </g>
        </g>
    </g>
</svg>