<?xml version="1.0" encoding="UTF-8"?>
<svg width="24px" height="24px" viewBox="0 0 24 24" version="1.1" xmlns="http://www.w3.org/2000/svg" xmlns:xlink="http://www.w3.org/1999/xlink">
    <title>主工具栏/置底/Normal</title>
    <g id="主工具栏/置底/Normal" stroke="none" stroke-width="1" fill="none" fill-rule="evenodd">
        <g id="编组" transform="translate(1.000000, 1.000000)" stroke="#85888C" stroke-linejoin="round" stroke-width="1.6">
            <polygon id="矩形备份-2" fill="#D5D6D9" points="11 10.2670988 22 16.1335494 11 22 -2.22877272e-13 16.1335494"></polygon>
            <polygon id="矩形备份" fill="#FFFFFF" points="11 5.1335494 22 11 11 16.8664506 -2.22877272e-13 11"></polygon>
            <polygon id="矩形" fill="#FFFFFF" points="11 -6.51330841e-15 22 5.8664506 11 11.7329012 -2.2226665e-13 5.8664506"></polygon>
        </g>
        <path d="M18.8227645,13.4430394 L19.0840178,13.4900099 L19.2366204,13.5422959 L19.323042,13.5803569 L19.4513868,13.6514523 L19.5825799,13.7438353 L19.6992642,13.8478431 L22.7029847,16.8520411 C22.9763222,17.1253786 23.1129909,17.4836311 23.1129909,17.8418836 C23.1129909,18.2001361 22.9763222,18.5583887 22.7029847,18.8317261 C22.4296473,19.1050636 22.0713948,19.2417323 21.7131422,19.2417323 C21.3548897,19.2417323 20.9966372,19.1050636 20.7234639,18.8318902 L20.7234639,18.8318902 L20.1131429,18.2220412 L20.1131429,22.8428815 C20.1131429,23.2294807 19.9564426,23.5794806 19.7030924,23.8328307 C19.4497423,24.0861809 19.0997424,24.2428812 18.7131432,24.2428812 C18.3265439,24.2428812 17.976544,24.0861809 17.7231939,23.8328307 C17.4698438,23.5794806 17.3131435,23.2294807 17.3131435,22.8428815 L17.3131435,22.8428815 L17.3131435,18.2225693 L16.7029667,18.8327461 C16.453582,19.0821073 16.1309118,19.2192376 15.8009215,19.2399851 C15.4638086,19.2611803 15.119057,19.1609143 14.8369992,18.9347633 L14.8369992,18.9347633 L14.7285245,18.8382881 C14.4711909,18.5886041 14.3129433,18.2247494 14.3129433,17.8428836 C14.3129433,17.4714337 14.4606642,17.1152322 14.7231813,16.8531613 L14.7231813,16.8531613 L17.7370455,13.8392973 L17.8529665,13.737498 L18.0107152,13.6313318 L18.1232538,13.5748816 L18.2839138,13.5106876 L18.4381767,13.4702628 L18.8227645,13.4430394 Z" id="路径备份" stroke="#FFFFFF" stroke-width="1.2" fill="#85888C" fill-rule="nonzero" transform="translate(18.712967, 18.842788) scale(1, -1) translate(-18.712967, -18.842788) "></path>
    </g>
</svg>