<svg xmlns="http://www.w3.org/2000/svg"
        width="190"
        height="382"
        viewBox="0 0 190 382"
        version="1.1">
        <path d="M127.079 90.06 126.81095312499998 91.30292187500001 125.156234375 94.312640625 123.964 95.726 122.567078125 97.22217187500002 121.91354101562499 98.323529296875 122.38452929687499 98.426400390625 122.878 98.322 123.790890625 97.953671875 125.87992187500001 96.533390625 126.799 95.656 127.60069140625001 94.65461132812499 128.96219921875002 92.342787109375 129.74948828125002 90.278978515625 129.78141455078128 89.37037622070312 129.46593115234376 89.25469506835938 129.193 89.381 128.75623437500002 89.52690625 127.94157812499999 89.19396875000001 127.664 88.756 127.56081054687502 88.555888671875 127.36807226562499 88.493681640625 127.14945312499998 89.165078125 127.079 90.06 " fill="rgb(241, 241, 241)" fill-rule="evenodd" />,<path d="M92.512 97.75 92.77074999999999 99.15 92.923 100.058 94.12462500000001 100.95725000000002 96.905 102.338 98.410228515625 103.07900195312499 100.55335742187499 104.63277148437501 101.527939453125 106.26168164062501 101.319443359375 107.94107617187501 100.767 108.792 100.42278906249999 109.24426367187502 100.2682734375 109.82286914062502 101.767125 109.978453125 104.228 109.687 105.92505078125 109.39908203125 109.02412109375 108.55999609375002 111.43684765625001 107.49881640625 112.81166796875 106.37023046875 113 105.829 112.744015625 105.634765625 111.015921875 105.76304687499999 109.757 106.07 107.19612500000001 106.74003125 106.5575 106.43196875 108.5 105.464 109.547796875 104.92221875 110.273193359375 104.30273046875 110.132298828125 104.08169140625 109.859 104.045 108.83971875 103.71179687499999 105.38628125 101.55664062499999 103.377 100 101.00225 98.18826562500001 97.97965625 96.52391601562499 96.20396875 96.05649804687499 95.357 96 93.82515624999999 96.08078125 92.64049609375 96.59423828124999 92.45689453125 97.28146484375 92.512 97.75 " fill="rgb(265, 265, 265)" fill-rule="evenodd" />,<path d="M110 164.583 107.5 165.971 110.333 165.985 111.409822265625 166.08467773437502 112.61813867187499 166.72189257812502 112.57765820312498 167.67190429687497 111.302349609375 168.609494140625 110.206 168.972 109.32009375000001 169.28198437499998 108.64028125 170.18095312499997 108.849 170.766 109.104744140625 171.075232421875 109.83743554687499 171.339837890625 111.763171875 170.79707812499998 113.811 169.766 115.25069531250001 168.94382812499998 117.22305468750002 167.563671875 117.9494765625 166.585140625 117.3860859375 166.067484375 116.607 166 116.020765625 165.881640625 114.971671875 165.082421875 114.638 164.5 114.37989453125 163.91884765625 113.74865234375 163.26063671875002 112.03221875 163.54234375000001 110 164.583 " fill="rgb(261, 261, 261)" fill-rule="evenodd" />,<path d="M86 197.509 86.14981054687499 197.7387609863281 87.236884765625 198.1203825683594 90.27907812500001 198.488857421875 95.41054687500002 198.57365820312498 99.59214062500001 198.15788085937498 100.584 197.75 100.763140625 197.45639062499998 100.407796875 197.03942187499996 99.917 196.968 97.08025 196.86037499999998 92.25 196.647 89.4981875 196.591 86.8680078125 196.84496875 86.0959609375 197.24178124999997 86 197.509 " fill="rgb(255, 255, 255)" fill-rule="evenodd" />,<path d="M43.342 211.767 42.378 214.18537500000002 40.88 217.566 40.15178125 219.33664062499997 39.16184375 222.799921875 39.022 224.066 39.044 226.5 40.772 224.356 41.617484375 223.47209375 43.714578124999996 221.97803125 44.708 221.552 45.356138671875 221.32291015624997 46.238087890625 220.66588671875 46.744390624999994 218.57046874999997 46.708 215.957 46.548806640624996 214.20470898437497 45.846091796875 211.553767578125 45.108876220703124 210.46952026367188 44.57736499023437 210.25191821289062 43.800115234375 210.78305664062498 43.342 211.767 " fill="rgb(259, 259, 259)" fill-rule="evenodd" />,<path d="M150.735 233.25 150.51545312500002 234.037890625 150.43785937500002 235.70067187499998 150.589 236.371 150.65265625 236.95715625 149.98459375 238.05146875000003 149.335 238.425 148.54870312499997 238.79025000000001 148.31673437499998 239.49037499999997 148.845 239.904 149.251412109375 240.219716796875 149.93443945312498 241.16422851562498 150.651890625 243.41132812499998 150.939 245.5 151.04759375 245.7725625 151.59065625 245.5241875 151.958 245.034 152.279609375 244.32315625 152.197203125 242.90971875000002 151.796 242.254 151.3744375 241.538265625 151.3173125 239.78054687500003 151.681 238.72 152.010046875 237.66075 152.196390625 235.145875 152.031 234 151.68703125000002 232.788609375 151.10259375000004 232.450453125 150.735 233.25 " fill="rgb(261, 261, 261)" fill-rule="evenodd" />,<path d="M44.892 241.474 44.734625 242.89049999999997 44.509 246.26 44.43326562499999 248.8129375 44.92807226562499 250.8025 45.850716796875 251.39559375 46.538 251.599 48.0977109375 251.925892578125 50.41228906250001 251.94513085937498 51.76405468750001 251.04463476562498 52.2853828125 249.135998046875 52.276 247.776 52.265921875000004 246.2959375 52.665390625 244.0089375 53.026 243.484 53.641560546875 243.034029296875 53.952947265625 242.296509765625 53.056693359375 241.78609960937496 50.975205078125 241.515455078125 49.497 241.474 46.289249999999996 241.46275 44.892 241.474 " fill="rgb(253, 253, 253)" fill-rule="evenodd" />,<path d="M121.237 252.527 119.203296875 253.94225 116.413140625 256.13375 116 256.64 116.20092578124999 257.497916015625 117.53783984374999 260.08698242187495 119.52041015625 262.96700195312496 121.42732421874999 265.08994335937496 122.127 265.54 122.86337499999999 265.91195312499997 124.13625 267.24985937499997 124.516 268.051 124.838203125 268.80778125 125.721859375 269.84621875 126.174 270 126.5308125 270.12240625 126.7674375 270.94921875 126.618 271.552 126.45596875 272.11218750000006 126.60365625 272.6516875 126.895 272.565 127.26794921874999 272.538162109375 128.16403515625 273.49243945312503 129.66109375000002 276.977390625 130.588 280.307 130.94482421875 281.40829296875006 132.18666015624999 283.34172265625 134.12383984375 284.90924609375 136.74567578125 286.10242578125 138.31 286.556 139.49815625 286.94542187499997 140.50759765624997 287.701966796875 140.66016796875 288.3162128906249 140.579 288.655 140.518578125 289.2975625 141.42260937499998 290.4758125 142.328 290.935 143.36740234374997 291.721044921875 146.25076953125 295.384181640625 149.21110546875002 300.211552734375 151.05347265625 304.254564453125 151.182 305.373 151.210015625 305.661765625 151.949671875 305.78854687499995 152.57 305.611 153.30071875 305.401265625 153.82015625 305.82629687499997 153.643 306.489 153.5183828125 307.02743359374995 153.81477343749998 307.75423828124997 154.67272656249997 307.97226171875 155.89311718750002 307.63106640625 156.577 307.235 156.74547241210936 306.8473425292969 156.42880981445313 305.0910686035156 154.721962890625 300.78356445312505 151.272771484375 294.09916992187505 148.74421752929686 290.1984587402344 147.48846118164062 288.90709106445314 147.07 288.81 146.588703125 288.90590625000004 146.219359375 288.58696875000004 146.372 288.207 146.42496875000003 287.954697265625 146.05475 287.30951367187504 144.49043749999998 286.140234375 142.916 285.343 141.49565625 284.60448242187505 139.00859375 282.672619140625 137.15678125 280.340490234375 136.13671875 277.855501953125 136 276.633 135.9014375 276.023765625 135.2355625 274.971796875 134.75 274.659 134.20579687500003 274.374515625 134.18089062500002 273.734671875 134.697 273.3 135.157203125 272.83615625000004 135.29085937499997 271.66734375 134.963 270.974 134.599203125 270.20428125 134.090984375 268.08696875 134.009 267 133.88317187500002 265.804140625 133.07876562500002 262.951546875 132.499 261.646 131.96464062499996 260.467046875 131.46667187499997 258.469140625 131.564 257.896 131.70820312499998 257.548015625 131.52335937499998 257.070671875 131.217 257 130.77287500000003 256.684375 129.654375 254.55312500000002 129.118 253 128.59565625 251.446875 127.57196875 249.315625 127.197 249 125.14775 250.036 121.237 252.527 " fill="rgb(263, 263, 263)" fill-rule="evenodd" />,<path d="M143.681 254.219 142.186337890625 254.683341796875 140.059185546875 256.0310410156251 138.766361328125 258.55234960937497 137.92958398437503 262.98517382812497 137.564 266.149 137.328140625 269.07260937499996 137.384830078125 272.10594335937503 137.694771484375 273.198205078125 137.931 273.458 138.34609375000002 273.630640625 138.91565625 273.41792187500005 139 273.059 139.192546875 272.648 140.493015625 272.083625 141.441 272 142.44334375 271.911984375 144.11090625 271.317828125 144.571 270.885 145.1654375 270.46000000000004 147.78006250000004 270.13800000000003 149.63 270.262 154 270.754 153.985 264.127 153.90225 261.43543750000003 153.3775 257.1053125 153 256 152.6200625 255.496484375 152.0791875 255.230078125 151.985 255.5 151.88693750000004 255.750265625 151.3195625 255.35079687500001 150.92 254.75 150.509486328125 254.1092421875 149.582005859375 253.3432578125 146.97279687499997 253.4135 143.681 254.219 " fill="rgb(263, 263, 263)" fill-rule="evenodd" />,<path d="M43.986 255.991 44.376515624999996 256.43242187499993 45.225046875000004 258.30751562499995 45.579 259.51 46.000978515625 260.951275390625 47.13654492187501 263.593310546875 48.49256445312499 265.658173828125 49.86700585937499 266.838083984375 50.498 267 51.03196875 267.1578125 51.98665625 268.2234375 52.29 269 52.63431249999999 269.81750390624995 53.746874999999996 270.79869921874996 54.9959375 270.88017578125 55.867000000000004 270.02837109375 56 269.242 55.802734375 268.18884375000005 54.470703125 264.75015625 53.5 262.788 52.529296875 260.852671875 51.197265625 257.59514062499994 51 256.674 50.944859375 256.3271484375 50.48742187500001 255.79910156250003 48.8518125 255.39375 47.065 255.36 45.60487500000001 255.4414375 43.9645 255.7779375 43.986 255.991 " fill="rgb(261, 261, 261)" fill-rule="evenodd" />,<path d="M157.667 311.667 157.407953125 312.14253125000005 157.052609375 313.96284375 157 315.083 156.9014375 316.19079687500005 156.2355625 317.924890625 155.75 318.338 155.36603125 318.5494687500001 155.62596875 318.85240625000006 156.25 318.921 156.795833984375 318.84359374999997 157.650080078125 318.1171875 158.147373046875 316.74053125 158.239244140625 314.847875 158.118 313.75 158.15631249999998 313.45857812500003 158.66193750000002 313.059109375 159.067 313 159.438546875 313.148765625 159.682515625 314.164796875 159.527 314.916 159.38607812499998 315.71896875 159.706859375 317.13815625 160.129 317.58 160.62509375000002 317.813828125 160.93365625 317.417859375 160.748 316.786 160.610265625 316.0954375 160.914921875 314.6535625 161.32 314.08 161.80115625000002 313.47882812500006 161.64596875 312.481234375 160.992 311.974 159.842328125 311.32500000000005 158.307609375 311.183125 157.667 311.667 " fill="rgb(261, 261, 261)" fill-rule="evenodd" />,<path d="M168.664 334.706 167.826046875 335.05228125 167.239890625 336.42584375 167.433 337.59 167.594296875 338.54284375 167.37576562499999 339.81553125000005 167.019 340 166.62353125 340.07890625 166.08046875 340.61171875 166 341 166.22971875 341.38828125 167.78115625 341.92109375 168.912 342 170.2926875 341.915421875 171.37465625000002 341.39389648437503 171.5426875 340.710783203125 171.488 340.25 171.22925 338.77662499999997 171.077 337.691 170.967921875 337.42560937499996 170.394265625 337.323828125 170 337.5 169.61171875 337.656375 169.07890625 337.42125 169 337.059 169.118359375 336.648 169.917578125 336.083625 170.5 336 171.082421875 335.92109375 171.881640625 335.38828125 172 335 171.980400390625 334.65538671875 171.73996679687502 334.24234765625 170.458046875 334.27634375 168.664 334.706 " fill="rgb(263, 263, 263)" fill-rule="evenodd" />,<path d="M164 350.465 163.82575585937502 351.223326171875 162.680533203125 352.585431640625 161.025732421875 353.452021484375 159.52463476562502 353.475751953125 159.039 353.063 158.29558007812497 352.683626953125 154.73466210937502 352.28145898437504 150.08150976562501 352.335431640625 146.343966796875 352.82238867187505 145.446 353.221 145.40216455078124 353.4042919921875 146.05984130859378 353.7697978515625 148.48402734375003 354.2730859375 153.20797265625004 354.7418203125 157.97176171875 354.81399218749993 159.801 354.645 161.33360937499998 354.27684375 163.968703125 353.04440625 164.747 352.332 165.614390625 350.939359375 165.91337695312504 349.509255859375 165.43984960937502 349.058392578125 165 349 164.61171875 349.1155625 164.07890625 349.89606249999997 164 350.465 " fill="rgb(257, 257, 257)" fill-rule="evenodd" />
      </svg>