<svg xmlns="http://www.w3.org/2000/svg" width="190" height="382" viewBox="0 0 190 382" version="1.1">
	<path d="M 80 7.928 C 72.488 8.440, 68.164 9.263, 64.805 10.822 C 62.223 12.020, 59.816 13, 59.456 13 C 55.188 13, 38.989 25.396, 36.555 30.525 C 35.652 32.428, 34.096 37.202, 33.098 41.135 C 31.540 47.270, 30.700 48.770, 27.195 51.681 C 19.288 58.250, 17.816 65.232, 23.436 69.519 C 25.379 71.001, 27.150 73.408, 27.513 75.058 C 27.865 76.664, 28.599 78.252, 29.142 78.588 C 30.202 79.243, 27.349 83, 25.792 83 C 24.277 83, 11.653 91.617, 9.026 94.444 L 6.551 97.107 12.026 102.010 C 15.037 104.707, 18.457 106.933, 19.628 106.957 C 23.550 107.037, 24.277 109.241, 22.450 115.525 C 20.672 121.641, 20.516 120.488, 25.189 135.820 C 26.745 140.923, 28.801 140.982, 33.180 136.047 C 35.281 133.680, 37 130.873, 37 129.809 C 37 126.198, 40.234 117.508, 42.232 115.750 C 44.397 113.846, 51.472 113.337, 52.507 115.012 C 53.272 116.250, 63.716 123, 64.866 123 C 65.321 123, 67.067 123.686, 68.747 124.524 C 71.625 125.960, 76 133.056, 76 136.289 C 76 138.101, 73.930 140, 71.955 140 C 69.385 140, 66.779 143.580, 66.633 147.312 C 66.495 150.846, 63.373 156, 61.371 156 C 59.534 156, 57.239 163.139, 57.752 167.257 C 58.036 169.530, 57.663 171.901, 56.809 173.257 C 56.032 174.491, 55.304 176.850, 55.191 178.500 C 54.963 181.833, 53.164 187.954, 51.960 189.500 C 51.532 190.050, 51.279 192.525, 51.399 195 C 51.519 197.475, 51.366 199.971, 51.058 200.547 C 50.751 201.123, 51.444 200.527, 52.597 199.223 C 53.946 197.697, 54.528 195.980, 54.228 194.411 C 53.858 192.478, 54.098 192.100, 55.381 192.593 C 57.524 193.415, 57.448 196.940, 55.250 198.608 C 53.600 199.861, 53.599 199.938, 55.231 199.968 C 56.821 199.997, 56.911 201.167, 56.329 214.250 C 55.981 222.088, 55.171 230.300, 54.530 232.500 C 53.382 236.437, 53.295 236.496, 49.060 236.218 C 46.693 236.063, 43.574 235.259, 42.128 234.432 C 39.870 233.139, 39.817 233.012, 41.750 233.531 C 44.519 234.274, 44.592 233.552, 42.029 230.801 C 40.122 228.754, 40.035 228.747, 39.341 230.593 C 38.947 231.642, 37.963 232.996, 37.155 233.601 C 35.982 234.481, 35.621 238.305, 35.362 252.601 C 34.972 274.145, 34.579 277.297, 31.824 281.024 C 29.940 283.573, 29.661 285.472, 29.396 297.543 C 29.104 310.847, 29.031 311.242, 26.439 313.644 C 23.827 316.065, 23.789 316.287, 24.152 326.913 C 24.563 338.917, 24.987 339.873, 31.433 343.323 C 35.127 345.300, 36.780 345.479, 49.454 345.269 C 66.808 344.981, 66.588 345.137, 67.933 332.136 C 68.621 325.493, 69.371 322.450, 70.529 321.603 C 71.628 320.799, 72.051 319.288, 71.829 316.956 C 71.524 313.753, 71.208 313.461, 67.500 312.965 C 62.485 312.294, 60.606 311.204, 61.806 309.661 C 62.303 309.022, 63.323 306.363, 64.073 303.750 C 65.335 299.353, 65.675 299, 68.646 299 C 72.268 299, 76 295.233, 76 291.577 C 76 290.392, 76.900 287.658, 78 285.500 C 79.100 283.342, 80 279.714, 80 277.438 C 80 268.092, 85.563 260, 91.988 260 C 94.932 260, 96.389 260.821, 100.027 264.528 C 103.683 268.252, 104.934 268.954, 107.082 268.482 C 110.012 267.838, 110.427 268.286, 120.535 283 C 123.746 287.675, 130.340 295.713, 135.187 300.863 C 140.034 306.013, 144 310.781, 144 311.458 C 144 312.136, 143.100 313.505, 142 314.500 C 140.900 315.495, 140 317.343, 140 318.605 C 140 319.868, 139.417 321.260, 138.704 321.700 C 137.575 322.396, 133 329.452, 133 330.495 C 133 330.705, 134.012 330.822, 135.250 330.755 C 142.072 330.387, 142.727 330.761, 142.727 335.025 C 142.727 337.239, 142.358 339.279, 141.907 339.557 C 141.456 339.836, 141.275 340.612, 141.504 341.282 C 141.734 341.952, 139.689 344.220, 136.961 346.323 C 133.669 348.859, 132 350.888, 132 352.351 C 132 353.563, 131.270 355.598, 130.377 356.872 C 129.173 358.591, 128.916 360.373, 129.383 363.780 C 130.455 371.597, 131.641 372.564, 141.749 373.860 C 157.019 375.819, 166.291 375.394, 172.510 372.452 C 178.204 369.758, 179.277 368.194, 178.467 363.767 C 178.121 361.873, 178.587 360.413, 179.983 359.017 C 183.139 355.861, 182.514 351.177, 177.628 341.368 C 174.092 334.268, 173.410 332.058, 174.058 329.797 C 174.623 327.829, 174.437 326.579, 173.430 325.573 C 172.643 324.786, 172 323.843, 172 323.476 C 172 323.109, 171.043 321.465, 169.874 319.823 C 168.036 317.242, 167.921 316.517, 169.019 314.464 C 170.087 312.470, 170.024 311.685, 168.625 309.551 C 167.710 308.153, 165.458 306.383, 163.622 305.615 L 160.283 304.220 159.060 293.142 C 158.349 286.705, 158.078 277.085, 158.413 270.182 C 158.947 259.160, 158.844 258.169, 156.986 256.487 C 155.884 255.490, 154.487 253.021, 153.882 251.001 L 152.781 247.327 149.179 249.164 C 147.198 250.174, 144.577 251, 143.355 251 C 141.514 251, 141.135 250.444, 141.141 247.750 C 141.145 245.963, 141.657 243.458, 142.278 242.185 C 143.176 240.345, 143.109 239.681, 141.954 238.950 C 140.693 238.152, 140.699 238.013, 142 237.897 C 142.825 237.823, 143.838 237.816, 144.250 237.882 C 145.355 238.056, 145.162 236.218, 144 235.500 C 143.450 235.160, 143 235.344, 143 235.910 C 143 236.475, 142.339 236.684, 141.532 236.374 C 140.724 236.064, 140.102 235.515, 140.150 235.155 C 140.554 232.104, 139.853 230.912, 138 231.500 C 136.744 231.899, 136 231.680, 136 230.912 C 136 230.239, 134.875 228.214, 133.500 226.411 C 132.125 224.608, 131 222.398, 131 221.499 C 131 220.264, 130.451 220.036, 128.750 220.565 C 127.512 220.950, 126.350 221.655, 126.167 222.132 C 125.983 222.609, 125.196 223, 124.417 223 C 123.638 223, 123 223.675, 123 224.500 C 123 226.312, 125.628 226.508, 126.338 224.750 C 126.647 223.984, 126.873 224.158, 126.921 225.200 C 126.964 226.135, 126.255 227.317, 125.346 227.827 C 124.205 228.465, 123.930 229.334, 124.462 230.626 C 124.969 231.860, 125.392 232.073, 125.700 231.250 C 126.400 229.376, 127.743 229.745, 127.613 231.777 C 127.253 237.418, 116.596 241.802, 101.458 242.539 C 93.563 242.923, 93 242.818, 93 240.975 C 93 239.889, 93.450 239, 94 239 C 94.550 239, 95 239.450, 95 240 C 95 241.110, 101.503 241.308, 107.173 240.371 C 109.948 239.912, 110.701 239.385, 110.253 238.218 C 109.882 237.251, 110.070 236.925, 110.755 237.349 C 111.357 237.721, 113.011 237.497, 114.429 236.850 C 117.252 235.564, 119.340 236.541, 116.971 238.039 C 115.936 238.693, 115.878 238.974, 116.775 238.985 C 117.476 238.993, 118.477 237.875, 119 236.500 C 119.582 234.969, 120.736 234, 121.975 234 C 123.089 234, 124 233.550, 124 233 C 124 232.112, 123.286 231.853, 121.424 232.066 C 121.108 232.102, 119.991 231.142, 118.943 229.934 C 117.176 227.897, 116.064 227.722, 103.768 227.545 C 89.137 227.334, 84 228.495, 84 232.013 C 84 236.682, 77.311 232.986, 73.401 226.157 C 70.987 221.941, 70.748 220.601, 70.875 212 C 70.991 204.241, 71.336 202.262, 72.758 201.202 C 73.716 200.488, 75.287 200.109, 76.250 200.358 C 78.133 200.847, 78.717 198.561, 76.984 197.490 C 74.392 195.888, 77.899 195.103, 87.280 195.183 C 109.351 195.372, 113.056 195.020, 113.937 192.652 C 114.377 191.468, 114.541 189.983, 114.300 189.351 C 114.060 188.719, 114.344 187.905, 114.932 187.542 C 115.519 187.179, 116.007 187.471, 116.015 188.191 C 116.027 189.167, 116.265 189.130, 116.951 188.045 C 118.409 185.740, 115.106 181.001, 112.034 180.994 L 109.500 180.988 112.364 179.494 C 116.178 177.505, 116.783 177.598, 117.294 180.250 C 117.608 181.877, 117.765 181.600, 117.864 179.250 C 117.995 176.130, 117.848 176, 114.200 176 C 112.110 176, 109.956 176.444, 109.414 176.986 C 108.008 178.392, 88.389 178.392, 82.834 176.986 C 75.736 175.189, 71.031 170, 76.500 170 C 79.907 170, 79.767 167.224, 76.339 166.816 C 74.809 166.634, 73.580 165.809, 73.446 164.874 C 72.777 160.203, 71.786 158.808, 69.452 159.254 C 66.943 159.734, 66 158.456, 66 154.579 C 66 151.629, 68.852 150.389, 78.764 149.032 C 83.124 148.435, 90.090 146.868, 94.243 145.550 C 98.397 144.232, 103.979 142.856, 106.648 142.493 C 115.151 141.335, 115.449 141.141, 112.409 138.750 C 109.876 136.758, 109.837 136.592, 111.592 135.309 C 112.606 134.568, 114.350 132.057, 115.468 129.731 C 116.695 127.175, 118.730 124.885, 120.606 123.947 C 122.314 123.093, 126.028 120.731, 128.858 118.697 C 132.755 115.898, 134.983 115, 138.034 115 C 140.392 115, 142.217 115.518, 142.434 116.250 C 142.638 116.938, 143.335 119.560, 143.984 122.078 C 144.791 125.208, 146.902 128.607, 150.662 132.828 C 153.686 136.222, 156.494 139, 156.902 139 C 157.311 139, 158.856 137.150, 160.337 134.888 C 162.745 131.211, 163.096 129.523, 163.667 118.905 C 164.376 105.721, 164.605 105.265, 171.638 103.055 C 173.914 102.339, 177.059 100.731, 178.627 99.481 L 181.478 97.207 177.562 93.621 C 173.839 90.210, 171.794 88.967, 160.750 83.393 C 155.818 80.903, 154.941 79.620, 157.500 78.638 C 158.325 78.322, 159 77.011, 159 75.726 C 159 74.440, 160.125 71.864, 161.500 70 C 164.358 66.126, 164.651 63.785, 162.500 62 C 161.675 61.315, 161 59.761, 161 58.547 C 161 55.951, 157.580 48.947, 153.895 43.998 C 151.372 40.609, 148 31.767, 148 28.540 C 148 25.900, 140.119 18.189, 136.170 16.965 C 132.539 15.840, 129.267 14.507, 121.500 10.992 C 114.475 7.811, 98.755 6.651, 80 7.928 M 86.184 21.750 C 86.482 24.341, 86.802 24.507, 91.732 24.619 C 94.609 24.684, 99.739 25.052, 103.132 25.435 C 109.645 26.172, 111.188 25.435, 110.293 22.014 C 109.749 19.933, 104.485 19, 93.294 19 L 85.867 19 86.184 21.750 M 127.079 90.060 C 127.035 91.483, 125.651 94, 123.964 95.726 C 121.568 98.177, 121.339 98.724, 122.878 98.322 C 123.951 98.041, 125.715 96.842, 126.799 95.656 C 128.994 93.255, 130.866 88.347, 129.193 89.381 C 128.631 89.728, 127.943 89.447, 127.664 88.756 C 127.386 88.065, 127.122 88.652, 127.079 90.060 M 92.512 97.750 C 92.696 98.713, 92.881 99.751, 92.923 100.058 C 92.966 100.364, 94.757 101.390, 96.905 102.338 C 101.302 104.278, 102.641 106.517, 100.767 108.792 C 99.647 110.152, 100.050 110.256, 104.228 109.687 C 108.826 109.062, 113 107.226, 113 105.829 C 113 105.450, 111.540 105.558, 109.757 106.070 C 105.353 107.333, 104.898 107.113, 108.500 105.464 C 110.175 104.697, 110.775 104.070, 109.859 104.045 C 108.956 104.020, 106.040 102.200, 103.377 100 C 99.973 97.187, 97.593 96, 95.357 96 C 92.867 96, 92.250 96.380, 92.512 97.750 M 110 164.583 L 107.500 165.971 110.333 165.985 C 113.627 166.002, 113.535 168.154, 110.206 168.972 C 108.783 169.322, 108.326 169.927, 108.849 170.766 C 109.457 171.743, 110.592 171.514, 113.811 169.766 C 118.046 167.466, 119.134 166, 116.607 166 C 115.841 166, 114.955 165.325, 114.638 164.500 C 113.958 162.727, 113.326 162.738, 110 164.583 M 86 197.509 C 86 198.802, 99.312 199.022, 100.584 197.750 C 100.996 197.338, 100.696 196.985, 99.917 196.968 C 99.137 196.950, 95.688 196.806, 92.250 196.647 C 88.042 196.453, 86 196.735, 86 197.509 M 43.342 211.767 C 43.021 212.720, 41.913 215.330, 40.880 217.566 C 39.846 219.802, 39.010 222.727, 39.022 224.066 L 39.044 226.500 40.772 224.356 C 41.723 223.178, 43.494 221.916, 44.708 221.552 C 46.640 220.975, 46.891 220.272, 46.708 215.957 C 46.497 210.958, 44.464 208.427, 43.342 211.767 M 150.735 233.250 C 150.365 234.213, 150.300 235.617, 150.589 236.371 C 150.878 237.125, 150.314 238.049, 149.335 238.425 C 147.980 238.945, 147.863 239.298, 148.845 239.904 C 149.988 240.611, 150.653 242.386, 150.939 245.500 C 150.989 246.050, 151.448 245.840, 151.958 245.034 C 152.549 244.100, 152.490 243.090, 151.796 242.254 C 151.059 241.366, 151.022 240.221, 151.681 238.720 C 152.217 237.499, 152.374 235.375, 152.031 234 C 151.507 231.897, 151.301 231.778, 150.735 233.250 M 44.892 241.474 C 44.832 241.488, 44.660 243.642, 44.509 246.260 C 44.263 250.506, 44.483 251.083, 46.538 251.599 C 51.077 252.738, 52.519 251.778, 52.276 247.776 C 52.153 245.747, 52.490 243.815, 53.026 243.484 C 55.080 242.214, 53.824 241.499, 49.497 241.474 C 47.024 241.459, 44.951 241.459, 44.892 241.474 M 121.237 252.527 C 118.356 254.466, 116 256.317, 116 256.640 C 116 258.365, 120.607 265.058, 122.127 265.540 C 123.101 265.849, 124.176 266.979, 124.516 268.051 C 124.856 269.123, 125.603 270, 126.174 270 C 126.746 270, 126.946 270.698, 126.618 271.552 C 126.291 272.406, 126.416 272.861, 126.895 272.565 C 127.803 272.004, 129.456 275.469, 130.588 280.307 C 131.303 283.362, 133.915 285.475, 138.310 286.556 C 140.167 287.012, 140.936 287.724, 140.579 288.655 C 140.251 289.510, 140.939 290.406, 142.328 290.935 C 144.543 291.777, 151.743 303.518, 151.182 305.373 C 151.037 305.853, 151.662 305.960, 152.570 305.611 C 153.765 305.153, 154.062 305.396, 153.643 306.489 C 153.035 308.072, 154.721 308.500, 156.577 307.235 C 158.128 306.178, 148.858 288.214, 147.070 288.810 C 146.310 289.063, 146.005 288.800, 146.372 288.207 C 146.741 287.610, 145.245 286.371, 142.916 285.343 C 139.004 283.617, 136 279.834, 136 276.633 C 136 275.827, 135.438 274.938, 134.750 274.659 C 133.787 274.269, 133.775 273.957, 134.697 273.300 C 135.485 272.739, 135.576 271.943, 134.963 270.974 C 134.450 270.163, 134.021 268.375, 134.009 267 C 133.997 265.625, 133.318 263.216, 132.499 261.646 C 131.680 260.076, 131.260 258.389, 131.564 257.896 C 131.869 257.403, 131.713 257, 131.217 257 C 130.722 257, 129.777 255.200, 129.118 253 C 128.459 250.800, 127.594 249, 127.197 249 C 126.799 249, 124.117 250.587, 121.237 252.527 M 143.681 254.219 C 139.249 255.394, 138.555 256.747, 137.564 266.149 C 137.103 270.517, 137.229 273.023, 137.931 273.458 C 138.519 273.821, 139 273.641, 139 273.059 C 139 272.477, 140.098 272, 141.441 272 C 142.784 272, 144.192 271.498, 144.571 270.885 C 144.990 270.208, 146.979 269.963, 149.630 270.262 L 154 270.754 153.985 264.127 C 153.976 260.482, 153.533 256.825, 153 256 C 152.467 255.175, 152.010 254.950, 151.985 255.500 C 151.960 256.050, 151.481 255.713, 150.920 254.750 C 149.788 252.806, 149.180 252.761, 143.681 254.219 M 43.986 255.991 C 44.457 256.282, 45.173 257.866, 45.579 259.510 C 46.541 263.409, 48.899 267, 50.498 267 C 51.196 267, 52.002 267.900, 52.290 269 C 52.934 271.465, 56 271.665, 56 269.242 C 56 268.275, 54.875 265.371, 53.500 262.788 C 52.125 260.205, 51 257.454, 51 256.674 C 51 255.673, 49.843 255.287, 47.065 255.360 C 44.901 255.416, 43.516 255.701, 43.986 255.991 M 157.667 311.667 C 157.300 312.033, 157 313.571, 157 315.083 C 157 316.596, 156.438 318.060, 155.750 318.338 C 155.003 318.639, 155.205 318.874, 156.250 318.921 C 157.803 318.991, 158.598 316.790, 158.118 313.750 C 158.053 313.337, 158.480 313, 159.067 313 C 159.664 313, 159.867 313.845, 159.527 314.916 C 159.192 315.970, 159.463 317.168, 160.129 317.580 C 160.943 318.083, 161.146 317.822, 160.748 316.786 C 160.423 315.938, 160.680 314.720, 161.320 314.080 C 162.204 313.196, 162.126 312.691, 160.992 311.974 C 159.204 310.844, 158.550 310.783, 157.667 311.667 M 168.664 334.706 C 167.285 335.062, 166.979 335.780, 167.433 337.590 C 167.776 338.956, 167.597 340, 167.019 340 C 166.459 340, 166 340.450, 166 341 C 166 341.550, 167.310 342, 168.912 342 C 171.145 342, 171.745 341.593, 171.488 340.250 C 171.304 339.288, 171.119 338.136, 171.077 337.691 C 171.034 337.246, 170.550 337.160, 170 337.500 C 169.450 337.840, 169 337.641, 169 337.059 C 169 336.477, 169.675 336, 170.500 336 C 171.325 336, 172 335.550, 172 335 C 172 333.955, 171.681 333.927, 168.664 334.706 M 164 350.465 C 164 352.498, 159.988 354.599, 159.039 353.063 C 158.313 351.889, 146.643 352.024, 145.446 353.221 C 144.474 354.192, 155.717 355.308, 159.801 354.645 C 161.832 354.315, 164.057 353.274, 164.747 352.332 C 166.258 350.265, 166.354 349, 165 349 C 164.450 349, 164 349.659, 164 350.465 " stroke="none" fill="black" fill-rule="evenodd"/>
</svg>