<svg xmlns="http://www.w3.org/2000/svg"
        width="190"
        height="382"
        viewBox="0 0 190 382"
        version="1.1">
        <path d="M80 7.928 74.929015625 8.376953125 69.108212890625 9.356212890625 66.11420117187501 10.271044921875 64.805 10.822 61.297250000000005 12.360249999999999 59.456 13 58.52220703125 13.140465087890625 55.96628515625 14.177776123046876 50.976171875000006 17.192646484375 43.745296874999994 22.726025390625 39.20651953125 27.003110595703124 37.16641015625 29.482952880859372 36.555 30.525 35.77423437499999 32.432562499999996 33.932203124999994 38.085562499999995 33.098 41.135 32.540798828125 43.23016796875 31.469755859375 46.40031640625 30.192228515625 48.682558593749995 28.391060546875 50.643707031249996 27.195 51.681 25.788008056640628 52.91676855468749 23.430334716796875 55.399133789062496 21.687491455078124 57.8655849609375 20.56717749023437 60.2797001953125 20.077092041015625 62.6050576171875 20.224934326171873 64.80523535156252 21.018403564453124 66.84381152343752 22.465198974609375 68.6843642578125 23.436 69.519 24.8416875 70.77765625 26.996062499999997 73.70484375000001 27.513 75.058 27.839671875 76.23984375 28.707890625 78.12053125 29.142 78.588 29.366251953125 78.96563476562498 28.958396484375005 80.271826171875 27.815681640625 81.776720703125 26.426451171875 82.837287109375 25.792 83 24.744363281250003 83.375783203125 20.51402734375 85.875552734375 15.085847656250001 89.580712890625 10.438511718750002 93.14060742187499 9.026 94.444 6.551 97.107 12.026 102.01 14.31940625 103.917390625 18.369593750000003 106.553171875 19.628 106.957 20.950236328124998 107.0903828125 22.38840161132812 107.7139580078125 22.994673583984373 108.44543652343751 23.394103515625 110.07360156249999 23.014154296875002 113.35592968750001 22.45 115.525 21.865544921875 117.52416015624999 21.303150390625 120.59154296875 21.799990234375002 124.27345703124999 23.656720703124996 130.79683984375 25.189 135.82 25.799498046875 137.49728515625003 26.849867919921877 139.12785400390624 27.671017822265625 139.62551513671872 29.137505859374997 139.48939453124999 31.643205078125003 137.66343359375003 33.18 136.047 34.663234375 134.22335937499997 36.698578125 130.899703125 37 129.809 37.14286328125 128.240255859375 38.12862109375 124.23731445312498 39.69853515625 120.01879492187498 41.433542968750004 116.710728515625 42.232 115.75 43.25264453125 115.102931640625 46.161589843749994 114.23812304687499 49.37194140625 114.007392578125 51.85713671875 114.484708984375 52.507 115.012 54.599109375 116.78240625000001 62.557328125 121.92596875 64.866 123 66.347125 123.44775000000001 68.747 124.524 69.88495312500001 125.30921289062499 72.306640625 128.025123046875 74.463953125 131.52436132812502 75.806390625 134.914146484375 76 136.289 75.907197265625 136.96869921874998 75.24088867187501 138.25947265624998 74.102783203125 139.30358984375 72.69584960937499 139.91486328125 71.955 140 70.9944375 140.1611171875 69.18018749999999 141.32953906250003 67.70343749999999 143.3583984375 66.7981875 145.92632031250002 66.633 147.312 66.44939062499999 148.69995703125002 65.435296875 151.61396484375 63.879328125 154.18287890624998 62.166234375 155.77163671875 61.371 156 61.02199267578125 156.0811796875 60.310911621093744 156.68596875 59.28338671875 158.47598437500002 58.18726953125 161.88554687500005 57.684871093750004 165.590984375 57.752 167.257 57.84456250000001 168.96273437500003 57.356562499999995 172.06707812500002 56.809 173.257 56.24428125 174.36478125000002 55.38221875000001 177.15821875 55.191 178.5 54.75928125 181.40745312500002 52.94071875 187.597734375 51.96 189.5 51.67490624999999 190.24335937499998 51.37584375 193.173828125 51.399 195 51.43965625 196.829859375 51.25809375 199.785328125 51.058 200.547 51.28 200.58999999999997 52.597 199.223 53.463140625 198.047984375 54.289421874999995 195.610203125 54.228 194.411 54.071640625 193.242125 54.354806640625 192.4418984375 54.947919921875 192.45028906249996 55.381 192.593 56.080798828125 193.019046875 56.860849609375 194.41760937499998 56.82241601562501 196.188546875 55.974591796875 197.904359375 55.25 198.608 54.3214375 199.344890625 54.31343749999999 199.919046875 55.231 199.968 55.7585546875 200.0533984375 56.430601562499994 201.05003906250002 56.626562500000006 206.503125 56.329 214.25 55.991234375000005 220.09884375000001 55.032578125 229.82253125 54.53 232.5 54.139060546875 233.80150976562498 53.411416015625 235.47982617187498 52.349130859374995 236.201845703125 50.463861328125006 236.29953710937502 49.06 236.218 47.181640625 235.98984374999998 43.488296874999996 235.03815625 42.128 234.432 40.844515625 233.67275 40.676046875000004 233.271 41.75 233.531 42.6621171875 233.7398515625 43.730914062500005 233.7190859375 43.7971484375 233.06963281249998 42.866445312500005 231.73861718749998 42.029 230.801 40.902078125 229.645328125 39.993658203125 229.307845703125 39.577537109375 229.98797460937502 39.341 230.593 38.94684375 231.42046875000003 37.78203125 233.02328125000003 37.155 233.601 36.75180078125 234.083703125 36.14049609375 236.229984375 35.58646875 243.724875 35.362 252.601 35.21100195312499 259.85491992187497 34.797583984374995 270.07908789062503 34.051306640625 276.073490234375 32.75101367187501 279.616283203125 31.824 281.024 31.189626953125 281.97054296875 30.297708984375 284.18809765624997 29.622234375 290.22790625000005 29.396 297.543 29.175281249999998 305.333625 28.436683593749997 311.00186718749995 27.29826953125 312.80819531249995 26.439 313.644 25.575912109375 314.473412109375 24.471814453125003 316.104533203125 23.988890625000003 320.697328125 24.152 326.913 24.318470703125 330.92307421875 24.936740234374998 336.47075390624997 25.927375244140624 339.0929663085937 26.970752685546877 340.40602001953124 29.286294921875 342.11970703125 31.433 343.323 32.74808984375 343.982845703125 35.41651953125 344.862896484375 41.810843750000004 345.331546875 49.454 345.269 55.175349609375004 345.155248046875 61.15881811523438 344.71400854492185 63.742509033203135 344.0070021972656 65.46363549804688 342.78376733398443 66.54648266601563 340.88491723632814 67.46460351562502 336.421205078125 67.933 332.136 68.46603125 327.8068125 69.38012890625 323.55635156249997 70.11319921874998 322.0263046875 70.529 321.603 71.226984375 320.86565625000003 71.874078125 318.55284375 71.829 316.956 71.707505859375 315.88524414062505 71.302939453125 314.416435546875 70.41879492187502 313.60120507812496 68.738103515625 313.147521484375 67.5 312.965 65.76626367187501 312.69366796875 63.178119140625014 312.03156640625 61.757958984375 311.20755859375 61.500439453125 310.21845703125 61.806 309.661 62.844625 307.44575 64.073 303.75 64.50997070312499 302.283478515625 65.29114648437499 300.314794921875 66.22621289062499 299.34356445312505 67.648263671875 299.023755859375 68.646 299 70.00190234375 298.83099609375 72.56455078124999 297.61530078124997 74.62816796875 295.5323242187499 75.83256640625001 292.94562890625 76 291.577 76.1578125 290.431015625 77.2234375 287.193296875 78 285.5 78.7765625 283.64996875 79.8421875 279.35440625 80 277.438 80.06404370117188 275.7019897460937 80.55573461914064 272.3582075195312 81.48632202148438 269.2521870117187 82.80071606445313 266.46406103515625 84.44382690429686 264.0739624023438 86.36056469726563 262.16202392578134 88.49583959960937 260.8083784179688 90.79456176757813 260.0931586914063 91.988 260 93.0294609375 260.042517578125 94.8661015625 260.455255859375 97.650125 262.25660937500004 100.027 264.528 102.36965625 266.78324999999995 104.86979296875 268.42026562500007 106.31209765624999 268.60035937500004 107.082 268.482 108.08670312500001 268.31741796875 109.961015625 268.91291015625 112.608953125 271.77049609375 117.175015625 278.12523828125 120.535 283 123.49740625000001 287.03914062499996 131.30434375000002 296.556671875 135.187 300.863 138.608859375 304.595921875 143.304578125 310.241140625 144 311.458 143.8421875 312.07942187500004 142.7765625 313.70026562500004 142 314.5 141.2234375 315.383703125 140.1578125 317.571109375 140 318.605 139.89776562499998 319.55954687499997 139.207296875 321.208390625 138.704 321.7 137.336453125 323.22117187500004 133.732484375 328.778640625 133 330.495 133.66075 330.728875 135.25 330.755 137.52993750000002 330.6579296875 140.61371875 330.82003906250003 142.15999999999997 331.7030859375 142.68553125 333.60219531250004 142.727 335.025 142.662296875 336.62806249999994 142.225390625 339.0429375 141.907 339.557 141.6215625 339.850015625 141.4069375 340.769046875 141.504 341.282 141.48671875 341.6047128906249 140.8869375 342.61693554687497 138.8540625 344.74235937500004 136.961 346.323 134.79703124999997 348.129015625 132.70168359374998 350.469455078125 132.07814453125002 351.77595898437505 132 352.351 131.871984375 353.3895625 131.00732812500002 355.7985625 130.377 356.872 129.648078125 358.19746875 129.171984375 361.50503125 129.383 363.78 129.807546875 366.404302734375 130.690197265625 369.32068725585935 131.593044921875 370.7075852050781 132.867845703125 371.7467468261719 134.617818359375 372.52230102539056 138.35951562499997 373.375400390625 141.749 373.86 147.19984570312502 374.482615234375 156.55264648437497 375.05111132812505 164.070337890625 374.706904296875 170.02901367187496 373.437525390625 172.51 372.452 174.43398828124998 371.48691992187497 177.11065234375002 369.68740039062493 178.43947265625 367.750115234375 178.67713671875003 365.30072070312497 178.467 363.767 178.36159375000003 362.42209375 179.10853125 360.08178125 179.983 359.017 180.53032421875 358.40646557617185 181.35630859375001 357.0568830566406 181.81938671875002 355.50082202148434 181.91393359375002 353.6961301269531 181.35245312500004 350.430701171875 179.261453125 344.81316601562503 177.628 341.368 175.4873125 336.88267187499997 173.97046093749998 332.579669921875 173.88032031249998 330.652134765625 174.058 329.797 174.33984375 328.44821875 174.03240625 326.38065625 173.43 325.573 172.419875 324.36699999999996 172 323.476 171.37537500000002 322.127625 169.874 319.823 168.81059374999998 318.18550000000005 168.32237890624998 316.38128125000003 168.66510546875003 315.17784375 169.019 314.464 169.60473437500002 313.15521875 169.42695312499998 310.93853125000004 168.625 309.551 167.715453125 308.45421875 165.04960937500002 306.35740625000005 163.622 305.615 160.283 304.22 159.06 293.142 158.61184375 287.809625 158.27278125 275.77650000000006 158.413 270.182 158.67659375000002 263.62878125000003 158.39481640625002 258.65315234375 157.60266796874998 257.10630078125 156.986 256.487 156.121171875 255.493265625 154.467265625 252.57017187499997 153.882 251.001 152.781 247.327 149.179 249.164 147.605109375 249.87696874999997 144.501953125 250.85515625 143.355 251 142.731052734375 250.97084765625 141.843861328125 250.68201171875 141.22551562499999 249.39434375 141.141 247.75 141.233015625 246.30559375 141.83892187499998 243.34028125 142.278 242.185 142.768640625 241.006078125 142.618171875 239.505109375 141.954 238.95 141.24625000000003 238.465125 141.26662500000003 237.99824999999998 142 237.897 143.279875 237.837 144.25 237.882 144.60417382812503 237.85905468750002 144.96288085937502 237.3941015625 144.88110351562503 236.6150859375 144.389685546875 235.81563281249998 144 235.5 143.61171875 235.34103125000001 143.07890625 235.55934375 143 235.91 142.88410937499998 236.264453125 142.101828125 236.511734375 141.532 236.374 140.9684375 236.10337499999997 140.23206249999998 235.45374999999999 140.15 235.155 140.24961132812498 234.09786132812502 140.13584960937504 232.50272460937504 139.601103515625 231.593603515625 138.64096679687503 231.36309179687498 138 231.5 137.157625 231.684453125 136.135875 231.383984375 136 230.912 135.802734375 230.17834375 134.470703125 227.78028124999997 133.5 226.411 132.529296875 225.00928125000002 131.197265625 222.39221875 131 221.499 130.973087890625 221.08258984375001 130.73659179687502 220.52126953125 129.819171875 220.31409375 128.75 220.565 127.84985937500001 220.9051875 126.473703125 221.74006250000002 126.167 222.132 125.92548437500001 222.468859375 124.99320312500001 222.93145312500002 124.417 223 123.86695312500001 223.118359375 123.111859375 223.917578125 123 224.5 123.11430859375 225.10308984375 123.86895703125 225.83892578125 124.96982421874999 225.92123046875 125.99072265625 225.31831640625 126.338 224.75 126.552703125 224.35062499999998 126.853109375 224.582375 126.921 225.2 126.820875 225.93320312499998 125.981625 227.332859375 125.346 227.827 124.651703125 228.3518125 124.215234375 229.7333125 124.462 230.626 124.826015625 231.359828125 125.44792187499999 231.673234375 125.7 231.25 125.9885078125 230.65125781249998 126.64717968750001 230.0574296875 127.24941406250001 230.2231640625 127.5968359375 231.0940859375 127.613 231.777 127.42625195312499 232.81937353515625 126.36282617187499 234.80173388671872 124.43629101562499 236.62423876953125 121.71480273437498 238.25888037109377 118.26651757812499 239.67765087890626 114.159591796875 240.85254248046874 106.91334375000001 242.09633984375 101.458 242.539 96.805734375 242.715796875 93.594474609375 242.38102148437503 93.039611328125 241.587095703125 93 240.975 93.07890625 240.20825000000002 93.61171875 239.155875 94 239 94.38828125 239.07890625 94.92109375 239.61171875 95 240 95.2905 240.37306445312498 97.35659375 240.85224023437502 102.87893749999999 240.864421875 107.173 240.371 108.887953125 240.0050625 110.20703320312501 239.29103906249998 110.363099609375 238.62674218749999 110.253 238.218 110.07859375 237.614640625 110.33540624999999 237.169921875 110.755 237.349 111.383625 237.518953125 113.341375 237.253234375 114.429 236.85 115.44590234374999 236.47042578125 117.09851953124999 236.26608984375 117.95210546875 236.66541015624998 117.65772265625 237.50507421875 116.971 238.039 116.37759375000002 238.461171875 116.28165625000001 238.924515625 116.775 238.985 117.34484375 238.793453125 118.53028125 237.46948437499998 119 236.5 119.536140625 235.463484375 121.069296875 234.17532812500002 121.975 234 122.76137499999999 233.92109375 123.84025 233.38828125 124 233 123.85934375 232.449484375 122.61203125 231.997203125 121.424 232.066 120.458 231.4665 118.943 229.934 118.28795507812501 229.25376562500003 116.60713085937499 228.32960937500002 111.077984375 227.7065 103.768 227.545 98.71789648437502 227.532111328125 91.08364257812501 227.938380859375 87.31461791992189 228.66657446289065 85.63794555664063 229.37534252929686 84.57051342773437 230.27622192382813 84.06126293945312 231.38075561523442 84 232.013 83.9239248046875 232.79168750000002 83.3569306640625 233.7915546875 82.32927246093752 234.09917187500002 80.95190332031251 233.7758515625 78.47285156250001 232.24198437500002 74.97902343749999 228.56079687500002 73.401 226.157 72.594169921875 224.691013671875 71.50743164062499 222.09274414062503 70.876640625 217.247703125 70.875 212 71.0181875 207.18854687500001 71.567890625 203.03854492187503 72.273578125 201.65207226562498 72.758 201.202 73.57235937499999 200.73389062500002 75.432828125 200.28442187500002 76.25 200.358 76.89324609375 200.41908984375002 77.76667578124999 199.94783203125002 78.00982421875 198.99704296875 77.52725390625 197.94078515625003 76.984 197.49 76.56941772460937 197.19921093750003 76.1677707519531 196.67535937500003 76.629150390625 196.03495312500002 79.21633398437501 195.455390625 84.037908203125 195.19345312500002 87.28 195.183 94.72607421875 195.22563476562502 105.18131640625 195.08960742187503 110.93490234375 194.543283203125 113.04114404296875 193.78109790039062 113.73492431640625 193.07273510742186 113.937 192.652 114.21323437499998 191.72559375000003 114.406828125 189.96690625000002 114.3 189.351 114.2148125 188.852765625 114.55143749999999 187.888921875 114.932 187.542 115.34773437500002 187.389015625 115.924953125 187.734796875 116.015 188.191 116.06984375 188.73251562500002 116.51703125 188.662796875 116.951 188.045 117.16980078125 187.58603857421875 117.30189453125001 186.53896337890626 116.84595312500001 184.80292578125 115.324203125 182.62029296875 113.187078125 181.20444140625 112.034 180.994 109.5 180.988 112.364 179.494 113.64991210937501 178.84665039062503 115.465220703125 178.15987304687502 116.515201171875 178.320923828125 117.091884765625 179.374521484375 117.294 180.25 117.50160937499999 181.11060937500002 117.777328125 180.626453125 117.864 179.25 117.893798828125 178.21457031249997 117.72413085937501 176.8505859375 116.996978515625 176.20566406249998 115.410185546875 176.01167968750002 114.2 176 112.6466875 176.07784375 110.0965625 176.60328124999998 109.414 176.986 108.94482153320311 177.23314843749998 106.91498608398437 177.62858593750002 101.850748046875 177.97459375000003 93.31451757812499 177.97459375000003 85.51333398437501 177.44734375000002 82.834 176.986 80.299619140625 176.169884765625 76.26862304687499 173.985888671875 74.51245629882813 172.2610461425781 74.11601928710938 171.25834350585933 74.44543579101563 170.4907131347656 75.59188940429686 170.05871362304686 76.5 170 77.61186523437499 169.879921875 78.85014257812499 169.100140625 78.794716796875 168.002734375 77.469869140625 167.069953125 76.339 166.816 75.26034375 166.567265625 73.73940625 165.546296875 73.446 164.874 73.178037109375 163.273134765625 72.503689453125 160.92551367187497 71.565013671875 159.60459570312497 70.266291015625 159.175849609375 69.452 159.254 68.58331445312498 159.34995117187498 67.25717773437499 159.007994140625 66.430681640625 157.88852148437496 66.04541992187501 155.91268945312498 66 154.579 66.14190625 153.549337890625 67.42509375 151.88531054687502 70.36953125 150.605611328125 75.36971874999999 149.53895898437503 78.764 149.032 82.43795312499999 148.421421875 90.68548437499999 146.566140625 94.243 145.55 97.558421875 144.56735937500002 104.16789062500001 142.93845312499997 106.648 142.493 109.461521484375 142.097763671875 113.009048828125 141.43024414062498 114.07469409179687 140.89133178710935 114.13254125976562 140.4443762207031 113.38302539062502 139.54981445312498 112.409 138.75 110.96593750000002 137.55239062500002 110.41138281250002 136.436337890625 111.01933593749999 135.743513671875 111.592 135.309 112.4681875 134.45192187499998 114.53331250000001 131.479640625 115.468 129.731 116.524640625 127.88084375 119.184296875 124.88703125 120.606 123.947 124.31125 121.7645 128.858 118.697 131.50674999999998 116.93851562500001 134.8174140625 115.431736328125 136.9235859375 115.04405273437501 138.034 115 139.68576562500002 115.092375 141.986546875 115.74587500000001 142.434 116.25 143.042125 118.47774999999999 143.984 122.078 144.348423828125 123.265439453125 145.460193359375 125.74189648437499 148.14579687499997 129.807734375 150.662 132.828 152.855375 135.22421874999998 156.180125 138.51290625 156.902 139 157.40300000000002 138.67559375000002 159.233 136.48478125000003 160.337 134.888 161.14802539062498 133.581033203125 162.29827929687502 131.014677734375 163.244421875 125.36473437500001 163.667 118.905 163.9246015625 114.52933984375001 164.6462421875 108.67892578125 165.7042080078125 106.16117138671873 166.8156318359375 105.05496337890624 169.3053359375 103.82981640625 171.638 103.055 173.46971875 102.37028125 177.19353125 100.46609375 178.627 99.481 181.478 97.207 177.562 93.621 176.22367773437503 92.430806640625 173.51848632812505 90.355529296875 167.512515625 86.862984375 160.75 83.393 159.089369140625 82.51405859375001 156.879560546875 81.05317578125002 156.103330078125 79.91751171875 156.702646484375 79.02212890625 157.5 78.638 158.082421875 78.230390625 158.881640625 76.678671875 159 75.726 159.197265625 74.55090625 160.529296875 71.50021875 161.5 70 162.45175195312498 68.617201171875 163.639521484375 66.23696289062501 163.882431640625 64.294208984375 163.19182617187502 62.697345703125 162.5 62 161.917578125 61.342203125 161.118359375 59.502359375 161 58.547 160.845849609375 57.379498046875 159.72356445312502 54.10769726562499 157.76245117187506 50.091755859375 155.25829101562505 45.937580078124995 153.895 43.998 152.91732226562502 42.49313281250001 150.92104492187505 38.4685546875 149.19997070312502 33.955539062499994 148.149818359375 29.991710937500002 148 28.54 147.9105285644531 27.98839599609375 147.2466696777344 26.59635595703125 145.29815429687503 24.04017578125 141.648486328125 20.469199218749996 137.81211523437497 17.70550390625 136.17 16.965 133.43821874999998 16.05140625 126.55828125 13.24996875 121.5 10.992 120.08229980468751 10.419347656250002 116.6686962890625 9.41858203125 110.22714843749999 8.287921875 99.5205078125 7.497546874999999 86.8798046875 7.562546875000001 80 7.928 M86.184 21.75 86.30574218749999 22.612583984375 86.7704765625 23.766861328124996 87.88864843750001 24.345185546874998 90.0903828125 24.569837890625003 91.732 24.619 97.23850000000002 24.90775 103.132 25.435 105.34635156249999 25.639917968749998 108.4959296875 25.578472656249996 110.13782031249998 24.79412109375 110.5093984375 23.173425781250003 110.293 22.014 110.13539282226564 21.637213134765624 109.48123120117188 20.963098388671874 107.62609960937499 20.145849609375 103.447072265625 19.404947265624997 97.215154296875 19.044154296875 93.294 19 85.867 19 86.184 21.75 " fill="rgb(179, 179, 179)" fill-rule="evenodd" />
      </svg>