<?xml version="1.0" encoding="utf-8"?>
<!-- Generator: Adobe Illustrator 21.1.0, SVG Export Plug-In . SVG Version: 6.00 Build 0)  -->
<svg version="1.1" id="Calque_1" xmlns="http://www.w3.org/2000/svg" xmlns:xlink="http://www.w3.org/1999/xlink" x="0px" y="0px"
	 viewBox="0 0 432 432" style="enable-background:new 0 0 432 432;" xml:space="preserve">
<style type="text/css">
	.st0{fill:#AE3034;}
	.st1{fill:#3E904D;}
	.st2{fill:#F7EB5B;}
	.st3{fill:#221F20;}
	.st4{fill:#BC9A72;}
	.st5{fill:#FFFFFF;}
	.st6{fill:#E9963E;}
	.st7{fill:#EFB156;}
	.st8{fill:#5EB057;}
	.st9{fill:#A27D56;}
	.st10{fill:#BD8346;}
	.st11{fill:#DD658D;}
	.st12{fill:#404041;}
	.st13{fill:#81BF8E;}
	.st14{fill:#ED7E87;}
	.st15{fill:#B0202B;}
	.st16{fill:#BA9453;}
	.st17{fill:#B99352;}
	.st18{fill:#45A49C;}
	.st19{fill:#59B178;}
	.st20{fill:#C9A25F;}
	.st21{fill:#BCBDBF;}
	.st22{fill:#C7345D;}
	.st23{fill:#2E3192;}
	.st24{fill:#8CC63F;}
	.st25{fill:#22B573;}
	.st26{fill:#333333;}
	.st27{fill:#B1A097;}
	.st28{fill:#574B43;}
	.st29{fill:#85328A;}
	.st30{fill:#53A7DB;}
	.st31{fill:#912D61;}
	.st32{fill:#835F41;}
	.st33{fill:#929496;}
	.st34{fill:#808080;}
	.st35{fill:#6F4E2F;}
	.st36{fill:#A6A8AA;}
	.st37{fill:#DF643A;}
	.st38{fill:#98C355;}
	.st39{fill:#D35998;}
	.st40{fill:#6F665A;}
	.st41{fill:#BFB49D;}
	.st42{fill:#AE82B3;}
	.st43{fill:#B3B3B3;}
	.st44{fill:#5E328B;}
	.st45{fill:#DA404D;}
	.st46{fill:#A994C1;}
	.st47{fill:#8B575B;}
	.st48{fill:#C9C0AF;}
	.st49{fill:#A67C52;}
	.st50{fill:#86A391;}
	.st51{fill:#6595A9;}
	.st52{fill:#483E49;}
	.st53{fill:#F6BA00;}
	.st54{fill:#FC8080;}
	.st55{fill:#1A1A1A;}
	.st56{fill:#749FA8;}
	.st57{fill:#ABC337;}
	.st58{fill:#F67E20;}
	.st59{fill:#52A9B2;}
	.st60{fill:#925A8B;}
	.st61{fill:#DD8383;}
	.st62{fill:#929C3B;}
	.st63{fill:#4D4D4D;}
	.st64{fill:#C69C6D;}
	.st65{fill:#DBB753;}
	.st66{fill:#9EB9B4;}
	.st67{fill:#F2F2F2;}
	.st68{fill:#E2C87F;}
	.st69{fill:#E8BDC4;}
	.st70{fill:#D86D29;}
	.st71{fill:#E0CDAD;}
	.st72{fill:#E6E6E6;}
	.st73{fill:#CCD6CE;}
	.st74{fill:#9FD3C7;}
	.st75{fill-rule:evenodd;clip-rule:evenodd;}
	.st76{fill:#E5BE51;}
	.st77{fill:#B3A693;}
	.st78{fill:#717370;}
	.st79{fill:#9FB14D;}
	.st80{fill:#736357;}
	.st81{fill:#51642D;}
	.st82{fill:#743315;}
	.st83{fill:#0071BC;}
	.st84{fill:#9C1B20;}
	.st85{fill:#009245;}
	.st86{fill:#F6E6CC;}
	.st87{fill:#84CBCB;}
	.st88{fill:#7D9B39;}
	.st89{fill:#3C4E5C;}
	.st90{fill:#998675;}
	.st91{fill:#C7B299;}
	.st92{fill:#9B2F10;}
	.st93{fill:#E7A136;}
	.st94{fill:#978E43;}
	.st95{fill:#7D5E18;}
	.st96{fill:#F2C545;}
	.st97{fill:#E07D28;}
	.st98{fill:#E0D2BE;}
	.st99{fill:#C4A18D;}
	.st100{fill:#BCBD84;}
	.st101{fill:#5F645E;}
	.st102{fill:#CAC2C2;}
	.st103{fill:#959736;}
	.st104{fill:#B0D24A;}
	.st105{fill:#754C24;}
	.st106{fill:#603813;}
	.st107{fill:#8C4A33;}
	.st108{fill:#0B493A;}
	.st109{fill:#C17953;}
	.st110{fill:#F7C64D;}
	.st111{fill:#005371;}
	.st112{fill:#D3E2DC;}
	.st113{fill:#3E8A64;}
	.st114{fill:#299798;}
	.st115{fill:#731115;}
	.st116{fill:#4F4544;}
	.st117{fill:#4C6047;}
	.st118{fill:#4C301C;}
	.st119{fill:#867274;}
	.st120{fill:#C13F47;}
	.st121{fill:#BC8AA8;}
	.st122{fill:#634E42;}
	.st123{fill:#E1B8D7;}
	.st124{fill:#6D866B;}
	.st125{fill:#422918;}
	.st126{fill:#925F36;}
	.st127{fill:#1D1D1B;}
	.st128{fill:#00A099;}
	.st129{fill:#F8B133;}
	.st130{fill:#006633;}
	.st131{fill:#683B11;}
	.st132{fill:#B17F49;}
	.st133{fill:#A3897A;}
	.st134{fill:#E488B5;}
	.st135{fill:#93C01F;}
	.st136{fill:#EDE287;}
	.st137{fill:#E9CB9A;}
	.st138{fill:#EAB8CC;}
	.st139{fill:#7E4E24;}
	.st140{fill:#E5332A;}
	.st141{fill:#F29100;}
</style>
<g>
	<path d="M283.7,108c-0.2-1.1-0.3-2.2-0.5-3.4c-0.6-4.2-1.3-8.4-1.8-12.7c-0.5-4.4-0.5-8.9,0.5-13.2c0.4-1.8,1-3.6,1.9-5.2
		c0.2-0.3,0.4-0.7,0.6-1c2.7-4.2,6.9-4.3,10.2-2.4c1.1,0.7,2.2,1.5,3.2,2.4c2.6,2.4,4.4,5.4,6,8.5c2.5,5.2,4.3,10.6,5.7,16.2
		c1.4,5.5,2.4,11.1,3.3,16.8c0.9,5.5,1.7,11.1,2.6,16.6c0.5,3.4,1.2,6.8,2.3,10.1c0.3,0.9,0.7,1.8,1.1,2.6c0.9,2,2.5,3.4,4.6,4
		c1.7,0.5,3.4,0.8,5.1,1.1c3,0.6,6,1.4,8.8,2.5c4.7,1.8,8.7,4.7,12.1,8.4c5.5,6.1,9.6,13.1,12.4,20.9c0.8,2.3,1.8,4.6,2.7,6.9
		c1,2.4,2.5,4.5,4.4,6.3c1.5,1.4,2.9,2.9,4.1,4.6c2,2.9,3.1,6.2,2.8,9.8c-0.3,2.8-1.2,5.4-2.6,7.8c-3.2,5.2-7.1,9.7-12,13.4
		c-3.7,2.8-7.8,4.1-12.4,4.4c-3.2,0.2-6.3,0.7-9.3,1.5c-0.6,0.2-1.1,0.4-1.7,0.6c-2.2,0.9-3.6,2.5-4.2,4.8c-0.6,2.4-0.5,4.7-0.1,7.1
		c0.4,1.9,0.8,3.8,1.4,5.7c1.3,4.3,1.7,8.6,1.5,13.1c-0.2,5.1-1.2,10.1-3.3,14.8c-2.2,4.6-3.6,9.5-4.5,14.5
		c-0.6,3.3-1.8,6.4-3.4,9.4c-1.8,3.5-4.3,6.2-7.6,8.2c-1,0.7-2.1,1.3-3.2,1.9c-1.6,1-3.1,2.3-4.2,3.9c-1.5,2.1-1.9,4.4-1.4,7
		c0.7,2.9,2.1,5.5,4.2,7.6c1.6,1.5,3.2,3,4.9,4.5c3.2,2.8,6.3,5.8,9.1,9c1.1,1.3,2.2,2.7,2.9,4.3c0.4,1,0.7,1.9,0.8,3
		c0.1,1.8-0.6,3.3-2.2,4.2c-0.9,0.5-1.9,0.9-2.9,1.2c-3,0.8-6,1.1-9.1,1.3c-7.9,0.5-15.6-0.6-23.1-3.1c-4.2-1.4-8.4-2.9-12.6-4.5
		c-5.8-2.3-11.2-5.5-16.3-9c-1.7-1.2-3.4-2.3-5.2-3.3c-1.8-1.1-3.8-1.7-5.9-1.8c-1.7-0.1-3.4,0.2-5.1,0.8c-1.2,0.4-2.5,0.8-3.7,1.4
		c-4.6,2-9.5,3.4-14.5,4.4c-0.7,0.2-1.5,0.4-2.1,0.7c-1,0.4-1.3,1.1-0.9,2.1c0.3,0.8,0.7,1.5,1.2,2.2c0.6,1,1.3,2,1.9,3.1
		c0.8,1.5,1.3,3,1.3,4.7c-0.1,2.4-1.1,4.3-3.1,5.6c-1.7,1-3.5,1.6-5.4,2c-3.3,0.6-6.6,0.9-9.9,1c-8.8,0.1-17.7,0.1-26.5,0.1
		c-7,0-14.1-0.1-21.1-0.7c-7.5-0.7-15-1.6-22.3-3.9c-2.5-0.8-5-1.7-7.3-2.9c-2.9-1.5-5.9-2.9-8.9-4.3c-6.5-3.1-12.1-7.4-16.5-13.2
		c-1.1-1.4-2.1-2.8-3.3-4.1c-3-3.5-6.7-5-11.4-3.9c-1.9,0.5-3.8,0.9-5.8,1.1c-3.5,0.4-7-0.1-10.3-1.4c-4.9-1.9-9-4.7-12.4-8.8
		c-2.1-2.5-4.1-5-5.8-7.8c-3.2-5.4-5-11.1-5.6-17.3c-1-12.1,2-23.1,9-32.9c2.7-3.9,6.2-6.9,10.4-9.2c1.1-0.6,2-1.3,3-2
		c2.4-1.6,4.9-2.7,7.7-3.3c3.4-0.8,6.6-0.4,9.7,1.2c0.8,0.4,1.5,0.8,2.3,1.2c1.1,0.6,2.2,0.5,3.2-0.1c0.5-0.3,1-0.7,1.5-1.1
		c1.8-1.5,3.4-3.2,4.4-5.4c1.1-2.4,2.4-4.7,3.5-7.1c3-6.3,7-12.1,11.5-17.5c2.7-3.3,5.5-6.6,8.5-9.6c7.3-7.2,15.8-12.6,25.2-16.5
		c6-2.5,12.1-4.6,18.4-5.8c3.5-0.7,7-1.2,10.6-1.2c3.2-0.1,6.4,0.3,9.6,0.8c5.9,0.9,11.5,2.7,17.1,4.5c6.6,2.1,13.3,4.3,20,6
		c1.3,0.3,2.5,0.6,3.8,0.8c1.8,0.3,3.6,0,5.2-0.8c1.5-0.7,2.9-1.7,4.2-2.8c2.3-2,4.6-4.1,6.8-6.2c0.8-0.7,1.5-1.6,2.2-2.4
		c2.2-2.6,3.6-5.6,4.2-9c0.9-4.9,1.7-9.9,2-14.9c0.1-2.9,0.2-5.7,0.1-8.6c-0.2-6.9-1.9-13.3-5.3-19.3c-1.9-3.4-3.8-6.7-5.7-10
		c-2.6-4.6-5.2-9.2-7.2-14.1c-2.3-5.7-4.2-11.5-5.1-17.6c-0.4-2.3-0.6-4.7-0.7-7c-0.1-2.1-0.2-4.2-0.1-6.4c0.1-3.6,0.4-7.2,1.3-10.7
		c0.3-1,0.6-2,1-3c0.2-0.6,0.5-1.2,0.9-1.8c1.7-2.8,4.3-3.9,7.4-3.1c2.7,0.6,4.9,2,7,3.8c2.2,1.8,4,3.8,5.6,6.1
		c2.9,4.3,5.7,8.6,8.5,12.9c1.7,2.7,3.3,5.4,4.9,8.1c2.4,3.8,5.2,7.3,8.4,10.4c0.5,0.5,1.1,1,1.7,1.5c0.1,0.1,0.3,0.2,0.4,0.2
		C283.6,108,283.7,108,283.7,108z M281.9,199.1c1-0.6,2-1.2,2.9-1.8c2.8-1.7,5.3-3.9,7.1-6.6c1.1-1.6,2-3.3,2.9-5
		c2-3.8,2.9-7.9,2.9-12.2c0-1.6-0.2-3.2-0.8-4.7c-0.3-0.6-0.6-1.2-1.1-1.7c-0.5-0.6-1.1-0.8-1.9-0.5c-0.7,0.2-1.1,0.8-1.1,1.5
		c-0.1,0.8-0.1,1.6,0,2.4c0.1,0.9,0.4,1.8,0.6,2.8c0.3,1.4,0.6,2.8,0.7,4.2c0.2,3.5-0.9,6.6-2.9,9.5c-2.5,3.5-5.4,6.6-8.7,9.3
		c-0.3,0.2-0.6,0.4-1,0.7c-0.2-1-0.4-1.9-0.7-2.7c-0.5-1.6-1-3.3-1.5-4.8c-0.4-1.2-1.1-2.2-2.1-3.1c-1.4-1.2-3.1-1.2-4.4,0.1
		c-0.4,0.4-0.7,0.8-0.9,1.3c-0.4,0.9-0.7,1.8-0.9,2.7c-0.5,2.4-0.3,4.7-0.2,7.1c0.1,1.3,0.2,2.5,0.3,3.8c-1,0.5-2,0.8-2.8,1.3
		c-1.3,0.7-2.5,1.6-3.7,2.4c-0.5,0.3-0.8,0.9-1.1,1.4c-0.3,0.4-0.2,0.9,0.1,1.3c0.3,0.3,0.8,0.5,1.3,0.3c0.4-0.1,0.7-0.3,1.1-0.5
		c1-0.6,2-1.2,3.1-1.7c0.7-0.4,1.5-0.7,2.3-1.1c0.1,0.3,0.2,0.5,0.2,0.6c0.1,1.2,0.3,2.3,0.4,3.5c0.4,4.1,0.9,8.2,1.3,12.4
		c0.3,3.5,0.4,7,0.1,10.5c-0.1,1.7-0.3,3.4-0.9,5.1c-0.3,0.8-0.5,1.5-1.2,2.2c-0.1-0.3-0.2-0.5-0.2-0.7c-0.8-3.5-1.7-7-2.5-10.5
		c-0.7-2.9-1.6-5.7-2.9-8.4c-0.5-1-1.1-2-2-2.8c-1.8-1.7-4-1.7-5.9,0c-1,0.9-1.7,2-2.1,3.2c-0.4,1.2-0.8,2.4-1,3.7
		c-0.7,3.9-1.8,7.7-3.5,11.4c-0.1,0.2-0.2,0.3-0.4,0.6c-0.1-0.4-0.2-0.6-0.2-0.8c-0.5-2.5-1.3-4.9-2.6-7.1c-0.8-1.4-1.9-2.6-3.2-3.5
		c-2.5-1.7-5-1.7-7.5-0.2c-1.2,0.7-2.1,1.6-2.9,2.7c-1.6,2-2.8,4.2-3.8,6.6c-0.1,0.3-0.3,0.6-0.5,1.1c-0.1-0.3-0.2-0.5-0.3-0.6
		c-0.7-2-1.4-4-2.1-6c-0.3-0.9-0.3-1.6,0.1-2.4c1.2-2.6,2.1-5.3,2.2-8.2c0.1-2.9-0.5-5.6-2-8c-0.6-0.9-1.3-1.7-2.2-2.3
		c-1.5-0.9-3.2-0.8-4.6,0.3c-0.8,0.7-1.5,1.5-1.9,2.5c-0.4,1.1-0.8,2.3-1.1,3.4c-0.7,3.8-0.4,7.7,0.3,11.5c0.6,3.8,1.8,7.4,3.2,11
		c0.2,0.7,0.2,1.1-0.3,1.7c-2,2.5-4.3,4.8-6.7,7c-0.7,0.7-1.6,1.2-2.5,1.7c-0.1-0.8-0.1-1.4-0.2-2.1c-0.3-2.6-0.9-5.1-1.9-7.4
		c-0.5-1.1-1.1-2.2-2.1-3.1c-1.7-1.7-3.9-2-6-0.9c-0.7,0.3-1.3,0.7-1.9,1.2c-1,1-2,2-2.8,3.1c-1.3,1.8-2.2,3.8-3,5.9
		c-0.1,0.3-0.2,0.5-0.4,0.9c-0.1-0.3-0.2-0.3-0.2-0.4c-0.7-3-1.4-6-2.2-8.9c-0.1-0.5,0-0.9,0.2-1.4c1.5-2.7,2.9-5.5,3.9-8.4
		c0.9-2.6,1.5-5.2,1.6-7.9c0.1-3.4-1.1-6.3-3.8-8.5c-2.6-2.1-5.6-1.8-8,0.5c-1.2,1.2-2,2.6-2.6,4.1c-0.9,2.3-1.3,4.7-1.3,7.2
		c-0.1,4.5,0.6,9,1.8,13.3c1.1,3.7,2.3,7.3,3.5,11c0.1,0.4,0.2,0.8,0.2,1.2c-0.3,3.6-0.5,7.1-0.9,10.7c-0.2,2.1-0.6,4.3-1,6.4
		c-0.1,0.7-0.4,1.4-1,1.9c-0.1-0.2-0.3-0.4-0.3-0.6c-0.4-1.2-0.9-2.4-1.2-3.6c-1-3.7-1.8-7.5-2.8-11.2c-0.7-2.7-1.6-5.4-2.5-8
		c-0.6-1.6-1.4-3-2.7-4.1c-2.3-2.1-5.3-1.2-6.1,1.8c-0.1,0.4-0.1,0.9-0.2,1.4c0,0.2,0,0.4-0.1,0.6c-1-0.4-1.9-0.8-2.9-1.1
		c-2.7-0.8-5-0.1-6.9,2c-0.9,1-1.5,2.1-2,3.4c-1.5,3.9-1.9,7.9-1.4,12c0.1,1.2,0.4,2.4,0.2,3.6c-0.4,2.7-0.8,5.4-1.2,8
		c-0.3,2.2-0.7,4.3-1.6,6.3c-0.3,0.7-0.7,1.5-1.2,2.1c-0.4,0.6-1.1,0.6-1.6,0.1c-0.3-0.3-0.5-0.6-0.6-1c-0.3-0.8-0.6-1.5-0.8-2.3
		c-0.6-2.4-0.7-4.8-0.5-7.3c0.2-3.5,0.2-7-0.1-10.5c-0.1-1.5-0.3-3-0.6-4.6c-0.3-1.6-0.8-3.1-1.6-4.5c-1.4-2.2-3.7-3-6.1-2
		c-0.9,0.4-1.8,0.9-2.6,1.5c-1.5,1-2.7,2.5-3.8,3.9c-1,1.3-2,2.6-3,3.9c-0.6,0.8-1.4,1.5-2.1,2.3c-0.3-0.4-0.4-0.6-0.6-0.9
		c-1-1.4-2.2-2.6-3.8-3.2c-2.4-0.9-4.8,0.1-5.9,2.4c-0.6,1.3-0.8,2.6-0.5,4c0.6,2.5,2.5,3.8,4.6,3.7c1.5-0.1,2.7-0.7,3.9-1.5
		c0.3-0.2,0.6-0.4,1-0.7c0.1,0.3,0.2,0.5,0.2,0.8c0.4,2.3,0.5,4.5,0.2,6.8c-0.2,1.9-0.8,3.6-1.6,5.3c-0.2,0.4-0.4,0.9-0.5,1.4
		c-0.1,0.3-0.1,0.6,0,0.9c0.2,0.7,0.8,1,1.4,0.5c0.3-0.2,0.5-0.5,0.7-0.8c2.7-4,3.1-8.5,2.6-13.2c-0.1-1.1-0.4-2.2-0.6-3.2
		c1.2-1.3,2.3-2.6,3.5-3.9c0.6-0.7,1.3-1.2,2-1.8c0.2-0.2,0.6-0.3,1-0.5c0.2,0.8,0.4,1.4,0.5,2c0.3,2.1,0.6,4.2,0.8,6.3
		c0.4,3.7,1,7.4,2,11c0.6,2.3,1.5,4.5,2.8,6.5c0.9,1.4,2.1,2.7,3.6,3.5c2.2,1.2,4.3,1,6.2-0.5c1-0.8,1.9-1.8,2.4-3
		c0.5-1.3,1-2.7,1.3-4.1c0.5-2.7,0.8-5.5,1.2-8.2c0.1-0.8,0.2-1.6,0.4-2.4c0.3,0.3,0.5,0.6,0.6,0.9c0.9,1.8,1.9,3.6,3.2,5.1
		c0.9,1,2,1.9,3.3,2.4c2.6,1.1,4.9,0.5,6.4-1.8c0.7-1,1.2-2.1,1.7-3.3c1-2.2,1.3-4.6,1.4-7.1c0-0.5,0.1-0.9,0.1-1.4
		c0.3,0.4,0.5,0.8,0.7,1.2c0.8,2,1.9,3.9,3.4,5.6c0.8,1,1.8,1.8,3,2.3c1.9,0.8,3.7,0.3,4.8-1.3c0.5-0.6,0.8-1.3,1.1-2.1
		c0.7-1.7,1.2-3.5,1.4-5.3c0.3-2.8,0.6-5.6,1-8.5c0-0.2,0.1-0.3,0.2-0.6c0.2,0.4,0.3,0.7,0.5,1c0.8,1.5,1.5,3,2.3,4.4
		c0.4,0.6,0.8,1.3,1.4,1.8c1.3,1.2,3,0.7,3.3-1.1c0.2-1,0.1-2.1,0.1-3.1c-0.2-2.4-0.5-4.8-0.3-7.2c0.2-2.4,1.1-4.5,2.8-6.3
		c1.6-1.6,3.2-1.6,4.7,0.1c0.5,0.5,0.8,1.2,1.2,1.8c0.3,0.5,0.5,1.1,0.6,1.6c0.4,1.9,0.7,3.9,1.1,5.9c0.1,0.6-0.1,0.9-0.5,1.2
		c-1.2,1.1-2.5,2.1-3.6,3.3c-1.4,1.5-2.6,3.2-3.3,5.1c-0.4,1-0.6,2.1-0.5,3.2c0.2,2.7,2.6,4.4,5.2,3.6c1.1-0.3,2.1-1,2.9-1.8
		c1.2-1.1,2-2.4,2.7-3.8c1.5-3.2,2.3-6.6,2.5-10.2c0-0.7,0.3-1.1,0.8-1.4c1.3-1,2.7-2.1,3.9-3.2c1.8-1.7,3.5-3.5,5.3-5.2
		c0.2-0.2,0.5-0.4,0.7-0.7c0.8,2.1,1.6,4.1,2.4,6.1c0.7,1.6,1.4,3.3,2.3,4.9c0.4,0.7,1,1.4,1.6,2c1.8,1.6,4.2,0.8,4.7-1.5
		c0.2-0.9,0.3-1.9,0.1-2.8c-0.4-1.9-0.9-3.9-1.5-5.8c-0.5-1.5-0.7-2.9-0.5-4.4c0.2-2,0.8-3.8,1.8-5.5c1.4-2.3,3.5-2.7,5.7-1.1
		c1.5,1,2.7,2.3,3.6,3.8c1.5,2.4,2.3,5,3.2,7.7c0.1,0.4,0,0.7-0.3,1.1c-0.8,1-1.6,2-2.3,3.1c-0.9,1.3-1.7,2.7-2.4,4.2
		c-0.8,1.7-1.2,3.5-1.1,5.4c0,1,0.3,1.9,0.9,2.6c0.9,1.2,2.3,1.6,3.7,0.9c0.6-0.3,1.2-0.7,1.7-1.2c1-0.9,1.7-2.1,2.3-3.3
		c1.2-2.4,1.9-5,2.3-7.7c0.4-2.6,0.5-5.2,0.2-7.8c-0.1-0.5,0.1-0.9,0.4-1.4c1.7-2.6,3-5.3,4.1-8.2c0.7-1.8,1.3-3.7,2-5.5
		c0.1-0.2,0.2-0.5,0.3-0.7c0.2,0.3,0.2,0.6,0.2,0.9c0.3,3.2,0.7,6.3,1.6,9.3c0.8,3,1.9,5.8,3.8,8.2c0.8,1,1.6,1.9,2.7,2.5
		c1.8,1,3.6,0.9,5.1-0.5c0.8-0.8,1.5-1.7,1.9-2.7c0.6-1.5,1.2-3,1.6-4.5c1.1-4.2,1.4-8.4,1.4-12.7c0-0.4,0-0.8,0-1.2
		c0.4,0.6,0.6,1.2,0.8,1.7c0.9,2.8,2.2,5.4,4.1,7.6c1,1.3,2.2,2.4,3.7,3.2c2.4,1.3,4.6,1.1,6.8-0.5c1.1-0.8,2-1.9,2.7-3
		c1.2-1.9,2.2-4,2.8-6.2c1.3-4.5,2.5-9,3.2-13.7c0.5-3.3,0.8-6.6,1.2-9.9c0.2-1.5,0.2-3,0.2-4.5c0-0.5-0.1-1-0.3-1.4
		c-0.4-0.9-1.4-0.9-1.9,0c-0.1,0.2-0.2,0.5-0.3,0.8c-0.1,0.8-0.3,1.5-0.4,2.3c-0.5,5.6-1.2,11.1-2.2,16.7c-0.7,3.8-1.6,7.5-3,11
		c-0.5,1.4-1.2,2.7-2,3.9c-1.1,1.6-1.5,1.9-2.5-0.1c-0.6-1.2-1.2-2.5-1.5-3.8c-0.8-2.8-1.6-5.5-2.1-8.3c-1.1-5.4-2-10.9-3-16.3
		C282.2,201,282,200.1,281.9,199.1z M292.6,308.7c0.3,0.5,0.5,0.7,0.7,1c1.2,1.7,2.7,3.1,4.7,4.1c1.2,0.6,2.4,0.9,3.8,0.7
		c2.6-0.3,4.6-1.5,6.3-3.4c1.2-1.4,2-3,2.7-4.6c1.4-3.3,2.7-6.7,4-10.1c0.1-0.2,0.2-0.5,0.2-0.7c0-0.2-0.2-0.6-0.4-0.6
		c-0.2-0.1-0.6,0-0.8,0.2c-0.2,0.1-0.3,0.4-0.4,0.7c-1.4,2.8-2.7,5.6-4.1,8.4c-0.6,1.1-1.3,2.1-2,3.1c-0.7,1-1.7,1.6-2.9,2
		c-1.9,0.6-3.5,0-4.2-1.9c-0.5-1.3-0.7-2.6-1.1-3.9c-0.3-1.1,0-1.8,0.8-2.6c2.8-2.5,4.2-5.8,3.8-9.6c-0.3-2.7-1.6-4.7-4.2-5.8
		c-1.8-0.7-3.5-0.4-5.1,0.7c-0.9,0.7-1.6,1.5-2.1,2.5c-1.8,3.3-2.4,6.9-2.3,10.7c0,1.9,0.5,3.7,0.9,5.5c0.1,0.2,0.1,0.5,0.1,0.8
		c-0.1,1.2-0.2,2.5-0.3,3.7c-0.2,2-0.4,4-1,5.9c-0.1,0.3-0.3,0.6-0.4,1c-0.7-0.6-1-0.9-1.1-2.1c-0.3-1.7-0.4-3.4-0.6-5.1
		c-0.2-3-0.4-6-0.6-9c-0.1-1.6-0.7-3.2-1.5-4.6c-1.1-1.8-3.7-3.3-6.6-2c-1.6,0.7-2.8,1.9-3.7,3.4c-0.7,1.3-1.3,2.7-1.9,4.1
		c-0.1,0.2-0.2,0.5-0.4,0.9c-0.2-0.6-0.3-1-0.4-1.4c-0.4-1.3-1-2.5-2-3.5c-1.7-1.8-3.8-2.2-6-1.2c-1.8,0.9-3.2,2.2-4.1,4
		c-0.6,1.1-1,2.3-1.4,3.4c-0.7,2.2-1.1,4.5-1.4,6.8c0,0.3-0.1,0.6-0.2,1.1c-0.5-1.7-0.9-3.3-1.3-4.7c-0.4-1.3-1-2.6-1.9-3.6
		c-1.3-1.6-2.9-2-4.8-1.2c-1.3,0.6-2.5,1.5-3.4,2.6c-1.4,1.8-2.6,3.6-3.9,5.4c-0.1,0.1-0.2,0.3-0.3,0.4c-0.1,0-0.1,0-0.2-0.1
		c-0.2-0.2-0.5-0.5-0.7-0.7c-1.4-1.4-3.1-2.5-5-3.1c-1.1-0.4-2.3-0.5-3.5-0.2c-2.8,0.6-4.5,2.5-5.2,5.3c-0.6,2.7,0.1,4.9,2.3,6.6
		c0.1,0.1,0.2,0.2,0.3,0.3c-0.4,4.1,0.6,8.1,0,12.2c-0.3-0.3-0.5-0.7-0.6-1.1c-0.8-2.1-1.5-4.3-2.3-6.4c-0.7-1.8-1.4-3.5-2.2-5.2
		c-0.6-1.3-1.5-2.3-2.8-2.9c-1.5-0.8-2.9-0.6-4.2,0.4c-0.9,0.7-1.6,1.7-2,2.7c-1.1,2.5-1.9,5-2.1,7.7c-0.2,2.4-0.2,4.8-0.3,7.1
		c0,0.3,0,0.7-0.1,1c-0.2-0.3-0.3-0.5-0.4-0.8c-1.3-5.1-2.5-10.3-3.8-15.4c-0.7-2.7-1.5-5.3-2.8-7.8c-0.5-1-1.1-1.9-2-2.6
		c-1.6-1.2-3.3-0.6-3.8,1.3c-0.1,0.3-0.1,0.6-0.1,0.9c0.1,1.7,0.1,3.4,0.3,5.1c0.6,4.1,1.7,8.1,2.8,12.1c1,3.6,2.1,7.3,3.7,10.7
		c0.6,1.2,1.3,2.3,2,3.4c0.5,0.8,1.2,1.3,2,1.7c1.6,0.8,3,0.2,3.6-1.5c0.2-0.7,0.4-1.5,0.4-2.3c0.1-2.8,0.1-5.7,0.2-8.5
		c0.1-2,0.2-4,0.4-5.9c0.2-1.5,0.7-2.9,1.4-4.1c0.2-0.4,0.5-0.9,1.1-1c0.2,0.4,0.5,0.8,0.7,1.2c0.4,0.8,0.7,1.6,1,2.4
		c0.9,2.4,1.8,4.8,2.8,7.1c0.6,1.5,1.4,2.9,2.6,4.1c0.6,0.6,1.3,1.2,2,1.5c1.3,0.6,2.6,0.2,3.4-1c0.3-0.5,0.6-1.1,0.8-1.7
		c0.3-1.1,0.4-2.3,0.6-3.5c0.1-0.5,0.1-0.9,0.1-1.4c0.2,0,0.2,0,0.2,0.1c0.1,0.1,0.2,0.2,0.2,0.3c1.2,1.9,2.8,3.3,4.8,4.4
		c0.7,0.4,1.5,0.7,2.2,1c2.2,0.6,4.1-0.1,5.4-2c0.8-1.2,1.4-2.6,1.5-4.1c0.7-5.4-0.4-10.4-3.3-15.1c-0.2-0.3-0.4-0.6-0.6-0.9
		c1.3-1.6,2.7-3.2,4.4-4.4c0.4-0.3,0.8-0.5,1.3-0.8c0.4,1.2,0.7,2.2,1,3.3c1.3,4.5,2.5,8.9,3.7,13.4c0.4,1.4,0.9,2.7,1.6,4
		c0.3,0.6,0.8,1.2,1.3,1.7c1.1,0.9,2.4,0.6,2.9-0.8c0.2-0.6,0.4-1.3,0.4-2c0-2.1,0-4.2,0-6.3c-0.1-2.7-0.3-5.3,0.1-8
		c0.3-2.5,0.8-5,2.2-7.3c0.5-0.9,1.1-1.8,2-2.4c0.9-0.7,1.5-0.5,2.1,0.4c0.4,0.6,0.7,1.3,0.9,1.9c0.8,2.1,1.3,4.3,1.7,6.5
		c0.5,3.1,1.2,6.1,2.1,9.1c0.1,0.4,0.3,0.9,0.5,1.3c0.2,0.4,0.6,0.6,1.1,0.5c0.5-0.1,0.8-0.3,1-0.8c0.1-0.3,0.2-0.7,0.2-1.1
		c0-0.6,0-1.2,0-1.9c0-4.7,0.4-9.2,2-13.7c0.6-1.8,1.3-3.5,2.5-5c0.3-0.5,0.8-0.9,1.2-1.3c0.6-0.5,1-0.4,1.3,0.4
		c0.1,0.3,0.2,0.7,0.3,1c0.2,1.5,0.3,3,0.5,4.5c0.3,2.5,0.6,5,1.1,7.4c0.3,1.9,1,3.8,2,5.5c0.6,0.9,1.2,1.8,2.2,2.3
		c0.8,0.4,1.7,0.6,2.6,0.2c0.8-0.4,1.4-1,1.8-1.9c0.7-1.5,1.1-3.1,1.3-4.7C292.3,311.6,292.4,310.3,292.6,308.7z M246.4,91.1
		c0.3,1.6,0.4,3.2,0.8,4.8c1.2,4.9,3.1,9.6,5.1,14.3c2.6,6,5.8,11.7,9.2,17.4c5.7,9.6,11.4,19.1,17.1,28.7c0.8,1.4,1.7,2.8,2.7,4.1
		c0.5,0.7,1.1,1.4,1.9,1.8c1.7,1.2,3.6,0.5,4.4-1.4c0.3-0.9,0.5-1.9,0.3-2.9c-0.2-1.5-0.4-3-0.9-4.4c-1.4-4.4-2.8-8.8-4.3-13.2
		c-3.5-10-7.3-19.8-12.1-29.2c-3.1-6-6.5-11.8-10.6-17.2c-1.7-2.1-3.5-4.1-5.7-5.8c-1-0.8-2-1.4-3.3-1.7c-1.8-0.5-3.3,0.3-3.9,2
		C246.7,89.1,246.6,90,246.4,91.1z M100,281.5c0.1,0.4,0.2,0.7,0.4,1.1c0.9,2.4,1.8,4.8,2.8,7.2c0.7,1.7,1.8,3.2,3.1,4.6
		c1.1,1.1,2.4,1.9,3.9,2.2c1.9,0.4,3.4-0.1,4.6-1.5c1.9-2.3,2.9-4.9,3.3-7.8c0.1-0.7,0-1.4-0.1-2c-0.1-0.7-0.6-1.1-1.2-1.1
		c-0.6,0-0.9,0.3-1.2,1c-0.1,0.2-0.1,0.4-0.2,0.7c-0.5,1.5-0.9,2.9-1.4,4.4c-0.2,0.6-0.5,1.2-0.8,1.7c-0.7,1.2-1.2,1.2-1.8,0
		c-0.4-0.7-0.8-1.5-1-2.3c-0.6-2.1-1.1-4.2-1.6-6.3c-0.7-3.3-1.2-6.6-1.8-9.9c-0.4-1.9-0.8-3.7-1.9-5.3c-1.4-2.1-3.8-2.4-5.7-0.6
		c-1,0.9-1.6,2.1-2,3.3c-0.1,0.4-0.3,0.7-0.4,1.1c-0.4-0.3-0.8-0.6-1.2-0.9c-2-1.5-4.2-1.7-6.6-0.8c-0.5,0.2-1.1,0.5-1.6,0.8
		c-3.1,1.8-5,4.5-6,7.8c-1.3,3.9-1.3,7.9-0.5,11.9c0.5,2.3,1.3,4.4,2.6,6.3c1.1,1.5,2.4,2.7,4.1,3.4c2.6,1.1,5,0.8,7.1-1
		c1-0.8,1.7-1.9,2.3-3c0.8-1.5,1.3-3.1,1.6-4.7C99.4,288.2,99.7,284.9,100,281.5z M308.1,141.9C308.1,141.9,308.1,141.9,308.1,141.9
		c-0.1-0.7-0.1-1.4-0.2-2.1c-0.4-3.6-0.8-7.2-1.4-10.8c-1.3-7.2-2.6-14.4-4.1-21.6c-0.9-4.5-1.9-8.9-3.5-13.2c-0.5-1.5-1.2-3-2-4.4
		c-0.4-0.7-1-1.3-1.6-1.8c-1.3-1-3-0.6-3.8,0.8c-0.3,0.6-0.6,1.3-0.7,1.9c-0.5,2.8-0.6,5.6-0.5,8.4c0.2,4.4,0.9,8.8,1.8,13.1
		c1.3,5.9,2.6,11.8,3.9,17.8c0.9,4.2,2,8.3,3.6,12.3c0.5,1.3,1.1,2.5,1.8,3.7c0.4,0.7,1.1,1.3,1.7,1.8c1.2,0.8,2.7,0.5,3.5-0.7
		c0.4-0.7,0.8-1.4,1-2.2C308,143.9,308,142.9,308.1,141.9z M113.1,323.6c0,0-0.1,0-0.1,0c-0.4-0.7-0.8-1.4-1.3-2.1
		c-0.8-1.2-1.5-2.5-2.4-3.6c-0.8-1-1.7-1.8-2.5-2.7c-0.2-0.2-0.5-0.3-0.7-0.5c-0.4-0.2-0.9-0.3-1.3,0.1c-0.4,0.3-0.6,0.7-0.5,1.2
		c0.1,0.4,0.2,0.9,0.4,1.3c0.4,0.8,0.8,1.6,1.3,2.3c3.8,6.1,7.9,12.1,12.1,18c0.3,0.4,0.7,0.8,1,1.2c0.4,0.4,0.9,0.6,1.4,0.3
		c0.6-0.3,0.8-0.8,0.7-1.4c-0.1-0.7-0.3-1.4-0.5-2.1c-0.7-1.9-1.5-3.8-2.3-5.6c-1.5-3.2-2.6-6.5-3.3-9.9c-0.3-1.3-0.4-2.6-0.5-4
		c-0.1-0.6,0-1.3,0.5-1.9c0.2,0.1,0.4,0.2,0.6,0.3c0.5,0.5,1,0.9,1.4,1.4c2.3,2.7,4.3,5.8,6.2,8.8c1.4,2.1,2.7,4.1,4.1,6.2
		c0.4,0.5,0.8,1,1.3,1.5c0.4,0.4,1,0.4,1.6,0.1c0.6-0.3,0.8-0.9,0.7-1.5c-0.1-0.4-0.2-0.9-0.4-1.3c-0.5-1.2-1-2.3-1.5-3.5
		c-1.9-4-3.4-8.1-4.6-12.4c-0.4-1.5-0.8-3.1-0.7-4.7c0-0.5,0.1-1.1,0.3-1.6c0.3-0.7,0.6-0.8,1.3-0.5c0.5,0.3,1.1,0.6,1.5,1.1
		c1.4,1.4,2.6,2.9,3.6,4.6c2.7,4.2,5.3,8.3,8,12.5c0.4,0.6,0.8,1.1,1.4,1.5c0.5,0.5,1.2,0.5,1.7,0.2c0.5-0.3,0.7-0.9,0.5-1.6
		c-0.2-0.6-0.5-1.3-0.8-1.9c-2.8-4.8-5.7-9.5-8.5-14.3c-1-1.7-2.1-3.4-3.5-4.8c-0.7-0.7-1.4-1.3-2.3-1.7c-1.8-0.9-3.6-0.2-4.6,1.5
		c-0.6,1-1,2.2-1.2,3.4c-0.4,2.7,0,5.3,0.5,8c0,0.2,0.1,0.4,0.1,0.8c-0.3-0.3-0.4-0.5-0.6-0.7c-0.8-0.9-1.6-1.8-2.4-2.7
		c-0.7-0.7-1.5-1.3-2.5-1.7c-1.7-0.6-3.4,0.1-4.1,1.8c-0.1,0.3-0.2,0.6-0.3,0.9c-0.4,1.8-0.2,3.6,0.1,5.4
		C112.4,321,112.8,322.3,113.1,323.6z M175.4,330.4c-3.5-0.2-5.7,0.6-7.9,2.6c-1.6,1.4-2.7,3.2-3.4,5.2c-1.9,5.7-0.8,11,2.6,15.7
		c2.6,3.5,7.6,3.8,10.8,0.7c1.3-1.3,2.2-2.8,2.6-4.5c0.7-2.5,0.9-5.1,0.7-7.8c0-0.4,0-0.7,0-1.3c0.3,0.5,0.5,0.8,0.7,1.1
		c1,1.5,2,2.9,3.4,4.1c0.8,0.7,1.7,1.3,2.8,1.6c2.5,0.6,4.4-0.3,5.2-2.4c0.1-0.2,0.2-0.5,0.3-0.7c0.5-1.6,1-3.2,1.3-4.9
		c0.2-0.8,0.1-1.7,0-2.5c-0.1-0.5-0.5-0.9-1.1-1c-0.5,0-0.9,0.3-1.1,1c-0.2,0.8-0.3,1.6-0.5,2.4c-0.2,1.1-0.4,2.2-0.6,3.4
		c-0.2,0.7-0.3,1.3-1.1,1.8c-0.2-0.2-0.6-0.4-0.8-0.7c-0.4-0.5-0.7-1-0.9-1.5c-0.8-1.9-1.7-3.8-2.4-5.8c-0.7-1.8-1.3-3.7-2-5.5
		c-0.5-1.3-1.3-2.6-2-3.8c-0.5-0.8-1.2-1.5-2.1-2c-1.7-0.9-3.5-0.2-4.2,1.5c-0.2,0.4-0.3,0.9-0.3,1.4
		C175.4,329.2,175.4,329.8,175.4,330.4z M157.8,313.9c0.6,1.2,1.2,2.3,1.8,3.4c0.3,0.4,0.6,0.9,0.9,1.2c0.5,0.5,1.3,0.5,1.8,0.2
		c0.6-0.3,0.8-1,0.7-1.7c-0.1-0.3-0.2-0.7-0.4-1c-1-2.2-2-4.4-3-6.6c-1.8-3.9-3.6-7.8-6.1-11.3c-1.4-2-3.1-3.7-5.6-4.4
		c-0.2-0.1-0.4-0.2-0.6-0.3c-1.9-0.8-3.6-0.4-5,1.2c-0.7,0.8-1.1,1.8-1.5,2.8c-1,3.2-1.1,6.4-0.5,9.7c1.1,5.6,2.8,11,4.8,16.3
		c0.1,0.3,0.2,0.5,0.4,0.8c0.4,0.6,1.1,0.9,1.7,0.7c0.6-0.2,1-0.9,0.9-1.6c-0.1-0.5-0.3-1.1-0.5-1.6c-0.2-0.6-0.4-1.2-0.6-1.8
		C150.6,317.8,154.2,315.8,157.8,313.9z M168.1,308c0.9,0.1,1.6,0.2,2.3,0.3c2.4,0.5,4.6,1.6,6.5,3.2c0.4,0.3,0.8,0.6,1.2,0.8
		c0.6,0.3,1.2,0.1,1.6-0.4c0.4-0.5,0.4-1,0.2-1.6c-0.2-0.3-0.4-0.6-0.7-0.8c-1.7-1.7-3.7-2.8-5.7-3.9c-0.7-0.3-1.5-0.5-2.2-0.7
		c-0.6-0.1-1.3-0.2-2.1-0.2c0.2-0.4,0.4-0.8,0.6-1.2c0.8-1.5,1.4-3,1.8-4.6c0.8-3.7,0.7-7.4-0.1-11.2c-0.4-1.8-1-3.6-1.9-5.2
		c-0.3-0.6-0.8-1.2-1.4-1.6c-0.5-0.2-0.9-0.3-1.4,0c-0.4,0.3-0.5,0.8-0.4,1.2c0.2,0.7,0.3,1.4,0.6,2.1c1.1,3.3,1.7,6.6,1.7,10.1
		c0,3.2-0.5,6.2-2.1,9c-0.1,0.2-0.2,0.4-0.4,0.6c-0.1-0.3-0.2-0.4-0.3-0.6c-1.6-3.1-3.1-6.3-4.8-9.4c-0.8-1.7-1.7-3.3-2.7-4.9
		c-0.4-0.7-1-1.3-1.5-1.9c-0.6-0.6-1.4-0.6-2-0.2c-0.5,0.4-0.7,1-0.5,1.8c0.3,0.8,0.6,1.6,0.9,2.4c0.8,1.6,1.6,3.2,2.5,4.8
		c3.1,5.9,5.9,12,9.2,17.8c0.4,0.6,0.8,1.2,1.3,1.7c0.4,0.4,1,0.5,1.5,0.2c0.5-0.3,0.7-0.8,0.7-1.3c-0.1-0.6-0.2-1.2-0.4-1.7
		c-0.5-1.2-1.1-2.4-1.6-3.7C168.4,308.7,168.3,308.4,168.1,308z M289.6,268.8c0,1.8-0.2,3.3-0.6,4.2c-0.6,1.3-1.6,1.7-2.7,0.9
		c-0.8-0.6-1.6-1.3-2.2-2.1c-0.8-1.1-1.5-2.3-2.2-3.6c-1.9-3.9-3.4-7.9-4.6-12c-0.2-0.6-0.4-1.3-0.6-1.9c-0.2-0.5-0.4-0.9-0.7-1.4
		c-0.3-0.5-0.7-0.8-1.3-0.7c-0.6,0.1-1,0.5-1.1,1.1c-0.1,0.3-0.2,0.7-0.1,1.1c0.1,1.2,0.2,2.4,0.5,3.6c1.1,4.3,2.8,8.3,4.7,12.3
		c1,2,2.3,3.7,3.9,5.2c0.8,0.7,1.7,1.3,2.7,1.7c2.4,0.9,5,0,6.3-2.2c0.3-0.6,0.6-1.2,0.8-1.8c1-2.7,0.9-5.5,0.3-8.3
		c-0.5-2.2-1.1-4.4-1.6-6.5c-0.7-3.1-1.8-6.1-2.8-9.1c-0.2-0.7-0.6-1.3-1-1.9c-0.4-0.6-1-0.8-1.6-0.6c-0.7,0.2-1,0.8-1,1.4
		c0,0.6,0.1,1.3,0.3,1.9c0.4,1.4,0.8,2.8,1.2,4.2c0.9,3.1,1.8,6.2,2.7,9.3C289.2,265.5,289.6,267.4,289.6,268.8z M275.1,275.1
		c-0.2-3.9-0.9-7.4-2.3-10.8c-0.7-1.7-1.8-3.2-3.2-4.4c-1-0.9-2.1-1.5-3.4-1.9c-2.9-0.9-5.5,0.4-6.7,3.1c-0.2,0.5-0.4,1-0.5,1.5
		c-0.5,1.9-0.4,3.8-0.2,5.7c0.5,4.6,2.2,8.7,5.3,12.2c0.9,1,1.9,1.9,3.1,2.5c2.4,1.2,4.9,0.6,6.5-1.5c0.6-0.8,0.9-1.6,1-2.5
		C274.9,277.7,275,276.3,275.1,275.1z M179.3,299.2c1.1-0.7,2.1-1.2,3.1-1.8c2.5-1.7,4-4,4.5-7c0.3-1.6,0.3-3.1,0-4.7
		c-0.3-2.2-1.2-4.1-2.9-5.6c-2.5-2.1-5.7-1.9-7.9,0.5c-1.1,1.2-1.8,2.6-2.2,4.2c-0.6,2.3-0.5,4.6-0.2,6.9c0.6,4.6,1.9,8.9,4.9,12.6
		c1.3,1.6,2.8,3,4.8,3.8c4.3,1.9,8-0.5,9.3-3.9c1-2.7,0.9-5.5,0.6-8.3c0-0.1,0-0.2-0.1-0.3c-0.2-0.6-0.7-1-1.3-1
		c-0.6,0-1.1,0.4-1.3,1c-0.1,0.2-0.1,0.5-0.1,0.8c-0.1,1.5,0,3-0.2,4.5c-0.1,1-0.4,2.1-0.8,3c-0.6,1.4-1.6,1.8-3,1.6
		c-1.3-0.2-2.3-0.7-3.3-1.5C181.6,302.6,180.3,301.1,179.3,299.2z M253.9,278.1c0.1,0.4,0.2,0.6,0.3,0.9c0.5,1.6,1,3.3,1.6,4.9
		c0.2,0.6,0.5,1.2,0.9,1.7c0.4,0.6,0.9,0.8,1.4,0.6c0.5-0.2,0.8-0.6,0.8-1.3c0-0.5-0.1-1-0.2-1.4c-0.5-1.9-1.1-3.9-1.6-5.8
		c-1-3.5-2-7-3-10.5c-0.5-1.7-1.1-3.5-1.7-5.2c-0.2-0.6-0.6-1.2-1-1.8c-0.3-0.4-0.8-0.6-1.3-0.5c-0.6,0.2-0.8,0.7-0.7,1.3
		c0,0.5,0.1,1.1,0.3,1.6c0.8,2.7,1.6,5.4,2.4,8.1c0.5,1.9,1.1,3.7,1.6,5.6c-2.9,0.9-5.8,1.8-8.8,2.7c-0.1-0.4-0.3-0.8-0.4-1.2
		c-0.9-3.2-1.8-6.4-2.7-9.6c-0.3-1.1-0.6-2.1-1-3.2c-0.2-0.6-0.7-1.2-1.1-1.7c-0.9-0.8-2-0.3-2.2,0.8c-0.1,0.4-0.1,0.9,0,1.3
		c0.4,1.8,0.7,3.6,1.2,5.3c1.4,4.5,2.9,9,4.4,13.5c0.3,0.9,0.6,1.7,0.9,2.6c0.2,0.5,0.5,1,0.8,1.4c0.3,0.4,0.8,0.7,1.4,0.5
		c0.6-0.2,0.8-0.6,0.9-1.2c0-0.4,0-0.9-0.1-1.3c-0.4-1.4-0.8-2.8-1.2-4.2c-0.1-0.3-0.2-0.7-0.3-1.1
		C248.2,280.3,251,279.3,253.9,278.1z M217.2,290c1.9-0.7,3.6-1.2,5.4-1.9c1.7-0.6,3.4-1.3,5.2-2c0.1,0.2,0.2,0.4,0.3,0.6
		c0.7,1.6,1.4,3.3,2.1,4.9c0.1,0.3,0.3,0.5,0.4,0.8c0.3,0.3,0.6,0.5,1,0.4c0.5-0.1,0.8-0.4,0.9-0.8c0.1-0.3,0.1-0.7,0-1
		c-0.6-2-1.1-4-1.8-6c-1.1-3.2-2.3-6.4-3.5-9.6c-0.6-1.6-1.5-3.1-2.6-4.5c-0.8-0.9-1.6-1.8-2.7-2.4c-1.5-0.8-2.9-0.6-4.2,0.4
		c-0.5,0.4-1,0.9-1.4,1.5c-0.5,0.8-0.9,1.7-1.3,2.6c-1,2.7-1.3,5.5-1.3,8.3c-0.1,3.6,0.5,7.2,1,10.8c0.2,1.3,0.5,2.6,0.9,3.9
		c0.1,0.4,0.5,0.9,0.8,1.2c0.7,0.6,1.5,0.2,1.6-0.7c0-0.4-0.1-0.9-0.1-1.4C217.7,293.4,217.4,291.7,217.2,290z M313.4,251.4
		c0.2-0.1,0.3-0.2,0.4-0.2c2.3-0.9,4.1-2.6,5.4-4.6c2.2-3.4,0.8-8.9-3.2-10.1c-2.2-0.7-4.4-0.2-5.8,1.6c-0.7,0.9-1.2,1.9-1.5,3
		c-0.5,1.6-0.5,3.2-0.4,4.8c0.1,4.7,1.8,8.9,4.8,12.5c1,1.2,2.2,2.2,3.7,2.8c1.5,0.6,3,0.7,4.4-0.2c1.7-1.1,3.1-2.5,3.8-4.5
		c0.4-1.3,0.8-2.6,1.1-3.9c0.1-0.4,0.1-0.8,0.1-1.2c0-0.6-0.4-1-0.9-1.1c-0.5-0.1-1,0.1-1.3,0.6c-0.2,0.4-0.4,0.8-0.5,1.3
		c-0.4,1.3-0.8,2.6-1.2,3.8c-0.2,0.5-0.5,1.1-0.9,1.5c-0.7,0.9-1.5,1.2-2.5,0.7c-0.7-0.3-1.3-0.7-1.9-1.2
		C315.2,255.5,314.3,253.4,313.4,251.4z M297.2,243.7c-0.4,0-0.8,0-1.3,0.1c-2.9,0.3-4.8,2.7-4.4,5.6c0.2,1.9,1.1,3.5,2.4,4.8
		c1.1,1.1,2.3,2,3.6,2.8c1.8,1.1,3.6,2.1,5.3,3.3c1.3,0.9,2.2,2.1,2.8,3.5c0.5,1.2,0.2,2.3-0.6,3.2c-0.7,0.7-2,0.8-3.1,0.2
		c-0.7-0.4-1.3-0.9-1.9-1.3c-0.3-0.2-0.7-0.5-1-0.7c-0.5-0.2-1-0.1-1.4,0.4c-0.4,0.5-0.4,0.9,0,1.4c0.5,0.7,1.1,1.4,1.8,2
		c2,1.8,4.8,2.1,7.1,0.8c2.3-1.4,3.3-4,2.7-6.7c-0.5-2-1.8-3.6-3.4-4.9c-1.9-1.6-4-3-6.2-4.3c-0.9-0.6-1.8-1.2-2.7-1.8
		c-0.8-0.6-1.4-1.4-1.7-2.3c-0.6-1.6,0.4-3,2-3.1c1.1,0,2.1,0.4,3,1.1c0.4,0.3,0.8,0.7,1.3,1.1c0.6,0.5,1.2,0.5,1.6,0.2
		c0.5-0.3,0.6-1,0.4-1.7c-0.2-0.7-0.7-1.3-1.2-1.8C300.7,244.2,299.1,243.6,297.2,243.7z M202.1,300.8c1.6-0.1,3.1-0.8,4.2-2.2
		c1.2-1.6,1.2-3.3,0.5-5.1c-1-2.3-2.6-4-4.7-5.4c-1.4-0.9-2.9-1.7-4.3-2.7c-1.2-0.8-2.4-1.7-3.6-2.7c-0.9-0.7-1.4-1.7-1.7-2.8
		c-0.2-0.8-0.3-1.5-0.1-2.3c0.2-0.9,0.9-1.4,1.8-1.6c1.1-0.2,2.1,0.1,2.9,0.8c0.5,0.5,1,1.1,1.4,1.6c0.2,0.2,0.4,0.5,0.6,0.7
		c0.6,0.5,1.4,0.2,1.5-0.6c0.1-0.4,0-0.8-0.1-1.1c-0.6-1.8-1.8-3-3.5-3.8c-2.7-1.2-6.9-0.4-7.6,4c-0.4,2.4,0.3,4.5,1.7,6.4
		c1.2,1.7,2.9,2.9,4.8,4c1.1,0.6,2.3,1.2,3.4,1.9c0.8,0.5,1.7,1,2.5,1.6c1.2,0.9,1.9,2.1,2.3,3.4c0.3,1-0.1,1.8-1,2.3
		c-1.1,0.6-2.2,0.6-3.4,0.1c-0.3-0.1-0.7-0.3-1-0.4c-0.5-0.1-1,0-1.3,0.5c-0.3,0.5-0.2,1,0.1,1.4c0.3,0.3,0.7,0.6,1,0.9
		C199.7,300.6,200.8,300.7,202.1,300.8z M318.9,205.1c-1,0-2,0-3,0c-0.8,0-1.6,0.1-2.4,0.2c-0.8,0.1-1.4,0.8-1.5,1.5
		c-0.1,0.7,0.3,1.3,1.1,1.7c0.1,0,0.2,0.1,0.3,0.1c1.6,0.7,3.2,1.2,4.9,1.5c1,0.2,1.9,0.3,2.9,0.5c3.1,0.6,6.2,1.2,9.4,1.4
		c1.2,0.1,2.4-0.1,3.6-0.2c0.7-0.1,1.3-0.4,1.8-0.9c0.8-0.9,0.8-2-0.1-2.8c-0.3-0.3-0.6-0.5-1-0.6c-1.1-0.4-2.2-0.9-3.3-1.2
		C327.3,205.4,323.1,205.2,318.9,205.1z M323.5,170.1c0-1.4-0.4-2.1-1.1-2.5c-0.8-0.4-1.6-0.2-2.3,0.2c-0.4,0.3-0.8,0.6-1.1,1
		c-0.8,1.1-1.8,2.2-2.4,3.4c-1.5,3-2.9,6-4.3,9c-0.7,1.7-1.2,3.4-1.7,5.2c-0.2,0.5-0.2,1.1-0.1,1.6c0.1,0.6,0.4,1.2,1.1,1.4
		c0.7,0.2,1.2,0,1.7-0.5c0.4-0.5,0.8-1,1.2-1.6c2.2-3.7,4.5-7.4,6.7-11.1c0.7-1.1,1.2-2.4,1.7-3.6
		C323.1,171.7,323.3,170.7,323.5,170.1z M314.1,198.9c1.9-0.4,3.8-0.7,5.7-1.1c4.2-0.9,8.2-2.2,12.1-4.1c0.8-0.4,1.6-0.9,2.4-1.5
		c0.7-0.5,1.1-1.3,0.9-2.2c-0.2-0.9-1-1.2-1.9-1.4c-1.3-0.3-2.5-0.2-3.8,0.1c-4,1-7.8,2.4-11.3,4.4c-1.5,0.9-3,1.7-4.4,2.5
		c-0.2,0.1-0.5,0.3-0.7,0.4c-0.8,0.6-1.1,1.2-0.8,1.9C312.5,198.6,313.1,198.9,314.1,198.9z M64.4,307.8c0.6-0.1,1.2-0.2,1.7-0.3
		c2.3-0.5,4.3-1.8,6.2-3.2c1.7-1.3,3.2-2.8,4.8-4.2c0.4-0.4,0.7-0.9,0.9-1.4c0.5-1.3-0.3-2.5-1.7-2.4c-0.5,0-1,0.2-1.5,0.4
		c-3.2,1.3-6.4,2.8-9.3,4.7c-0.8,0.5-1.6,1.2-2.4,1.9c-0.6,0.5-0.9,1.2-1.1,1.9c-0.2,1,0.2,1.9,1.1,2.3
		C63.4,307.6,63.9,307.7,64.4,307.8z M73.6,317.3c0.2,0.7,0.3,1.5,0.6,2.2c0.6,1.2,1.9,1.4,2.9,0.5c0.4-0.4,0.8-0.9,1-1.4
		c0.6-1.2,1.1-2.4,1.5-3.7c1-3.7,1.9-7.4,2.9-11.1c0.2-0.8,0-1.4-0.6-1.8c-0.6-0.4-1.3-0.4-1.9,0.3c-0.6,0.6-1.1,1.2-1.5,1.9
		c-1.2,2.5-2.3,5.1-3.4,7.7C74.3,313.6,73.8,315.4,73.6,317.3z M70.4,289.5c-2.8,0.2-5.5,0.4-8.2,0.7c-1,0.1-2,0.5-2.9,0.9
		c-0.7,0.3-1.2,1-1.1,1.8c0,0.8,0.6,1.3,1.3,1.6c0.5,0.2,1.1,0.4,1.7,0.4c1.1,0,2.2,0,3.2,0c3.6-0.2,7.1-1.1,10.6-2.3
		c0.3-0.1,0.6-0.2,0.9-0.4c0.8-0.6,0.7-1.6-0.2-2.1c-0.3-0.2-0.7-0.3-1-0.3C73.2,289.7,71.8,289.6,70.4,289.5z M256.4,213.1
		c0.7,0,1.4-0.2,2.1-0.6c1.5-1,2.3-2.4,2-4.2c-0.3-2-1.3-3.5-3.3-4.2c-2.2-0.7-4.8,0.6-5.4,2.6C250.7,209.8,253.1,213,256.4,213.1z"
		/>
	<path d="M169.6,265.6c-0.7-0.6-1.2-1.4-1.5-2.2c-2.1-4.7-3.6-9.7-3.9-14.8c-0.1-1.7,0-3.4,0-5.1c0-0.5,0.2-1,0.5-1.5
		c0.4-0.8,1.2-1.1,2-0.9c0.6,0.2,1.2,0.4,1.7,0.6c1.2,5.4,2.4,10.7,2.6,16.2c0.1,2,0.1,4-0.4,5.9
		C170.4,264.4,170.3,265.1,169.6,265.6z"/>
	<path d="M190.7,230.3c-0.2-1.3-0.5-2.7-0.7-4c-0.5-2.9-0.9-5.7-1.3-8.6c-0.2-1.7-0.4-3.4-0.1-5.1c0.2-0.8,0.4-1.6,0.8-2.3
		c0.4-0.8,1.1-1.1,2-1c0.9,0.1,1.7,0.5,2.2,1.2c0.9,1.3,1.5,2.7,1.6,4.2c0.2,2.1-0.1,4.1-0.6,6.1c-0.8,3.3-2.2,6.4-3.8,9.4
		C190.9,230.3,190.8,230.3,190.7,230.3z"/>
	<path d="M246.5,244.5c0.7,3.3,0.9,6.5-0.4,9.6c-0.4,1-1.1,1.9-2,2.6c-0.9,0.6-1.6,0.4-2-0.6c-0.3-0.8-0.3-1.6-0.2-2.4
		c0.2-0.9,0.4-1.9,0.7-2.7C243.4,248.6,244.9,246.5,246.5,244.5z"/>
	<path d="M206.6,252c0,3-0.4,5.9-1.9,8.6c-0.4,0.7-0.9,1.4-1.6,1.8c-1.3,0.7-2.4,0.1-2.5-1.3c-0.1-1.4,0.2-2.6,1.1-3.7
		c0.2-0.2,0.4-0.5,0.5-0.8C203.2,254.6,204.9,253.3,206.6,252z"/>
	<path d="M225.2,209.3c0.9,0.4,1.3,0.9,1.6,1.7c0.5,1.4,0.7,2.8,0.7,4.3c0.1,2.5-0.4,4.9-1.2,7.4c-0.1-0.3-0.3-0.4-0.3-0.6
		c-0.8-3.1-1.3-6.2-1.6-9.4c-0.1-0.7,0.1-1.5,0.2-2.2C224.7,210.1,225,209.8,225.2,209.3z"/>
	<path d="M125.8,257.6c-1.2,0.8-2.4,1.5-3.8,1.3c-1.8-0.3-2.8-2.6-1.8-4.1c0.2-0.3,0.6-0.5,0.9-0.5c0.5,0,1.1,0,1.5,0.2
		C124.1,255,125,256.1,125.8,257.6z"/>
	<path d="M237.9,316.8c1.3-1.2,2.5-2.4,3.7-3.7c0.1,0.1,0.3,0.3,0.4,0.5c2,3.3,3.1,6.8,3,10.7c0,1.2-0.4,2.3-0.6,3.5
		c-0.1,0.3-0.2,0.6-0.4,0.8c-0.6,0.8-1.4,1-2.1,0.3c-0.6-0.6-1-1.2-1.4-1.9c-0.9-1.7-1.4-3.6-1.7-5.5
		C238.4,319.8,238.2,318.3,237.9,316.8z"/>
	<path d="M298.4,299.4c-0.1-1-0.2-2-0.2-3.1c0-1.8,0.1-3.7,0.2-5.5c0-0.6,0.3-1.2,0.7-1.7c0.3-0.6,0.7-0.6,1.2-0.1
		c0.7,0.8,1.1,1.7,1.3,2.8c0.4,3-0.8,5.5-2.8,7.6C298.6,299.4,298.5,299.4,298.4,299.4z"/>
	<path d="M239.9,311.9c-0.6,0.9-1.3,1.7-2.1,2.4c-0.8,0.6-1.6,0.9-2.6,0.7c-0.9-0.2-1.5-1-1.6-2c-0.1-1,0.3-1.8,1.2-2.2
		C236.4,310,238.5,310.5,239.9,311.9z"/>
	<path d="M87.6,285.4c0-3.8,0.3-6.7,1.2-9.4c0.2-0.7,0.5-1.4,0.9-2c1.1-1.8,3.2-2.4,5.1-1.4c0.3,0.2,0.6,0.4,0.9,0.6
		c0.7,0.4,0.8,0.9,0.8,1.7c-0.2,2.5-0.3,5-0.5,7.5c-0.2,3.1-0.5,6.1-1.4,9.1c-0.2,0.8-0.6,1.7-1.1,2.4c-1.2,1.7-2.5,1.7-3.8,0.1
		c-0.8-1-1.2-2.1-1.5-3.2C87.7,288.6,87.6,286.6,87.6,285.4z"/>
	<path d="M178.6,344.8c0,1.3-0.1,2.7-0.6,4.1c-0.8,2.3-2.2,2.8-4.2,1.5c-1.8-1.1-3-2.6-3.8-4.6c-1.2-2.9-1.2-5.8-0.3-8.8
		c0.4-1.4,1.2-2.6,2.3-3.6c0.9-0.9,2.1-1.2,3.3-1.1c0.4,0,0.7,0.2,0.9,0.6C177.6,336.1,178.6,341,178.6,344.8z"/>
	<path d="M156.4,311.1c-3.5,1.9-6.8,3.8-10.3,5.7c0-0.1-0.2-0.3-0.2-0.5c-1.1-3.7-2-7.5-2.6-11.3c-0.3-2.2-0.5-4.3-0.1-6.5
		c0.3-1.5,1.5-2.3,2.9-2c0.9,0.2,1.7,0.6,2.4,1.3c1.9,2,3.6,4.2,4.7,6.8c0.9,1.9,1.9,3.8,2.8,5.7
		C156.2,310.5,156.3,310.8,156.4,311.1z"/>
	<path d="M262.6,265.9c0.1-0.9,0.2-1.9,0.3-2.8c0.2-1.4,1.4-1.8,2.4-1.5c0.5,0.2,1,0.5,1.5,0.8c1.3,1,2.3,2.2,2.9,3.7
		c1.3,3.1,2,6.4,2.1,9.8c0,0.8-0.1,1.6-0.2,2.4c0,0.3-0.2,0.6-0.3,0.9c-0.4,0.7-1,1-1.7,0.6c-0.6-0.3-1.3-0.7-1.8-1.2
		c-2.8-2.8-4.5-6.2-4.8-10.2c0-0.5-0.1-1-0.1-1.5C262.6,266.7,262.6,266.3,262.6,265.9C262.6,265.9,262.6,265.9,262.6,265.9z"/>
	<path d="M178.7,297.8c-0.6-1.3-1-2.5-1.3-3.7c-0.5-2.1-0.9-4.2-0.7-6.4c0.1-1.3,0.3-2.5,0.8-3.7c0.3-0.6,0.6-1.2,1-1.7
		c1-1.2,2.3-1.4,3.7-0.5c0.9,0.6,1.5,1.4,2,2.4c1.5,3.4,1.7,9.1-3.1,12.3C180.2,296.8,179.5,297.2,178.7,297.8z"/>
	<path d="M227,283.8c-3.4,1.3-6.7,2.5-10,3.8c-0.1-1.2-0.3-2.4-0.4-3.5c-0.1-1.5-0.2-3.1-0.2-4.6c0-2.3,0.5-4.4,1.5-6.4
		c0.3-0.5,0.7-1,1.1-1.5c0.5-0.5,0.9-0.5,1.5-0.1c0.5,0.4,0.9,0.7,1.3,1.2c0.8,1.2,1.7,2.4,2.3,3.8
		C225.1,278.9,226.1,281.4,227,283.8z"/>
	<path d="M312.4,248.4c-0.7-2.6-1-5.1,0.4-7.5c0.2-0.4,0.6-0.9,1-1.2c0.8-0.7,1.7-0.7,2.5,0.1c1.1,1.1,1.3,2.5,1,4
		c-0.2,0.9-0.6,1.8-1.3,2.5C315,247.2,313.8,248,312.4,248.4z"/>
</g>
</svg>
