<?xml version="1.0" encoding="UTF-8" standalone="no"?>
<!-- Generator: Adobe Illustrator 21.0.0, SVG Export Plug-In . SVG Version: 6.00 Build 0)  -->

<svg version="1.1" id="Layer_1" xmlns="http://www.w3.org/2000/svg" xmlns:xlink="http://www.w3.org/1999/xlink" x="0px" y="0px"
	 viewBox="0 0 1000 1000" style="enable-background:new 0 0 1000 1000;" xml:space="preserve">
    <g
        id="g3755"
        transform="matrix(1.377318,0,0,1.2510472,77.025819,5.3244175)"><path
        class="st0"
        d="M 587.3,199.5 331.4,46.3 C 323.3,41.5 314.2,39 305.1,39 c -9.3,0 -18.3,2.5 -26.3,7.3 L 22.9,199.5 C 7.4,208.8 -2,225.4 -2,243.4 v 312.8 c 0,18.3 9.8,35.2 25.6,44.3 l 255.9,147.8 c 7.9,4.6 16.8,6.9 25.6,6.9 8.8,0 17.7,-2.3 25.6,-6.9 L 586.6,600.5 c 15.8,-9.1 25.6,-26 25.6,-44.3 V 243.4 c 0,-18 -9.5,-34.6 -24.9,-43.9 z M 305.1,90.2 536.1,228.5 304.9,367.1 74,228.6 Z M 49.2,273.4 279.3,411.5 V 689 L 49.2,556.2 Z M 330.4,689.3 V 411.4 L 561,273.3 v 282.9 z"
        id="path3753" />
    </g>
</svg>