<?xml version="1.0" encoding="utf-8"?>
<!-- Generator: Adobe Illustrator 21.0.0, SVG Export Plug-In . SVG Version: 6.00 Build 0)  -->
<svg version="1.1" id="Layer_1" xmlns="http://www.w3.org/2000/svg" xmlns:xlink="http://www.w3.org/1999/xlink" x="0px" y="0px"
	 viewBox="0 0 1000 1000" style="enable-background:new 0 0 1000 1000;" xml:space="preserve">
<style type="text/css">
	.st0{fill-rule:evenodd;clip-rule:evenodd;}
</style>
<path d="M10,18.2L10,18.2L10,18.2z"/>
<g>
	<path class="st0" d="M536.3,667.2v73.2c-2.1,1.5-4.5,3-6.9,4.8v-77.5L536.3,667.2L536.3,667.2z"/>
	<path class="st0" d="M515.3,668v86.3c-4.6,3-9.7,6.4-15.5,10.2c-1.8,1.3-3.6,2.5-5.4,3.8v-61.9c-21.4,18-42.1,42.9-55.9,61v83.1
		c11-20,28-53.3,63.3-77l5.4-3.5c22.6-14.5,35-21.8,43-27.9c2.3-1.8,4.3-3.3,5.8-4.8l3.3-3.3c3.8-4.5,4.9-8.2,5.4-10.1
		c1.6-6.8,0.7-16-11.9-25.4v24.9c-0.8,1.6-1.6,3.3-2.8,4.8v-62c32.7-2.5,54.8-7.1,54.8-12.5c0-8.1-49.1-14.5-109.7-14.5
		c-60.5,0-109.7,6.4-109.7,14.5c0,5.3,21.3,9.9,52.9,12.4V767c9.7-17.6,24.2-45.7,51.8-68.4l4-2.8v-27.4h1
		C502.2,668.2,508.9,668.2,515.3,668L515.3,668L515.3,668z"/>
	<path class="st0" d="M438.5,851.3c13.7-18,34.5-43,55.9-61v49.1c1.8-1.3,3.6-2.6,5.4-3.8c5.8-3.8,10.9-7.3,15.5-10.2v-49.8
		c5.1-3,9.7-5.9,14-8.6v49.2c2.6-1.7,4.9-3.3,6.9-4.8v-48.8c5.6-3.6,10.2-6.9,14-9.7v46.5c1.2-1.5,2-3.1,2.8-4.8v-24.9
		c12.5,9.4,13.7,18.8,11.9,25.4c-0.5,1.8-1.7,5.6-5.4,10.1l-0.5,0.5c-0.5,0.7-1.2,1.3-2,2c-1.6,1.6-4,3.5-6.6,5.4v0.2
		c-8.1,6.1-20.5,13.4-43,27.9l-5.4,3.5c-35.1,23.9-52.3,57.1-63.3,77v-70.3L438.5,851.3L438.5,851.3L438.5,851.3z"/>
	<path class="st0" d="M438.5,922.4c13.7-18,34.5-43,55.9-61v63.3c1.8-1.3,3.5-2.5,5.4-3.8c5.8-3.8,10.9-7.3,15.5-10.2v-64
		c5.1-3,9.7-5.9,14-8.6v63.3c2.6-1.6,4.9-3.3,6.9-4.8v-63.2c5.6-3.6,10.2-6.9,14-9.7v60.7c1.2-1.5,2-3.1,2.8-4.8v-24.9
		c12.5,9.4,13.7,18.8,11.9,25.4c-0.7,2.1-2.1,7.1-7.9,12.7v0.2l-0.8,0.8l-2,1.6c-1.2,1-2.5,2-3.8,3.1c-8.1,6.1-20.3,13.2-42.6,27.5
		h-0.3l-0.3,0.3l-5.4,3.5c-18,12.2-31.2,26.7-41.2,40.7h8.7c7.9-8.6,16.5-16.8,25.1-24.1V971h-55.9V922.4L438.5,922.4z"/>
	<path class="st0" d="M515.3,931.9V971h14v-0.3h6.9v0.3h14v-0.3h-4c1.5-1,2.8-2,4-2.8v-0.2c2.3-1.8,4.3-3.3,5.8-4.8l1-1
		c5.8-5.6,7.3-10.4,7.9-12.7c1.6-6.8,0.7-16-11.9-25.4v24.9c-0.8,1.7-1.6,3.3-2.8,4.8v-44.7c-3.6,2.8-8.4,6.1-14,9.7v47.2
		c-2.1,1.5-4.5,3-6.9,4.8v-47.3C525.1,926,520.5,928.8,515.3,931.9L515.3,931.9z M437.2,902.9c-2.3-2-4.1-3.6-5.1-5.1
		c-3.6-5.4-6.3-15-6.1-18.1c1.8,4.3,4.9,6.6,4.9,6.6c1.2,1.5,3.3,3.5,6.4,5.9v10.7H437.2L437.2,902.9L437.2,902.9z M437.2,971.2
		c-2.3-2-4.1-3.6-5.1-5.1c-3.5-5.3-6.1-14.5-6.1-17.8c1.8,4.1,4.8,6.4,4.8,6.4c1.2,1.5,3.3,3.6,6.4,6.1v-3.3L437.2,971.2
		L437.2,971.2L437.2,971.2z M436.8,753.6c-2.3-2-4.1-3.6-5.1-5.1c-3.6-5.6-6.9-18.5-6.6-21.1c1.6,5.9,5.3,9.7,5.3,9.7
		c1.2,1.5,3.3,3.5,6.4,5.9V753.6L436.8,753.6L436.8,753.6z M436.8,821.3c-2.3-2-4.1-3.6-5.1-5.1c-3.6-5.6-6.9-18.3-6.6-21.1
		c1.6,5.9,5.3,9.7,5.3,9.7c1.2,1.5,3.3,3.5,6.4,5.9V821.3L436.8,821.3L436.8,821.3z M865.2,91.1c-2.1-8.6-13.5-16.7-32.8-24.1
		c-8.9-3.6-19.5-6.9-31.7-10.2C696.3,28.9,565.3,22.7,434,29.8C267,35.4,140.6,61.6,140.6,93.1c0.2,0.5,0.5,1,0.8,1.5v0.3
		c-1.6,88.4-3.3,176.6-4.8,265l121.6,97.5h-0.3l14.8,11.9h0.2l18.5,14.7c-0.8,33.5,0.2,121.7,0.2,168.1c1.6,3.1,16.7,5.8,39.9,7.9
		c-7.8-2.6-11.9-5.4-11.9-8.4c0-12.7,78.5-23.1,175.2-23.1c47.3,0,90.4,2.5,121.9,6.6c15.7,2.1,22.8,3.8,30.7,5.3
		c14.5,3.3,22.8,7.3,22.8,11.4c0,2.3-2.6,4.6-7.4,6.8c15.3-1.6,27.5-3.8,35.6-6.3v-55.6h0.2c0.3-42.1,1.3-93.3,4.1-112.3
		c48-40.7,116.4-83.5,160-120.7c2.5-45.4,0.2-159.7,4.1-270.3C866.2,92.1,865.7,91.6,865.2,91.1L865.2,91.1L865.2,91.1z
		 M589.7,172.8c4.6-16.5,13.4-28.4,26.2-35.8s28.9-9.9,47.8-7.3c14.8,2,25.9,6.1,33,12.4c7.1,6.3,11.2,14.8,12.4,25.9l-33.8,1.7
		c-0.3-3.1-0.8-5.6-1.7-7.1c-1.3-2.6-3.3-4.8-5.9-6.4c-2.6-1.7-5.8-2.8-9.4-3.3c-8.2-1.2-15.3,0.8-21.3,5.8
		c-4.5,3.6-7.9,10.1-10.6,19c-3.1,11.1-3.1,18.8-0.3,23.4c2.8,4.6,7.9,7.4,15,8.4c6.9,1,12.7,0,17.2-2.8c4.5-2.8,8.4-7.3,11.7-13.4
		l29.7,12.4c-4.3,7.3-9.4,13-15.5,17.5c-6.1,4.5-12.9,7.4-20.5,9.1c-7.6,1.6-16.7,1.8-27.2,0.3c-12.9-1.8-22.9-4.8-30.2-8.9
		c-7.3-4.3-12.7-10.7-16.5-19.5C586.4,195.5,586.3,185,589.7,172.8L589.7,172.8L589.7,172.8z M481.2,122.1l53.9,55.7l-0.5-56.1
		l41.4-0.2l0.8,101.3l-41.4,0.2l-53.8-55.4l0.5,55.6l-41.4,0.2L440,122.1H481.2L481.2,122.1L481.2,122.1z M203.8,389
		c-21.1-10.7-90.7-34-28.9-54.4c1.3-0.5,1.6-0.7,1,0.5c-11.2,11.4,0.5,31.5,29.9,53.8C207.3,389.3,205.8,389.5,203.8,389L203.8,389
		L203.8,389z M347.3,464.9c-40.1-41.1-89.4-83.3-138.4-131.6c-3-6.6-0.7-12,4.6-14.2c15.7-4.6,36-8.6,65.6-11.7
		c-8.6,3.6-30.2,16-22.1,23.9c31.5,40.1,68,89.1,95,132.9C352.6,465,348.4,466,347.3,464.9L347.3,464.9L347.3,464.9z M356,232.8
		c-9.1-1.8-17.6-6.3-25.9-13.2c-8.2-6.9-14.2-16.5-17.8-28.9c-4.8-16.3-3.5-29.9,4.3-40.2c7.8-10.4,20.9-17.2,39.9-20.1
		c14.7-2.3,27-1.6,37.1,2.1c9.9,3.8,18.5,10.6,25.7,20.3l-30.2,11c-2-2.8-3.8-4.9-5.4-6.1c-2.6-2-5.8-3.5-9.1-4.3
		c-3.3-0.8-6.8-1-10.4-0.3c-8.2,1.3-13.7,5.1-16.3,11.4c-2.1,4.6-1.8,11.4,0.8,20.3c3.3,11,7.4,18.1,12.7,21.6
		c5.1,3.5,11.4,4.6,18.5,3.5c6.9-1.2,11.7-3.6,14.2-7.4c2.6-3.8,3.8-9.1,3.5-15.5l34.1,3.1c0.2,7.9-1.5,14.7-4.5,20.5
		c-3.1,5.8-7.6,10.6-13.7,14.2c-6.1,3.6-14.3,6.3-24.7,7.9C375.8,234.6,364.9,234.8,356,232.8L356,232.8L356,232.8z M444.3,328.1
		c1.8,41.7,3.5,86.1,5.3,128.2c-0.7,1.2-3.6,1.2-4.5,0.2c-23.3-45-45.5-95.3-71.1-144.5c-1.2-5.1,3.5-13.9,12.4-15
		c4.5-0.7,64.8-6.3,108.9-3.6C471.6,300.4,440.6,311.5,444.3,328.1L444.3,328.1z M495.6,615.8c-8.7,0-15.5,0.2-19,0.5
		c-1.2,0-1.3-0.2-1.5-1c-1.5-15.8,2.3-90.2,2.3-142.5c0-1.8-0.3-1.8,2.3-1.8H496L495.6,615.8L495.6,615.8z M594.8,619.7
		c-27.2-2.3-63.7-3.6-89.4-4l0.5-144.8c44.9,0.2,71.9,1.7,89.4,3.3L594.8,619.7L594.8,619.7L594.8,619.7z M630.8,623.2
		c-0.2,1.5-1.5,1.6-3.1,1.3c-4-1.2-10.4-2.3-18.5-3.3l0.5-145.3c10.1,1.3,15.3,2.6,20.6,3.3c1.6,0.3,2.5,0.7,2.6,2
		C632.9,496.5,632.1,601.9,630.8,623.2L630.8,623.2z M616.6,453c-1.2,1.6-3.6,5.9-12.5,6.8c-17.3-1.3-47.2-3.1-68.9-4.6
		c-11.7-1.7-8.9-10.2-7.9-12.7c12.2-31.7,30.7-88.9,44.2-130.6c2.8-12,24.7-14.8,28.2-15.5c111.3,6.3,106.7,8.6,118.9,13.7
		c19.1,6.1,11.1,20.5,0.7,29C684.4,373.6,636.7,428.2,616.6,453L616.6,453L616.6,453z M827.2,363.3c-40.9,37.3-106.1,71.6-155,104.4
		c-3.8,2.3-8.2,0.2-6.6-2.8c49.1-45.4,99.6-87.4,133.1-117.9c8.9-5.6-7.6-21.8-16.2-25.4c37.8,7.1,48.5,17.3,55.3,25.2
		C841.3,353.7,831.4,358.8,827.2,363.3L827.2,363.3z"/>
</g>
</svg>
