<?xml version="1.0" encoding="UTF-8"?>
<svg width="120px" height="120px" viewBox="0 0 120 120" version="1.1" xmlns="http://www.w3.org/2000/svg" xmlns:xlink="http://www.w3.org/1999/xlink">
    <title>icon_cnc_120x120</title>
    <defs>
        <path d="M2,0 L52,0 C53.1045695,-4.1271253e-15 54,0.8954305 54,2 L54,27.1229921 C54,27.9842758 53.5083279,28.7699872 52.7337247,29.1465498 L43.6816002,33.5471154 C43.0685495,33.8451416 42.3958038,34 41.7141509,34 L12.2910155,34 C11.60605,34 10.9301234,33.8436333 10.3147479,33.5428166 L1.26186619,29.1174571 C0.489675539,28.7399838 2.76979538e-15,27.9555629 0,27.0960488 L0,2 C-3.57315355e-16,0.8954305 0.8954305,-1.91384796e-17 2,0 Z" id="path-1"></path>
    </defs>
    <g id="icon_cnc_120x120" stroke="none" stroke-width="1" fill="none" fill-rule="evenodd">
        <g id="编组-2" transform="translate(33.000000, 18.000000)">
            <path d="M39.3571429,33.1428571 L39.3571429,40 C39.3571429,40.2366935 39.2612039,40.4509792 39.1060915,40.6060915 C38.9509792,40.7612039 38.7366935,40.8571429 38.5,40.8571429 L38.5,40.8571429 L15.5,40.8571429 C15.2633065,40.8571429 15.0490208,40.7612039 14.8939085,40.6060915 C14.7387961,40.4509792 14.6428571,40.2366935 14.6428571,40 L14.6428571,40 L14.6428571,33.1428571 L39.3571429,33.1428571 Z" id="矩形" stroke="#2A2C2E" stroke-width="2.28571429" fill="#FFFFFF"></path>
            <path d="M33.8571429,41.1428571 L33.8571429,82 C33.8571429,82.2366935 33.7612039,82.4509792 33.6060915,82.6060915 C33.4509792,82.7612039 33.2366935,82.8571429 33,82.8571429 L33,82.8571429 L21,82.8571429 C20.7633065,82.8571429 20.5490208,82.7612039 20.3939085,82.6060915 C20.2387961,82.4509792 20.1428571,82.2366935 20.1428571,82 L20.1428571,82 L20.1428571,41.1428571 L33.8571429,41.1428571 Z" id="矩形" stroke="#2A2C2E" stroke-width="2.28571429" fill="#FFFFFF"></path>
            <g id="编组">
                <mask id="mask-2" fill="white">
                    <use xlink:href="#path-1"></use>
                </mask>
                <path stroke="#2A2C2E" stroke-width="2.28571429" d="M52,1.14285714 C52.2366935,1.14285714 52.4509792,1.23879613 52.6060915,1.39390847 C52.7612039,1.54902082 52.8571429,1.76330654 52.8571429,2 L52.8571429,2 L52.8571429,27.1229921 C52.8571429,27.3348953 52.7966594,27.5375018 52.6885317,27.7102941 C52.5804039,27.8830865 52.424632,28.0260646 52.234055,28.118711 L52.234055,28.118711 L43.1819305,32.5192766 C42.7245752,32.7416135 42.2226856,32.8571429 41.7141509,32.8571429 L41.7141509,32.8571429 L12.2910155,32.8571429 C11.7800095,32.8571429 11.2757468,32.7404883 10.8166571,32.5160695 L10.8166571,32.5160695 L1.76377543,28.09071 C1.57379201,27.9978396 1.41856244,27.8549082 1.31082872,27.6823274 C1.20309501,27.5097467 1.14285714,27.3075166 1.14285714,27.0960488 L1.14285714,27.0960488 L1.14285714,2 C1.14285714,1.76330654 1.23879613,1.54902082 1.39390847,1.39390847 C1.54902082,1.23879613 1.76330654,1.14285714 2,1.14285714 L2,1.14285714 Z"></path>
                <path d="M27.0921402,12.3728037 C30.4325501,12.3728037 33.7705627,13.0026834 37.1071429,14.2572665 L37.1071429,14.2572665 L37.1071429,25.0347859 C33.6034362,26.2970137 30.1835998,26.9320092 26.8462843,26.9320092 C23.5252539,26.9320092 20.2077719,26.3026563 16.8928571,25.0491863 L16.8928571,25.0491863 L16.8928571,14.2659561 C20.342512,13.0061028 23.7418725,12.3728037 27.0921402,12.3728037 Z" id="矩形" stroke="#2A2C2E" stroke-width="2.28571429" fill="#FFFFFF" mask="url(#mask-2)"></path>
                <path d="M2.34214022,12.3728037 C5.68255015,12.3728037 9.02056274,13.0026834 12.3571429,14.2572665 L12.3571429,14.2572665 L12.3571429,25.0347859 C8.8534362,26.2970137 5.43359977,26.9320092 2.0962843,26.9320092 C-1.22474611,26.9320092 -4.54222808,26.3026563 -7.85714286,25.0491863 L-7.85714286,25.0491863 L-7.85714286,14.2659561 C-4.40748801,13.0061028 -1.0081275,12.3728037 2.34214022,12.3728037 Z" id="矩形备份" stroke="#2A2C2E" stroke-width="2.28571429" mask="url(#mask-2)"></path>
                <path d="M51.8421402,12.3728037 C55.1825501,12.3728037 58.5205627,13.0026834 61.8571429,14.2572665 L61.8571429,14.2572665 L61.8571429,25.0347859 C58.3534362,26.2970137 54.9335998,26.9320092 51.5962843,26.9320092 C48.2752539,26.9320092 44.9577719,26.3026563 41.6428571,25.0491863 L41.6428571,25.0491863 L41.6428571,14.2659561 C45.092512,13.0061028 48.4918725,12.3728037 51.8421402,12.3728037 Z" id="矩形备份-2" stroke="#2A2C2E" stroke-width="2.28571429" mask="url(#mask-2)"></path>
            </g>
            <line x1="33.75" y1="45.5508021" x2="20.6064371" y2="54.2134236" id="路径-4" stroke="#2A2C2E" stroke-width="2" stroke-linecap="round"></line>
            <line x1="33.75" y1="62" x2="20.6064371" y2="70.6626215" id="路径-4备份-2" stroke="#2A2C2E" stroke-width="2" stroke-linecap="round"></line>
            <line x1="33.75" y1="54" x2="20.6064371" y2="62.6626215" id="路径-4备份" stroke="#2A2C2E" stroke-width="2" stroke-linecap="round"></line>
            <line x1="33.75" y1="70" x2="20.6064371" y2="78.6626215" id="路径-4备份-3" stroke="#2A2C2E" stroke-width="2" stroke-linecap="round"></line>
        </g>
    </g>
</svg>