<?xml version="1.0" encoding="UTF-8"?>
<svg width="120px" height="120px" viewBox="0 0 120 120" version="1.1" xmlns="http://www.w3.org/2000/svg" xmlns:xlink="http://www.w3.org/1999/xlink">
    <title>icon_3d_120x120</title>
    <g id="icon_3d_120x120" stroke="none" stroke-width="1" fill="none" fill-rule="evenodd">
        <g id="编组-2" transform="translate(28.000000, 18.000000)" stroke="#2A2C2E" stroke-width="2.28571429">
            <rect id="矩形备份-67" fill="#FFFFFF" x="1.14285714" y="1.14285714" width="61.7142857" height="5.71428571" rx="2"></rect>
            <path d="M15,53.04 L15,52.9622247 L29.3026281,33.2159877 C29.7108469,32.6523999 30.3418758,32.3222247 31.0107824,32.3222247 L33.4892176,32.3222247 C34.1581242,32.3222247 34.7891531,32.6523999 35.1973719,33.2159877 L49.5,52.9622247 L49.5,52.9622247 L49.5,53.04" id="路径" fill="#FFFFFF" stroke-linecap="round" stroke-linejoin="round" transform="translate(32.250000, 42.681112) scale(1, -1) translate(-32.250000, -42.681112) "></path>
            <path d="M32.4285714,6.83619048 L32.4285714,32.3929879 C29.3841015,33.8250927 26.4330525,34.5504762 23.5714286,34.5504762 C20.8697812,34.5504762 18.0877543,33.9037141 15.2223017,32.6257508 L15.2223017,32.6257508 L14.7142857,6.83619048 L32.4285714,6.83619048 Z" id="矩形备份" fill="#FFFFFF"></path>
            <path d="M49.7142857,6.83619048 L49.7142857,31.8429255 C46.3408077,33.9037163 43.5587856,34.5504762 40.8571429,34.5504762 C37.9955189,34.5504762 35.0444699,33.8250927 32,32.3929879 L32,32.3929879 L32,6.83619048 L49.7142857,6.83619048 Z" id="矩形备份-3" fill="#FFFFFF"></path>
            <g id="编组" transform="translate(3.428571, 58.626667)" stroke-linecap="round" stroke-linejoin="round">
                <path d="M47.0541872,18.64 L4.70580619,18.64 C2.11756673,18.64 0,17.349931 0,15.7731361 C0,14.1963413 2.11756673,12.9066667 4.70580619,12.9066667 L46.3057925,12.9066667" id="Stroke-1备份"></path>
                <path d="M50.6403941,7.17333333 L31.9290209,7.17333333 C30.082493,7.17333333 28.5714286,5.76658353 28.5714286,4.04717487 L28.5714286,0" id="Stroke-3备份"></path>
                <path d="M5.30003676,18.64 L53.5632117,18.64 C56.1603802,18.64 58.2857143,19.9301578 58.2857143,21.5070611 C58.2857143,23.08357 56.1603802,24.3733333 53.5632117,24.3733333 L0,24.3733333" id="Stroke-5备份"></path>
                <path d="M36.6706016,7.17333333 L53.5592442,7.17333333 C56.158849,7.17333333 58.2857143,8.46340235 58.2857143,10.0401972 C58.2857143,11.616992 56.158849,12.9066667 53.5592442,12.9066667 L15.2512315,12.9066667" id="Stroke-7备份"></path>
            </g>
        </g>
    </g>
</svg>