<?xml version="1.0" encoding="UTF-8"?>
<svg width="120px" height="120px" viewBox="0 0 120 120" version="1.1" xmlns="http://www.w3.org/2000/svg" xmlns:xlink="http://www.w3.org/1999/xlink">
    <title>icon_laser_120x120</title>
    <defs>
        <rect id="path-1" x="0" y="0" width="64" height="10" rx="2"></rect>
    </defs>
    <g id="icon_laser_120x120" stroke="none" stroke-width="1" fill="none" fill-rule="evenodd">
        <g id="编组-2" transform="translate(28.000000, 18.000000)">
            <g id="编组">
                <mask id="mask-2" fill="white">
                    <use xlink:href="#path-1"></use>
                </mask>
                <rect stroke="#2A2C2E" stroke-width="2.28571429" x="1.14285714" y="1.14285714" width="61.7142857" height="7.71428571" rx="2"></rect>
            </g>
            <path d="M32,6.14285714 C40.1672928,6.14285714 46.1411899,7.42345771 49.8571429,10.1230464 L49.8571429,10.1230464 L49.8571429,41.8369148 C49.8571452,42.1223004 49.7518679,42.3858086 49.5759144,42.5877302 C49.3999591,42.7896539 49.1533266,42.9299898 48.8706211,42.9690287 C44.5710006,43.562765 38.9473196,43.8571429 32,43.8571429 C25.0526737,43.8571429 19.4289887,43.5627644 15.1293799,42.9690288 C14.8466753,42.9299866 14.6000436,42.789649 14.4240882,42.5877249 C14.2481354,42.3858035 14.1428571,42.122297 14.1428571,41.836913 L14.1428571,41.836913 L14.1428571,10.1230464 C17.8588101,7.42345771 23.8327072,6.14285714 32,6.14285714 Z" id="矩形" stroke="#2A2C2E" stroke-width="2.28571429" fill="#FFFFFF"></path>
            <path d="M32,44.5 L32,89 M57.1428571,67.0659944 L6.85714286,67.0659944 M38.2482299,52.865613 L25.9696047,82.4161691 M46.7156643,61.3749505 L17.032777,73.3301252 M46.6240666,73.838199 L17.1538648,61.367946 M38.1374619,82.1722661 L26.1177561,52.5154511 M48.358524,82.8037379 L16.0336426,50.5799071 M15.641476,82.8037379 L47.9663574,50.5799071" id="形状结合" stroke="#2A2C2E" stroke-width="2" stroke-linecap="round" stroke-linejoin="round"></path>
            <ellipse id="椭圆形" stroke="#2A2C2E" stroke-width="2" fill="#FFFFFF" cx="32" cy="67.4963522" rx="9.14285714" ry="9.1142757"></ellipse>
            <path d="M15,32 C20.6666667,32.9572842 26.3333333,33.4359262 32,33.4359262 C37.6666667,33.4359262 43.3333333,32.9572842 49,32" id="路径-3" stroke="#2A2C2E" stroke-width="2" stroke-linecap="round" stroke-linejoin="round"></path>
        </g>
    </g>
</svg>