<svg fill="none" height="432" viewBox="0 0 432 432" width="432" xmlns="http://www.w3.org/2000/svg" xmlns:xlink="http://www.w3.org/1999/xlink"><linearGradient id="a"><stop offset="0" stop-color="#1d1d23"/><stop offset=".0411374" stop-color="#2e2e2e"/><stop offset=".13522" stop-color="#1d1d23"/><stop offset=".494792" stop-color="#31313a"/><stop offset=".849382" stop-color="#1d1d23"/><stop offset=".93104" stop-color="#2e2e2e"/><stop offset=".994366" stop-color="#1d1d23"/></linearGradient><linearGradient id="b" gradientUnits="userSpaceOnUse" x1="8.41465" x2="22.9643" xlink:href="#a" y1="154.164" y2="154.164"/><linearGradient id="c" gradientUnits="userSpaceOnUse" x1="150.301" x2="164.851" xlink:href="#a" y1="154.164" y2="154.164"/><linearGradient id="d" gradientUnits="userSpaceOnUse" x1="292.19" x2="306.74" xlink:href="#a" y1="154.164" y2="154.164"/><linearGradient id="e" gradientUnits="userSpaceOnUse" x1="55.7106" x2="70.2602" xlink:href="#a" y1="154.164" y2="154.164"/><linearGradient id="f" gradientUnits="userSpaceOnUse" x1="197.598" x2="212.148" xlink:href="#a" y1="154.164" y2="154.164"/><linearGradient id="g" gradientUnits="userSpaceOnUse" x1="339.485" x2="354.035" xlink:href="#a" y1="154.164" y2="154.164"/><linearGradient id="h" gradientUnits="userSpaceOnUse" x1="103.005" x2="117.555" xlink:href="#a" y1="154.164" y2="154.164"/><linearGradient id="i" gradientUnits="userSpaceOnUse" x1="244.893" x2="259.443" xlink:href="#a" y1="154.164" y2="154.164"/><linearGradient id="j" gradientUnits="userSpaceOnUse" x1="386.78" x2="401.33" xlink:href="#a" y1="154.164" y2="154.164"/><linearGradient id="k" gradientUnits="userSpaceOnUse" x1="32.0621" x2="46.6118" xlink:href="#a" y1="154.164" y2="154.164"/><linearGradient id="l" gradientUnits="userSpaceOnUse" x1="173.95" x2="188.499" xlink:href="#a" y1="154.164" y2="154.164"/><linearGradient id="m" gradientUnits="userSpaceOnUse" x1="315.837" x2="330.386" xlink:href="#a" y1="154.164" y2="154.164"/><linearGradient id="n" gradientUnits="userSpaceOnUse" x1="79.358" x2="93.9077" xlink:href="#a" y1="154.164" y2="154.164"/><linearGradient id="o" gradientUnits="userSpaceOnUse" x1="221.247" x2="235.796" xlink:href="#a" y1="154.164" y2="154.164"/><linearGradient id="p" gradientUnits="userSpaceOnUse" x1="363.133" x2="377.683" xlink:href="#a" y1="154.164" y2="154.164"/><linearGradient id="q" gradientUnits="userSpaceOnUse" x1="126.653" x2="141.203" xlink:href="#a" y1="154.164" y2="154.164"/><linearGradient id="r" gradientUnits="userSpaceOnUse" x1="268.542" x2="283.091" xlink:href="#a" y1="154.164" y2="154.164"/><linearGradient id="s" gradientUnits="userSpaceOnUse" x1="410.428" x2="424.978" xlink:href="#a" y1="154.164" y2="154.164"/><mask id="t" height="432" maskUnits="userSpaceOnUse" width="432" x="0" y="0"><path d="m0 0h432v432h-432z" fill="#f3f5f9"/></mask><g mask="url(#t)"><path d="m-.765625-9h434.758v449.307h-434.758z" fill="#1d1d23"/><path d="m8.33008-9h14.5526v449.307h-14.5526z" fill="url(#b)"/><path d="m150.217-9h14.5526v449.307h-14.5526z" fill="url(#c)"/><path d="m292.105-9h14.5525v449.307h-14.5525z" fill="url(#d)"/><path d="m55.626-9h14.5526v449.307h-14.5526z" fill="url(#e)"/><path d="m197.514-9h14.5526v449.307h-14.5526z" fill="url(#f)"/><path d="m339.4-9h14.5526v449.307h-14.5526z" fill="url(#g)"/><path d="m102.921-9h14.5526v449.307h-14.5526z" fill="url(#h)"/><path d="m244.809-9h14.5526v449.307h-14.5526z" fill="url(#i)"/><path d="m386.695-9h14.5526v449.307h-14.5526z" fill="url(#j)"/><path d="m31.9775-9h14.5526v449.307h-14.5526z" fill="url(#k)"/><path d="m173.865-9h14.5526v449.307h-14.5526z" fill="url(#l)"/><path d="m315.752-9h14.5526v449.307h-14.5526z" fill="url(#m)"/><path d="m79.2734-9h14.5526v449.307h-14.5526z" fill="url(#n)"/><path d="m221.162-9h14.5525v449.307h-14.5525z" fill="url(#o)"/><path d="m363.049-9h14.5526v449.307h-14.5526z" fill="url(#p)"/><path d="m126.568-9h14.5526v449.307h-14.5526z" fill="url(#q)"/><path d="m268.457-9h14.5526v449.307h-14.5526z" fill="url(#r)"/><path d="m410.344-9h14.5526v449.307h-14.5526z" fill="url(#s)"/></g></svg>