<svg width="71" height="14" viewBox="0 0 71 14" fill="none" xmlns="http://www.w3.org/2000/svg">
<path d="M11.6731 3.26709C9.57864 3.26709 7.875 4.97073 7.875 7.06521V10.7932H9.39826V7.06521C9.39826 5.80251 10.4204 4.79035 11.6731 4.79035C12.9358 4.79035 13.948 5.81253 13.948 7.06521V10.7932H15.4712V7.06521C15.4712 4.97073 13.7776 3.26709 11.6731 3.26709Z" fill="#B9BCBF"/>
<path d="M22.2058 3.5076V4.02872C21.5744 3.54769 20.7828 3.26709 19.9309 3.26709C17.8365 3.26709 16.1328 4.97073 16.1328 7.06521C16.1328 9.15969 17.8365 10.8633 19.9309 10.8633C20.7828 10.8633 21.5744 10.5827 22.2058 10.1017V10.7932H23.7291V3.5076H22.2058ZM19.9309 9.34008C18.6682 9.34008 17.6561 8.31789 17.6561 7.06521C17.6561 5.80251 18.6783 4.79035 19.9309 4.79035C21.1936 4.79035 22.2058 5.81253 22.2058 7.06521C22.2058 8.31789 21.1836 9.34008 19.9309 9.34008Z" fill="#B9BCBF"/>
<path d="M28.6106 3.26709C26.5161 3.26709 24.8125 4.97073 24.8125 7.06521V14H26.3358V10.1017C26.9671 10.5827 27.7588 10.8633 28.6106 10.8633C30.7051 10.8633 32.4087 9.15969 32.4087 7.06521C32.4087 4.97073 30.7151 3.26709 28.6106 3.26709ZM28.6106 9.34008C27.3479 9.34008 26.3358 8.31789 26.3358 7.06521C26.3358 5.80251 27.3579 4.79035 28.6106 4.79035C29.8733 4.79035 30.8855 5.81253 30.8855 7.06521C30.8955 8.31789 29.8733 9.34008 28.6106 9.34008Z" fill="#B9BCBF"/>
<path d="M51.901 3.5076V4.79035C51.2095 3.86838 50.1072 3.26709 48.8645 3.26709C46.77 3.26709 45.0664 4.97073 45.0664 7.06521C45.0664 9.15969 46.77 10.8633 48.8645 10.8633C50.1072 10.8633 51.2095 10.262 51.901 9.34008V10.7932H52.6626V3.5076H51.901ZM48.8645 10.1017C47.1909 10.1017 45.828 8.73879 45.828 7.06521C45.828 5.39163 47.1909 4.02872 48.8645 4.02872C50.5381 4.02872 51.901 5.39163 51.901 7.06521C51.901 8.73879 50.5381 10.1017 48.8645 10.1017Z" fill="#B9BCBF"/>
<path d="M44.5445 6.25348C44.5245 4.59994 43.1716 3.26709 41.508 3.26709C40.3656 3.26709 39.3734 3.89844 38.8523 4.83043C38.3312 3.89844 37.3391 3.26709 36.1967 3.26709C34.5331 3.26709 33.1902 4.59994 33.1602 6.25348V10.7932H33.9218V6.30358C33.9218 5.04088 34.944 4.02872 36.1967 4.02872C37.4594 4.02872 38.4715 5.0509 38.4715 6.30358V10.7932H39.2331V6.30358C39.2331 5.04088 40.2553 4.02872 41.508 4.02872C42.7707 4.02872 43.7829 5.0509 43.7829 6.30358V10.7932H44.5445V6.25348Z" fill="#B9BCBF"/>
<path d="M65.5973 7.52622C65.457 8.39809 64.9459 9.20982 64.1141 9.69085C62.7712 10.4625 61.0876 10.1017 60.1757 8.89916L64.2043 6.57419L65.3969 5.89273L66.0583 5.51191C66.0082 5.40168 65.948 5.28142 65.8879 5.17119C64.8357 3.35731 62.5207 2.73598 60.7068 3.77821C58.893 4.83046 58.2716 7.14541 59.3139 8.95929C60.3661 10.7732 62.6811 11.3945 64.4949 10.3523C65.7075 9.65076 66.389 8.37804 66.389 7.07526L65.5973 7.52622ZM61.0776 4.4296C62.4205 3.65795 64.1041 4.01872 65.016 5.22129L59.7949 8.23774C59.2136 6.84476 59.7348 5.21127 61.0776 4.4296Z" fill="#B9BCBF"/>
<path d="M59.3759 3.26699H58.3036L54.5155 7.05509V0H53.7539V10.7931H54.5155V8.12738L55.0567 7.58622L58.2635 10.7931H59.3459L55.5979 7.04506L59.3759 3.26699Z" fill="#B9BCBF"/>
<path d="M67.2031 7.06498V10.793H67.9648V7.06498C67.9648 7.06498 67.9648 7.06498 67.9648 7.05496C67.9648 5.38138 69.3277 4.01846 71.0012 4.01846V3.25684C68.9068 3.26686 67.2031 4.9705 67.2031 7.06498Z" fill="#B9BCBF"/>
<path d="M3.39601 6.20323C2.73459 6.08297 2.31369 5.70216 2.37382 5.38147C2.46401 4.91047 3.18556 4.79021 4.15764 4.76014C5.46042 4.72006 6.53271 5.17102 6.53271 5.17102C6.53271 5.17102 6.93357 4.23903 7.08389 3.87826C5.93143 3.34712 4.73888 3.23689 4.16766 3.23689C2.18341 3.22687 0.660156 4.28914 0.660156 5.47167C0.660156 6.76443 2.19343 7.59621 3.66658 7.73651C4.86916 7.84674 5.61074 8.29771 5.57066 8.71861C5.53057 9.0894 4.90924 9.27981 4.22778 9.30987C3.63652 9.33994 2.49408 9.30987 1.29151 8.85891C1.20131 9.06936 0.880628 9.84101 0.740328 10.1617C1.04097 10.312 2.57425 11.0035 4.56851 10.8131C6.45254 10.6327 7.56492 9.40007 7.43464 8.40794C7.16406 6.46379 4.55849 6.40366 3.39601 6.20323Z" fill="#B9BCBF"/>
</svg>
