<?xml version="1.0" standalone="no"?>
<!DOCTYPE svg PUBLIC "-//W3C//DTD SVG 20010904//EN"
 "http://www.w3.org/TR/2001/REC-SVG-20010904/DTD/svg10.dtd">
<svg version="1.0" xmlns="http://www.w3.org/2000/svg"
 width="1000pt" height="1000pt" viewBox="0 0 1000.000000 1000.000000"
 preserveAspectRatio="xMidYMid meet">
<metadata>
Created by potrace 1.15, written by Peter Selinger 2001-2017
</metadata>
<g transform="translate(0.000000,1000.000000) scale(0.100000,-0.100000)"
fill="#000000" stroke="none">
<path d="M2935 9795 c35 -12 37 -14 13 -14 -14 -1 -40 -13 -57 -27 -44 -36
-44 -93 -1 -136 27 -27 36 -30 71 -25 24 3 47 14 59 29 21 25 28 94 8 82 -8
-5 -9 -2 -4 11 7 19 -18 55 -38 55 -6 0 -4 -5 4 -10 8 -5 11 -10 5 -10 -5 0
-16 4 -24 9 -11 7 -8 11 10 16 22 7 23 8 4 15 -11 4 -36 10 -55 13 -35 6 -34
6 5 -8z m23 -42 c15 -9 33 -23 40 -32 14 -18 16 -67 2 -76 -5 -3 -10 -11 -10
-17 0 -23 30 16 31 41 2 24 2 25 6 3 6 -29 -23 -63 -45 -55 -10 4 -13 2 -8 -5
9 -16 3 -15 -41 3 -44 19 -53 30 -53 69 0 33 25 66 49 66 14 0 14 2 1 10 -26
17 0 11 28 -7z"/>
<path d="M1640 9754 c-30 -13 -79 -28 -109 -35 -29 -6 -67 -17 -85 -25 l-31
-15 35 7 c30 5 24 -1 -40 -38 -157 -92 -217 -133 -315 -213 -575 -474 -861
-1223 -750 -1965 43 -290 144 -578 283 -808 56 -94 62 -108 62 -159 0 -38 5
-62 16 -75 12 -13 18 -40 19 -100 2 -46 6 -92 10 -103 14 -35 -134 116 -221
228 -336 429 -498 989 -440 1517 84 750 532 1363 1206 1652 74 32 129 58 121
58 -31 0 -284 -120 -393 -186 -459 -282 -785 -741 -906 -1274 -204 -895 200
-1828 986 -2279 109 -62 355 -171 384 -171 7 1 -50 27 -127 58 -77 32 -189 86
-250 122 -101 58 -335 225 -350 250 -9 15 7 12 32 -5 12 -8 54 -20 95 -26 l74
-11 -4 -30 c-12 -78 71 -122 131 -70 9 8 17 24 17 34 0 15 21 2 97 -55 54 -41
148 -102 208 -137 61 -35 112 -68 114 -73 2 -6 15 -22 28 -35 20 -20 31 -23
63 -18 30 5 58 -2 129 -29 49 -19 98 -35 108 -36 13 -1 10 -3 -7 -9 l-25 -8
26 -1 c15 -1 32 -7 38 -15 7 -9 15 -104 21 -267 7 -215 8 -177 4 254 l-4 507
49 0 48 0 6 -137 c4 -75 7 -188 7 -251 l0 -115 -41 7 -41 7 7 -183 c4 -101 9
-186 12 -190 2 -5 15 -8 29 -8 38 0 44 -33 44 -251 0 -186 -1 -200 -17 -195
-10 3 -30 8 -45 11 l-27 7 -4 -74 c-1 -40 -5 24 -7 142 l-3 215 -8 -213 c-4
-118 -9 -215 -11 -217 -1 -2 -50 -7 -108 -13 l-105 -9 81 -2 c108 -1 239 10
222 20 -7 4 -9 11 -5 15 4 4 9 5 12 2 9 -9 10 -248 1 -248 -4 0 -6 7 -2 15 5
13 -13 15 -127 13 -105 -2 -114 -3 -44 -5 l87 -4 0 -34 c0 -19 -5 -37 -10 -40
-6 -3 -10 -16 -9 -28 l0 -22 9 23 c5 12 15 22 21 22 7 0 9 -3 6 -6 -14 -14 15
-43 48 -50 l35 -6 -7 -72 c-4 -45 -12 -75 -21 -82 -12 -9 -14 -35 -10 -154 3
-78 10 -145 15 -149 21 -14 28 -53 34 -201 4 -85 11 -197 15 -249 5 -78 4 -93
-7 -89 -8 3 -30 11 -51 18 -28 10 -38 20 -42 43 -7 37 -8 117 -1 117 3 0 22
-7 42 -15 42 -18 43 -18 43 -6 0 5 -22 17 -50 27 l-50 18 -2 55 c-1 35 -3 44
-5 24 -2 -18 0 -80 6 -139 9 -101 11 -108 42 -140 18 -19 52 -43 75 -55 40
-19 42 -23 48 -72 3 -29 9 -259 12 -513 l6 -461 -53 -11 -54 -11 52 5 53 5 0
-66 0 -65 -42 0 c-49 0 -44 -11 9 -19 38 -6 38 -6 41 -60 2 -36 0 -51 -8 -46
-6 3 -8 11 -5 16 4 5 -1 9 -10 9 -9 0 -37 17 -62 37 -39 32 -43 38 -26 44 15
6 14 8 -7 8 -32 1 -130 96 -108 104 8 3 5 6 -8 6 -33 1 -183 197 -410 533
-126 187 -165 257 -183 333 -38 153 -44 209 -51 465 l-6 265 -2 -224 c-2 -169
2 -249 15 -330 9 -58 17 -120 17 -138 0 -18 4 -29 9 -26 6 4 7 1 3 -6 -13 -21
50 -135 191 -344 352 -524 543 -727 813 -866 92 -47 229 -102 253 -101 7 1
-28 16 -78 34 -49 18 -123 49 -163 70 -59 29 -71 40 -62 50 7 10 9 51 4 135
-7 123 -3 137 28 108 8 -6 27 -20 43 -29 30 -16 30 -18 36 -120 l5 -103 2 103
2 102 26 0 c22 0 25 -3 20 -23 -3 -12 -6 -59 -6 -104 l0 -83 -32 -1 c-61 -3
116 -17 297 -23 99 -4 223 -3 275 2 71 7 82 10 43 11 l-53 1 0 38 1 37 19 -23
c12 -15 32 -24 59 -26 22 -2 38 0 36 4 -9 14 25 20 109 20 68 0 86 -3 99 -18
24 -26 21 -66 -5 -87 -23 -16 -23 -17 2 -2 20 12 25 22 24 56 0 29 4 41 15 44
11 3 9 5 -5 6 -57 3 -73 92 -21 121 25 14 30 13 55 -1 28 -16 29 -16 24 6 -2
13 1 26 7 29 25 16 6 -105 -21 -133 -10 -12 -15 -21 -10 -21 5 0 17 10 25 22
15 21 16 12 16 -134 l1 -156 -66 -7 c-57 -7 -179 2 -321 21 -41 6 -43 8 -43
39 0 32 1 33 58 39 81 10 173 28 168 33 -2 3 -31 -1 -63 -7 -68 -15 -493 -38
-486 -27 6 10 -19 9 -36 -2 -13 -9 92 -36 233 -61 60 -10 119 -13 84 -3 -9 2
-19 14 -21 26 -4 21 -4 21 -6 -2 -1 -15 -6 -21 -14 -18 -8 3 -39 8 -70 12 -99
13 -68 34 62 42 l83 6 -3 -40 -4 -41 95 -10 c267 -31 333 -35 350 -24 10 6 41
12 69 13 44 2 51 5 50 23 -1 34 -47 283 -48 261 0 -11 8 -69 18 -130 10 -60
17 -115 14 -122 -3 -7 -18 -13 -34 -13 l-29 0 1 203 c1 129 4 191 10 172 7
-26 8 -25 4 10 -3 22 -5 48 -5 58 0 10 -4 15 -10 12 -6 -4 -8 5 -5 22 3 15 -5
89 -18 163 l-23 135 4 -165 c4 -144 2 -167 -12 -179 -9 -7 -16 -19 -16 -25 0
-8 -12 -11 -34 -8 -45 5 -86 -32 -86 -78 0 -30 0 -30 -58 -30 -57 0 -58 1 -70
34 -7 19 -19 39 -26 45 -16 14 -54 17 -83 7 -17 -5 -23 -3 -23 8 0 8 -7 19
-15 23 -12 7 -15 58 -18 333 l-2 325 -3 -327 c-1 -181 -6 -328 -10 -328 -10 0
-21 362 -24 799 -2 256 -3 286 -8 156 -3 -88 -5 90 -4 395 2 391 0 500 -6 370
-4 -102 -8 -215 -9 -252 -1 -68 -1 -68 -30 -68 -15 0 -49 3 -75 6 l-46 7 0
163 0 163 48 4 47 3 -47 2 c-83 3 -48 32 37 31 29 0 35 -2 20 -8 -17 -7 -16
-9 10 -16 l30 -8 -25 -7 c-24 -8 -24 -8 -2 -9 21 -1 22 -6 24 -73 1 -40 5 17
9 127 5 110 5 540 1 955 -5 526 -9 697 -13 565 -4 -104 -6 -356 -6 -560 1
-282 3 -332 8 -210 5 121 5 100 3 -85 -2 -135 -4 -346 -5 -470 0 -124 -3 -220
-5 -213 -3 6 -9 251 -14 545 l-8 533 3 -527 4 -528 -44 0 c-24 0 -50 -3 -59
-6 -12 -5 -16 5 -19 48 -5 53 0 -991 7 -1547 2 -185 1 -232 -3 -130 l-6 160
-5 -165 -5 -165 -102 -3 -103 -4 -1 164 c-1 89 -7 530 -14 978 l-13 815 4
-615 c2 -338 7 -778 11 -978 4 -231 3 -362 -4 -362 -5 0 -18 6 -29 14 -18 14
-19 30 -21 343 -1 180 1 318 4 305 8 -38 28 -19 30 29 1 39 0 40 -7 14 -7 -28
-7 -27 -5 8 2 28 0 37 -9 34 -10 -4 -15 18 -20 85 -9 136 -7 755 3 739 12 -18
16 -4 16 51 0 55 -17 65 -25 16 -3 -18 -9 244 -13 582 -4 338 -9 759 -12 935
-3 176 -1 310 3 297 11 -35 27 -31 30 7 7 68 -17 103 -31 46 -3 -11 -5 30 -6
90 -1 61 -4 194 -8 298 l-6 187 31 0 32 0 3 -312 2 -313 3 314 2 314 38 -7
c20 -3 67 -6 105 -6 l67 0 2 -322 3 -323 5 325 5 325 4 -260 c2 -143 7 -453
11 -690 6 -326 6 -262 3 261 l-5 691 52 7 c29 4 55 5 57 2 3 -3 9 -103 13
-223 l7 -218 3 225 4 225 7 -190 c3 -104 8 -309 9 -455 l3 -265 9 235 c4 129
7 333 5 453 l-2 217 238 0 237 0 2 -182 2 -183 7 175 c3 98 4 35 2 -145 -3
-175 -1 -603 4 -950 8 -602 8 -616 13 -320 l5 310 3 -311 2 -311 -68 -12 c-78
-14 -97 -31 -151 -139 -24 -48 -31 -73 -29 -114 l1 -53 6 60 c8 72 46 152 65
136 10 -8 12 -3 9 22 -2 29 -2 30 6 7 5 -14 7 -43 5 -65 -3 -32 -2 -36 6 -20
7 15 8 7 5 -30 -4 -37 -3 -45 5 -30 7 15 8 7 5 -30 -4 -37 -3 -45 5 -30 7 15
8 7 4 -30 -4 -37 -3 -46 5 -35 8 11 10 2 6 -35 -4 -36 -3 -44 4 -30 7 15 9 6
5 -30 -3 -36 -2 -45 5 -30 7 15 9 6 5 -30 -3 -36 -2 -45 5 -30 7 15 9 6 5 -30
-3 -36 -2 -45 5 -30 7 15 9 6 5 -30 -3 -36 -2 -45 5 -30 7 15 9 6 5 -30 -3
-36 -2 -45 5 -30 7 15 9 6 5 -30 -3 -36 -2 -45 5 -30 7 15 9 6 5 -30 -3 -36
-2 -45 5 -30 7 15 9 6 5 -30 -3 -38 -2 -45 6 -30 7 15 8 8 5 -30 -4 -37 -3
-45 5 -30 7 15 8 7 5 -30 -4 -37 -3 -45 5 -30 7 15 8 7 5 -30 -4 -37 -3 -45 5
-30 7 15 8 7 4 -30 -4 -37 -3 -46 5 -35 9 11 10 4 5 -30 -4 -34 -3 -41 5 -30
8 11 10 2 6 -35 -4 -36 -3 -44 4 -30 7 15 9 6 5 -30 -3 -36 -2 -45 5 -30 7 15
9 6 5 -30 -3 -36 -2 -45 5 -30 7 15 9 6 5 -30 -3 -36 -2 -45 5 -30 7 15 9 6 5
-30 -3 -36 -2 -45 5 -30 7 15 9 6 5 -30 -3 -36 -2 -45 5 -30 7 15 9 6 5 -30
-3 -36 -2 -45 5 -30 7 15 9 6 5 -30 -3 -38 -2 -45 6 -30 7 15 8 8 5 -30 -4
-37 -3 -45 5 -30 7 15 8 7 5 -30 -4 -37 -3 -45 5 -30 7 15 8 7 5 -30 -4 -37
-3 -45 5 -30 7 15 8 7 5 -30 -4 -37 -3 -45 5 -30 7 15 8 7 5 -30 -4 -37 -3
-45 5 -30 7 15 8 5 5 -35 -3 -41 -2 -49 5 -30 6 19 8 11 4 -30 -3 -39 -2 -49
5 -35 7 15 8 6 5 -30 -3 -36 -2 -45 5 -30 7 15 9 6 5 -30 -3 -36 -2 -45 5 -30
7 15 9 6 5 -30 -3 -36 -2 -45 5 -30 7 15 9 6 5 -30 -3 -36 -2 -45 5 -30 7 15
9 6 5 -30 -3 -36 -2 -45 5 -30 7 15 9 6 5 -30 -3 -36 -2 -45 5 -30 7 15 9 6 5
-30 -3 -38 -2 -45 6 -30 7 15 8 8 5 -30 -4 -46 -4 -48 6 -16 8 28 -22 231
-191 1255 -146 881 -200 1228 -193 1246 5 14 21 31 36 38 29 14 1548 77 1645
68 38 -3 51 -1 46 7 -4 7 -3 8 2 4 5 -5 9 -12 9 -15 0 -4 9 -20 20 -36 14 -21
87 -388 282 -1415 144 -762 263 -1395 263 -1407 0 -11 -11 -31 -24 -43 -30
-29 -49 -31 -601 -68 -330 -22 -407 -29 -360 -35 77 -10 336 3 285 13 -23 5
-13 6 27 3 34 -3 115 -1 180 3 94 6 110 9 78 15 -26 4 -17 5 28 2 92 -6 326 8
272 17 -34 6 -32 6 13 4 34 -3 50 0 46 7 -4 6 1 8 16 3 15 -5 20 -3 16 3 -7
11 9 25 32 28 17 3 -14 -33 -43 -49 -11 -6 -85 -16 -165 -23 -80 -6 -118 -12
-85 -12 33 0 101 3 150 7 50 5 91 8 93 6 1 -1 -11 -19 -28 -40 -36 -45 -40
-63 -4 -20 105 127 108 132 107 205 -1 37 -5 76 -11 86 -5 11 -13 40 -16 66
l-7 47 33 -13 c39 -17 362 -156 1043 -449 l500 -215 68 5 69 6 -48 16 c-69 23
-86 51 -91 153 -5 99 5 116 51 88 26 -17 27 -18 8 -24 -11 -4 -28 -19 -37 -34
l-18 -27 32 30 c26 24 41 30 79 30 27 0 51 -5 57 -12 6 -7 21 -15 34 -18 37
-7 56 -35 59 -89 5 -69 -21 -58 -28 12 -3 28 -11 57 -18 64 -8 8 -12 9 -12 1
0 -7 5 -15 10 -18 16 -10 12 -83 -6 -111 -9 -14 -29 -31 -43 -39 -26 -14 -26
-14 16 -15 32 0 46 5 55 19 10 17 21 19 82 15 39 -3 86 -7 104 -9 21 -2 30 0
26 7 -4 6 -1 9 5 7 7 -3 11 -8 9 -13 -2 -4 7 -13 19 -19 18 -10 75 -8 265 5
234 17 243 19 263 42 20 24 23 25 170 25 158 -1 201 3 214 17 5 5 16 33 26 62
16 50 16 54 -2 90 -12 25 -16 47 -12 67 4 17 7 70 8 119 1 79 4 93 26 122 14
18 25 44 25 58 0 14 2 26 3 26 2 0 30 -9 62 -20 32 -11 60 -18 62 -16 2 2 -25
14 -61 26 l-66 22 0 222 0 223 -25 23 c-23 22 -25 30 -25 116 0 51 -4 96 -10
99 -6 3 -7 18 -4 33 6 24 5 25 -7 11 -12 -14 -69 -33 -69 -23 0 2 14 11 30 19
40 21 70 71 69 115 l-2 35 -6 -41 c-11 -67 -39 -100 -78 -95 -7 1 -13 -2 -13
-6 0 -5 -12 -9 -27 -8 -36 0 -64 34 -70 88 -3 23 -10 50 -15 60 -7 14 -4 25
13 43 12 13 17 24 11 24 -6 0 -16 -8 -21 -18 -8 -16 -23 -19 -86 -20 -42 -1
-81 -5 -87 -8 -5 -3 -22 5 -36 19 -15 13 -34 27 -42 31 -8 3 3 4 25 1 32 -4
35 -3 18 5 -27 11 -29 23 -7 40 12 11 25 10 70 -4 31 -10 58 -16 60 -13 4 4
-133 47 -151 47 -5 0 -4 -4 4 -9 19 -12 4 -32 -22 -27 -12 1 -16 1 -9 -1 25
-9 11 -23 -25 -24 -30 0 -34 -2 -18 -9 19 -7 18 -8 -5 -13 -14 -3 -112 -10
-218 -16 -177 -9 -196 -8 -245 9 l-52 19 70 1 c49 1 64 4 50 10 -11 5 -14 9
-7 9 6 1 12 6 12 12 0 6 -9 8 -21 4 -15 -5 -19 -4 -15 4 5 8 -10 11 -49 11
-40 0 -54 -3 -49 -12 4 -7 3 -8 -4 -4 -6 4 -20 1 -31 -6 -15 -9 -28 -9 -61 1
-23 7 -44 10 -47 8 -2 -3 10 -8 27 -12 l32 -7 -24 -25 c-21 -23 -28 -25 -78
-20 -30 4 -49 2 -42 -2 8 -5 -27 -11 -80 -15 -118 -10 -108 -10 -143 -2 -29 5
-29 5 3 -6 l32 -11 0 -118 c0 -84 -3 -119 -12 -119 -6 0 -35 7 -64 16 l-52 17
-4 111 c-5 125 -3 137 20 129 13 -4 14 -3 4 5 -15 10 186 25 228 17 14 -3 0 4
-30 15 -30 11 -59 18 -65 16 -5 -2 -1 -5 9 -5 11 -1 16 -4 13 -8 -4 -3 -50
-10 -103 -14 -87 -6 -104 -4 -167 17 -39 13 -75 23 -80 21 -4 -1 29 -15 75
-30 l83 -27 -3 -121 c-3 -115 5 -158 28 -144 9 6 118 -31 136 -46 8 -6 12 -15
9 -19 -3 -4 2 -10 10 -14 9 -3 19 3 25 14 6 11 16 17 23 14 10 -3 12 -28 9
-97 -2 -51 -5 -93 -7 -95 -1 -1 -28 7 -60 18 -32 11 -60 18 -62 16 -2 -2 25
-14 61 -26 36 -12 69 -27 72 -33 4 -7 3 -9 -1 -4 -5 4 -17 0 -27 -10 -17 -15
-18 -37 -18 -276 l0 -259 -27 6 c-27 5 -27 5 3 -9 17 -7 36 -21 43 -29 16 -19
-137 40 -159 62 -13 12 -12 13 10 8 14 -3 8 2 -12 11 l-38 16 0 253 c0 237 1
253 18 248 13 -5 14 -4 3 4 -10 7 -11 14 -2 31 7 11 15 21 19 21 9 0 6 165 -3
180 -4 6 -12 9 -18 7 -7 -2 -70 16 -141 39 -71 24 -131 42 -133 40 -3 -2 61
-26 141 -52 l146 -48 0 -77 0 -77 -66 25 c-37 13 -69 22 -71 19 -2 -2 25 -14
61 -26 36 -12 66 -24 66 -28 0 -3 -7 -13 -16 -23 -14 -16 -19 -16 -56 -3 -23
8 -43 12 -46 10 -2 -3 14 -10 36 -16 l39 -12 6 -151 c7 -157 9 -357 4 -357 -2
0 -43 16 -91 36 -49 19 -90 33 -92 31 -2 -2 38 -20 90 -41 52 -20 100 -44 106
-51 8 -9 -11 -5 -50 11 -34 14 -64 23 -66 21 -3 -2 29 -17 71 -33 l75 -29 0
-73 c0 -80 3 -77 -55 -58 -11 4 -4 -1 15 -11 19 -9 37 -19 39 -20 3 -2 -4 -13
-15 -24 -20 -19 -20 -19 -94 11 -40 17 -75 28 -77 26 -2 -2 29 -17 69 -33 l73
-29 3 -117 3 -116 -73 31 c-40 17 -354 151 -697 299 -343 148 -627 269 -631
269 -7 0 -40 170 -40 204 0 18 5 18 55 1 11 -3 7 1 -8 10 -16 9 -35 14 -42 11
-8 -3 -15 7 -19 26 -3 17 -4 33 -1 36 2 3 39 -9 81 -27 43 -17 79 -29 81 -27
2 2 -36 19 -84 39 l-88 35 -7 43 c-4 24 -9 56 -12 71 l-5 27 51 -20 c28 -11
52 -18 55 -16 2 2 -18 12 -44 22 -49 18 -76 35 -56 35 6 0 27 -7 48 -16 20 -8
39 -13 41 -11 3 2 -17 12 -43 22 -27 10 -52 21 -56 25 -4 3 -16 54 -26 111
-46 252 -62 335 -67 351 -5 16 -2 17 37 3 23 -9 44 -13 47 -11 2 3 -15 10 -38
17 -27 8 -46 21 -53 36 -14 32 -7 35 43 18 24 -8 45 -14 47 -11 2 2 -20 12
-49 22 l-53 19 -8 55 c-4 30 -6 63 -3 72 2 9 -1 19 -8 21 -6 2 -8 8 -4 12 12
13 26 -4 32 -39 4 -19 13 -39 21 -46 7 -6 60 -16 117 -21 57 -6 130 -19 162
-29 33 -11 61 -18 63 -16 3 2 -19 12 -48 21 l-53 18 49 12 c27 7 55 21 62 31
13 18 11 19 -34 25 -48 6 -48 6 -8 7 73 3 85 -5 85 -54 0 -24 -2 -44 -4 -44
-2 0 -23 7 -46 15 -24 8 -45 13 -47 11 -2 -2 19 -12 47 -21 28 -9 50 -22 49
-28 -5 -30 15 -69 40 -78 14 -6 67 -13 116 -16 50 -3 114 -14 144 -25 30 -10
56 -16 59 -14 2 3 -14 10 -37 17 -44 13 -56 31 -18 28 12 -2 37 3 55 10 l32
13 0 89 c0 87 1 90 23 87 12 -1 74 1 137 5 94 7 122 5 152 -7 21 -9 43 -16 50
-15 7 0 -3 6 -22 13 l-35 13 62 7 c78 10 103 2 103 -30 0 -16 -6 -24 -17 -25
-10 0 7 -9 37 -20 30 -11 58 -18 64 -16 5 2 -10 9 -33 15 -35 11 -41 17 -41
41 0 52 -5 53 -291 36 -296 -17 -415 -18 -444 -4 -14 6 -7 7 23 3 54 -7 751
27 726 36 -10 4 34 5 97 3 67 -2 106 0 95 5 -12 5 27 7 95 5 81 -2 108 0 94 7
-15 7 -9 8 23 4 51 -7 557 17 543 25 -5 4 38 5 97 3 59 -2 102 1 95 5 -6 5 36
7 95 5 82 -2 103 0 92 8 -12 10 -10 11 10 6 14 -3 28 -6 33 -6 4 0 7 -4 7 -8
0 -5 -120 -15 -267 -22 -148 -7 -276 -17 -285 -22 -14 -7 -18 -22 -18 -64 0
-47 -3 -55 -16 -50 -9 3 -28 8 -42 11 -20 4 -18 2 8 -9 57 -24 60 -22 60 43 0
77 10 80 136 46 53 -14 99 -24 102 -21 3 3 -2 6 -11 6 -30 0 -27 18 5 35 23
11 45 14 75 9 41 -6 43 -8 43 -39 0 -23 -5 -35 -16 -37 -10 -2 74 -29 186 -61
111 -32 205 -56 208 -53 3 3 -2 6 -10 6 -9 0 -21 7 -28 15 -10 12 -9 15 7 15
10 0 24 5 31 12 15 15 16 170 2 184 -8 8 73 15 265 24 152 7 272 16 266 19 -5
4 38 5 97 3 80 -2 103 0 92 8 -12 9 -8 10 18 5 42 -9 353 5 347 15 -2 4 6 5
18 3 34 -7 49 18 45 74 -2 37 -7 49 -22 51 -11 3 -16 0 -12 -7 5 -8 -16 -11
-66 -12 -40 -1 -59 -4 -43 -6 87 -10 116 -15 113 -18 -2 -2 -46 0 -98 6 -68 7
-170 6 -360 -3 l-265 -13 115 -12 c82 -8 92 -10 35 -7 -44 2 -138 6 -210 8
l-130 5 115 -13 c65 -7 95 -14 70 -14 -25 -1 -88 3 -140 9 -69 7 -168 7 -360
-3 l-265 -13 135 -13 c119 -11 188 -10 595 10 l460 23 -115 12 c-82 8 -92 10
-35 7 44 -2 139 -6 210 -8 l130 -5 -115 13 c-151 17 -95 19 93 4 140 -11 147
-13 147 -34 0 -27 19 -26 -673 -61 -301 -15 -540 -31 -530 -35 10 -5 4 -5 -15
-2 -42 7 -378 -6 -364 -15 6 -4 -37 -5 -96 -3 -59 2 -102 -1 -95 -5 6 -5 -36
-7 -95 -5 -59 2 -102 -1 -95 -5 6 -5 -36 -7 -95 -6 -63 2 -99 -1 -88 -5 12 -5
-28 -7 -95 -5 -67 2 -106 0 -95 -5 12 -5 -27 -7 -95 -5 -67 2 -106 0 -95 -5
12 -5 -27 -7 -95 -5 -76 2 -107 0 -94 -6 14 -7 1 -8 -40 -4 -33 2 -231 -5
-440 -16 -208 -12 -403 -21 -432 -21 -49 0 -53 2 -53 24 0 27 -5 27 425 48
l260 13 -125 12 c-112 10 -115 11 -30 7 52 -2 151 -6 220 -9 l125 -4 -150 15
c-123 12 -187 13 -355 5 -113 -6 -257 -11 -321 -11 -105 0 -124 3 -219 35 -58
20 -113 32 -123 29 -14 -4 -17 -3 -12 6 5 9 1 10 -15 5 -17 -5 -21 -4 -15 6 6
9 4 11 -8 6 -13 -5 -18 2 -22 31 -4 20 -10 48 -15 62 -5 14 -14 59 -20 100 -6
41 -16 92 -22 113 -6 20 -9 39 -6 42 3 3 171 13 374 23 l369 17 -150 6 c-82 4
-161 10 -175 13 -19 5 -20 4 -6 -2 11 -5 15 -11 10 -14 -16 -10 -179 -20 -207
-13 -37 10 -35 28 2 20 17 -3 32 -2 36 4 11 18 -57 13 -77 -6 -17 -15 -26 -15
-77 -5 -31 7 -69 12 -84 12 -20 0 -28 6 -31 22 -2 13 -9 50 -15 83 -6 33 -16
83 -22 110 -6 28 -14 75 -19 105 -5 30 -20 111 -34 180 -15 69 -31 154 -37
190 -13 80 -44 154 -60 144 -7 -4 -9 -3 -6 3 9 15 -23 40 -61 48 -35 7 -37 10
-112 128 -64 100 -185 225 -318 329 -150 118 -168 135 -208 208 -19 36 -32 54
-28 40 9 -36 95 -162 119 -174 39 -21 190 -141 258 -205 72 -68 174 -197 207
-261 l19 -37 -38 -12 c-56 -16 -58 -16 -87 41 -46 92 -99 152 -343 395 -248
247 -275 282 -300 390 -5 23 -9 29 -10 16 -1 -32 34 -117 71 -172 17 -25 136
-149 263 -276 128 -126 246 -252 264 -278 31 -48 74 -127 69 -127 -48 -3 -752
-30 -795 -30 -56 0 -62 2 -66 23 l-4 22 -2 -22 c-1 -21 -6 -23 -50 -23 l-48 0
-6 193 c-3 105 -4 194 -2 195 15 16 81 -180 95 -281 l9 -62 -4 65 c-5 89 -65
277 -94 294 -11 7 -13 187 -2 205 11 17 81 -51 110 -106 11 -21 20 -34 21 -29
0 5 -11 28 -25 51 -13 23 -22 45 -19 48 7 7 -31 135 -61 207 -21 50 -25 83
-35 310 -7 140 -11 364 -9 497 l4 241 25 27 c14 15 34 31 45 35 16 7 13 9 -15
9 -21 1 -30 -2 -22 -7 9 -7 7 -13 -9 -28 -21 -19 -21 -19 -18 1 2 11 0 26 -4
33 -6 9 1 12 25 12 18 0 44 3 57 7 17 4 22 3 17 -5 -5 -9 26 -12 118 -12 118
0 127 -1 153 -24 27 -24 28 -27 28 -128 0 -56 -3 -130 -7 -163 -6 -45 -5 -53
3 -30 5 17 12 80 16 141 7 123 -4 176 -40 196 -20 11 -19 13 23 19 25 4 75 8
111 8 65 1 67 0 74 -26 4 -16 11 -71 15 -123 l7 -95 1 75 c1 41 -3 95 -9 119
-5 24 -7 46 -4 50 4 3 182 9 396 12 347 6 414 10 398 22 -2 2 -719 -9 -1594
-24 -875 -15 -1690 -29 -1812 -31 l-223 -3 0 112 0 113 68 1 c37 1 236 5 442
9 l375 8 -443 -3 c-243 -2 -444 1 -447 5 -8 13 267 19 1950 41 897 11 1644 24
1660 29 17 4 -71 6 -200 3 -305 -5 -2288 -33 -2404 -33 -78 0 -92 3 -97 18 -3
9 -10 26 -14 37 -5 11 -10 36 -12 56 l-4 36 311 6 c170 4 438 13 595 21 157 8
636 18 1066 22 l781 7 6 -89 c4 -49 7 -242 6 -430 0 -188 5 -352 10 -365 15
-41 37 -53 74 -41 l32 10 -32 1 c-17 1 -35 6 -38 11 -4 6 -1 9 6 8 14 -3 27
32 28 80 1 34 -14 44 -23 15 -3 -11 -4 -7 -3 7 1 17 -3 24 -13 23 -10 -2 -16
7 -17 25 -15 182 -36 2093 -23 2057 4 -11 6 -23 4 -27 -3 -4 0 -10 6 -13 14
-9 40 13 40 32 0 13 -3 13 -15 3 -9 -7 -19 -10 -23 -6 -9 9 28 37 39 30 5 -3
9 14 8 38 0 36 -2 39 -9 21 -5 -13 -12 -23 -14 -23 -3 0 -3 7 0 15 8 21 -6 41
-17 24 -7 -11 -9 -11 -9 2 0 23 11 30 28 17 12 -10 14 -9 10 7 -2 11 -10 19
-17 17 -7 -1 -10 2 -6 8 3 5 18 10 33 11 l27 1 -29 8 c-39 12 -62 -2 -70 -41
-3 -17 -6 -121 -6 -230 l0 -199 -319 0 c-296 0 -320 1 -324 18 -2 9 -3 98 -1
197 l2 180 -7 -155 c-4 -85 -13 -174 -20 -197 l-12 -43 -69 0 c-45 0 -70 4
-73 13 -4 10 -6 10 -6 0 -1 -17 -536 -19 -546 -3 -4 6 -10 8 -14 5 -5 -2 -9
29 -9 71 l-1 76 232 -5 c128 -3 259 -10 292 -15 80 -12 105 -2 104 40 -1 18 2
71 6 118 5 62 1 136 -14 272 -12 103 -21 223 -22 265 -1 45 -4 68 -8 54 -5
-20 -13 -8 -49 75 -61 138 -174 322 -285 461 -97 121 -252 281 -262 271 -3 -3
37 -45 89 -94 175 -165 353 -422 454 -654 46 -107 50 -123 61 -242 6 -71 16
-183 23 -250 8 -83 8 -144 2 -188 l-9 -65 -39 58 c-22 32 -48 59 -60 62 -137
27 -170 44 -339 170 -55 42 -118 86 -138 98 l-37 21 -6 181 c-3 99 -8 353 -12
565 -3 212 -8 388 -11 393 -2 4 -54 7 -114 7 -116 0 -131 7 -113 48 4 9 7 19
6 22 0 3 39 3 86 0 l87 -5 6 -30 7 -30 1 32 c1 29 -3 32 -46 47 -26 9 -58 16
-73 16 -14 0 -77 30 -140 67 -110 63 -268 138 -277 130 -2 -3 22 -15 54 -27
55 -21 315 -162 309 -167 -1 -1 -31 2 -67 8 -38 6 -262 11 -559 12 -418 1
-508 -2 -580 -16 -127 -24 -164 -38 -168 -64 -2 -16 -11 -23 -35 -25 -29 -3
-32 -6 -35 -43 -2 -22 -10 -44 -18 -48 -12 -7 -15 -38 -14 -175 1 -215 2 -204
-10 -197 -21 13 -110 -16 -130 -42 -17 -22 -20 -41 -20 -123 0 -96 -1 -98 -27
-116 -127 -82 -274 -244 -355 -390 -43 -78 -82 -173 -74 -181 2 -3 11 18 21
46 25 78 109 219 178 302 59 71 171 174 228 211 l27 17 4 -64 c5 -80 25 -104
108 -131 l60 -19 2 -170 c2 -225 -2 -317 -14 -332 -6 -7 -25 -13 -42 -13 -24
0 -41 -10 -69 -38 l-37 -38 0 -91 c0 -51 5 -95 10 -98 6 -3 10 -17 10 -31 l0
-24 -172 0 c-95 0 -216 -3 -269 -6 l-96 -7 -5 94 c-5 85 12 241 37 332 5 17 4
19 -4 6 -22 -34 -49 -242 -44 -336 l6 -93 -219 -1 c-121 -1 -246 -4 -279 -8
-51 -5 -60 -9 -63 -27 -2 -12 -12 -24 -23 -27 -20 -5 -20 -5 -2 15 18 21 18
21 -4 9 -28 -14 -38 -63 -29 -139 5 -43 3 -62 -9 -79 -13 -18 -16 -74 -19
-330 l-5 -308 10 300 c7 232 12 306 24 331 9 20 15 61 15 108 0 69 2 76 20 76
13 0 22 9 26 25 5 21 12 25 43 26 20 0 43 2 52 4 12 2 15 -3 11 -20 -3 -18 1
-24 19 -27 22 -3 24 -9 30 -86 4 -53 12 -89 22 -100 21 -24 26 -104 33 -565 5
-377 5 -400 -13 -419 -14 -15 -19 -40 -22 -104 -3 -76 -5 -84 -23 -84 -11 0
-22 -8 -25 -20 -4 -15 -14 -20 -38 -20 -42 0 -65 9 -65 25 0 7 -11 20 -24 28
-21 14 -24 25 -28 96 -3 56 -10 86 -21 99 -13 14 -17 40 -18 103 -1 46 -5 113
-9 149 l-8 65 3 -77 c2 -43 2 -78 0 -78 -12 0 -124 209 -170 317 -147 340
-206 739 -165 1113 49 448 261 906 564 1219 223 231 421 363 776 514 19 9 28
15 20 15 -8 0 -40 -11 -70 -24z m1100 -430 l0 -226 -31 6 c-17 3 -47 6 -65 6
l-34 0 0 165 c0 154 -1 165 -20 175 -15 8 -20 21 -20 55 l0 45 85 0 85 0 0
-226z m50 52 c0 -95 3 -193 6 -218 6 -43 5 -45 -20 -50 l-26 -5 0 223 c0 217
1 224 20 224 19 0 20 -7 20 -174z m338 167 l112 -6 0 -154 0 -154 -29 22 c-16
11 -39 19 -52 17 -16 -2 -27 4 -34 17 -9 17 -22 20 -102 23 -84 3 -92 1 -98
-18 -4 -14 -15 -20 -36 -20 -56 0 -95 -62 -69 -110 5 -10 7 -27 3 -37 -14 -34
-22 56 -22 245 l-1 182 108 0 c59 0 158 -3 220 -7z m-635 -15 c-2 -5 3 -8 11
-8 11 0 16 -10 16 -32 l0 -33 -95 0 -95 0 0 32 c0 19 6 33 15 36 11 4 10 4 -2
3 -13 -1 -19 -11 -21 -36 -3 -32 -15 -49 -34 -50 -14 0 -9 88 5 93 21 7 205 2
200 -5z m779 -125 l2 -138 3 138 4 138 77 -3 77 -3 3 -44 c2 -32 -1 -47 -12
-53 -13 -8 -16 -29 -14 -126 l2 -117 3 113 c4 112 4 112 28 112 l25 0 0 -160
c0 -153 -1 -160 -20 -160 -17 0 -20 7 -22 48 l-2 47 -3 -47 -4 -48 -65 0 -64
0 -2 83 -2 82 -3 -82 c-2 -46 -8 -83 -12 -83 -14 0 -21 95 -21 273 0 105 4
167 10 167 6 0 11 -54 12 -137z m-1002 -40 c0 -93 3 -192 6 -220 7 -52 6 -53
-20 -53 l-26 0 0 220 c0 213 1 220 20 220 19 0 20 -7 20 -167z m-50 -61 l0
-219 -47 -10 c-27 -6 -49 -11 -49 -10 -1 1 -3 98 -5 216 l-4 214 35 13 c74 27
70 39 70 -204z m122 81 l2 -58 3 58 4 57 103 0 103 0 7 -37 c3 -21 6 -95 6
-165 l0 -128 -105 0 -105 0 -2 108 -2 107 -3 -107 c-2 -60 -7 -108 -11 -108
-4 0 -17 -3 -29 -6 l-23 -6 0 165 c0 174 -1 169 43 176 4 0 8 -25 9 -56z
m1338 -123 l0 -160 -100 0 -100 0 0 160 0 160 100 0 100 0 0 -160z m-564 14
c4 -16 2 -29 -6 -34 -6 -4 -12 -23 -13 -43 -1 -50 25 -77 77 -77 76 -1 72 25
80 -596 l6 -552 -77 -7 c-43 -4 -141 -17 -218 -30 -77 -13 -141 -22 -142 -21
-1 1 -7 265 -12 586 l-9 585 4 -587 c3 -360 1 -589 -5 -592 -14 -9 -20 148
-25 692 -6 486 -5 492 14 492 11 0 28 9 37 19 12 14 25 18 52 15 34 -4 34 -3
8 5 -16 5 -35 15 -43 22 -19 15 -18 74 2 93 20 21 63 20 86 -1 22 -20 24 -76
3 -93 -9 -7 -13 -15 -10 -18 3 -3 12 3 20 14 20 27 18 77 -4 100 -13 15 -16
25 -9 37 7 14 25 17 93 17 83 0 85 -1 91 -26z m-763 -581 c4 -219 7 -499 8
-623 0 -124 3 -257 7 -297 5 -48 4 -82 -4 -105 -7 -18 -13 -65 -13 -104 -1
-73 -23 -168 -42 -180 -8 -4 -8 0 0 14 6 11 10 29 10 39 -1 17 -2 17 -6 1 -4
-17 -33 -18 -424 -18 l-419 0 0 115 0 115 428 0 427 0 -1 -97 -2 -98 7 95 c5
57 14 108 25 128 9 17 14 32 12 32 -3 0 -11 -11 -18 -25 -8 -14 -18 -21 -24
-17 -17 10 -36 1404 -20 1414 6 4 18 8 27 8 14 0 16 -44 22 -397z m218 210 c1
-104 4 -384 8 -624 l6 -436 -47 -17 c-25 -9 -70 -32 -99 -51 -28 -20 -55 -33
-58 -30 -6 6 -18 724 -20 1148 l-1 197 105 0 105 0 1 -187z m27 -75 l2 192 59
0 59 0 6 -102 c3 -57 7 -311 10 -565 l4 -462 -53 -16 c-29 -8 -58 -15 -64 -15
-7 0 -12 116 -14 383 l-2 382 0 -388 c0 -213 -3 -387 -7 -387 -5 0 -8 116 -8
258 0 142 -2 420 -4 618 -2 257 -1 295 3 134 l7 -225 2 193z m153 -168 l3
-235 6 175 c4 96 4 -23 2 -265 -3 -242 -6 -441 -7 -443 -5 -6 -15 459 -18 828
-1 201 0 322 4 270 4 -52 8 -201 10 -330z m683 -129 l-7 -541 -28 0 -29 0 0
418 c0 231 -3 467 -7 525 l-6 107 31 0 32 0 3 -217 2 -218 3 239 c1 132 5 237
8 233 3 -3 2 -249 -2 -546z m39 257 c10 -439 9 -798 -3 -798 -6 0 -11 44 -12
108 l-2 107 -7 -105 c-5 -79 -6 -65 -3 59 2 90 4 334 4 543 0 208 4 378 8 378
5 0 12 -132 15 -292z m210 75 c4 -120 7 -358 7 -529 0 -360 12 -324 -118 -333
l-82 -6 0 250 c0 138 -3 382 -7 543 l-6 292 100 0 100 0 6 -217z m-1400 -280
c4 -269 7 -584 7 -700 0 -202 -1 -213 -19 -213 -18 0 -19 22 -25 608 -3 334
-8 649 -10 700 -3 89 -3 92 19 92 l22 0 6 -487z m-59 445 c3 -18 8 -331 12
-695 l6 -663 -50 0 -50 0 -6 213 c-3 116 -7 426 -8 687 l-3 475 30 6 c58 13
64 11 69 -23z m1129 -95 c4 -58 7 -297 7 -530 l0 -423 -33 0 -34 0 -7 520 c-4
286 -5 524 -1 530 3 5 19 10 34 10 l28 0 6 -107z m-1294 -348 c0 -148 3 -415
7 -592 l7 -323 -21 0 c-22 0 -22 1 -22 218 0 119 -3 261 -7 315 -5 82 -4 97 8
92 12 -4 15 6 15 50 1 51 -8 71 -19 43 -3 -7 -6 84 -6 203 -1 119 -4 263 -7
321 -6 99 -6 106 12 110 17 3 20 -5 26 -82 4 -47 7 -206 7 -355z m45 393 c3
-29 8 -335 12 -680 6 -620 5 -628 -14 -628 -19 0 -20 11 -26 468 -3 257 -8
563 -11 680 -5 204 -4 212 14 212 16 0 21 -9 25 -52z m-114 2 c5 0 7 -33 5
-72 -3 -40 -1 -63 3 -50 4 13 7 -42 7 -121 l0 -145 -50 -10 -50 -11 53 6 c48
4 52 3 52 -16 0 -18 -6 -21 -37 -21 -49 0 -84 10 -77 21 3 5 -2 9 -11 9 -27 0
-35 46 -35 205 0 164 6 185 51 185 11 0 17 4 14 10 -4 6 7 8 27 4 27 -5 30 -3
18 6 -13 10 -12 11 3 6 10 -3 23 -6 27 -6z m1792 -738 c30 -22 91 -67 137
-102 45 -34 105 -75 134 -91 l52 -29 -47 0 c-51 0 -32 -12 -283 179 -105 80
-100 117 7 43z m68 -111 c52 -42 106 -83 120 -92 24 -16 23 -16 -37 -23 -59
-7 -63 -6 -123 33 -34 22 -71 43 -81 46 -13 5 -19 16 -19 38 0 18 -3 50 -7 72
l-6 39 28 -18 c16 -11 72 -53 125 -95z m323 -138 l67 -6 45 -63 c62 -86 60
-96 -12 -87 -32 5 -224 8 -428 7 -356 -1 -620 -16 -770 -44 l-50 -9 60 5 c33
3 86 8 118 11 l57 6 0 -73 0 -73 -67 6 c-38 4 -137 7 -220 7 l-153 0 -2 33 -1
32 -4 -32 c-2 -18 -9 -33 -15 -33 -6 0 -8 15 -6 35 4 35 4 36 -26 29 -17 -3
-44 -12 -61 -19 l-30 -13 43 -1 c30 -1 42 -5 42 -16 0 -12 -14 -15 -67 -15
-64 1 -67 2 -43 15 14 8 20 14 14 15 -13 0 -107 -59 -116 -74 -4 -6 -7 -45 -6
-86 l1 -75 6 75 c3 41 10 81 14 88 6 9 274 12 1283 12 l1275 0 -7 -107 c-3
-60 -7 -109 -8 -109 0 -1 -578 -4 -1283 -7 l-1283 -6 -1 27 c-1 20 -3 17 -9
-14 -21 -104 -86 -201 -213 -318 -132 -122 -218 -178 -387 -254 -24 -11 -24
-11 5 -5 73 15 260 132 383 242 68 60 77 65 120 64 l47 0 -43 4 c-24 2 -42 8
-40 13 5 14 270 19 1546 26 848 4 1162 3 1162 -5 0 -8 -153 -11 -542 -12 -299
-1 -885 -5 -1303 -9 -537 -5 -379 -6 539 -3 1090 5 1300 3 1307 -8 7 -12 14
-478 7 -480 -12 -3 -3633 -47 -3637 -44 -2 3 -2 7 1 10 3 3 452 11 999 19 547
7 875 14 729 14 -146 1 -593 -3 -994 -8 -654 -10 -731 -9 -738 5 -5 8 -15 15
-23 15 -11 0 -12 7 -5 31 5 18 7 36 4 40 -3 5 32 10 78 11 60 1 42 3 -67 8
-82 4 -161 12 -175 18 l-25 11 25 1 25 2 -25 7 c-29 8 -36 38 -25 108 l6 42
47 -4 47 -4 -43 9 c-51 11 -64 18 -57 31 4 5 1 9 -5 9 -7 0 -10 -7 -6 -15 3
-8 1 -15 -4 -15 -6 0 -10 -5 -10 -11 0 -5 3 -8 8 -6 4 3 5 -27 4 -65 -3 -51 0
-73 10 -79 10 -7 10 -9 -2 -9 -8 -1 -2 -8 13 -16 20 -11 26 -20 22 -34 -7 -23
18 -75 40 -84 25 -9 70 -7 81 4 11 11 54 2 54 -11 0 -5 -96 -9 -214 -9 -118 0
-221 -3 -230 -6 -12 -5 -16 1 -17 22 l-1 29 -9 -25 c-7 -21 -8 -20 -4 9 3 18
5 127 5 242 l0 209 88 2 87 2 -90 5 c-75 5 -90 9 -93 24 -3 16 13 17 226 17
195 0 231 -2 236 -15 5 -13 -15 -15 -137 -17 l-142 -2 143 -3 c132 -3 171 -12
121 -28 -12 -4 -26 -2 -32 4 -19 19 -63 12 -92 -15 -24 -22 -27 -31 -22 -65 3
-22 1 -37 -4 -33 -5 3 -9 1 -9 -4 0 -25 279 -42 379 -23 76 14 195 51 188 58
-2 2 -23 -3 -46 -12 -70 -24 -199 -45 -283 -45 l-79 0 5 48 c5 40 4 42 -3 13
-11 -41 -25 -51 -73 -51 -64 0 -86 61 -40 113 20 23 63 22 90 -3 18 -17 22
-18 22 -5 0 8 6 15 14 15 8 0 17 7 20 15 5 14 44 16 301 15 191 -1 293 -5 289
-12 -3 -5 -12 -7 -20 -4 -8 3 -54 -14 -102 -39 -48 -24 -81 -44 -74 -45 7 0
35 11 62 25 27 14 53 25 57 25 4 -1 -26 -19 -67 -40 -41 -21 -71 -39 -67 -40
17 -1 174 83 242 131 95 65 210 184 237 246 14 33 23 79 28 148 10 148 37 187
174 251 209 96 584 154 1226 187 116 7 348 7 413 0z m-2203 -165 l0 -93 -55 3
-55 4 0 83 0 84 33 4 c84 10 77 18 77 -85z m1730 -73 l0 -75 -100 0 -100 0 0
58 c0 31 -4 62 -8 69 -4 7 -6 -19 -4 -57 4 -59 2 -70 -12 -70 -13 0 -16 13
-17 73 -1 39 -4 59 -7 42 l-5 -30 -7 30 c-6 22 -8 10 -9 -42 -1 -71 -2 -73
-26 -73 -24 0 -25 2 -25 69 0 58 3 70 18 74 9 3 81 5 160 6 l142 1 0 -75z
m-2250 -220 l0 -115 -132 -2 -133 -2 133 -3 c124 -3 132 -5 132 -23 0 -19 -8
-20 -170 -20 -144 0 -170 2 -170 15 0 10 12 15 38 17 34 1 35 1 6 5 -31 4 -31
4 -38 80 -3 42 -6 93 -6 114 l0 39 168 3 c92 1 168 4 170 5 1 1 2 -50 2 -113z
m-362 19 c5 -115 1 -124 -53 -124 -36 0 -45 4 -50 21 -4 12 -3 24 2 28 20 13
23 72 6 101 -23 40 -5 62 51 59 l41 -2 3 -83z m3907 -144 c-154 -10 -2122 -19
-2320 -11 -125 5 -90 7 215 11 581 8 2237 8 2105 0z m-2695 -10 c0 -7 -145
-10 -415 -10 -270 0 -415 3 -415 10 0 7 145 10 415 10 270 0 415 -3 415 -10z
m-1210 -25 c0 -12 29 -15 178 -17 l177 -3 3 -72 3 -73 -231 0 -230 0 -2 68 -1
67 -7 -50 c-6 -42 -7 -44 -8 -15 -1 19 1 52 4 73 l7 37 53 0 c41 0 54 -4 54
-15z m3914 8 l107 -6 -3 -76 -3 -76 -1009 -8 c-867 -7 -1013 -6 -1040 6 -26
12 -82 14 -324 9 l-293 -5 36 53 c19 29 38 63 41 76 l6 24 532 3 c1342 6 1851
7 1950 0z m-2903 -15 c0 -10 2 -10 6 0 3 8 32 12 93 12 84 0 115 -9 89 -26 -8
-5 -9 -3 -4 6 6 9 4 11 -4 6 -7 -5 -10 -14 -8 -21 6 -13 -83 -103 -148 -151
l-40 -29 -307 3 c-199 2 -308 6 -308 13 0 6 109 9 316 9 174 -1 318 1 322 4 3
3 -142 6 -323 6 l-327 0 6 31 c3 17 6 49 6 70 l0 39 320 0 320 0 0 -70 c0 -38
3 -70 8 -70 4 0 5 29 4 65 l-4 65 59 2 58 1 -65 7 c-36 4 -208 8 -382 9 -196
1 -318 5 -318 11 0 11 89 15 398 18 180 2 232 -1 233 -10z m-641 -728 c0 -19
-7 -20 -230 -20 -193 0 -230 2 -230 14 0 22 18 24 248 25 206 1 212 0 212 -19z
m660 -72 l0 -68 -228 0 c-126 0 -270 -3 -320 -6 l-92 -7 0 71 0 72 208 3 c114
1 258 3 320 3 l112 0 0 -68z m230 7 l0 -65 -110 0 -110 0 0 65 0 65 110 0 110
0 0 -65z m-890 -35 l0 -70 -147 -2 -148 -2 145 -3 c138 -3 159 -8 160 -35 0
-5 -76 -8 -169 -8 -141 0 -170 2 -175 15 -4 10 1 15 17 16 21 1 20 1 -3 8 -19
6 -27 3 -34 -11 -7 -14 -21 -18 -58 -18 l-48 0 0 90 0 90 230 0 230 0 0 -70z
m920 -49 c0 -12 -7 -20 -17 -20 -10 -1 -198 -3 -418 -6 -220 -3 -415 -7 -432
-8 -21 -2 -33 2 -33 9 0 17 194 26 448 22 111 -2 202 1 202 5 0 5 54 7 120 5
66 -2 120 0 120 5 0 4 2 7 5 7 3 0 5 -9 5 -19z m-1273 -194 l1 -113 -32 3
c-64 8 -76 13 -76 33 0 11 5 20 10 20 6 0 10 23 10 50 0 28 -4 50 -9 50 -4 0
-7 -12 -5 -27 2 -17 1 -20 -2 -8 -14 48 -26 38 -22 -17 4 -44 1 -58 -9 -58
-10 0 -13 18 -13 70 0 56 3 70 15 70 8 0 15 -6 16 -12 0 -7 4 -3 9 10 8 18 17
22 55 22 28 0 44 4 40 10 -3 6 -2 10 3 10 4 0 9 -51 9 -113z m363 -2 l0 -115
-165 0 c-164 0 -165 0 -166 23 -1 21 -1 21 -10 -3 -7 -21 -8 -20 -4 9 3 18 5
71 5 117 l0 84 170 0 170 0 0 -115z m1997 -1055 l3 -960 -25 0 -25 0 -2 138
-2 137 -3 -137 -4 -137 -35 -7 c-19 -3 -37 -5 -39 -2 -2 2 -4 154 -5 338 0
184 -4 513 -8 730 l-7 395 -6 -375 -5 -375 3 400 c1 220 5 489 9 598 l6 197
34 0 34 0 1 -322 c1 -178 5 -541 9 -808 5 -356 6 -269 3 323 l-5 807 20 0 c24
0 30 -24 35 -135 2 -47 4 -32 5 43 1 61 3 112 5 112 1 0 3 -432 4 -960z m37
848 c3 -62 8 -486 12 -943 3 -456 8 -838 10 -847 4 -12 0 -18 -10 -18 -14 0
-16 27 -18 213 l-2 212 -6 -165 c-3 -91 -5 103 -4 430 1 418 -1 528 -6 370 -6
-188 -7 -169 -4 119 2 189 4 434 4 543 0 109 4 198 9 198 5 0 11 -51 15 -112z
m210 -20 c3 -73 9 -501 12 -952 6 -691 5 -820 -7 -827 -8 -5 -51 -9 -96 -9
-69 0 -82 3 -87 18 -2 9 -7 391 -10 847 -4 457 -9 881 -12 943 l-6 112 100 0
100 0 6 -132z m-1616 5 c2 100 3 107 22 107 11 0 20 -1 21 -2 2 -9 56 -3934
54 -3936 -1 -1 -10 0 -19 4 -12 4 -16 20 -18 58 l-1 51 -6 -53 c-6 -50 -7 -52
-25 -39 -18 13 -19 34 -24 316 -4 254 -3 301 9 299 23 -5 25 83 3 99 -17 12
-18 44 -22 397 -4 380 -4 384 17 405 l21 21 0 -362 c0 -199 3 -358 7 -355 3 4
0 492 -8 1084 -10 783 -15 1005 -19 813 -3 -146 -2 -317 2 -380 11 -186 9
-747 -2 -730 -9 13 -11 13 -20 0 -6 -10 -10 92 -10 306 0 176 -3 362 -7 413
-5 79 -4 91 9 86 12 -5 14 4 13 47 -3 66 -3 66 -15 48 -6 -10 -10 47 -10 171
0 102 -3 289 -6 415 -4 158 -2 224 5 214 9 -13 11 -12 16 2 11 27 1 103 -12
101 -10 -2 -13 27 -13 120 0 67 -3 179 -7 248 -6 120 -5 127 13 131 17 3 19
-5 25 -102 l5 -105 2 108z m244 -1905 c15 -1107 25 -2014 24 -2016 -2 -1 -11
0 -20 4 -13 5 -16 23 -18 88 l-2 81 -3 -82 -4 -82 -54 26 -55 27 0 131 c0 71
-11 920 -25 1885 -14 965 -25 1799 -25 1853 l0 97 78 0 78 0 26 -2012z m-462
1868 l0 -134 -30 -30 c-39 -39 -41 -88 -5 -130 l25 -30 -47 12 c-89 24 -292
113 -411 180 -64 37 -171 109 -237 159 l-120 92 99 3 c54 1 101 1 103 -2 3 -2
-3 -16 -12 -30 -30 -45 2 -142 38 -119 6 3 7 1 3 -5 -4 -7 -4 -12 1 -12 4 0
19 -3 33 -6 20 -5 22 -4 10 6 -12 9 -10 10 12 6 40 -9 61 20 62 84 1 33 -4 56
-13 63 -19 16 67 23 307 25 l182 2 0 -134z m156 47 c-1 -435 7 -835 15 -818 8
17 8 16 3 -5 -9 -31 -9 -55 -6 -418 1 -161 5 -291 10 -289 4 3 6 -30 4 -74 -2
-43 -8 -79 -13 -79 -5 0 -7 -47 -5 -107 2 -60 4 -247 5 -417 1 -170 3 -307 6
-304 3 2 5 71 6 152 1 88 5 143 10 135 8 -14 13 -509 5 -509 -29 0 -36 16 -36
86 0 61 3 72 15 68 12 -5 15 1 14 27 -1 25 -3 28 -6 11 -7 -35 -27 -21 -34 24
-4 21 -9 213 -11 427 -3 339 -1 387 12 388 8 0 11 2 5 5 -6 2 -9 41 -8 91 1
49 -2 75 -5 60 -4 -16 -8 258 -9 610 -1 351 -5 725 -8 831 -6 183 -6 192 12
192 17 0 19 -9 19 -87z m-690 61 c22 -6 44 -42 44 -71 0 -27 -41 -63 -72 -63
-34 0 -68 32 -68 64 0 29 36 76 58 76 9 0 27 -3 38 -6z m1474 -2822 c0 -186 0
-189 -22 -200 l-23 -11 23 0 c20 -1 22 -6 22 -61 l0 -60 -65 0 -65 0 2 -47 c1
-42 2 -44 5 -12 l4 37 57 5 c31 2 59 2 62 0 3 -3 6 -193 8 -424 l3 -419 -29 0
c-16 0 -44 -3 -61 -6 l-31 -6 -2 193 -2 194 -6 -195 c-5 -187 -6 -189 -8 -59
-1 75 1 218 5 317 l6 182 61 2 61 2 -57 3 -58 4 -1 67 c-2 65 -2 64 -10 -28
-14 -157 -16 -153 -18 38 l-1 182 68 1 67 1 -67 15 -68 16 0 43 c0 48 -5 46
95 46 29 0 21 3 -27 10 l-68 10 0 166 0 165 66 -6 c87 -8 76 2 -13 12 l-68 8
78 2 77 1 0 -188z m2462 -337 c5 -8 26 -12 59 -10 28 1 46 -1 39 -5 -24 -15 0
-27 50 -25 45 2 49 1 33 -12 -19 -16 -18 -16 35 3 14 6 13 4 -3 -10 l-20 -18
20 7 c11 4 36 9 55 11 l35 4 -40 -14 c-39 -13 -37 -14 55 -11 52 1 68 0 34 -2
l-60 -4 4 -29 c4 -25 1 -30 -17 -30 -24 0 -301 88 -313 99 -4 4 -11 22 -14 40
-7 32 -6 33 17 26 13 -4 27 -13 31 -20z m2223 -382 c-72 -6 -76 -19 -12 -39
31 -9 59 -24 61 -31 3 -8 2 -12 -3 -9 -5 3 -14 -1 -21 -9 -8 -10 -18 -11 -36
-4 -14 5 -31 9 -37 8 -7 0 -3 -4 8 -8 14 -6 5 -10 -35 -15 -30 -4 -70 -9 -89
-13 -26 -4 -32 -3 -29 8 3 8 -4 25 -16 38 l-21 24 45 -6 c25 -3 56 -8 70 -12
16 -3 14 -1 -7 7 -43 17 -48 25 -33 43 9 10 22 14 36 11 13 -4 26 -2 29 4 3 5
36 9 73 8 60 -1 62 -2 17 -5z m566 -69 c12 -13 32 -24 43 -24 14 0 17 3 8 8
-10 7 75 6 127 -1 9 -1 19 -26 27 -66 8 -38 22 -74 35 -88 24 -24 75 -43 120
-43 34 0 39 -14 39 -114 0 -70 3 -86 20 -101 19 -17 20 -31 20 -275 0 -240 -1
-259 -20 -282 -15 -20 -20 -44 -22 -118 -3 -103 -2 -101 -80 -120 -62 -16 -97
-60 -105 -132 -3 -29 -10 -58 -15 -65 -5 -6 -47 -14 -94 -18 -74 -7 -87 -11
-104 -32 -19 -25 -26 -26 -252 -43 l-233 -18 -23 22 c-21 18 -36 21 -115 21
l-92 0 -3 33 c-2 17 -6 32 -10 32 -4 0 -7 14 -8 30 -1 17 -11 41 -23 54 -24
25 -93 48 -117 39 -33 -12 -44 17 -44 111 0 86 -2 94 -25 116 l-26 24 4 261
c4 259 6 289 15 280 3 -3 11 0 19 6 9 8 13 39 13 104 0 62 4 96 13 102 6 5 34
15 62 22 34 8 58 22 77 44 31 37 46 108 29 140 -10 19 -11 15 -7 -25 2 -26 0
-45 -5 -42 -5 3 -9 -4 -9 -14 0 -19 -26 -49 -35 -41 -2 3 2 23 10 46 10 28 11
51 5 72 -11 38 2 48 35 27 22 -15 28 -14 27 4 0 3 21 4 46 2 30 -2 42 0 34 6
-8 5 8 7 40 4 43 -3 57 -1 68 14 12 14 12 16 1 9 -10 -5 -12 -4 -7 4 4 6 11 9
16 6 5 -3 11 -1 15 5 3 5 20 10 36 10 17 0 28 3 26 8 -3 4 35 6 85 4 50 -2 88
0 85 5 -3 4 38 7 90 5 52 -2 93 0 90 5 -13 20 73 0 94 -23z m-863 -7 c67 6
102 -8 81 -33 -8 -10 -16 -9 -42 7 -18 10 -41 19 -52 19 -12 -1 -4 -7 18 -15
51 -18 66 -40 67 -97 0 -36 -6 -54 -26 -77 -14 -17 -33 -31 -42 -32 -12 0 -13
-2 -4 -6 7 -3 21 2 32 12 13 12 20 13 25 5 10 -15 -10 -28 -55 -35 -19 -4 -44
-10 -55 -14 -27 -11 -53 -2 -34 10 11 7 10 9 -3 9 -9 0 -21 -8 -27 -17 -7 -14
-12 -15 -24 -5 -12 10 -15 39 -14 137 l0 125 31 0 30 0 -27 -28 c-15 -15 -27
-32 -27 -36 0 -4 12 6 26 23 14 17 33 31 42 31 13 0 12 3 -4 16 -19 15 -19 15
1 5 12 -5 49 -7 83 -4z m-4378 -512 l0 -95 -65 0 -65 0 0 90 0 89 58 4 c31 2
60 4 65 5 4 1 7 -41 7 -93z m-170 -10 l0 -85 -105 0 -105 0 0 80 0 79 68 4
c37 2 84 4 105 5 l37 2 0 -85z m4387 -547 l83 -33 0 -87 c0 -49 -4 -88 -8 -88
-5 0 -18 11 -29 24 -11 13 -48 34 -82 47 l-61 24 0 72 c0 40 3 73 7 73 4 0 45
-15 90 -32z m1376 -169 c55 -28 73 -98 42 -158 -8 -16 -12 -30 -10 -33 6 -5
-15 -8 -119 -13 -78 -4 -87 -3 -70 10 12 8 23 10 29 4 5 -5 14 -9 20 -9 5 0 2
5 -7 11 -12 7 -18 22 -18 47 0 28 3 33 10 22 8 -11 9 -8 4 12 -10 44 43 113
89 117 5 1 18 -4 30 -10z m-1451 -31 l57 -22 3 -118 c2 -65 2 -118 0 -118 -1
0 -32 13 -67 29 l-65 30 0 110 c0 61 3 111 7 111 4 0 33 -10 65 -22z"/>
<path d="M2266 6030 c2 -80 9 -612 16 -1182 6 -571 14 -1036 16 -1033 8 8 -19
2147 -28 2260 -8 90 -8 86 -4 -45z"/>
<path d="M716 8988 c-25 -25 -28 -34 -23 -71 11 -82 93 -114 156 -61 41 34 43
88 5 133 -35 42 -95 41 -138 -1z m117 -19 c23 -28 22 -72 -3 -94 -11 -10 -18
-21 -15 -25 2 -3 -11 -6 -30 -6 -18 1 -32 2 -30 4 2 2 -8 14 -21 28 -19 18
-24 33 -22 63 1 22 7 39 12 38 6 -1 10 3 9 10 -2 8 4 10 14 6 10 -4 14 -2 9 5
-12 20 58 -6 77 -29z"/>
<path d="M476 8933 c-43 -11 -68 -71 -50 -118 9 -23 60 -46 88 -39 73 18 80
121 11 152 -14 7 -27 11 -28 11 -1 -1 -11 -4 -21 -6z"/>
<path d="M6588 8531 l4 -308 -54 -6 c-29 -4 -69 -7 -89 -7 -34 0 -37 2 -43 38
-3 20 -6 116 -7 212 -1 96 -5 209 -8 250 -4 41 -5 -49 -3 -200 2 -151 0 -281
-5 -287 -7 -10 -104 -13 -398 -14 -356 -2 -630 -17 -580 -31 11 -3 2 -4 -19
-1 -59 6 -217 -9 -186 -18 14 -4 48 -7 75 -7 41 0 46 2 25 9 -19 6 -14 7 19 3
61 -7 224 7 191 17 -25 7 -25 7 -2 8 13 1 32 -4 42 -9 10 -6 21 -6 24 -2 3 5
27 9 53 9 34 0 38 -1 15 -4 -32 -4 -34 -6 -28 -36 3 -18 7 -473 9 -1012 2
-539 1 -739 -2 -445 l-6 535 -3 -544 -2 -543 -102 -169 -103 -169 -3 43 -3 42
-15 -25 c-9 -14 -13 -17 -10 -7 15 49 16 63 3 81 -17 23 -37 13 -37 -18 0 -12
-5 -27 -10 -32 -11 -11 -2 -104 9 -104 4 0 8 -11 9 -25 1 -20 -3 -25 -21 -24
-21 0 -21 1 -2 9 26 11 -61 12 -90 1 -25 -10 102 -21 228 -20 73 0 92 -3 116
-20 36 -26 87 -27 127 -2 17 10 40 21 50 23 13 3 7 7 -18 12 l-37 8 36 56 c19
32 42 63 51 70 11 8 67 13 181 14 l166 2 -155 4 c-85 1 -165 0 -178 -3 -14 -3
-40 -32 -67 -74 l-44 -68 -83 -6 c-156 -13 -150 -27 -53 131 47 75 102 167
123 204 l37 68 150 1 c83 1 287 5 455 9 298 7 294 7 -157 6 -389 -1 -463 -3
-463 -15 0 -8 -55 -103 -122 -212 -113 -185 -123 -199 -150 -199 -16 0 -27 3
-25 8 3 4 55 90 116 191 62 101 111 185 109 187 -2 2 -19 -22 -37 -52 -18 -31
-35 -53 -38 -50 -3 3 11 31 30 63 31 50 40 59 68 61 40 3 52 12 17 12 l-25 0
-7 988 c-4 543 -10 997 -13 1010 -5 21 -3 23 28 20 l34 -3 6 -285 c3 -157 7
-557 9 -890 1 -333 6 -654 10 -715 4 -65 5 15 3 195 -1 168 -5 619 -8 1002
l-5 698 213 3 212 3 -217 -1 c-136 0 -219 4 -222 10 -2 7 158 9 473 8 1303 -7
1869 -7 1864 0 -2 4 -313 7 -691 7 -524 1 -691 4 -703 13 -13 10 -17 54 -23
300 -4 158 -10 296 -14 307 -4 10 -5 -120 -4 -289z"/>
<path d="M500 8410 c12 -9 10 -11 -11 -6 -48 10 -100 -82 -65 -117 8 -8 13
-17 10 -19 -12 -12 39 -41 75 -42 57 -1 93 34 86 83 -4 27 -3 31 4 16 7 -14
10 -15 10 -5 0 8 -3 20 -7 25 -10 15 -32 17 -32 3 0 -6 -2 -9 -5 -6 -10 10 7
38 19 32 6 -4 2 3 -9 14 -11 12 -36 24 -55 28 -28 4 -32 3 -20 -6z"/>
<path d="M171 8324 c-24 -30 -26 -52 -10 -87 12 -26 47 -47 78 -47 35 0 71 39
71 76 0 76 -95 115 -139 58z m104 -9 c14 -13 25 -33 25 -45 0 -27 -43 -70 -70
-70 -28 0 -70 43 -70 72 0 65 69 90 115 43z"/>
<path d="M8068 8189 c17 -5 32 -12 32 -14 0 -3 -440 -5 -977 -5 -537 0 -979
-2 -981 -5 -3 -3 420 -5 941 -5 646 0 948 -3 952 -10 4 -6 9 -449 12 -985 l6
-975 -124 -1 c-68 -1 -261 -5 -429 -9 -278 -7 -268 -7 118 -4 281 3 423 1 420
-5 -1 -6 -65 -95 -141 -199 l-138 -189 -332 -7 c-183 -3 -464 -9 -624 -13
-225 -5 -293 -3 -293 6 0 6 16 35 35 64 19 28 35 55 35 59 0 5 -100 7 -222 6
-135 -1 -175 -4 -100 -5 l122 -4 0 -53 0 -53 -127 -6 c-71 -4 -181 -7 -245 -7
l-117 0 -4 53 -3 52 -2 -52 c-2 -52 -3 -53 -31 -53 -29 0 -30 2 -34 53 l-3 52
-2 -52 -2 -53 -42 -2 -43 -1 44 -6 c49 -7 66 -27 29 -34 -18 -3 -16 -5 9 -6
26 -1 30 2 26 19 -5 19 0 20 158 20 90 0 237 3 327 7 143 5 162 4 162 -10 0
-8 -6 -18 -12 -20 -8 -3 -6 -6 5 -6 20 -1 24 -21 4 -21 -8 0 -14 -7 -14 -15 0
-28 31 -12 41 21 8 26 54 34 188 34 75 0 90 -3 95 -17 12 -31 105 -153 117
-153 6 0 36 37 66 81 30 45 63 85 72 90 9 5 72 9 140 9 68 0 227 3 354 7 l230
6 135 184 c74 101 138 192 143 203 6 13 19 20 38 20 16 0 28 -4 26 -10 -1 -5
-65 -93 -140 -195 -115 -155 -142 -185 -163 -185 -14 0 -25 -5 -25 -11 0 -6
12 -9 27 -7 23 2 53 37 174 202 81 109 150 212 153 228 3 17 6 100 6 184 l0
154 63 0 c35 0 68 5 73 10 15 15 286 9 291 -7 3 -8 -14 -13 -54 -16 l-58 -3
63 -2 62 -2 0 -104 0 -103 -31 -7 c-17 -3 -83 -6 -145 -6 l-114 0 0 105 0 105
83 2 82 2 -90 5 c-49 3 -119 4 -155 1 l-65 -5 63 -3 62 -3 0 -104 0 -105 -60
0 c-37 0 -60 -4 -60 -11 0 -8 61 -10 216 -6 119 4 219 9 222 12 3 3 6 55 6
115 1 61 5 110 10 110 5 0 7 -3 3 -6 -3 -4 3 -14 15 -23 32 -27 37 -113 9
-152 -12 -16 -17 -29 -12 -29 17 0 41 56 41 95 0 20 -7 52 -15 72 -8 20 -14
37 -13 37 39 14 43 25 52 127 15 181 9 696 -9 777 -3 12 -16 27 -29 32 l-24 9
20 41 c25 51 18 118 -15 146 -22 19 -22 19 -5 -1 26 -31 33 -95 14 -138 -8
-20 -20 -37 -26 -37 -6 0 -8 -5 -4 -12 4 -7 3 -8 -4 -4 -8 5 -12 43 -12 110 0
66 -4 106 -12 114 -9 9 -74 12 -229 12 l-218 0 -3 236 c-3 234 -3 236 -27 255
-13 10 -33 19 -45 18 -15 -1 -12 -3 12 -10z m45 -501 c4 -260 7 -704 7 -985
l0 -513 -30 0 -30 0 0 603 c0 331 -3 774 -7 985 l-6 382 30 0 30 0 6 -472z
m157 -133 l0 -105 -70 0 -70 0 0 105 0 105 70 0 70 0 0 -105z m310 0 l0 -105
-145 0 -145 0 0 105 0 105 145 0 145 0 0 -105z m80 -210 l0 -85 -195 0 -195 0
0 70 0 70 150 0 c125 0 152 3 156 15 4 10 20 15 45 15 l39 0 0 -85z m-410 -15
c0 -71 -2 -80 -19 -80 -13 0 -27 20 -49 73 -17 39 -31 67 -32 61 0 -6 11 -37
25 -68 14 -31 25 -58 25 -60 0 -2 -16 -6 -35 -8 l-35 -4 0 77 c0 77 0 78 24
73 14 -2 28 0 31 6 3 5 19 10 36 10 l29 0 0 -80z m-50 -110 l-65 -7 65 -2 c83
-2 112 -22 104 -72 -11 -65 68 -120 106 -74 34 41 60 3 60 -89 0 -71 -19 -107
-45 -86 -12 10 -12 6 -2 -21 10 -27 12 -28 15 -10 2 11 9 21 17 21 19 0 25 24
25 106 0 62 -3 77 -21 95 -11 11 -18 27 -15 35 3 9 1 12 -4 9 -6 -3 -10 -11
-10 -17 0 -19 -32 -48 -53 -48 -50 0 -76 72 -40 112 18 20 44 23 76 7 21 -10
21 -10 3 5 -22 17 -71 21 -80 7 -7 -11 -46 -2 -46 10 0 5 88 9 195 9 l195 0 0
-225 0 -225 -147 1 c-82 1 -140 3 -130 6 9 2 25 19 34 36 l16 32 -32 -34 c-26
-27 -36 -32 -58 -26 -34 8 -43 21 -43 61 0 35 23 60 60 67 21 4 21 4 -7 6 -17
0 -39 -6 -47 -15 -20 -19 -30 -58 -22 -80 4 -10 -3 -26 -16 -40 -19 -20 -33
-24 -84 -24 l-61 0 -6 158 c-4 86 -7 194 -7 240 l0 82 68 -2 67 -1 -65 -7z
m474 -484 c-7 -19 -73 -26 -243 -26 -96 0 -151 4 -158 11 -7 7 -35 10 -72 7
-34 -2 -61 -1 -61 4 0 4 43 8 96 7 52 0 98 2 101 5 4 3 82 6 174 6 139 0 167
-2 163 -14z m-424 -101 l0 -85 -30 0 c-16 0 -30 5 -30 11 0 5 -10 9 -22 7 -22
-3 -23 1 -26 70 -3 71 -2 72 22 72 14 0 27 -3 29 -8 3 -4 -6 -33 -20 -66 -13
-32 -22 -60 -20 -62 2 -2 14 22 26 54 20 48 52 92 67 92 2 0 4 -38 4 -85z
m418 -7 l-3 -83 -42 -3 c-34 -2 -43 0 -43 12 0 14 -21 16 -155 16 l-155 0 0
65 0 65 173 3 c94 1 185 4 200 5 l28 2 -3 -82z"/>
<path d="M5579 8180 c0 -3 -2 -13 -4 -22 -2 -10 1 -20 6 -24 5 -3 8 -22 7 -42
-1 -36 -1 -36 -5 -5 -3 24 -8 30 -19 26 -13 -5 -15 1 -11 27 6 32 -4 34 -10 2
-13 -66 -15 -132 -3 -132 7 0 10 -6 7 -14 -6 -15 19 -30 34 -20 5 3 10 13 11
22 2 9 5 -158 8 -373 l6 -390 -1 462 c0 356 -3 465 -12 475 -7 6 -13 10 -14 8z"/>
<path d="M5345 7550 c-145 -8 -135 -6 -135 -20 0 -7 6 -7 19 0 11 5 31 10 44
10 23 0 23 -2 17 -45 l-7 -45 107 0 c69 0 110 4 118 12 26 26 8 101 -22 96 -6
-1 -69 -5 -141 -8z"/>
<path d="M5276 7361 c-49 -5 -60 -10 -67 -29 -6 -15 -5 -21 1 -17 6 3 10 13
10 21 0 10 12 14 38 14 37 0 37 0 37 -40 0 -39 -1 -40 -37 -40 -20 0 -38 6
-41 13 -2 7 -3 6 -3 -3 1 -12 20 -16 91 -18 50 -1 117 1 150 5 l60 8 0 45 0
45 -90 1 c-49 1 -117 -2 -149 -5z"/>
<path d="M6984 7255 c-15 -23 -16 -61 -9 -393 4 -221 11 -372 17 -379 13 -16
365 -18 388 -3 8 5 11 10 5 10 -5 0 -2 5 8 11 16 9 17 38 17 372 0 312 -2 366
-16 385 -15 21 -20 22 -204 22 l-190 0 -16 -25z m36 -376 c3 -189 8 -349 12
-354 4 -6 -1 -11 -11 -12 -26 -2 -31 70 -31 425 0 231 3 293 13 290 9 -4 13
-86 17 -349z m363 214 c4 -75 7 -234 7 -353 l0 -217 -77 -7 c-42 -3 -118 -6
-170 -6 l-93 0 -2 258 -2 257 -6 -200 -6 -200 -2 146 c-1 80 1 214 5 297 l6
151 91 4 c50 1 125 4 167 5 l76 2 6 -137z"/>
<path d="M5214 7166 c-3 -8 -4 -29 -2 -48 l3 -33 150 0 150 0 0 45 0 45 -148
3 c-120 2 -148 0 -153 -12z m78 -33 c-5 -43 14 -36 20 7 3 24 5 25 101 28 l97
3 0 -41 0 -40 -145 1 -145 0 0 40 c0 39 0 39 38 39 38 0 38 0 34 -37z"/>
<path d="M5222 6991 c-8 -5 -12 -23 -10 -47 l3 -39 90 -8 c50 -4 117 -6 150
-5 51 3 60 6 62 23 2 11 0 14 -3 8 -4 -9 -33 -13 -95 -13 l-89 0 0 34 c0 33 1
33 53 40 86 10 115 7 127 -11 10 -16 10 -16 8 2 -3 19 -12 20 -143 22 -77 2
-146 -1 -153 -6z"/>
<path d="M5217 6803 c-12 -11 -8 -68 5 -81 13 -13 298 -18 298 -4 0 4 -43 6
-95 4 l-95 -3 0 40 0 41 90 0 89 0 10 -32 c5 -18 10 -25 10 -15 1 10 -4 27 -9
38 -10 17 -23 19 -154 19 -78 0 -146 -3 -149 -7z"/>
<path d="M2843 5610 c0 -190 3 -547 6 -795 l7 -450 1 345 c0 190 -3 548 -6
795 l-7 450 -1 -345z"/>
<path d="M6025 5730 c-71 -3 -124 -7 -117 -8 6 -1 12 -9 12 -17 0 -12 -14 -15
-69 -15 -46 0 -71 4 -74 13 -4 9 -6 9 -6 0 -1 -19 41 -43 76 -43 44 0 83 19
83 42 0 16 9 18 87 18 53 0 107 -6 139 -17 43 -13 58 -14 79 -5 39 18 90 14
127 -8 40 -24 85 -27 85 -5 0 11 -11 15 -36 15 -43 0 -75 16 -51 24 8 3 33 7
55 9 64 6 -248 3 -390 -3z"/>
<path d="M2623 5205 c-1 -176 5 -698 11 -1160 7 -462 13 -696 13 -520 1 176
-5 698 -11 1160 -7 462 -13 696 -13 520z"/>
<path d="M2863 4020 c0 -190 3 -547 6 -795 l7 -450 1 345 c0 190 -3 548 -6
795 l-7 450 -1 -345z"/>
<path d="M4080 3908 c-388 -17 -708 -33 -712 -37 -8 -7 -23 -8 837 28 363 16
663 25 666 22 7 -6 409 -2146 409 -2174 0 -13 -13 -17 -67 -20 l-68 -3 72 -2
c39 -1 74 1 76 6 3 4 -88 502 -202 1107 l-206 1100 -50 1 c-27 1 -367 -12
-755 -28z"/>
<path d="M6955 3273 c-16 -3 -33 -9 -36 -15 -4 -6 -18 -6 -41 0 -51 14 -271 3
-281 -14 -4 -8 -13 -14 -20 -14 -7 0 -6 4 3 10 10 7 -13 10 -73 10 -63 0 -86
-3 -81 -11 5 -8 2 -9 -11 -2 -9 5 -29 8 -43 5 -24 -5 -24 -6 -7 -12 17 -6 14
-8 -12 -12 -19 -3 -30 -1 -26 5 4 6 -3 8 -15 5 -12 -4 -22 -1 -22 4 0 7 -27 9
-81 5 -87 -7 -102 -12 -79 -27 19 -12 260 -13 260 -1 0 5 18 8 39 7 22 0 37
-5 34 -10 -4 -5 16 -6 48 -2 97 12 119 18 112 29 -4 7 0 8 12 3 29 -11 105
-20 105 -12 0 4 -10 11 -22 17 -22 9 -22 9 2 4 14 -4 48 -8 75 -11 39 -3 45
-2 30 6 -16 8 -13 9 15 4 75 -12 115 -15 103 -7 -6 4 47 7 118 5 143 -4 170 8
60 27 -70 11 -109 12 -166 4z"/>
<path d="M3490 3123 c-1 -27 245 -1480 251 -1487 4 -5 72 -4 161 2 l153 10
-155 -5 -155 -5 -124 746 c-108 651 -130 774 -131 739z"/>
<path d="M7190 3016 l-195 -11 120 -10 c66 -5 109 -11 96 -13 -14 -2 -84 1
-155 8 -102 9 -188 8 -386 -2 l-255 -13 135 -12 c74 -6 171 -11 215 -11 80 1
80 1 -40 13 -66 7 -100 13 -75 13 25 1 90 -3 145 -9 77 -8 185 -6 460 8 l360
18 -120 12 c-103 10 -107 11 -30 7 50 -2 146 -6 215 -9 l125 -4 -130 14 c-151
16 -219 16 -485 1z"/>
<path d="M1260 2887 c-1 -30 203 -393 343 -610 38 -60 66 -112 61 -116 -5 -4
-47 -34 -93 -67 -46 -32 -88 -69 -94 -81 -5 -12 -19 -24 -31 -26 -20 -4 -19
-4 2 -6 13 0 34 -14 47 -30 23 -26 129 -70 141 -58 3 3 -10 8 -28 12 -81 18
-136 64 -123 104 5 17 193 158 198 150 2 -2 15 -20 30 -41 l27 -36 -31 -11
c-36 -13 -51 -7 -42 16 4 11 3 14 -5 9 -7 -4 -12 -13 -12 -19 0 -15 59 -52 67
-43 4 3 1 6 -5 6 -22 0 -12 20 13 26 19 5 30 0 45 -17 10 -13 19 -27 20 -30 0
-4 37 -43 83 -89 l82 -82 -75 6 c-88 6 -56 -8 42 -19 51 -6 72 -14 113 -45 88
-66 299 -179 312 -167 2 3 -15 12 -39 21 -117 46 -292 162 -402 265 -54 51
-178 202 -247 301 -77 109 -249 397 -326 545 -40 77 -73 137 -73 132z"/>
<path d="M1392 1968 c-14 -14 -15 -43 -5 -113 6 -45 9 -49 73 -90 59 -38 68
-48 78 -86 11 -43 11 -43 6 -5 -3 21 -1 37 3 35 41 -17 422 -263 417 -270 -8
-13 -261 -10 -314 4 -31 8 -48 20 -57 37 -9 17 -13 20 -13 8 0 -25 26 -46 70
-58 34 -9 292 -15 340 -7 8 1 346 -204 750 -457 647 -402 736 -461 738 -484 1
-14 5 -28 8 -31 4 -3 4 6 2 22 -6 32 -8 31 28 12 38 -20 239 -22 228 -2 -6 9
-4 9 7 1 15 -11 132 -7 125 4 -2 4 42 8 98 8 149 2 297 14 290 25 -3 5 0 9 5
9 6 0 11 -4 11 -8 0 -16 -58 -297 -65 -314 -8 -20 -68 -44 -149 -58 -93 -16
-346 -13 -426 6 -75 17 -83 23 -99 74 l-11 35 5 -35 c11 -78 97 -105 325 -105
226 1 341 29 365 89 7 17 23 85 35 151 13 66 27 126 32 132 6 7 32 16 59 19
27 4 49 9 49 13 0 3 32 4 71 3 39 -2 69 0 66 5 -3 5 13 7 35 4 52 -4 359 19
354 28 -3 4 27 5 66 3 40 -3 68 -1 65 4 -3 5 28 8 70 5 42 -2 73 1 70 5 -3 5
26 7 65 6 39 -2 68 0 65 5 -3 4 26 6 65 5 53 -3 68 -1 63 8 -6 9 -3 10 8 4 17
-10 129 -6 123 4 -2 4 27 5 66 4 39 -2 68 0 65 5 -3 4 38 8 91 8 121 0 313 15
308 23 -2 4 27 5 66 4 39 -2 68 0 65 5 -3 4 26 6 65 5 39 -2 68 0 65 5 -3 4
54 9 126 10 73 1 133 6 134 10 2 4 32 6 68 5 36 -2 65 0 65 5 0 4 42 8 93 9
161 1 308 15 300 27 -5 9 -3 9 8 1 15 -11 129 -7 129 4 0 4 32 5 71 4 39 -2
69 0 66 5 -3 4 16 6 42 5 26 -2 104 1 172 7 68 6 221 18 339 26 118 8 256 19
307 25 50 5 115 10 143 10 28 0 49 4 46 9 -3 4 6 6 20 3 40 -7 368 19 375 30
4 7 9 6 13 -1 4 -6 20 -11 36 -11 24 0 31 -6 40 -33 l10 -32 -5 31 c-3 27 0
33 23 42 15 6 110 16 212 22 179 10 214 13 330 25 30 3 122 10 204 15 196 13
196 14 196 125 0 75 -2 85 -22 99 -12 9 -27 16 -33 16 -5 0 -3 -4 5 -10 8 -5
12 -11 10 -14 -3 -2 -56 -8 -118 -12 -62 -4 -111 -8 -110 -9 2 -2 53 -5 113
-8 65 -3 89 -2 60 2 l-50 8 47 1 c75 3 78 0 78 -83 0 -67 -2 -73 -22 -78 -13
-3 -372 -31 -800 -63 -454 -35 -774 -63 -771 -68 4 -5 1 -6 -7 -1 -14 8 -390
-15 -390 -24 0 -3 -32 -4 -71 -3 -55 3 -69 1 -64 -9 6 -8 4 -10 -5 -4 -14 8
-390 -15 -390 -24 0 -3 -29 -4 -65 -3 -36 2 -65 0 -65 -5 0 -4 -29 -6 -65 -5
-36 2 -65 0 -65 -5 0 -4 -32 -6 -71 -5 -39 2 -69 0 -66 -5 3 -4 -26 -6 -65 -5
-39 2 -68 0 -65 -5 3 -4 -26 -6 -65 -5 -39 2 -68 0 -65 -5 3 -4 -26 -7 -64 -5
-38 2 -69 0 -69 -5 0 -4 -29 -6 -65 -5 -36 2 -65 0 -65 -5 0 -4 -32 -6 -71 -5
-39 2 -69 0 -66 -5 3 -4 -26 -6 -65 -5 -39 2 -68 0 -65 -5 3 -4 -26 -6 -65 -5
-39 2 -68 0 -65 -5 3 -4 -26 -6 -65 -5 -39 2 -68 0 -65 -5 3 -4 -54 -9 -127
-11 -72 -1 -132 -6 -133 -10 -2 -4 -35 -5 -74 -4 -39 2 -69 0 -66 -5 3 -4 -26
-6 -65 -5 -39 2 -68 0 -65 -5 3 -4 -26 -6 -65 -5 -39 2 -68 0 -65 -5 3 -4 -26
-6 -65 -5 -39 2 -68 0 -65 -5 3 -5 -26 -7 -64 -5 -38 2 -69 0 -69 -4 0 -5 -32
-7 -71 -6 -39 2 -69 0 -66 -5 3 -4 -26 -6 -65 -5 -39 2 -68 0 -65 -5 3 -4 -26
-6 -65 -5 -39 2 -68 0 -65 -5 3 -4 -26 -6 -65 -5 -39 2 -68 0 -65 -5 3 -5 -26
-7 -65 -5 -40 3 -68 1 -65 -5 3 -5 -24 -7 -64 -5 -48 3 -69 1 -69 -7 0 -7 -5
-9 -11 -6 -13 9 -260 -5 -255 -14 2 -3 -27 -4 -66 -3 -39 2 -68 0 -65 -5 3 -4
-26 -6 -65 -5 -54 3 -69 1 -62 -9 5 -9 2 -10 -10 -6 -10 4 -42 7 -71 7 -53 0
-54 0 -58 33 l-4 32 -1 -33 c-2 -30 -4 -32 -29 -26 -38 9 19 -26 -1121 684
l-1020 635 -7 58 c-4 32 -5 61 -2 64 3 2 479 -283 1059 -635 579 -351 1065
-642 1080 -646 24 -5 27 -12 31 -54 l3 -47 2 48 2 47 73 2 c69 1 68 1 -28 8
l-100 7 -268 162 c-147 90 -266 166 -263 168 3 3 125 -67 272 -156 146 -88
282 -163 301 -167 19 -4 91 -2 161 4 l127 10 -140 -5 c-110 -4 -148 -2 -175 9
-19 8 -498 295 -1065 638 -891 539 -1117 673 -1045 621 8 -6 10 -11 4 -11 -18
0 -24 13 -13 27 14 16 -3 17 -19 1z m822 -497 c422 -255 765 -466 762 -468 -5
-5 -1521 910 -1541 930 -7 6 -6 8 1 6 6 -2 356 -213 778 -468z"/>
<path d="M4060 1259 c-129 -9 -253 -18 -275 -19 l-40 -2 40 -9 c22 -5 101 -6
175 -2 97 5 124 9 95 14 -25 4 -13 5 30 3 98 -6 316 8 255 17 -43 6 -43 6 -9
7 57 3 98 -8 92 -24 -3 -8 -10 -11 -15 -8 -12 7 -431 -17 -423 -24 2 -3 97 1
210 8 113 7 208 10 211 7 10 -10 -51 -86 -71 -87 -15 -1 -13 -4 8 -10 16 -5
47 -5 70 0 l42 9 -42 -2 c-24 -1 -43 0 -43 4 0 3 16 27 35 53 35 45 38 46 93
48 l57 1 -60 7 -60 7 50 3 50 3 -55 7 c-79 11 -155 9 -420 -11z"/>
<path d="M3700 1089 l-45 -7 48 1 c52 2 68 -15 47 -53 -8 -16 -21 -20 -57 -20
-66 0 -48 -10 20 -11 l57 -2 0 -53 c0 -30 -3 -54 -6 -54 -11 0 -153 81 -159
91 -4 5 4 9 16 9 12 0 20 3 16 6 -3 4 -18 4 -32 0 -22 -6 -25 -11 -25 -54 0
-26 4 -52 8 -58 16 -24 168 -104 197 -104 23 0 27 3 15 10 -8 5 -13 10 -10 11
3 1 97 10 210 20 189 16 136 18 -97 3 l-98 -7 3 72 c3 65 5 71 25 72 76 2 613
47 577 48 -25 0 -164 -8 -310 -19 -146 -11 -270 -20 -277 -20 -6 0 -14 10 -16
23 -2 12 -5 -17 -6 -65 -1 -92 -12 -138 -33 -138 -7 0 -49 21 -93 48 -78 46
-80 48 -83 90 -2 23 -1 42 2 42 2 0 39 -21 81 -46 102 -60 110 -56 102 49 -3
45 -8 89 -12 98 -5 13 3 16 52 18 31 1 59 4 62 6 7 7 -128 3 -179 -6z"/>
<path d="M9125 1085 c-125 -10 -134 -12 -80 -17 33 -3 17 -4 -35 -2 -52 2
-140 0 -195 -4 l-100 -7 60 -6 c40 -5 29 -5 -35 -3 -52 2 -140 0 -195 -4
l-100 -7 60 -6 c40 -5 29 -5 -35 -3 -52 2 -140 0 -195 -4 l-100 -7 60 -6 c40
-5 29 -5 -35 -3 -52 2 -140 0 -195 -4 l-100 -7 60 -6 c40 -5 29 -5 -35 -3 -52
2 -140 0 -195 -4 l-100 -7 60 -6 c40 -5 29 -5 -35 -3 -52 2 -140 0 -195 -4
-100 -7 -100 -7 -40 -13 43 -5 34 -6 -30 -3 -49 2 -169 -2 -265 -9 l-175 -12
85 -7 c47 -4 137 -4 200 0 108 7 111 7 55 13 -40 5 -29 5 35 3 52 -2 140 0
195 4 l100 7 -60 6 c-40 5 -29 5 35 3 52 -2 140 0 195 4 l100 7 -60 6 c-40 5
-29 5 35 3 52 -2 140 0 195 4 l100 7 -60 6 c-40 5 -29 5 35 3 52 -2 140 0 195
4 l100 7 -60 6 c-40 5 -29 5 35 3 52 -2 140 0 195 4 l100 7 -60 6 c-40 5 -29
5 35 3 52 -2 140 0 195 4 l100 7 -60 6 c-40 5 -29 5 35 3 52 -2 140 0 195 4
l100 7 -60 6 c-40 5 -29 5 35 3 52 -2 140 0 195 4 l100 7 -70 6 c-97 9 -158 8
-320 -6z"/>
</g>
</svg>
