<svg xmlns="http://www.w3.org/2000/svg" width="256" height="256" viewBox="0 0 256 256" version="1.1">
	<path d="M 147.942 14.948 C 144.326 16.045, 140.838 17.943, 138.448 20.114 C 136.596 21.795, 135.843 21.862, 130.743 20.792 C 125.929 19.782, 124.291 19.858, 119.698 21.306 C 116.731 22.241, 113.491 23.905, 112.497 25.003 C 111.503 26.101, 110.133 27, 109.452 27 C 107.339 27, 107 29.651, 107 46.189 C 107 61.073, 106.875 62.160, 105.250 61.456 C 104.287 61.039, 101.925 60.621, 100 60.528 C 98.075 60.435, 92.107 58.928, 86.738 57.179 C 76.135 53.726, 74.847 53.527, 72.236 54.940 C 71.281 55.456, 69.375 56.113, 68 56.398 C 66.625 56.683, 63.588 58.324, 61.250 60.045 C 57.745 62.625, 57 63.750, 57 66.464 C 57 68.274, 56.325 70.315, 55.500 71 C 53.569 72.603, 53.525 78.604, 55.440 79.339 C 56.307 79.671, 57.003 81.602, 57.190 84.189 C 57.546 89.130, 54.988 87.884, 83.713 97.112 L 99.927 102.321 100.213 110.910 L 100.500 119.500 103.750 120.930 C 106.603 122.186, 107 122.829, 107 126.196 C 107 128.305, 106.241 132.761, 105.313 136.098 C 103.885 141.235, 103.798 143.267, 104.748 149.333 C 105.365 153.275, 106.150 157.414, 106.494 158.531 C 107.044 160.319, 105.074 161.615, 89.997 169.385 C 80.580 174.238, 72.681 178.014, 72.443 177.776 C 72.205 177.539, 73.358 173.357, 75.005 168.484 C 76.652 163.612, 78 158.823, 78 157.843 C 78 156.435, 75.266 155.199, 64.976 151.955 C 57.814 149.697, 51.448 148.017, 50.831 148.223 C 49.792 148.569, 34.071 194.920, 34.022 197.782 C 34.010 198.487, 34.961 199.420, 36.135 199.854 C 38.133 200.593, 38.038 200.780, 34.635 202.788 C 30.216 205.395, 29.982 207.749, 34 209.150 C 35.818 209.784, 37 210.897, 37 211.975 C 37 212.954, 37.733 214.364, 38.629 215.107 C 40.504 216.664, 47.653 216.747, 49.170 215.230 C 49.868 214.532, 52.948 215.110, 58.847 217.044 C 63.606 218.605, 78.862 223.527, 92.750 227.983 C 113.632 234.684, 118 236.403, 118 237.920 C 118 240.693, 120.540 242.242, 124.989 242.181 C 129.956 242.112, 130.690 241.665, 131.468 238.239 C 132.024 235.789, 136.141 233.444, 170.526 216 C 205.535 198.239, 209.352 196.529, 213.332 196.827 C 217.997 197.177, 220.994 195.361, 221.006 192.179 C 221.010 191.255, 222.393 189.714, 224.080 188.754 C 229.531 185.652, 227.719 183.997, 213.996 179.550 L 201.500 175.500 201.767 168.500 C 201.914 164.650, 201.689 159.322, 201.267 156.661 C 200.521 151.953, 200.350 151.758, 195 149.498 C 189.909 147.348, 189.449 146.877, 188.815 143.164 C 188.004 138.410, 186.042 134.391, 182.447 130.120 C 181.004 128.404, 179.981 127, 180.175 127 C 182.051 127, 191.580 122.659, 194.361 120.538 L 197.900 117.839 197.820 106.290 C 197.751 96.300, 197.481 94.481, 195.821 92.821 C 193.928 90.928, 193.940 90.822, 196.695 85.201 C 199.224 80.042, 199.487 78.501, 199.460 69 C 199.435 60.185, 198.992 57.244, 196.696 50.672 C 191.988 37.193, 185.507 28.351, 175.572 21.849 C 166.072 15.633, 154.889 12.840, 147.942 14.948 M 150.326 16.142 C 145.669 16.954, 140.968 19.128, 139.160 21.308 C 138.196 22.469, 138.438 23.057, 140.413 24.351 C 142.662 25.825, 143.174 25.823, 146.681 24.334 C 163.629 17.135, 185.276 32.765, 191.511 56.703 C 194.265 67.275, 192.622 78.730, 187.475 84.847 C 186.114 86.465, 185 88.017, 185 88.297 C 185 88.576, 186.452 89.310, 188.226 89.929 C 191.111 90.935, 191.636 90.813, 193.204 88.777 C 196.926 83.940, 200.583 66.096, 198.158 64.598 C 197.569 64.234, 197.319 63.331, 197.603 62.592 C 198.485 60.293, 195.001 48.830, 191.193 41.500 C 182.747 25.244, 164.184 13.726, 150.326 16.142 M 125.235 21.807 C 123.990 21.992, 123.182 22.486, 123.441 22.905 C 123.700 23.324, 123.277 23.667, 122.500 23.667 C 121.723 23.667, 121.319 23.293, 121.601 22.836 C 122.135 21.972, 118.283 23.243, 114.933 25.036 C 112.757 26.200, 112.359 28.620, 114.240 29.247 C 115.008 29.503, 115.359 31.054, 115.163 33.328 C 114.911 36.257, 115.150 36.880, 116.351 36.419 C 117.478 35.986, 117.718 36.362, 117.310 37.921 C 117.011 39.064, 116.369 40, 115.883 40 C 115.398 40, 115 45.861, 115 53.025 L 115 66.050 117.565 67.025 C 118.976 67.561, 120.326 68, 120.565 68 C 121.507 68, 120.954 42.090, 120 41.500 C 119.450 41.160, 119 39.982, 119 38.882 C 119 37.645, 119.433 37.150, 120.134 37.583 C 120.920 38.069, 121.127 37.319, 120.808 35.142 C 120.414 32.463, 120.652 32.012, 122.423 32.079 C 123.565 32.122, 123.938 32.385, 123.250 32.662 C 121.456 33.386, 121.659 39.655, 123.500 40.362 C 124.630 40.795, 125.029 40.143, 125.118 37.719 C 125.184 35.948, 125.186 34.170, 125.124 33.768 C 125.007 33.003, 127.420 32.347, 132.507 31.763 C 135.432 31.427, 135.503 31.520, 135.151 35.209 C 134.762 39.295, 135.065 39.571, 138.137 37.927 C 139.707 37.087, 140.081 36.009, 139.862 32.969 C 139.708 30.833, 139.901 28.766, 140.291 28.376 C 140.681 27.986, 141.072 29.654, 141.160 32.083 C 141.299 35.913, 141.375 36.056, 141.730 33.155 C 141.956 31.315, 141.855 29.065, 141.506 28.155 C 141.157 27.245, 140.938 26.325, 141.021 26.112 C 141.218 25.602, 138.728 24.035, 137.691 24.015 C 137.246 24.007, 137.160 24.450, 137.500 25 C 137.840 25.550, 137.431 26, 136.590 26 C 135.704 26, 135.285 25.422, 135.591 24.623 C 136.179 23.092, 131.634 21.490, 129.842 22.598 C 129.256 22.960, 128.489 22.854, 128.138 22.363 C 127.787 21.872, 126.481 21.622, 125.235 21.807 M 115.603 25.833 C 115.320 26.292, 115.723 26.667, 116.500 26.667 C 117.277 26.667, 117.680 26.292, 117.397 25.833 C 117.114 25.375, 116.710 25, 116.500 25 C 116.290 25, 115.886 25.375, 115.603 25.833 M 163.756 25.595 C 164.447 25.912, 164.745 26.604, 164.417 27.134 C 164.058 27.716, 163.189 27.583, 162.224 26.799 C 160.856 25.687, 160.720 25.753, 161.281 27.250 C 161.642 28.212, 161.501 29, 160.969 29 C 160.436 29, 160 28.550, 160 28 C 160 27.450, 159.502 27, 158.893 27 C 158.284 27, 158.025 27.624, 158.318 28.387 C 158.705 29.395, 158.257 29.622, 156.675 29.219 C 154.898 28.765, 155.088 29.163, 157.716 31.392 C 161.057 34.226, 166 35.794, 166 34.020 C 166 31.900, 170.308 33.118, 173 36 C 176.235 39.463, 175.932 39.879, 172.273 37 C 169.504 34.822, 167.321 34.511, 165.018 35.968 C 163.766 36.759, 163.930 37.341, 166.068 39.703 C 167.460 41.241, 169.211 43.400, 169.958 44.500 C 170.705 45.600, 169.397 44.347, 167.052 41.716 C 163.421 37.644, 162.556 37.123, 161.240 38.216 C 160.389 38.922, 159.537 39.388, 159.346 39.250 C 157.471 37.896, 158.691 39.984, 162.529 44.695 C 167.306 50.559, 173 60.770, 173 63.471 C 173 64.312, 173.338 65, 173.750 65 C 174.162 65, 174.601 66.013, 174.724 67.250 C 175.748 77.546, 176.923 81.018, 179.372 80.985 C 180.015 80.976, 179.901 80.590, 179.107 80.087 C 177.101 78.817, 175.881 69.830, 177.536 68.520 C 179.080 67.298, 178.891 62.408, 177.312 62.716 C 176.697 62.836, 176.418 62.118, 176.684 61.099 C 176.948 60.091, 175.770 56.507, 174.067 53.133 C 172.364 49.760, 171.220 47, 171.525 47 C 171.829 47, 173.636 50.250, 175.539 54.222 C 177.443 58.194, 179.034 61.231, 179.077 60.972 C 179.825 56.357, 180.951 54.449, 181.077 57.583 C 181.313 63.499, 181.766 68.100, 182.152 68.485 C 182.393 68.726, 183.088 67.606, 183.696 65.995 C 184.425 64.062, 184.453 63.140, 183.776 63.283 C 183.212 63.402, 182.556 62.974, 182.318 62.330 C 181.746 60.779, 184.940 61.285, 185.941 62.904 C 186.539 63.872, 186.863 63.800, 187.325 62.596 C 187.662 61.716, 187.449 61.129, 186.839 61.262 C 186.240 61.393, 185.562 60.991, 185.331 60.369 C 185.069 59.659, 185.993 59.329, 187.809 59.484 C 190.501 59.713, 190.682 59.509, 190.361 56.615 C 189.852 52.030, 183.642 40.115, 179.289 35.371 C 175.079 30.783, 168.819 26.505, 165 25.606 C 163.625 25.283, 163.065 25.278, 163.756 25.595 M 136 28.059 C 136 28.641, 136.450 28.840, 137 28.500 C 137.550 28.160, 138 27.684, 138 27.441 C 138 27.198, 137.550 27, 137 27 C 136.450 27, 136 27.477, 136 28.059 M 116.813 28.683 C 117.534 28.972, 118.397 28.936, 118.729 28.604 C 119.061 28.272, 118.471 28.036, 117.417 28.079 C 116.252 28.127, 116.015 28.364, 116.813 28.683 M 109.326 30.637 C 107.772 31.271, 107.453 63, 109 63 C 109.686 63, 110.011 57.688, 109.945 47.530 C 109.890 39.021, 110.132 31.596, 110.482 31.030 C 111.165 29.924, 111.114 29.907, 109.326 30.637 M 112.500 31 C 112.840 31.550, 112.641 32, 112.059 32 C 111.477 32, 111 33.125, 111 34.500 C 111 36.056, 111.567 37, 112.500 37 C 113.548 37, 114 35.944, 114 33.500 C 114 31.575, 113.523 30, 112.941 30 C 112.359 30, 112.160 30.450, 112.500 31 M 144.195 32.500 C 144.215 34.150, 144.439 34.704, 144.693 33.731 C 144.947 32.758, 144.930 31.408, 144.656 30.731 C 144.382 30.054, 144.175 30.850, 144.195 32.500 M 148.148 31.500 C 148.091 32.850, 149.551 34.404, 152.642 36.280 C 156.456 38.596, 157.479 38.847, 158.764 37.780 C 159.613 37.076, 160.463 36.612, 160.654 36.750 C 160.844 36.888, 160.887 36.663, 160.750 36.250 C 160.613 35.837, 160.162 35.613, 159.750 35.750 C 159.337 35.888, 159.112 35.438, 159.250 34.750 C 159.387 34.063, 158.717 33.562, 157.761 33.637 C 156.804 33.712, 156.213 33.465, 156.446 33.087 C 156.680 32.709, 155.934 31.816, 154.790 31.101 C 153.009 29.988, 152.794 30.020, 153.292 31.318 C 153.622 32.178, 153.216 33.087, 152.355 33.417 C 149.989 34.325, 149.350 34.077, 151 32.890 C 152.281 31.969, 152.254 31.890, 150.813 32.350 C 149.757 32.688, 148.958 32.255, 148.679 31.195 C 148.323 29.847, 148.215 29.910, 148.148 31.500 M 131.737 33.750 C 131.528 34.163, 131.673 35.850, 132.060 37.500 C 132.752 40.450, 132.765 40.437, 132.882 36.750 C 132.994 33.189, 132.577 32.096, 131.737 33.750 M 144.310 41.500 C 144.315 44.800, 144.502 46.029, 144.725 44.232 C 144.947 42.435, 144.943 39.735, 144.715 38.232 C 144.486 36.729, 144.304 38.200, 144.310 41.500 M 126 39.606 C 126 41.493, 126.529 42, 128.500 42 C 130.426 42, 131 41.484, 130.999 39.750 C 130.999 38.056, 130.382 37.464, 128.499 37.356 C 126.489 37.240, 126 37.680, 126 39.606 M 141.180 50.250 C 141.081 57.813, 141.338 64.001, 141.750 64.002 C 142.162 64.004, 142.380 59.841, 142.234 54.752 C 141.750 37.957, 141.363 36.303, 141.180 50.250 M 113.382 50.500 C 113.384 57.100, 113.546 59.670, 113.741 56.211 C 113.937 52.752, 113.936 47.352, 113.738 44.211 C 113.540 41.070, 113.380 43.900, 113.382 50.500 M 136.750 40.080 C 135.233 40.964, 135 42.743, 135 53.456 C 135 65.730, 135.015 65.810, 137.250 65.386 C 139.347 64.988, 139.364 65.024, 137.500 65.909 C 133.248 67.930, 133.074 67.524, 132.726 54.750 L 132.392 42.500 132.303 55.206 C 132.224 66.535, 131.986 68.202, 130.107 70.591 C 128.948 72.064, 128 74.136, 128 75.194 C 128 76.252, 127.570 76.852, 127.044 76.527 C 126.518 76.202, 126.377 75.163, 126.731 74.218 C 127.297 72.708, 127.167 72.669, 125.663 73.893 C 123.789 75.417, 122.377 74.818, 123.513 72.979 C 123.905 72.345, 125.076 72.048, 126.114 72.320 C 127.153 72.591, 127.772 72.440, 127.490 71.984 C 127.208 71.527, 125.601 70.852, 123.918 70.482 C 121.578 69.968, 120.543 70.243, 119.511 71.654 C 118.770 72.667, 117.838 73.171, 117.439 72.773 C 117.041 72.374, 117.278 71.370, 117.966 70.541 C 119.337 68.889, 118.617 68.464, 110.194 65.940 C 106.472 64.825, 105.782 64.887, 103.997 66.503 C 101.620 68.654, 100.210 67.933, 102.437 65.706 C 103.814 64.329, 103.370 63.971, 98.076 62.183 C 92.303 60.233, 92.173 60.232, 91.685 62.096 C 91.411 63.143, 90.647 64, 89.987 64 C 89.284 64, 89.047 63.319, 89.416 62.359 C 89.938 60.997, 89.790 60.929, 88.549 61.959 C 87.342 62.961, 85.919 62.819, 81.197 61.224 C 76.142 59.517, 75.011 59.430, 72.921 60.588 C 71.589 61.326, 71.048 61.945, 71.719 61.965 C 72.459 61.986, 72.680 62.687, 72.281 63.750 C 71.704 65.291, 71.830 65.334, 73.337 64.107 C 75.312 62.501, 76.273 62.940, 75.064 64.896 C 74.394 65.981, 73.547 66.005, 70.580 65.026 C 66.755 63.764, 64 64.773, 64 67.437 C 64 68.107, 73.023 71.521, 84.617 75.237 L 105.234 81.846 109.122 79.819 C 111.260 78.705, 113.319 77.277, 113.697 76.646 C 114.075 76.016, 113.612 76.127, 112.668 76.893 C 110.821 78.391, 108.997 77.603, 110.600 76 C 111.836 74.764, 122.003 76.356, 126.183 78.442 C 129.481 80.087, 131 79.756, 131 77.391 C 131 71.671, 137.266 67.060, 145.218 66.930 C 148.528 66.875, 149.046 66.664, 147.500 66 C 146.400 65.527, 144.262 65.109, 142.750 65.070 L 140 65 140 52 C 140 44.850, 139.662 39.014, 139.250 39.030 C 138.838 39.047, 137.713 39.519, 136.750 40.080 M 175.341 41.445 C 175.703 42.390, 176 43.603, 176 44.141 C 176 44.678, 176.410 44.865, 176.911 44.555 C 178.208 43.753, 177.575 40.692, 176.003 40.168 C 175.104 39.868, 174.892 40.276, 175.341 41.445 M 154.872 42.750 C 153.629 44.336, 153.664 44.371, 155.250 43.128 C 156.916 41.821, 157.445 41, 156.622 41 C 156.415 41, 155.627 41.788, 154.872 42.750 M 125.803 56.560 C 125.530 68.579, 125.674 69.946, 127.251 70.357 C 128.215 70.608, 128.751 70.405, 128.442 69.907 C 128.134 69.408, 128.584 69, 129.441 69 C 130.680 69, 131 67.768, 131 63 C 131 59.667, 130.556 57, 130 57 C 129.450 57, 129 56.325, 129 55.500 C 129 54.675, 129.450 54, 130 54 C 130.550 54, 131 51.638, 130.999 48.750 C 130.999 43.886, 130.819 43.490, 128.552 43.359 L 126.105 43.218 125.803 56.560 M 146.165 48.378 C 146.461 52.782, 147.040 52.896, 149.341 49 C 150.316 47.350, 150.674 46, 150.138 46 C 149.602 46, 148.434 45.720, 147.542 45.378 C 146.207 44.866, 145.964 45.396, 146.165 48.378 M 177.667 45.667 C 176.593 46.740, 176.902 49.179, 178.024 48.485 C 178.698 48.068, 178.821 49.327, 178.384 52.176 C 178.020 54.554, 177.998 56.249, 178.336 55.942 C 179.542 54.845, 180.093 48.175, 179.031 47.519 C 178.446 47.158, 178.226 46.443, 178.543 45.931 C 179.207 44.855, 178.647 44.686, 177.667 45.667 M 149.978 51.696 C 148.340 54.278, 147 56.746, 147 57.180 C 147 57.613, 148.575 57.217, 150.500 56.299 C 153.597 54.822, 154 54.190, 154 50.815 C 154 48.717, 153.765 47, 153.478 47 C 153.191 47, 151.616 49.113, 149.978 51.696 M 144.272 53 C 144.272 55.475, 144.467 56.487, 144.706 55.250 C 144.944 54.013, 144.944 51.987, 144.706 50.750 C 144.467 49.513, 144.272 50.525, 144.272 53 M 155.055 53.355 C 154.488 54.846, 152.501 56.747, 150.523 57.691 C 147.760 59.008, 147 59.961, 147 62.108 C 147 64.323, 147.635 65.055, 150.333 65.945 C 154.129 67.198, 159.451 72.038, 161.598 76.189 C 163.819 80.485, 165 79.564, 165 73.538 C 165 67.396, 162.236 59.064, 158.534 54.046 L 156.065 50.699 155.055 53.355 M 75.756 55.664 C 76.447 55.943, 76.761 56.577, 76.454 57.074 C 76.147 57.571, 76.632 57.695, 77.532 57.349 C 78.841 56.847, 78.901 56.553, 77.834 55.876 C 77.100 55.411, 76.050 55.059, 75.500 55.094 C 74.950 55.129, 75.065 55.386, 75.756 55.664 M 186.416 55.750 C 186.746 56.080, 185.845 57.118, 184.413 58.057 C 182.981 58.996, 182.256 60.040, 182.800 60.377 C 183.345 60.713, 184.059 60.288, 184.388 59.431 C 184.717 58.574, 185.392 58.124, 185.888 58.431 C 186.384 58.738, 187.059 58.288, 187.388 57.431 C 187.737 56.522, 188.509 56.175, 189.243 56.597 C 189.934 56.995, 190.149 56.935, 189.721 56.465 C 189.293 55.994, 188.239 55.506, 187.379 55.379 C 186.520 55.253, 186.087 55.420, 186.416 55.750 M 73 56.849 C 73 57.521, 71.812 57.946, 70.250 57.833 C 67.317 57.621, 63 59.484, 63 60.962 C 63 61.452, 63.788 62.076, 64.750 62.348 C 65.713 62.620, 65.211 62.766, 63.635 62.671 C 60.131 62.462, 57.601 65.484, 60 67.013 C 62.122 68.366, 63 68.226, 63 66.535 C 63 64.656, 66.685 62.665, 68.720 63.446 C 69.968 63.925, 70.048 63.762, 69.115 62.638 C 68.175 61.506, 68.419 61.112, 70.363 60.624 C 72.670 60.045, 74.629 57.296, 73.524 56.190 C 73.236 55.902, 73 56.199, 73 56.849 M 79.459 58.067 C 79.096 58.653, 79.070 59.403, 79.400 59.733 C 79.730 60.063, 80 59.808, 80 59.167 C 80 58.525, 80.661 58, 81.469 58 C 82.435 58, 82.727 58.598, 82.321 59.750 C 81.819 61.179, 81.953 61.270, 83.053 60.250 C 84.924 58.514, 86.057 58.688, 85.324 60.599 C 84.786 62, 84.976 62.032, 86.860 60.856 C 88.973 59.536, 88.954 59.493, 85.755 58.333 C 81.559 56.811, 80.269 56.756, 79.459 58.067 M 143.739 59.889 C 143.467 60.928, 143.633 62.391, 144.107 63.139 C 144.693 64.064, 144.974 63.460, 144.985 61.250 C 145.002 57.612, 144.483 57.045, 143.739 59.889 M 64.813 60.683 C 65.534 60.972, 66.397 60.936, 66.729 60.604 C 67.061 60.272, 66.471 60.036, 65.417 60.079 C 64.252 60.127, 64.015 60.364, 64.813 60.683 M 92.459 63.067 C 92.096 63.653, 92.040 64.373, 92.333 64.667 C 93.050 65.383, 95 64.121, 95 62.941 C 95 61.663, 93.274 61.748, 92.459 63.067 M 95.459 64.067 C 94.407 65.768, 95.804 66.408, 97.499 65.001 C 98.802 63.920, 98.946 63.976, 98.416 65.359 C 97.651 67.353, 99.316 67.529, 100.899 65.622 C 101.803 64.533, 101.567 64.117, 99.771 63.636 C 96.650 62.800, 96.215 62.843, 95.459 64.067 M 112.244 63.664 C 111.553 63.943, 111.242 64.582, 111.553 65.085 C 112.431 66.506, 113.667 66.164, 113.667 64.500 C 113.667 63.675, 113.629 63.036, 113.583 63.079 C 113.537 63.122, 112.935 63.386, 112.244 63.664 M 124.136 64.168 C 124.061 65.086, 123.709 66.661, 123.353 67.668 C 122.853 69.082, 122.987 69.241, 123.937 68.365 C 124.615 67.741, 124.968 66.166, 124.721 64.865 C 124.474 63.564, 124.211 63.251, 124.136 64.168 M 187.607 64.582 C 186.749 66.817, 186.852 73.791, 187.750 74.342 C 188.162 74.595, 188.500 72.146, 188.500 68.900 C 188.500 65.655, 188.436 62.999, 188.357 63 C 188.278 63, 187.941 63.712, 187.607 64.582 M 189.420 66.575 C 189.051 68.541, 189.143 70.538, 189.625 71.013 C 190.123 71.504, 190.553 69.965, 190.624 67.438 C 190.774 62.074, 190.325 61.752, 189.420 66.575 M 76.200 65.200 C 74.567 66.833, 74.692 68, 76.500 68 C 77.325 68, 78 67.812, 78 67.582 C 78 67.352, 78.273 66.452, 78.607 65.582 C 79.323 63.715, 77.909 63.491, 76.200 65.200 M 79.459 66.067 C 79.096 66.653, 79.040 67.373, 79.333 67.667 C 80.050 68.383, 82 67.121, 82 65.941 C 82 64.663, 80.274 64.748, 79.459 66.067 M 184.624 66.539 C 184.281 67.432, 184.056 69.589, 184.125 71.332 C 184.229 73.968, 184.376 73.744, 184.998 70 C 185.793 65.216, 185.647 63.871, 184.624 66.539 M 82.459 67.067 C 82.096 67.653, 82.040 68.373, 82.333 68.667 C 83.050 69.383, 85 68.121, 85 66.941 C 85 65.663, 83.274 65.748, 82.459 67.067 M 104.698 67.346 C 103.995 69.177, 114.742 72.658, 116.297 71.103 C 117.973 69.427, 116.249 68.551, 114.337 70.107 C 112.830 71.334, 112.704 71.291, 113.281 69.750 C 114.047 67.706, 112.976 67.466, 111.053 69.250 C 109.956 70.267, 109.813 70.193, 110.284 68.849 C 110.679 67.720, 110.172 67.012, 108.681 66.612 C 105.586 65.782, 105.276 65.839, 104.698 67.346 M 85.459 68.067 C 84.407 69.768, 85.804 70.408, 87.499 69.001 C 88.802 67.920, 88.946 67.976, 88.416 69.359 C 87.681 71.275, 89.068 71.532, 90.800 69.800 C 91.460 69.140, 92 68.978, 92 69.440 C 92 69.902, 91.213 70.877, 90.250 71.608 C 88.930 72.610, 88.850 72.944, 89.921 72.968 C 90.703 72.986, 92.242 72.213, 93.341 71.250 C 95.071 69.735, 95.260 69.717, 94.752 71.116 C 94.005 73.173, 101.588 75.812, 103.306 74.094 C 104.976 72.424, 103.243 71.557, 101.337 73.107 C 99.848 74.319, 99.702 74.294, 100.218 72.916 C 100.680 71.679, 99.338 70.859, 94.084 69.166 C 86.298 66.659, 86.327 66.662, 85.459 68.067 M 152.987 69.347 C 154.355 70.880, 155.480 72.890, 155.487 73.815 C 155.494 74.739, 156.066 75.496, 156.759 75.497 C 157.451 75.499, 158.907 76.963, 159.994 78.750 C 162.256 82.470, 162.197 82.493, 155.585 80.487 C 152.882 79.667, 150.444 79.222, 150.168 79.498 C 149.892 79.774, 150.247 80, 150.956 80 C 151.935 80, 151.971 80.330, 151.105 81.373 C 149.320 83.525, 150.798 85.724, 155.589 88.043 C 159.996 90.177, 160.884 91.336, 159 92.500 C 158.450 92.840, 158 94.404, 158 95.976 C 158 98.162, 158.646 99.089, 160.750 99.923 L 163.500 101.012 160.500 100.450 C 157.694 99.925, 157.629 99.979, 159.500 101.291 C 161.419 102.637, 170.474 106, 172.178 106 C 172.630 106, 173 105.603, 173 105.119 C 173 104.634, 170.920 103.714, 168.378 103.074 C 165.836 102.434, 164.013 101.653, 164.327 101.339 C 164.641 101.026, 166.338 101.271, 168.098 101.884 C 172.434 103.396, 173 103.306, 173 101.107 C 173 100.066, 173.675 98.955, 174.500 98.638 C 175.325 98.322, 175.993 97.486, 175.985 96.781 C 175.973 95.778, 175.786 95.789, 175.125 96.832 C 173.830 98.875, 165.971 96.349, 166.676 94.116 C 166.968 93.192, 166.351 93.521, 165.236 94.886 C 163.057 97.553, 161.324 96.307, 163.353 93.532 C 164.576 91.859, 165.006 91.887, 171.774 94.066 C 177.619 95.949, 179.363 96.156, 181.434 95.212 C 183.089 94.458, 183.758 93.533, 183.373 92.530 C 182.999 91.556, 183.358 91, 184.362 91 C 185.430 91, 185.739 91.563, 185.321 92.750 C 184.819 94.179, 184.953 94.270, 186.053 93.250 C 187.887 91.548, 189.062 91.676, 188.362 93.500 C 188.045 94.325, 186.822 95.007, 185.643 95.015 C 184.464 95.024, 183.050 95.361, 182.500 95.765 C 181.088 96.803, 181.264 100.255, 182.754 100.751 C 184.488 101.329, 184.312 104.496, 182.460 106.033 C 181.291 107.003, 180.087 107.055, 177.460 106.249 C 175.506 105.649, 174 105.582, 174 106.094 C 174 106.592, 174.349 107, 174.776 107 C 175.202 107, 175.540 109.245, 175.526 111.989 C 175.501 116.746, 176.259 118, 179.158 118 C 179.706 118, 180.018 116.137, 179.854 113.855 C 179.600 110.340, 179.893 109.584, 181.777 108.887 C 183.109 108.394, 184 108.452, 184 109.032 C 184 109.565, 183.325 110, 182.500 110 C 181.364 110, 181 111.230, 181 115.067 C 181 120.480, 181.068 120.442, 175.250 118.256 C 174.563 117.997, 174 118.235, 174 118.785 C 174 119.334, 175.105 120.061, 176.456 120.400 C 177.807 120.739, 180.169 121.532, 181.706 122.162 C 186.144 123.982, 186.789 123.943, 190.161 121.660 C 195.163 118.272, 196.844 114.487, 196.927 106.419 C 196.994 99.902, 196.806 99.234, 194.562 98.033 C 192.455 96.906, 191.672 96.996, 188.778 98.703 C 186.761 99.893, 184.677 100.413, 183.532 100.011 C 182.228 99.554, 182.004 99.116, 182.816 98.613 C 183.467 98.211, 184.437 98.152, 184.971 98.482 C 186.223 99.256, 192 96.285, 192 94.867 C 192 94.273, 192.675 94.045, 193.500 94.362 C 194.325 94.678, 195 94.710, 195 94.433 C 195 93.762, 187.065 90.388, 182.564 89.145 C 180.592 88.601, 179.203 88.519, 179.478 88.964 C 179.753 89.409, 179.308 90.329, 178.489 91.009 C 177.267 92.023, 177 91.932, 177 90.500 C 177 89.062, 176.736 88.974, 175.500 90 C 174.271 91.020, 174 90.951, 174 89.622 C 174 88.730, 174.787 87.965, 175.750 87.922 C 177.799 87.832, 168.333 84.192, 165.750 84.078 C 164.787 84.035, 164 84.436, 164 84.969 C 164 85.501, 164.736 85.655, 165.636 85.309 C 166.684 84.907, 167.125 85.125, 166.861 85.916 C 166.635 86.595, 166.236 87.104, 165.975 87.047 C 161.420 86.057, 161.131 85.785, 162.057 83.349 C 163.587 79.326, 159.730 73.124, 152.500 67.983 C 151.046 66.949, 151.179 67.322, 152.987 69.347 M 58 69 C 58 69.550, 58.450 70, 59 70 C 59.550 70, 60 70.450, 60 71 C 60 71.550, 59.325 72, 58.500 72 C 57.675 72, 57 72.675, 57 73.500 C 57 75.102, 57.917 75.353, 60.355 74.417 C 61.190 74.097, 61.629 73.197, 61.330 72.417 C 61.031 71.638, 61.247 71, 61.810 71 C 62.373 71, 63.060 71.563, 63.338 72.250 C 63.635 72.988, 63.874 72.772, 63.921 71.725 C 63.967 70.697, 62.921 69.540, 61.435 68.975 C 58.243 67.762, 58 67.763, 58 69 M 139 68.713 C 135.886 69.866, 134.911 71.188, 136.110 72.633 C 137.850 74.729, 139.986 74.259, 140.118 71.750 C 140.214 69.931, 140.383 70.075, 141 72.500 C 141.760 75.486, 141.764 75.482, 141.882 71.750 C 142.001 67.973, 141.740 67.699, 139 68.713 M 144.272 72 C 144.272 74.475, 144.467 75.487, 144.706 74.250 C 144.944 73.013, 144.944 70.987, 144.706 69.750 C 144.467 68.513, 144.272 69.525, 144.272 72 M 147.592 69.380 C 147.905 70.196, 149.006 70.800, 150.038 70.722 C 151.713 70.596, 151.825 69.523, 150.167 69.485 C 149.800 69.476, 148.943 69.115, 148.261 68.683 C 147.422 68.149, 147.206 68.374, 147.592 69.380 M 65 71.063 C 65 71.547, 67.588 72.687, 70.750 73.595 C 73.912 74.502, 76.838 75.441, 77.250 75.681 C 77.662 75.922, 78 75.733, 78 75.263 C 78 74.793, 75.075 73.457, 71.500 72.294 C 67.925 71.132, 65 70.578, 65 71.063 M 181.102 72.059 C 181.046 73.466, 181.708 75.491, 182.574 76.559 C 183.440 77.626, 183.818 77.864, 183.415 77.087 C 183.011 76.310, 182.349 74.285, 181.943 72.587 C 181.264 69.749, 181.196 69.706, 181.102 72.059 M 120.459 72.067 C 120.096 72.653, 120.040 73.373, 120.333 73.667 C 121.050 74.383, 123 73.121, 123 71.941 C 123 70.663, 121.274 70.748, 120.459 72.067 M 149.143 72.890 C 148.292 73.430, 148.165 73.984, 148.803 74.378 C 150.056 75.153, 153 74.111, 153 72.893 C 153 71.765, 150.921 71.764, 149.143 72.890 M 104.667 73.667 C 104.300 74.033, 104 75.189, 104 76.234 C 104 77.740, 104.467 77.994, 106.250 77.455 C 109.044 76.611, 110.578 75.244, 109.707 74.374 C 109.345 74.012, 108.352 74.293, 107.501 74.999 C 106.198 76.080, 106.054 76.024, 106.584 74.641 C 107.207 73.017, 105.954 72.380, 104.667 73.667 M 178.070 74.691 C 178.032 75.896, 178.450 77.160, 179 77.500 C 180.183 78.231, 180.183 77.252, 179 74.500 C 178.171 72.572, 178.138 72.579, 178.070 74.691 M 64.636 75.506 C 64.294 76.397, 63.561 76.847, 63.007 76.504 C 62.453 76.162, 62 76.310, 62 76.834 C 62 77.358, 62.675 78.045, 63.500 78.362 C 64.325 78.678, 65 79.538, 65 80.272 C 65 81.469, 69.770 83.341, 83.500 87.533 L 87.500 88.754 87.500 85.008 L 87.500 81.262 77.500 77.994 C 72 76.196, 66.996 74.536, 66.379 74.305 C 65.763 74.074, 64.978 74.614, 64.636 75.506 M 136 75.106 C 136 75.555, 134.988 76.906, 133.750 78.108 C 131.356 80.434, 133.308 79.720, 136.250 77.193 C 137.806 75.856, 138 75.856, 138 77.192 C 138 78.018, 136.988 79.201, 135.750 79.821 C 133.680 80.857, 133.740 80.902, 136.500 80.393 C 138.926 79.944, 139.213 80.063, 138 81.013 C 136.724 82.013, 136.773 82.100, 138.332 81.594 C 139.339 81.267, 140.577 81, 141.082 81 C 141.587 81, 142 80.502, 142 79.893 C 142 79.284, 141.325 79.045, 140.500 79.362 C 138.723 80.044, 138.473 78.444, 140.191 77.382 C 140.846 76.977, 141.550 77.150, 141.756 77.767 C 141.961 78.383, 142.775 78.640, 143.565 78.337 C 145.560 77.571, 145.362 79.005, 143.250 80.608 C 142.181 81.419, 141.987 81.949, 142.750 81.968 C 143.438 81.986, 144.870 81.130, 145.933 80.067 C 147.844 78.156, 147.798 78.111, 141.933 76.212 C 138.670 75.155, 136 74.658, 136 75.106 M 55 76.399 C 55 77.711, 60.836 80.497, 61.724 79.609 C 62.059 79.274, 61.850 79, 61.260 79 C 60.670 79, 60.392 78.213, 60.642 77.250 C 60.998 75.881, 60.434 75.477, 58.049 75.394 C 56.372 75.335, 55 75.788, 55 76.399 M 79.500 76 C 79.840 76.550, 80.541 77, 81.059 77 C 81.577 77, 82 76.550, 82 76 C 82 75.450, 81.298 75, 80.441 75 C 79.584 75, 79.160 75.450, 79.500 76 M 150.667 75.667 C 149.488 76.845, 149.950 77.754, 152 78.290 C 153.145 78.589, 154.007 78.318, 154.015 77.656 C 154.024 76.976, 154.403 77.088, 154.935 77.930 C 155.433 78.716, 156.637 79.476, 157.611 79.619 C 158.851 79.801, 158.501 79.159, 156.441 77.475 C 153.414 75.002, 151.828 74.505, 150.667 75.667 M 110.726 81.074 L 102.953 85.048 103.226 102.267 L 103.500 119.486 120.500 125.060 L 137.500 130.633 137.774 113.772 C 137.944 103.266, 138.411 97.136, 139.012 97.508 C 139.543 97.836, 139.761 97.518, 139.498 96.802 C 139.194 95.976, 141.569 94.232, 145.991 92.032 C 149.826 90.125, 152.635 88.252, 152.232 87.870 C 150.990 86.692, 133.875 81.792, 133.235 82.431 C 132.904 82.762, 133.173 83.573, 133.833 84.233 C 135.931 86.331, 129.477 88.959, 125.341 87.690 C 122.312 86.760, 120.706 85, 122.887 85 C 123.374 85, 123.977 83.611, 124.226 81.914 C 124.600 79.363, 124.262 78.670, 122.274 77.914 C 119.066 76.694, 119.556 76.560, 110.726 81.074 M 90 79.059 C 90 79.641, 90.450 79.840, 91 79.500 C 91.550 79.160, 92 78.684, 92 78.441 C 92 78.198, 91.550 78, 91 78 C 90.450 78, 90 78.477, 90 79.059 M 96 80.883 C 96 81.895, 99.550 83.002, 102.500 82.910 C 103.835 82.869, 103.336 82.400, 101 81.500 C 96.702 79.845, 96 79.758, 96 80.883 M 145.500 82.243 L 142.500 84.182 145.498 83.510 C 148.946 82.737, 149.341 82.466, 148.854 81.215 C 148.659 80.714, 147.150 81.177, 145.500 82.243 M 58 81.892 C 58 82.501, 58.638 83, 59.417 83 C 60.196 83, 60.983 83.436, 61.167 83.968 C 61.372 84.565, 62.064 84.585, 62.971 84.022 C 64.774 82.903, 64.305 82.366, 60.748 81.473 C 58.989 81.031, 58 81.182, 58 81.892 M 125.033 81.633 C 125.110 83.623, 128.897 86.977, 130.412 86.395 C 132.285 85.677, 132.566 82.006, 130.750 81.986 C 130.063 81.979, 128.488 81.701, 127.250 81.370 C 126.013 81.038, 125.015 81.157, 125.033 81.633 M 152 82.622 C 152 83.901, 152.297 83.998, 153.403 83.081 C 154.475 82.191, 154.901 82.204, 155.212 83.135 C 155.465 83.896, 156.135 84.035, 156.993 83.505 C 158.086 82.829, 157.971 82.500, 156.434 81.898 C 153.314 80.676, 152 80.891, 152 82.622 M 174.500 82 C 173.702 83.290, 174.775 85.023, 176.309 84.921 C 177.168 84.864, 177.151 84.701, 176.250 84.338 C 175.563 84.060, 175 83.394, 175 82.858 C 175 82.321, 175.520 82.203, 176.155 82.595 C 176.870 83.038, 177.038 82.870, 176.595 82.155 C 175.721 80.739, 175.298 80.708, 174.500 82 M 89.537 85.709 C 89.619 88.921, 90.030 89.482, 93.065 90.529 C 101.464 93.427, 101 93.487, 101 89.516 C 101 86.371, 100.575 85.726, 97.750 84.582 C 95.963 83.858, 93.362 82.998, 91.972 82.670 C 89.611 82.113, 89.450 82.314, 89.537 85.709 M 65.500 83.762 C 66.607 84.932, 77.109 88.225, 77.735 87.598 C 77.952 87.381, 75.738 86.417, 72.815 85.456 C 69.892 84.495, 66.825 83.483, 66 83.207 C 64.974 82.864, 64.816 83.039, 65.500 83.762 M 158.543 83.931 C 158.226 84.443, 158.378 85.115, 158.879 85.425 C 159.380 85.735, 160.048 85.316, 160.364 84.494 C 160.986 82.874, 159.483 82.409, 158.543 83.931 M 59 86.383 C 59 87.144, 59.900 88.002, 61 88.290 C 63.404 88.918, 63.779 86.513, 61.418 85.607 C 59.202 84.756, 59 84.821, 59 86.383 M 117 87 C 117 87.550, 117.648 88, 118.441 88 C 119.234 88, 120.160 87.550, 120.500 87 C 120.840 86.450, 120.191 86, 119.059 86 C 117.927 86, 117 86.450, 117 87 M 136 87 C 136 87.550, 136.675 88, 137.500 88 C 138.325 88, 139 87.550, 139 87 C 139 86.450, 138.325 86, 137.500 86 C 136.675 86, 136 86.450, 136 87 M 167.667 86.667 C 166.452 87.881, 166.976 88.947, 168.500 88.362 C 169.325 88.045, 170 87.384, 170 86.893 C 170 85.845, 168.622 85.711, 167.667 86.667 M 64.242 88.226 C 64.531 89.092, 98.012 100.792, 100.750 100.983 C 100.888 100.992, 101 100.325, 101 99.500 C 101 98.675, 100.788 98, 100.529 98 C 100.270 98, 92.342 95.525, 82.910 92.500 C 64.387 86.559, 63.628 86.385, 64.242 88.226 M 170.459 88.067 C 170.096 88.653, 170.040 89.373, 170.333 89.667 C 171.050 90.383, 173 89.121, 173 87.941 C 173 86.663, 171.274 86.748, 170.459 88.067 M 180 91 C 180 91.550, 180.423 92, 180.941 92 C 181.459 92, 182.160 91.550, 182.500 91 C 182.840 90.450, 182.416 90, 181.559 90 C 180.702 90, 180 90.450, 180 91 M 147.962 93.250 C 145.346 94.569, 143.349 96.327, 143.134 97.500 C 142.672 100.029, 140.789 101.267, 139.792 99.697 C 139.373 99.039, 139.024 105.395, 139.015 113.821 C 138.999 130.402, 139.120 130.807, 144.656 132.732 C 147.508 133.725, 147.870 133.622, 148.422 131.665 C 148.982 129.681, 149.141 129.640, 150.324 131.178 C 151.843 133.152, 153.450 132.397, 154.433 129.250 C 154.819 128.012, 155.554 127, 156.067 127 C 156.607 127, 157 119.985, 157 110.360 C 157 95.686, 156.793 93.564, 155.250 92.392 C 152.968 90.660, 153.138 90.640, 147.962 93.250 M 160.459 92.067 C 160.096 92.653, 160.040 93.373, 160.333 93.667 C 161.050 94.383, 163 93.121, 163 91.941 C 163 90.663, 161.274 90.748, 160.459 92.067 M 189.667 93.667 C 188.711 94.622, 188.845 96, 189.893 96 C 190.384 96, 191.045 95.325, 191.362 94.500 C 191.947 92.976, 190.881 92.452, 189.667 93.667 M 174.667 99.667 C 173.431 100.903, 173.988 103.781, 175.582 104.393 C 177.876 105.273, 178 105.202, 178 103 C 178 101.900, 178.477 101, 179.059 101 C 179.641 101, 179.840 100.550, 179.500 100 C 178.802 98.870, 175.679 98.655, 174.667 99.667 M 191 100.500 C 191 101.325, 191.450 102, 192 102 C 192.550 102, 193 101.325, 193 100.500 C 193 99.675, 192.550 99, 192 99 C 191.450 99, 191 99.675, 191 100.500 M 147.750 105.067 C 144.588 106.698, 142 108.624, 142 109.348 C 142 110.765, 154.221 105.156, 154.825 103.461 C 155.461 101.679, 153.423 102.141, 147.750 105.067 M 185.583 102.866 C 185.152 103.563, 185.070 104.403, 185.400 104.733 C 186.295 105.628, 187.271 104.312, 186.787 102.862 C 186.449 101.846, 186.213 101.846, 185.583 102.866 M 194 103.559 C 194 104.416, 194.450 104.840, 195 104.500 C 195.550 104.160, 196 103.459, 196 102.941 C 196 102.423, 195.550 102, 195 102 C 194.450 102, 194 102.702, 194 103.559 M 158 107.736 L 158 111.686 165 113.728 C 168.850 114.851, 172 115.372, 172 114.885 C 172 114.398, 172.675 114, 173.500 114 C 174.325 114, 175 113.598, 175 113.107 C 175 112.616, 174.325 111.955, 173.500 111.638 C 172.675 111.322, 172 110.386, 172 109.559 C 172 108.589, 169.963 107.466, 166.250 106.392 C 163.088 105.477, 159.938 104.517, 159.250 104.257 C 158.381 103.930, 158 104.991, 158 107.736 M 148.250 109.329 C 144.813 111.033, 142 112.973, 142 113.639 C 142 114.833, 154.960 108.706, 155.099 107.446 C 155.250 106.082, 154.235 106.361, 148.250 109.329 M 122 107.969 C 122 108.501, 122.617 108.700, 123.371 108.411 C 124.125 108.122, 125.402 108.545, 126.209 109.352 C 127.047 110.190, 128.215 110.485, 128.934 110.041 C 129.784 109.515, 129.139 108.896, 126.947 108.131 C 122.977 106.748, 122 106.715, 122 107.969 M 176 109 C 176 109.550, 176.423 110, 176.941 110 C 177.459 110, 178.160 109.550, 178.500 109 C 178.840 108.450, 178.416 108, 177.559 108 C 176.702 108, 176 108.450, 176 109 M 194 111.500 C 194 112.325, 194.450 113, 195 113 C 195.550 113, 196 112.325, 196 111.500 C 196 110.675, 195.550 110, 195 110 C 194.450 110, 194 110.675, 194 111.500 M 147.250 114.030 C 140.088 118.137, 140.586 119.743, 147.880 116.061 C 151.113 114.428, 154.062 113.396, 154.433 113.766 C 154.803 114.136, 154.809 113.665, 154.446 112.720 C 153.583 110.470, 153.399 110.503, 147.250 114.030 M 159 114.059 C 159 114.641, 159.450 114.840, 160 114.500 C 160.550 114.160, 161 113.684, 161 113.441 C 161 113.198, 160.550 113, 160 113 C 159.450 113, 159 113.477, 159 114.059 M 162 115.059 C 162 115.641, 162.450 115.840, 163 115.500 C 163.550 115.160, 164 114.684, 164 114.441 C 164 114.198, 163.550 114, 163 114 C 162.450 114, 162 114.477, 162 115.059 M 147.750 118.064 C 144.078 119.960, 142.006 121.659, 142.015 122.766 C 142.026 123.994, 142.260 124.138, 142.817 123.261 C 143.250 122.580, 146.280 120.912, 149.552 119.554 C 152.823 118.196, 155.050 117.059, 154.500 117.027 C 153.950 116.995, 154.175 116.533, 155 116 C 158.544 113.709, 153.286 115.206, 147.750 118.064 M 182.583 116.866 C 182.152 117.563, 182.070 118.403, 182.400 118.733 C 183.295 119.628, 184.271 118.312, 183.787 116.862 C 183.449 115.846, 183.213 115.846, 182.583 116.866 M 191 117.500 C 191 118.325, 191.450 119, 192 119 C 192.550 119, 193 118.325, 193 117.500 C 193 116.675, 192.550 116, 192 116 C 191.450 116, 191 116.675, 191 117.500 M 158 118.421 C 158 119.202, 159.354 120.138, 161.009 120.502 C 162.664 120.865, 163.831 121.464, 163.604 121.831 C 163.377 122.199, 164.161 122.537, 165.345 122.582 C 166.530 122.626, 168.738 123.013, 170.250 123.440 C 172.318 124.024, 173 123.867, 173 122.805 C 173 121.942, 170.348 120.540, 166.179 119.197 C 158.118 116.601, 158 116.589, 158 118.421 M 147.750 122.175 C 139.864 126.451, 140.305 128.517, 148.250 124.518 C 154.192 121.528, 156.148 119.849, 154.325 119.303 C 153.871 119.168, 150.912 120.460, 147.750 122.175 M 185.583 119.866 C 185.152 120.563, 185.070 121.403, 185.400 121.733 C 186.295 122.628, 187.271 121.312, 186.787 119.862 C 186.449 118.846, 186.213 118.846, 185.583 119.866 M 122.500 120.782 C 124.013 122.411, 129 123.428, 129 122.108 C 129 121.499, 128.137 121, 127.082 121 C 126.027 121, 124.339 120.709, 123.332 120.353 C 122.052 119.901, 121.801 120.030, 122.500 120.782 M 175.250 121.733 C 173.298 122.410, 173.783 124.710, 176 125.290 C 177.152 125.591, 177.994 125.323, 177.985 124.656 C 177.959 122.745, 176.581 121.272, 175.250 121.733 M 108.070 139.250 C 108.109 148.188, 108.527 156.400, 109 157.500 C 109.524 158.719, 109.887 152.375, 109.930 141.250 C 109.974 129.703, 109.633 123, 109 123 C 108.371 123, 108.026 129.036, 108.070 139.250 M 158.427 127.250 C 160.148 138.738, 160.158 140.220, 158.548 145.143 C 157.635 147.933, 155.783 151.967, 154.432 154.108 C 153.081 156.249, 152.256 158, 152.599 158 C 152.943 158, 159.036 155.009, 166.140 151.352 C 177.550 145.480, 179.344 144.836, 181.528 145.831 C 183.818 146.874, 184 146.762, 184 144.316 C 184 140.657, 179.800 133.848, 175.537 130.596 C 171.593 127.588, 161.826 123, 159.366 123 C 158.078 123, 157.906 123.778, 158.427 127.250 M 113.370 134 C 113.370 139.775, 113.535 142.137, 113.737 139.250 C 113.939 136.363, 113.939 131.637, 113.737 128.750 C 113.535 125.862, 113.370 128.225, 113.370 134 M 170.500 125.616 C 179.576 130.726, 184.511 137.156, 185.632 145.331 C 186.333 150.449, 188 151.712, 188 147.126 C 188 142.845, 185.412 136.308, 182.022 132.028 C 179.115 128.357, 175.178 125.916, 170 124.575 C 167.794 124.003, 167.852 124.125, 170.500 125.616 M 115 130.883 C 115 136.139, 115.240 136.831, 117.250 137.370 C 120.922 138.354, 121 138.244, 121 132.117 C 121 126.861, 120.760 126.169, 118.750 125.630 C 115.078 124.646, 115 124.756, 115 130.883 M 126 143.032 C 126 158.163, 126.413 159.730, 129.571 156.571 C 131.237 154.906, 131.616 142, 130 142 C 129.450 142, 129 141.325, 129 140.500 C 129 139.675, 129.475 139, 130.055 139 C 130.687 139, 130.987 137.140, 130.805 134.359 C 130.558 130.607, 130.069 129.560, 128.250 128.891 L 126 128.064 126 143.032 M 132.400 144.500 C 132.401 152.750, 132.556 155.992, 132.744 151.704 C 132.932 147.417, 132.931 140.667, 132.742 136.704 C 132.552 132.742, 132.399 136.250, 132.400 144.500 M 135.222 145.407 C 135.491 159.791, 135.573 160.300, 137.750 161.104 L 140 161.936 139.985 146.718 C 139.974 136.201, 139.659 131.963, 138.966 133 C 138.098 134.296, 137.757 134.231, 136.453 132.521 C 135.090 130.733, 134.971 131.979, 135.222 145.407 M 156.965 132.934 C 157.534 133.998, 158.036 136.136, 158.079 137.684 C 158.122 139.233, 158.393 139.913, 158.680 139.196 C 159.438 137.304, 158.084 131, 156.920 131 C 156.282 131, 156.298 131.688, 156.965 132.934 M 141.400 147.500 C 141.401 155.750, 141.556 158.992, 141.744 154.704 C 141.932 150.417, 141.931 143.667, 141.742 139.704 C 141.552 135.742, 141.399 139.250, 141.400 147.500 M 144.343 141.500 C 144.346 145.900, 144.522 147.576, 144.733 145.224 C 144.945 142.872, 144.942 139.272, 144.727 137.224 C 144.512 135.176, 144.339 137.100, 144.343 141.500 M 152.500 135.136 C 148.689 136.145, 147 141.050, 147 151.107 C 147 156.937, 147.244 158.042, 148.332 157.140 C 150.654 155.212, 154.996 146.345, 155.847 141.791 C 156.995 135.643, 156.242 134.145, 152.500 135.136 M 106.079 137.583 C 106.127 138.748, 106.364 138.985, 106.683 138.188 C 106.972 137.466, 106.936 136.603, 106.604 136.271 C 106.272 135.939, 106.036 136.529, 106.079 137.583 M 115 148.087 C 115 156.791, 115.063 157.037, 117.021 155.989 C 118.132 155.394, 119.482 155.180, 120.021 155.513 C 120.626 155.887, 121 153.271, 121 148.657 C 121 141.266, 120.972 141.186, 118 140.150 L 115 139.104 115 148.087 M 105.079 143.583 C 105.127 144.748, 105.364 144.985, 105.683 144.188 C 105.972 143.466, 105.936 142.603, 105.604 142.271 C 105.272 141.939, 105.036 142.529, 105.079 143.583 M 178.772 148.553 C 180.485 149.752, 181.388 149.849, 182.744 148.977 C 184.347 147.948, 184.350 147.895, 182.782 148.381 C 181.837 148.673, 180.798 148.482, 180.473 147.956 C 180.148 147.430, 179.133 147, 178.218 147 C 176.905 147, 177.021 147.327, 178.772 148.553 M 113.158 151 C 113.158 152.375, 113.385 152.938, 113.662 152.250 C 113.940 151.563, 113.940 150.438, 113.662 149.750 C 113.385 149.063, 113.158 149.625, 113.158 151 M 161.644 155.113 C 149.932 161.049, 147.419 161.736, 150.077 158.274 C 150.826 157.298, 150.216 157.591, 148.720 158.924 C 145.532 161.766, 145.392 162.124, 147.750 161.400 C 148.713 161.104, 148.375 161.552, 147 162.395 C 145.488 163.323, 145.093 163.934, 146 163.941 C 146.825 163.947, 154.025 160.606, 162 156.515 C 169.975 152.425, 175.825 149.084, 175 149.091 C 174.175 149.098, 168.165 151.808, 161.644 155.113 M 189 150 C 189 150.550, 189.436 151, 189.969 151 C 190.501 151, 190.684 151.787, 190.374 152.750 C 190.047 153.768, 190.165 154.082, 190.656 153.500 C 191.708 152.254, 195.181 151.898, 194.430 153.113 C 194.129 153.601, 194.359 154, 194.941 154 C 195.523 154, 196 154.900, 196 156 C 196 158.834, 199.160 158.219, 199.743 155.272 C 199.952 154.214, 194.764 150.663, 192.833 150.542 C 192.467 150.519, 191.829 150.162, 191.417 149.750 C 190.349 148.683, 189 148.822, 189 150 M 50.506 151.250 C 44.640 168.264, 35.968 196.473, 36.321 197.394 C 36.991 199.141, 56.982 205.418, 58.151 204.249 C 59.626 202.774, 73.988 157.579, 73.204 156.878 C 72.263 156.037, 53.842 150, 52.216 150 C 51.513 150, 50.743 150.563, 50.506 151.250 M 144.310 156.500 C 144.315 159.800, 144.502 161.029, 144.725 159.232 C 144.947 157.435, 144.943 154.735, 144.715 153.232 C 144.486 151.729, 144.304 153.200, 144.310 156.500 M 172.064 155.405 C 163.704 159.671, 163.654 159.718, 166.564 160.705 C 169.094 161.563, 170.640 161.137, 177.750 157.627 C 182.287 155.387, 186 152.980, 186 152.277 C 186 149.861, 180.519 151.091, 172.064 155.405 M 124.079 154.583 C 124.127 155.748, 124.364 155.985, 124.683 155.188 C 124.972 154.466, 124.936 153.603, 124.604 153.271 C 124.272 152.939, 124.036 153.529, 124.079 154.583 M 113.488 156.695 C 113.673 158.599, 111.048 160.241, 93.622 169.118 C 82.578 174.744, 74.098 179.533, 74.777 179.759 C 75.457 179.986, 75.781 180.545, 75.498 181.002 C 74.803 182.127, 84.683 185.336, 86.589 184.604 C 87.556 184.233, 87.850 184.433, 87.403 185.157 C 86.909 185.956, 87.559 186.092, 89.601 185.615 C 91.860 185.088, 92.169 185.184, 91 186.051 C 89.822 186.923, 90.144 187.043, 92.500 186.607 C 94.859 186.172, 95.072 186.251, 93.500 186.980 C 90.016 188.595, 70.621 196.822, 67.611 197.962 C 66.023 198.564, 64.991 199.325, 65.320 199.653 C 66.010 200.343, 70.091 198.789, 85.834 191.839 C 92.068 189.086, 97.360 187.027, 97.594 187.261 C 97.829 187.495, 96.216 188.501, 94.010 189.495 C 90.598 191.034, 88.666 193, 90.566 193 C 91.601 193, 95.491 190.715, 96.134 189.728 C 96.522 189.135, 99.052 189.569, 102.634 190.845 C 107.072 192.426, 107.613 192.799, 104.855 192.376 C 101.287 191.829, 97 193.223, 97 194.931 C 97 196.048, 104.086 195.688, 106.016 194.473 C 107.997 193.227, 117.545 193.003, 115.794 194.245 C 114.954 194.840, 115.553 194.947, 117.500 194.551 C 119.845 194.073, 120.172 194.182, 119 195.051 C 117.828 195.919, 118.155 196.028, 120.500 195.551 C 122.845 195.073, 123.172 195.182, 122 196.051 C 120.828 196.919, 121.155 197.028, 123.500 196.551 C 125.852 196.071, 126.176 196.180, 125 197.056 C 123.793 197.955, 123.978 198.067, 125.948 197.629 C 127.294 197.329, 128.982 197.570, 129.698 198.164 C 130.643 198.949, 131 198.919, 131 198.055 C 131 197.297, 131.771 197.110, 133.125 197.540 C 134.544 197.990, 135.025 197.850, 134.573 197.119 C 134.135 196.409, 134.501 196.255, 135.612 196.681 C 136.769 197.125, 137.095 196.962, 136.612 196.181 C 136.130 195.401, 136.456 195.238, 137.612 195.681 C 138.769 196.125, 139.095 195.962, 138.612 195.181 C 138.130 194.401, 138.456 194.238, 139.612 194.681 C 140.769 195.125, 141.095 194.962, 140.612 194.181 C 140.130 193.401, 140.456 193.238, 141.612 193.681 C 142.769 194.125, 143.095 193.962, 142.612 193.181 C 142.130 192.401, 142.456 192.238, 143.612 192.681 C 144.769 193.125, 145.095 192.962, 144.612 192.181 C 144.130 191.401, 144.456 191.238, 145.612 191.681 C 146.769 192.125, 147.095 191.962, 146.612 191.181 C 146.130 190.401, 146.456 190.238, 147.612 190.681 C 148.746 191.117, 149.092 190.958, 148.631 190.213 C 147.793 188.855, 152.879 186.054, 154.889 186.767 C 155.731 187.065, 156.006 186.819, 155.587 186.141 C 155.133 185.406, 155.484 185.249, 156.612 185.681 C 157.769 186.125, 158.095 185.962, 157.612 185.181 C 157.130 184.401, 157.456 184.238, 158.612 184.681 C 159.769 185.125, 160.095 184.962, 159.612 184.181 C 159.130 183.401, 159.456 183.238, 160.612 183.681 C 161.725 184.108, 162.089 183.954, 161.650 183.242 C 160.928 182.074, 164.550 180.423, 166.850 180.871 C 167.593 181.015, 167.907 180.659, 167.548 180.078 C 167.138 179.415, 167.534 179.268, 168.612 179.681 C 169.769 180.125, 170.095 179.962, 169.612 179.181 C 169.130 178.401, 169.456 178.238, 170.612 178.681 C 171.769 179.125, 172.095 178.962, 171.612 178.181 C 171.130 177.401, 171.456 177.238, 172.612 177.681 C 173.769 178.125, 174.095 177.962, 173.612 177.181 C 173.163 176.454, 173.412 176.221, 174.281 176.554 C 175.058 176.852, 175.667 176.467, 175.667 175.678 C 175.667 174.786, 172.426 173.234, 166.833 171.447 C 161.975 169.894, 158 168.327, 158 167.964 C 158 167.601, 159.800 166.492, 162 165.500 C 166.630 163.412, 166.993 162.466, 163.500 161.589 C 161.821 161.168, 159.440 161.774, 156.250 163.434 C 153.637 164.794, 152.138 165.928, 152.917 165.953 C 153.696 165.979, 154.078 166.255, 153.767 166.566 C 153.455 166.878, 145.460 164.637, 135.998 161.586 C 123.073 157.418, 118.341 156.282, 116.964 157.019 C 114.489 158.344, 114.207 158.277, 113.707 156.250 C 113.464 155.263, 113.368 155.457, 113.488 156.695 M 186.691 157.155 C 183.519 158.758, 180.421 159.760, 179.807 159.381 C 179.193 159.001, 178.963 159.131, 179.296 159.670 C 179.628 160.208, 176.323 162.392, 171.950 164.524 C 167.578 166.656, 164 168.740, 164 169.155 C 164 169.570, 165.528 170.196, 167.395 170.546 C 171.189 171.258, 175 169.714, 175 167.465 C 175 166.659, 175.450 166, 176 166 C 176.550 166, 177 166.444, 177 166.987 C 177 167.530, 179.025 166.990, 181.500 165.788 C 184.358 164.399, 186 162.944, 186 161.801 C 186 159.820, 187.611 159.333, 188.211 161.132 C 188.820 162.959, 195 159.271, 195 157.081 C 195 154.042, 192.807 154.062, 186.691 157.155 M 67.202 181.250 C 62.868 194.588, 59.483 205.695, 59.678 205.933 C 60.784 207.282, 62.928 201.884, 69.593 180.976 C 73.667 168.195, 77 157.572, 77 157.369 C 77 157.166, 76.568 157, 76.040 157 C 75.513 157, 71.535 167.912, 67.202 181.250 M 197.224 159.176 C 196.322 160.078, 196.334 160.706, 197.274 161.868 C 198.247 163.071, 198.242 163.229, 197.250 162.633 C 196.323 162.076, 196 163.056, 196 166.420 C 196 170.897, 196.033 170.942, 198.500 169.818 C 201.085 168.640, 201.731 165.331, 200.370 160.250 C 199.691 157.719, 198.938 157.462, 197.224 159.176 M 183.752 165.894 C 177.841 168.977, 173.003 171.864, 173.002 172.309 C 173.001 172.754, 173.470 172.828, 174.044 172.473 C 175.601 171.511, 177.861 173.816, 177.335 175.829 C 176.778 177.956, 134.432 199.385, 132.790 198.370 C 132.129 197.962, 131.975 198.151, 132.405 198.845 C 132.890 199.630, 132.058 199.995, 129.809 199.985 C 127.198 199.973, 126.817 199.745, 128 198.909 C 130.438 197.185, 128.010 198.255, 119.300 202.745 C 113.684 205.640, 110.879 206.613, 110.396 205.831 C 109.962 205.130, 110.135 204.966, 110.845 205.405 C 111.480 205.797, 112 205.615, 112 205 C 112 204.385, 112.450 204.160, 113 204.500 C 113.550 204.840, 114 204.615, 114 204 C 114 203.385, 114.450 203.160, 115 203.500 C 115.550 203.840, 116 203.615, 116 203 C 116 202.385, 116.450 202.160, 117 202.500 C 117.550 202.840, 118 202.615, 118 202 C 118 201.385, 118.450 201.160, 119 201.500 C 119.550 201.840, 120 201.615, 120 201 C 120 200.385, 120.450 200.160, 121 200.500 C 121.550 200.840, 122 200.615, 122 200 C 122 199.385, 122.520 199.203, 123.155 199.595 C 123.822 200.008, 124.039 199.873, 123.670 199.275 C 123.319 198.707, 122.124 198.004, 121.014 197.714 C 119.905 197.424, 119.199 197.513, 119.445 197.911 C 119.691 198.310, 117.394 199.861, 114.341 201.359 C 109.576 203.696, 108.872 204.396, 109.380 206.291 C 109.706 207.506, 109.979 209.980, 109.986 211.789 L 110 215.079 152.250 193.584 L 194.500 172.090 194.646 166.045 C 194.727 162.720, 194.727 160.065, 194.646 160.144 C 194.566 160.223, 189.663 162.810, 183.752 165.894 M 184.090 167.392 C 179.364 169.803, 176.169 171.986, 176.797 172.374 C 178.110 173.186, 194 165.441, 194 163.989 C 194 162.477, 193.147 162.770, 184.090 167.392 M 197.064 171.939 C 195.917 172.665, 195.875 173.145, 196.856 174.327 C 197.797 175.461, 197.806 175.898, 196.892 176.203 C 196.236 176.421, 195.900 177.200, 196.145 177.934 C 196.487 178.960, 197.003 178.854, 198.384 177.473 C 200.040 175.818, 200.050 175.608, 198.519 174.751 C 196.994 173.897, 197.007 173.712, 198.680 172.443 C 200.692 170.918, 199.343 170.497, 197.064 171.939 M 152.498 194.643 C 129.399 206.457, 110.132 216.486, 109.683 216.929 C 109.233 217.372, 109.594 218.014, 110.485 218.356 C 111.557 218.767, 111.862 218.586, 111.388 217.819 C 110.905 217.038, 111.231 216.875, 112.388 217.319 C 113.407 217.710, 113.856 217.576, 113.493 216.989 C 113.157 216.445, 113.332 216, 113.882 216 C 114.432 216, 115.119 216.384, 115.410 216.854 C 116.039 217.872, 111.214 220.251, 110.018 219.511 C 109.561 219.229, 109.415 219.869, 109.693 220.935 C 110.176 222.782, 110.358 222.797, 113.600 221.251 C 117.185 219.541, 117.779 218.179, 115.800 216.200 C 114.028 214.428, 116.055 214.740, 118.050 216.546 C 119.599 217.947, 120.191 217.881, 124.379 215.846 C 128.886 213.657, 129.778 212.408, 128.250 210.429 C 127.838 209.895, 128.199 210.195, 129.053 211.097 C 130.489 212.611, 130.962 212.555, 135.303 210.349 C 140.072 207.925, 140.961 206.361, 138.800 204.200 C 137.876 203.276, 137.874 203, 138.792 203 C 139.447 203, 140.531 203.877, 141.200 204.949 C 142.392 206.857, 142.516 206.844, 147.105 204.346 C 151.670 201.862, 152.273 200.828, 150.663 198.250 C 150.233 197.563, 150.303 197, 150.819 197 C 152.263 197, 154.074 199.588, 153.241 200.462 C 152.834 200.890, 154.863 200.054, 157.750 198.603 C 160.637 197.153, 163 195.524, 163 194.983 C 163 193.608, 162.467 193.721, 157.841 196.081 C 154.641 197.713, 153.518 197.897, 152.631 196.934 C 151.761 195.989, 151.915 195.852, 153.302 196.341 C 154.521 196.771, 154.872 196.602, 154.388 195.819 C 153.905 195.038, 154.231 194.875, 155.388 195.319 C 156.544 195.762, 156.870 195.599, 156.388 194.819 C 155.905 194.038, 156.231 193.875, 157.388 194.319 C 158.544 194.762, 158.870 194.599, 158.388 193.819 C 157.905 193.038, 158.231 192.875, 159.388 193.319 C 160.544 193.762, 160.870 193.599, 160.388 192.819 C 159.905 192.038, 160.231 191.875, 161.388 192.319 C 162.407 192.710, 162.856 192.576, 162.493 191.989 C 162.157 191.445, 162.401 191, 163.035 191 C 163.669 191, 164.419 191.884, 164.701 192.965 C 165.209 194.907, 165.266 194.905, 169.358 192.844 C 175.593 189.704, 176.116 189.123, 174.937 186.645 L 173.916 184.500 175.708 186.615 L 177.500 188.729 181.676 186.701 C 185.816 184.691, 187.793 181.608, 185.752 180.346 C 185.168 179.986, 184.971 180.145, 185.314 180.699 C 185.657 181.254, 184.842 182.206, 183.504 182.816 C 181.719 183.630, 180.888 183.627, 180.381 182.808 C 179.962 182.129, 180.144 181.971, 180.845 182.405 C 181.480 182.797, 182 182.615, 182 182 C 182 181.385, 182.403 181.131, 182.895 181.435 C 183.388 181.740, 184.066 181.269, 184.404 180.391 C 184.764 179.450, 185.652 179.036, 186.560 179.385 C 187.567 179.771, 187.855 179.574, 187.388 178.819 C 186.905 178.038, 187.231 177.875, 188.388 178.319 C 189.544 178.762, 189.870 178.599, 189.388 177.819 C 188.905 177.038, 189.231 176.875, 190.388 177.319 C 191.407 177.710, 191.856 177.576, 191.493 176.989 C 191.157 176.445, 191.332 176, 191.882 176 C 194.279 176, 193.721 177.873, 190.987 179.005 C 189.344 179.686, 188 180.863, 188 181.621 C 188 183.364, 188.426 183.348, 192.050 181.474 C 195.058 179.918, 195.883 177.664, 193.893 176.434 C 193.119 175.955, 193.185 175.504, 194.114 174.929 C 194.845 174.478, 195.229 173.896, 194.969 173.636 C 194.709 173.375, 175.597 182.828, 152.498 194.643 M 199.862 177.770 C 199.402 178.969, 105.612 227, 103.731 227 C 102.962 227, 102.024 226.691, 101.646 226.313 C 100.510 225.176, 97.001 225.255, 96.985 226.417 C 96.976 227.013, 96.545 226.829, 96.026 226.008 C 95.378 224.983, 94.761 224.839, 94.051 225.549 C 92.686 226.914, 111.988 233.325, 114.528 232.351 C 115.835 231.849, 116.112 232.010, 115.539 232.937 C 114.947 233.894, 115.314 234.035, 117 233.500 C 118.533 233.013, 119.032 233.139, 118.566 233.893 C 117.792 235.145, 118.047 235.202, 125.127 235.375 C 128.394 235.455, 130.428 235.049, 130.732 234.256 C 130.995 233.571, 131.612 233.260, 132.105 233.565 C 132.597 233.869, 133 233.615, 133 233 C 133 232.385, 133.450 232.160, 134 232.500 C 134.550 232.840, 135 232.615, 135 232 C 135 231.385, 135.450 231.160, 136 231.500 C 136.550 231.840, 137 231.615, 137 231 C 137 230.385, 137.450 230.160, 138 230.500 C 138.550 230.840, 139 230.566, 139 229.892 C 139 229.218, 139.262 228.929, 139.583 229.250 C 139.904 229.571, 141.064 228.936, 142.161 227.839 C 143.257 226.743, 144.818 226.100, 145.629 226.411 C 146.576 226.775, 146.848 226.562, 146.388 225.819 C 145.905 225.038, 146.231 224.875, 147.388 225.319 C 148.544 225.762, 148.870 225.599, 148.388 224.819 C 147.905 224.038, 148.231 223.875, 149.388 224.319 C 150.544 224.762, 150.870 224.599, 150.388 223.819 C 149.905 223.038, 150.231 222.875, 151.388 223.319 C 152.544 223.762, 152.870 223.599, 152.388 222.819 C 151.905 222.038, 152.231 221.875, 153.388 222.319 C 154.544 222.762, 154.870 222.599, 154.388 221.819 C 153.905 221.038, 154.231 220.875, 155.388 221.319 C 156.544 221.762, 156.870 221.599, 156.388 220.819 C 155.905 220.038, 156.231 219.875, 157.388 220.319 C 158.334 220.682, 158.850 220.566, 158.537 220.061 C 157.992 219.178, 161.712 217.395, 163.250 217.802 C 163.662 217.911, 164 217.523, 164 216.941 C 164 216.359, 164.450 216.160, 165 216.500 C 165.550 216.840, 166 216.615, 166 216 C 166 215.385, 166.450 215.160, 167 215.500 C 167.550 215.840, 168 215.615, 168 215 C 168 214.385, 168.450 214.160, 169 214.500 C 169.550 214.840, 170 214.615, 170 214 C 170 213.385, 170.450 213.160, 171 213.500 C 171.550 213.840, 172 213.615, 172 213 C 172 212.385, 172.450 212.160, 173 212.500 C 173.550 212.840, 174 212.615, 174 212 C 174 211.385, 174.450 211.160, 175 211.500 C 175.550 211.840, 176 211.615, 176 211 C 176 210.385, 176.450 210.160, 177 210.500 C 177.550 210.840, 178 210.615, 178 210 C 178 209.385, 178.450 209.160, 179 209.500 C 179.550 209.840, 180 209.615, 180 209 C 180 208.385, 180.450 208.160, 181 208.500 C 181.550 208.840, 182 208.615, 182 208 C 182 207.385, 182.450 207.160, 183 207.500 C 183.550 207.840, 184 207.615, 184 207 C 184 206.385, 184.450 206.160, 185 206.500 C 185.550 206.840, 186 206.615, 186 206 C 186 205.385, 186.450 205.160, 187 205.500 C 187.550 205.840, 188 205.615, 188 205 C 188 204.385, 188.450 204.160, 189 204.500 C 189.550 204.840, 190 204.566, 190 203.892 C 190 203.218, 190.263 202.929, 190.583 203.250 C 190.904 203.571, 192.064 202.936, 193.161 201.839 C 194.257 200.743, 195.818 200.100, 196.629 200.411 C 197.576 200.775, 197.848 200.562, 197.388 199.819 C 196.905 199.038, 197.231 198.875, 198.388 199.319 C 199.544 199.762, 199.870 199.599, 199.388 198.819 C 198.905 198.038, 199.231 197.875, 200.388 198.319 C 201.544 198.762, 201.870 198.599, 201.388 197.819 C 200.905 197.038, 201.231 196.875, 202.388 197.319 C 203.332 197.681, 203.875 197.606, 203.595 197.153 C 203.315 196.700, 204.673 195.573, 206.612 194.648 C 208.552 193.723, 209.926 193.311, 209.666 193.733 C 209.405 194.155, 211.149 194.629, 213.541 194.786 C 217.067 195.019, 218.097 194.687, 218.981 193.036 C 220.293 190.584, 219.832 190.518, 215.835 192.585 C 213.536 193.774, 212.487 193.884, 211.635 193.026 C 210.785 192.169, 210.980 192.064, 212.414 192.611 C 213.741 193.116, 214.109 192.985, 213.612 192.181 C 213.130 191.401, 213.456 191.238, 214.612 191.681 C 215.769 192.125, 216.095 191.962, 215.612 191.181 C 215.130 190.401, 215.456 190.238, 216.612 190.681 C 217.769 191.125, 218.095 190.962, 217.612 190.181 C 217.145 189.426, 217.433 189.229, 218.440 189.615 C 219.348 189.964, 220.236 189.550, 220.596 188.609 C 220.934 187.731, 221.612 187.260, 222.105 187.565 C 222.597 187.869, 223 187.615, 223 187 C 223 186.385, 223.450 186.160, 224 186.500 C 224.550 186.840, 225 186.529, 225 185.809 C 225 185.021, 220.721 183.156, 214.250 181.123 C 199.841 176.596, 200.274 176.697, 199.862 177.770 M 70.708 181.010 C 70.006 183.693, 70.579 184.854, 71.903 183.433 C 72.382 182.920, 72.450 181.624, 72.054 180.554 C 71.389 178.752, 71.289 178.786, 70.708 181.010 M 72.286 184.727 C 69.740 185.996, 68.667 187.531, 67.118 192.118 L 65.163 197.907 70.230 195.909 C 73.017 194.811, 78.493 192.432, 82.399 190.623 L 89.500 187.333 83.787 185.650 C 80.645 184.723, 77.495 183.777, 76.787 183.546 C 76.079 183.315, 74.054 183.847, 72.286 184.727 M 213 185 C 213 185.550, 213.702 186, 214.559 186 C 215.416 186, 215.840 185.550, 215.500 185 C 215.160 184.450, 214.459 184, 213.941 184 C 213.423 184, 213 184.450, 213 185 M 168.099 188.393 C 165.471 189.767, 164.153 190.977, 164.828 191.394 C 166.166 192.221, 170 190.377, 170 188.906 C 170 188.343, 170.450 188.160, 171 188.500 C 171.550 188.840, 172 188.615, 172 188 C 172 187.385, 172.520 187.203, 173.155 187.595 C 173.870 188.038, 174.038 187.870, 173.595 187.155 C 173.203 186.520, 172.796 186.020, 172.691 186.045 C 172.586 186.070, 170.519 187.126, 168.099 188.393 M 150 189 C 149.099 189.582, 148.975 189.975, 149.691 189.985 C 150.346 189.993, 151.160 189.550, 151.500 189 C 152.267 187.758, 151.921 187.758, 150 189 M 85.450 194.081 C 85.044 194.738, 85.511 195.043, 86.641 194.856 C 88.744 194.510, 91 195.649, 91 197.059 C 91 197.577, 89.875 198, 88.500 198 C 87.125 198, 86 198.450, 86 199 C 86 199.550, 85.365 200, 84.588 200 C 81.465 200, 81.457 214.474, 84.578 217.065 C 85.360 217.714, 86 218.759, 86 219.387 C 86 220.849, 93.225 224, 96.578 224 C 101.567 224, 103.815 218.919, 102.552 210.500 C 102.053 207.169, 100.930 204.997, 98.400 202.467 C 94.571 198.637, 94.681 198.091, 98.747 200.750 C 100.218 201.713, 101.100 201.976, 100.705 201.335 C 99.742 199.772, 102.096 199.067, 104.115 200.315 C 105.079 200.910, 105.524 202.103, 105.219 203.270 C 104.764 205.011, 104.951 205.097, 106.914 204.046 C 109.553 202.634, 109.291 199.654, 106.489 199.203 C 105.395 199.027, 103.825 198.625, 103 198.310 C 102.175 197.995, 100.161 197.564, 98.525 197.352 C 96.889 197.141, 93.838 196.075, 91.744 194.984 C 87.389 192.714, 86.384 192.570, 85.450 194.081 M 74 197.860 C 62.338 202.854, 62.153 203, 65.357 204.679 C 68.861 206.515, 68.696 207.406, 64.356 210.089 L 60.713 212.341 49.425 208.625 C 43.216 206.582, 37.972 204.416, 37.771 203.812 C 37.515 203.046, 36.661 203.111, 34.955 204.024 C 33.480 204.814, 33.004 205.501, 33.759 205.753 C 34.448 205.983, 34.728 206.631, 34.381 207.193 C 33.978 207.845, 34.563 207.956, 36 207.500 C 37.635 206.981, 38.045 207.118, 37.500 208 C 36.955 208.882, 37.400 209.030, 39.125 208.542 C 40.695 208.097, 41.053 208.180, 40.182 208.786 C 38.503 209.953, 47.254 212.579, 49.076 211.453 C 49.793 211.010, 50.054 211.104, 49.700 211.677 C 48.885 212.995, 59.281 216.213, 61.546 215.344 C 62.837 214.849, 63.110 215.012, 62.539 215.937 C 61.947 216.894, 62.314 217.035, 64 216.500 C 65.676 215.968, 66.051 216.108, 65.469 217.050 C 64.900 217.971, 65.274 218.162, 66.845 217.751 C 68.228 217.389, 68.766 217.569, 68.345 218.251 C 67.924 218.933, 68.462 219.112, 69.845 218.751 C 71.228 218.389, 71.766 218.569, 71.345 219.251 C 70.924 219.933, 71.462 220.112, 72.845 219.751 C 74.228 219.389, 74.766 219.569, 74.345 220.251 C 73.924 220.933, 74.462 221.112, 75.845 220.751 C 77.032 220.440, 77.792 220.528, 77.534 220.945 C 76.832 222.081, 84.521 224.121, 86.559 223.339 C 87.770 222.874, 88.100 223.030, 87.605 223.830 C 87.207 224.474, 87.332 225, 87.882 225 C 90.583 225, 89.555 223.039, 86.138 221.672 C 82.351 220.157, 82.279 220.028, 81.626 213.653 C 80.882 206.393, 81.814 195.767, 83.123 196.576 C 83.593 196.866, 83.709 196.406, 83.382 195.552 C 83.054 194.698, 82.722 194.050, 82.643 194.110 C 82.564 194.171, 78.675 195.858, 74 197.860 M 88 196 C 88 196.550, 88.477 197, 89.059 197 C 89.641 197, 89.840 196.550, 89.500 196 C 89.160 195.450, 88.684 195, 88.441 195 C 88.198 195, 88 195.450, 88 196 M 109 196.476 C 107.085 197.589, 106.909 197.937, 108.250 197.965 C 109.322 197.986, 110 198.775, 110 200 C 110 202.403, 110.543 202.427, 114.710 200.203 C 116.682 199.151, 117.643 198.040, 117.200 197.324 C 115.999 195.380, 111.659 194.931, 109 196.476 M 144.099 200.393 C 141.613 201.693, 140.170 202.987, 140.783 203.366 C 142.130 204.198, 151.094 199.961, 150.392 198.825 C 149.667 197.652, 149.038 197.809, 144.099 200.393 M 88 201.500 C 88 202.325, 88.450 203, 89 203 C 89.550 203, 90 202.325, 90 201.500 C 90 200.675, 89.550 200, 89 200 C 88.450 200, 88 200.675, 88 201.500 M 39.412 202.142 C 38.408 203.767, 39.843 204.535, 50.336 207.987 C 60.154 211.216, 60.179 211.219, 63.586 209.384 C 67.483 207.285, 67.820 206.448, 65.057 205.725 C 62.923 205.167, 59.522 208.140, 60.748 209.491 C 61.162 209.948, 60.930 209.992, 60.234 209.591 C 59.537 209.190, 59.179 208.519, 59.439 208.099 C 59.867 207.407, 56.539 206.157, 44.275 202.404 C 41.425 201.532, 39.842 201.447, 39.412 202.142 M 84.553 203.915 C 84.231 204.436, 84.394 205.125, 84.915 205.447 C 85.436 205.769, 86.125 205.606, 86.447 205.085 C 86.769 204.564, 86.606 203.875, 86.085 203.553 C 85.564 203.231, 84.875 203.394, 84.553 203.915 M 95 204 C 95 204.550, 95.450 205, 96 205 C 96.550 205, 97 204.550, 97 204 C 97 203.450, 96.550 203, 96 203 C 95.450 203, 95 203.450, 95 204 M 135.364 205.494 C 135.048 206.316, 134.318 206.697, 133.741 206.340 C 133.140 205.969, 132.986 206.169, 133.381 206.808 C 133.888 207.627, 134.719 207.630, 136.504 206.816 C 137.842 206.206, 138.700 205.323, 138.410 204.854 C 137.583 203.517, 135.994 203.851, 135.364 205.494 M 104.969 206.282 C 103.846 207.175, 103.537 208.885, 103.811 212.687 C 104.176 217.760, 104.237 217.849, 106.592 216.776 C 109.080 215.642, 109.712 212.258, 108.370 207.250 C 107.687 204.704, 107.146 204.550, 104.969 206.282 M 99 208.941 C 99 209.459, 99.450 210.160, 100 210.500 C 100.550 210.840, 101 210.416, 101 209.559 C 101 208.702, 100.550 208, 100 208 C 99.450 208, 99 208.423, 99 208.941 M 38 211.392 C 38 213.523, 40.310 215, 43.641 215 C 48.704 215, 48.384 213.505, 42.951 211.767 C 39.289 210.596, 38 210.498, 38 211.392 M 120.104 212.893 C 117.680 214.185, 117.080 214.931, 118.006 215.504 C 118.802 215.996, 119.766 215.673, 120.501 214.668 C 121.159 213.768, 121.991 213.324, 122.349 213.682 C 122.707 214.040, 123 213.782, 123 213.108 C 123 212.434, 123.520 212.203, 124.155 212.595 C 124.870 213.038, 125.038 212.870, 124.595 212.155 C 124.203 211.520, 123.796 211.019, 123.691 211.042 C 123.586 211.065, 121.972 211.898, 120.104 212.893 M 84 212.833 C 84 213.292, 84.655 213.667, 85.456 213.667 C 86.257 213.667, 86.680 213.292, 86.397 212.833 C 86.114 212.375, 85.459 212, 84.941 212 C 84.423 212, 84 212.375, 84 212.833 M 99 217.441 C 99 218.298, 99.450 219, 100 219 C 100.550 219, 101 218.577, 101 218.059 C 101 217.541, 100.550 216.840, 100 216.500 C 99.450 216.160, 99 216.584, 99 217.441 M 88 218.500 C 88 219.325, 88.450 220, 89 220 C 89.550 220, 90 219.325, 90 218.500 C 90 217.675, 89.550 217, 89 217 C 88.450 217, 88 217.675, 88 218.500 M 104.750 219.080 C 102.623 220.319, 102.470 221.667, 104.456 221.667 C 105.257 221.667, 105.680 221.292, 105.397 220.833 C 105.114 220.375, 105.332 220, 105.882 220 C 107.604 220, 108.061 221.763, 106.494 222.364 C 104.539 223.114, 104.566 225, 106.531 225 C 108.544 225, 109.519 222.330, 108.121 220.645 C 107.514 219.914, 107.313 219.020, 107.675 218.658 C 108.683 217.650, 106.718 217.934, 104.750 219.080 M 95 221 C 95 221.550, 95.477 222, 96.059 222 C 96.641 222, 96.840 221.550, 96.500 221 C 96.160 220.450, 95.684 220, 95.441 220 C 95.198 220, 95 220.450, 95 221 M 90.500 225 C 90.160 225.550, 90.332 226, 90.882 226 C 91.432 226, 92.160 225.550, 92.500 225 C 92.840 224.450, 92.668 224, 92.118 224 C 91.568 224, 90.840 224.450, 90.500 225 M 123 231 C 123 231.550, 123.675 232, 124.500 232 C 125.325 232, 126 231.550, 126 231 C 126 230.450, 125.325 230, 124.500 230 C 123.675 230, 123 230.450, 123 231 M 119 237.352 C 119 240.410, 124.090 242.054, 128.418 240.393 C 131.139 239.349, 130.346 236.875, 127.518 237.585 C 126.152 237.928, 123.677 237.735, 122.018 237.156 C 119.711 236.352, 119 236.398, 119 237.352 M 124.813 236.683 C 125.534 236.972, 126.397 236.936, 126.729 236.604 C 127.061 236.272, 126.471 236.036, 125.417 236.079 C 124.252 236.127, 124.015 236.364, 124.813 236.683 " stroke="none" fill="black" fill-rule="evenodd"/>
</svg>