<svg width="76" height="76" viewBox="0 0 76 76" fill="none" xmlns="http://www.w3.org/2000/svg">
<rect x="4" y="4" width="68" height="68" rx="4" fill="#44016C"/>
<mask id="mask0_7576_106074" style="mask-type:alpha" maskUnits="userSpaceOnUse" x="4" y="4" width="68" height="68">
<rect x="4" y="4" width="68" height="68" rx="4" fill="#44016C"/>
</mask>
<g mask="url(#mask0_7576_106074)">
<path d="M2 -54L73 18" stroke="white" stroke-opacity="0.4" stroke-width="1.6" stroke-linecap="round"/>
<path d="M2 -38L73 34" stroke="white" stroke-opacity="0.4" stroke-width="1.6" stroke-linecap="round"/>
<path d="M2 -22L73 50" stroke="white" stroke-opacity="0.4" stroke-width="1.6" stroke-linecap="round"/>
<path d="M2 -6L73 66" stroke="white" stroke-opacity="0.4" stroke-width="1.6" stroke-linecap="round"/>
<path d="M2 10L73 82" stroke="white" stroke-opacity="0.4" stroke-width="1.6" stroke-linecap="round"/>
<path d="M2 26L73 98" stroke="white" stroke-opacity="0.4" stroke-width="1.6" stroke-linecap="round"/>
<path d="M2 42L73 114" stroke="white" stroke-opacity="0.4" stroke-width="1.6" stroke-linecap="round"/>
<path d="M2 58L73 130" stroke="white" stroke-opacity="0.4" stroke-width="1.6" stroke-linecap="round"/>
<path d="M73 -54L2 18" stroke="white" stroke-opacity="0.4" stroke-width="1.6" stroke-linecap="round"/>
<path d="M73 -38L2 34" stroke="white" stroke-opacity="0.4" stroke-width="1.6" stroke-linecap="round"/>
<path d="M73 -22L2 50" stroke="white" stroke-opacity="0.4" stroke-width="1.6" stroke-linecap="round"/>
<path d="M73 -6L2 66" stroke="white" stroke-opacity="0.4" stroke-width="1.6" stroke-linecap="round"/>
<path d="M73 10L2 82" stroke="white" stroke-opacity="0.4" stroke-width="1.6" stroke-linecap="round"/>
<path d="M73 26L2 98" stroke="white" stroke-opacity="0.4" stroke-width="1.6" stroke-linecap="round"/>
<path d="M73 42L2 114" stroke="white" stroke-opacity="0.4" stroke-width="1.6" stroke-linecap="round"/>
<path d="M73 58L2 130" stroke="white" stroke-opacity="0.4" stroke-width="1.6" stroke-linecap="round"/>
</g>
</svg>
