<svg width="76" height="76" viewBox="0 0 76 76" fill="none" xmlns="http://www.w3.org/2000/svg">
<rect x="4" y="4" width="68" height="68" rx="4" fill="#44016C"/>
<path d="M63.7553 7H69V11.5789L64.3723 16.4632L69 21.6526V31.7263L66.8404 33.8632H61.9043V28.9789L64.3723 26.2316L59.1277 21.6526L54.5 26.2316L57.2766 28.9789V33.8632H51.7234L49.2553 31.1158L43 38L49.2553 44.8842L51.7234 42.1368H57.2766V47.0211L54.5 49.7684L59.1277 54.3474L64.3723 49.7684L61.9043 47.0211V42.1368H66.8404L69 44.2737V54.3474L64.3723 59.5368L69 64.4211V69H63.7553L59.1277 64.4211L54.5 69H44.3191L41.8511 66.5579V61.9789H47.0957L49.8723 64.4211L54.5 59.5368L49.8723 54.3474L47.0957 56.7895H41.8511V51.9053L44.3191 49.7684L38 43L31.6809 49.7684L34.1489 51.9053V56.7895H28.9043L26.1277 54.3474L21.5 59.5368L26.1277 64.4211L28.9043 61.9789H34.1489V66.5579L31.6809 69H21.5L16.8723 64.4211L12.2447 69H7V64.4211L11.6277 59.5368L7 54.3474V44.2737L9.15957 42.1368H14.0957V47.0211L11.6277 49.7684L16.8723 54.3474L21.5 49.7684L18.7234 47.0211V42.1368H24.2766L26.7447 44.8842L33 38L26.7447 31.1158L24.2766 33.8632H18.7234V28.9789L21.5 26.2316L16.8723 21.6526L11.6277 26.2316L14.0957 28.9789V33.8632H9.15957L7 31.7263V21.6526L11.6277 16.4632L7 11.5789V7H12.2447L16.8723 11.5789L21.5 7H31.6809L34.1489 9.44211V14.0211H28.9043L26.1277 11.5789L21.5 16.4632L26.1277 21.6526L28.9043 19.2105H34.1489V24.0947L31.6809 26.2316L38 33L44.3191 26.2316L41.8511 24.0947V19.2105H47.0957L49.8723 21.6526L54.5 16.4632L49.8723 11.5789L47.0957 14.0211H41.8511V9.44211L44.3191 7H54.5L59.1277 11.5789L63.7553 7Z" stroke="white" stroke-opacity="0.4" stroke-width="1.6" stroke-linecap="round"/>
</svg>
