<svg fill="none" height="76" viewBox="0 0 76 76" width="76" xmlns="http://www.w3.org/2000/svg" xmlns:xlink="http://www.w3.org/1999/xlink"><linearGradient id="a" gradientUnits="userSpaceOnUse" x1="47.999" x2="21.8226" y1="23.5" y2="46.2941"><stop offset="0" stop-color="#e6f3ff"/><stop offset="1" stop-color="#acd7ff"/></linearGradient><linearGradient id="b" gradientUnits="userSpaceOnUse" x1="49.499" x2="47.6082" y1="40.5" y2="55.1297"><stop offset="0" stop-color="#a3d2fd"/><stop offset="1" stop-color="#69b7fe"/></linearGradient><clipPath id="c"><rect height="25.7143" rx="3.85714" width="25.7143" x="26.2852" y="25.2857"/></clipPath><rect fill="#69b7fe" height="26" rx="3.85714" width="25" x="24" y="23"/><g clip-path="url(#c)"><rect fill="url(#a)" height="25.7143" rx="2.59502" width="25.7143" x="26.2871" y="25.2857"/><path clip-rule="evenodd" d="m25.1571 43.4323c-1.5063 1.5063-1.5063 3.9485 0 5.4549l13.1874 13.1873c1.5063 1.5063 3.9485 1.5063 5.4548 0l1.5536-1.5536 4.4076 4.4076c1.5063 1.5063 3.9485 1.5063 5.4548 0l6.4194-6.4194c1.5063-1.5063 1.5063-3.9485 0-5.4548l-13.1874-13.1874c-1.5063-1.5063-3.9485-1.5063-5.4549 0l-1.5536 1.5536-4.4075-4.4075c-1.5064-1.5063-3.9486-1.5063-5.4549 0z" fill="url(#b)" fill-rule="evenodd"/><circle cx="42.3563" cy="32.3572" fill="#78beff" r="1.92857"/></g><g stroke="#b9bcbf" stroke-dasharray="3 3" stroke-linecap="round" stroke-width="1.2"><path d="m38 9v10"/><path d="m38 67v-10"/><path d="m12 21 8.6603 5"/><path d="m12 55 8.6603-5"/><path d="m63.3926 21-8.6603 5"/><path d="m64.3926 55-8.6603-5"/></g><path d="m64.1 21.0973v32.8642c0 .4237-.2433.8097-.6256.9924l-24.7402 11.8259c-.2974.1421-.6427.1434-.9412.0036l-25.2598-11.8366c-.3864-.1811-.6332-.5693-.6332-.9961v-32.843c0-.4387.2607-.8355.6633-1.0096l25.2604-10.92523c.2812-.12162.6003-.12045.8806.00321l24.7397 10.91482c.3987.1759.656.5706.656 1.0064z" stroke="#545659" stroke-width="1.8"/></svg>