<svg width="76" height="76" viewBox="0 0 76 76" fill="none" xmlns="http://www.w3.org/2000/svg">
<path d="M50.9761 45.0825L44.4885 45.0826C44.1444 45.0826 43.8144 44.9459 43.5711 44.7025C43.3277 44.4592 43.191 44.1292 43.191 43.785V43.785C43.191 43.6147 43.2246 43.4459 43.2898 43.2885C43.355 43.1311 43.4506 42.988 43.5711 42.8676C43.6915 42.7471 43.8346 42.6515 43.992 42.5863C44.1494 42.5211 44.3181 42.4875 44.4885 42.4875H50.9761V45.0825ZM50.9761 39.8925L47.0835 39.8925C46.7394 39.8925 46.4094 39.7558 46.1661 39.5125C45.9227 39.2691 45.786 38.9391 45.786 38.595V38.595C45.786 38.2509 45.9227 37.9208 46.1661 37.6775C46.4094 37.4342 46.7394 37.2975 47.0835 37.2975L50.9761 37.2975L50.9761 39.8925ZM50.9761 34.7025L44.4885 34.7024C44.1444 34.7024 43.8144 34.5657 43.5711 34.3224C43.3277 34.0791 43.191 33.7491 43.191 33.4049V33.4049C43.191 33.0608 43.3277 32.7308 43.5711 32.4875C43.8144 32.2441 44.1444 32.1074 44.4885 32.1074L50.9761 32.1074L50.9761 34.7025ZM50.9761 29.5124L47.0836 29.5124C46.7394 29.5124 46.4094 29.3757 46.1661 29.1324C45.9227 28.889 45.786 28.559 45.786 28.2149V28.2149C45.786 27.8708 45.9227 27.5408 46.1661 27.2974C46.4094 27.0541 46.7394 26.9174 47.0836 26.9174L50.9761 26.9174V29.5124Z" fill="url(#paint0_linear_8348_118592)"/>
<path d="M49.6786 21.728L39.2983 21.7275C39.1279 21.7275 38.9592 21.761 38.8018 21.8262C38.6444 21.8914 38.5013 21.987 38.3808 22.1074C38.2604 22.2279 38.1648 22.371 38.0996 22.5284C38.0344 22.6858 38.0009 22.8545 38.0009 23.0249L38.0005 48.9746C38.0004 49.145 38.034 49.3137 38.0992 49.4712C38.1643 49.6286 38.2599 49.7716 38.3804 49.8921C38.5009 50.0126 38.6439 50.1081 38.8013 50.1733C38.9588 50.2385 39.1275 50.272 39.2979 50.272L49.6782 50.2725C49.8486 50.2725 50.0173 50.239 50.1747 50.1738C50.3322 50.1086 50.4752 50.013 50.5957 49.8925C50.7162 49.7721 50.8117 49.629 50.8769 49.4716C50.9421 49.3142 50.9756 49.1455 50.9756 48.9751L50.9756 45.0826L44.4884 45.0826C44.318 45.0826 44.1493 45.049 43.9919 44.9838C43.8345 44.9186 43.6914 44.823 43.5709 44.7025C43.4505 44.582 43.3549 44.439 43.2897 44.2816C43.2245 44.1241 43.1909 43.9554 43.1909 43.785C43.1909 43.6146 43.2245 43.4459 43.2897 43.2885C43.3549 43.1311 43.4505 42.988 43.571 42.8675C43.6915 42.7471 43.8345 42.6515 43.9919 42.5863C44.1494 42.5211 44.3181 42.4875 44.4885 42.4875L50.9757 42.4875L50.9758 39.8925L47.0835 39.8925C46.7399 39.8918 46.4106 39.7547 46.1679 39.5115C45.9252 39.2682 45.7889 38.9387 45.7888 38.595C45.7888 38.2514 45.9251 37.9218 46.1678 37.6786C46.4105 37.4353 46.7398 37.2983 47.0834 37.2975L50.9758 37.2975L50.9758 34.7025L44.4884 34.7025C44.1443 34.7025 43.8143 34.5658 43.571 34.3224C43.3276 34.0791 43.1909 33.7491 43.191 33.4049C43.191 33.0608 43.3277 32.7308 43.571 32.4875C43.8143 32.2441 44.1444 32.1074 44.4885 32.1074L50.9759 32.1075L50.9759 29.5125L47.0834 29.5125C46.7393 29.5125 46.4093 29.3757 46.1659 29.1324C45.9226 28.8891 45.7859 28.559 45.7859 28.2149C45.7859 27.8708 45.9226 27.5408 46.1659 27.2974C46.4093 27.0541 46.7393 26.9174 47.0834 26.9174L50.976 26.9174L50.976 23.0254C50.9761 22.855 50.9425 22.6863 50.8774 22.5289C50.8122 22.3714 50.7166 22.2284 50.5961 22.1079C50.4757 21.9874 50.3326 21.8919 50.1752 21.8267C50.0178 21.7615 49.849 21.7279 49.6786 21.728V21.728Z" fill="url(#paint1_linear_8348_118592)"/>
<path d="M36.166 48.2726C36.166 49.3772 35.2706 50.2726 34.166 50.2726L21.9588 50.2726C20.3185 50.2726 19.3757 48.4067 20.3487 47.0862L32.5559 30.5193C33.7011 28.965 36.166 29.7751 36.166 31.7057L36.166 48.2726Z" fill="url(#paint2_linear_8348_118592)"/>
<path d="M38 9V19" stroke="#B9BCBF" stroke-width="1.2" stroke-linecap="round" stroke-dasharray="3 3"/>
<path d="M38 67V57" stroke="#B9BCBF" stroke-width="1.2" stroke-linecap="round" stroke-dasharray="3 3"/>
<path d="M12 21L20.6603 26" stroke="#B9BCBF" stroke-width="1.2" stroke-linecap="round" stroke-dasharray="3 3"/>
<path d="M12 55L20.6603 50" stroke="#B9BCBF" stroke-width="1.2" stroke-linecap="round" stroke-dasharray="3 3"/>
<path d="M63.3926 21L54.7323 26" stroke="#B9BCBF" stroke-width="1.2" stroke-linecap="round" stroke-dasharray="3 3"/>
<path d="M64.3926 55L55.7323 50" stroke="#B9BCBF" stroke-width="1.2" stroke-linecap="round" stroke-dasharray="3 3"/>
<path d="M64.1 21.0973V53.9615C64.1 54.3852 63.8567 54.7712 63.4744 54.9539L38.7342 66.7798C38.4368 66.9219 38.0915 66.9232 37.793 66.7834L12.5332 54.9468C12.1468 54.7657 11.9 54.3775 11.9 53.9507V21.1077C11.9 20.669 12.1607 20.2722 12.5633 20.0981L37.8237 9.17287C38.1049 9.05125 38.424 9.05242 38.7043 9.17608L63.444 20.0909C63.8427 20.2668 64.1 20.6615 64.1 21.0973Z" stroke="#545659" stroke-width="1.8"/>
<defs>
<linearGradient id="paint0_linear_8348_118592" x1="43.001" y1="46" x2="44.8079" y2="26.7609" gradientUnits="userSpaceOnUse">
<stop stop-color="#69B7FE"/>
<stop offset="1" stop-color="#A3D2FE"/>
</linearGradient>
<linearGradient id="paint1_linear_8348_118592" x1="46.501" y1="56" x2="59.5725" y2="49.5745" gradientUnits="userSpaceOnUse">
<stop stop-color="#9CCFFF"/>
<stop offset="0.664214" stop-color="#D1E9FF"/>
</linearGradient>
<linearGradient id="paint2_linear_8348_118592" x1="24.501" y1="50" x2="27.0533" y2="26.5271" gradientUnits="userSpaceOnUse">
<stop stop-color="#69B7FE"/>
<stop offset="1" stop-color="#A3D2FE"/>
</linearGradient>
</defs>
</svg>
