<?xml version="1.0" encoding="UTF-8" standalone="no"?>
<!-- Created with Inkscape (http://www.inkscape.org/) -->

<svg
   xmlns:dc="http://purl.org/dc/elements/1.1/"
   xmlns:cc="http://creativecommons.org/ns#"
   xmlns:rdf="http://www.w3.org/1999/02/22-rdf-syntax-ns#"
   xmlns:svg="http://www.w3.org/2000/svg"
   xmlns="http://www.w3.org/2000/svg"
   xmlns:xlink="http://www.w3.org/1999/xlink"
   xmlns:sodipodi="http://sodipodi.sourceforge.net/DTD/sodipodi-0.dtd"
   xmlns:inkscape="http://www.inkscape.org/namespaces/inkscape"
   width="200mm"
   height="200mm"
   viewBox="0 0 200 200"
   version="1.1"
   id="svg8"
   inkscape:version="0.92.3 (2405546, 2018-03-11)"
   sodipodi:docname="test A250 Box.svg">
  <defs
     id="defs2" />
  <sodipodi:namedview
     id="base"
     pagecolor="#ffffff"
     bordercolor="#666666"
     borderopacity="1.0"
     inkscape:pageopacity="0.0"
     inkscape:pageshadow="2"
     inkscape:zoom="2.1465002"
     inkscape:cx="294.68043"
     inkscape:cy="129.24002"
     inkscape:document-units="mm"
     inkscape:current-layer="layer1"
     showgrid="false"
     inkscape:window-width="1920"
     inkscape:window-height="1017"
     inkscape:window-x="-8"
     inkscape:window-y="-8"
     inkscape:window-maximized="1"
     inkscape:measure-start="224.319,673.888"
     inkscape:measure-end="224.068,662.221" />
  <metadata
     id="metadata5">
    <rdf:RDF>
      <cc:Work
         rdf:about="">
        <dc:format>image/svg+xml</dc:format>
        <dc:type
           rdf:resource="http://purl.org/dc/dcmitype/StillImage" />
        <dc:title />
      </cc:Work>
    </rdf:RDF>
  </metadata>
  <g
     inkscape:label="Layer 1"
     inkscape:groupmode="layer"
     id="layer1"
     transform="translate(0,-97)">
    <path
       inkscape:connector-curvature="0"
       d="m 24.873319,224.76862 h 5.279167 c 0.05469,0 0.101562,-0.043 0.101562,-0.10156 v -1.47083 c 0,0.0547 -0.04297,0.10156 -0.101562,0.10156 h 4 c -0.05469,0 -0.101563,-0.043 -0.101563,-0.10156 v 1.47083 c 0,0.0547 0.04297,0.10156 0.101563,0.10156 h 4 c 0.05469,0 0.101562,-0.043 0.101562,-0.10156 v -1.47083 c 0,0.0547 -0.04297,0.10156 -0.101562,0.10156 h 4 c -0.05469,0 -0.101562,-0.043 -0.101562,-0.10156 v 1.47083 c 0,0.0547 0.04297,0.10156 0.101562,0.10156 h 4 c 0.05469,0 0.101562,-0.043 0.101562,-0.10156 v -1.47083 c 0,0.0547 -0.04297,0.10156 -0.101562,0.10156 h 4 c -0.05469,0 -0.101562,-0.043 -0.101562,-0.10156 v 1.47083 c 0,0.0547 0.04297,0.10156 0.101562,0.10156 h 4 c 0.05469,0 0.101562,-0.043 0.101562,-0.10156 v -1.47083 c 0,0.0547 -0.04297,0.10156 -0.101562,0.10156 h 4 c -0.05469,0 -0.101562,-0.043 -0.101562,-0.10156 v 1.47083 c 0,0.0547 0.04297,0.10156 0.101562,0.10156 h 4 c 0.05469,0 0.101562,-0.043 0.101562,-0.10156 v -1.47083 c 0,0.0547 -0.04297,0.10156 -0.101562,0.10156 h 4 c -0.05469,0 -0.101562,-0.043 -0.101562,-0.10156 v 1.47083 c 0,0.0547 0.04297,0.10156 0.101562,0.10156 h 5.279167 1.470833 c 0.05469,0 0.101562,-0.043 0.101562,-0.10156 v -1.47083 -5.27917 c 0,-0.0547 -0.04297,-0.10157 -0.101562,-0.10157 h -1.470833 c 0.05469,0 0.101562,0.043 0.101562,0.10157 v -4 c 0,0.0547 -0.04297,0.10156 -0.101562,0.10156 h 1.470833 c 0.05469,0 0.101562,-0.043 0.101562,-0.10156 v -4 c 0,-0.0547 -0.04297,-0.10157 -0.101562,-0.10157 h -1.470833 c 0.05469,0 0.101562,0.043 0.101562,0.10157 v -4 c 0,0.0547 -0.04297,0.10156 -0.101562,0.10156 h 1.470833 c 0.05469,0 0.101562,-0.043 0.101562,-0.10156 v -4 c 0,-0.0547 -0.04297,-0.10157 -0.101562,-0.10157 h -1.470833 c 0.05469,0 0.101562,0.043 0.101562,0.10157 v -4 c 0,0.0547 -0.04297,0.10156 -0.101562,0.10156 h 1.470833 c 0.05469,0 0.101562,-0.043 0.101562,-0.10156 v -4 c 0,-0.0547 -0.04297,-0.10157 -0.101562,-0.10157 h -1.470833 c 0.05469,0 0.101562,0.043 0.101562,0.10157 v -4 c 0,0.0547 -0.04297,0.10156 -0.101562,0.10156 h 1.470833 c 0.05469,0 0.101562,-0.043 0.101562,-0.10156 v -4 c 0,-0.0547 -0.04297,-0.10157 -0.101562,-0.10157 h -1.470833 c 0.05469,0 0.101562,0.043 0.101562,0.10157 v -4 c 0,0.0547 -0.04297,0.10156 -0.101562,0.10156 h 1.470833 c 0.05469,0 0.101562,-0.043 0.101562,-0.10156 v -5.27917 -1.47083 c 0,-0.0547 -0.04297,-0.10157 -0.101562,-0.10157 h -1.470833 -5.279167 c -0.05469,0 -0.101563,0.043 -0.101563,0.10157 v 1.47083 c 0,-0.0547 0.04297,-0.10157 0.101563,-0.10157 h -4 c 0.05469,0 0.101562,0.043 0.101562,0.10157 v -1.47083 c 0,-0.0547 -0.04297,-0.10157 -0.101562,-0.10157 h -4 c -0.05469,0 -0.101563,0.043 -0.101563,0.10157 v 1.47083 c 0,-0.0547 0.04297,-0.10157 0.101563,-0.10157 h -4 c 0.05469,0 0.101562,0.043 0.101562,0.10157 v -1.47083 c 0,-0.0547 -0.04297,-0.10157 -0.101562,-0.10157 h -4 c -0.05469,0 -0.101563,0.043 -0.101563,0.10157 v 1.47083 c 0,-0.0547 0.04297,-0.10157 0.101563,-0.10157 h -4 c 0.05469,0 0.101562,0.043 0.101562,0.10157 v -1.47083 c 0,-0.0547 -0.04297,-0.10157 -0.101562,-0.10157 h -4 c -0.05469,0 -0.101563,0.043 -0.101563,0.10157 v 1.47083 c 0,-0.0547 0.04297,-0.10157 0.101563,-0.10157 h -4 c 0.05469,0 0.101562,0.043 0.101562,0.10157 v -1.47083 c 0,-0.0547 -0.04297,-0.10157 -0.101562,-0.10157 h -4 c -0.05469,0 -0.101563,0.043 -0.101563,0.10157 v 1.47083 c 0,-0.0547 0.04297,-0.10157 0.101563,-0.10157 h -4 c 0.05469,0 0.101562,0.043 0.101562,0.10157 v -1.47083 c 0,-0.0547 -0.04297,-0.10157 -0.101562,-0.10157 h -5.279167 -1.470833 c -0.05469,0 -0.101563,0.043 -0.101563,0.10157 v 1.47083 5.27917 c 0,0.0547 0.04297,0.10156 0.101563,0.10156 h 1.470833 c -0.05469,0 -0.101563,-0.043 -0.101563,-0.10156 v 4 c 0,-0.0547 0.04297,-0.10157 0.101563,-0.10157 h -1.470833 c -0.05469,0 -0.101563,0.043 -0.101563,0.10157 v 4 c 0,0.0547 0.04297,0.10156 0.101563,0.10156 h 1.470833 c -0.05469,0 -0.101563,-0.043 -0.101563,-0.10156 v 4 c 0,-0.0547 0.04297,-0.10157 0.101563,-0.10157 h -1.470833 c -0.05469,0 -0.101563,0.043 -0.101563,0.10157 v 4 c 0,0.0547 0.04297,0.10156 0.101563,0.10156 h 1.470833 c -0.05469,0 -0.101563,-0.043 -0.101563,-0.10156 v 4 c 0,-0.0547 0.04297,-0.10157 0.101563,-0.10157 h -1.470833 c -0.05469,0 -0.101563,0.043 -0.101563,0.10157 v 4 c 0,0.0547 0.04297,0.10156 0.101563,0.10156 h 1.470833 c -0.05469,0 -0.101563,-0.043 -0.101563,-0.10156 v 4 c 0,-0.0547 0.04297,-0.10157 0.101563,-0.10157 h -1.470833 c -0.05469,0 -0.101563,0.043 -0.101563,0.10157 v 4 c 0,0.0547 0.04297,0.10156 0.101563,0.10156 h 1.470833 c -0.05469,0 -0.101563,-0.043 -0.101563,-0.10156 v 4 c 0,-0.0547 0.04297,-0.10157 0.101563,-0.10157 h -1.470833 c -0.05469,0 -0.101563,0.043 -0.101563,0.10157 v 5.27917 1.47083 c 0,0.0547 0.04297,0.10156 0.101563,0.10156 h 1.470833"
       style="fill:none;stroke:#000000;stroke-width:0.2;stroke-linecap:butt;stroke-linejoin:miter;stroke-miterlimit:10;stroke-opacity:1"
       id="path109"
       sodipodi:nodetypes="cssccccssssccccssssccccssssccccssssccccsscsscssccccssssccccssssccccssssccccssssccccsscsscssccccssssccccssssccccssssccccssssccccsscsscssccccssssccccssssccccssssccccssssccccsscssc" />
    <path
       inkscape:connector-curvature="0"
       d="m 42.009336,165.46134 h 5.275262 c -0.05469,0 -0.101563,-0.043 -0.101563,-0.10156 v 1.47083 c 0,0.0547 0.04297,0.10156 0.101563,0.10156 h 3.999999 c 0.05469,0 0.101562,-0.043 0.101562,-0.10156 v -1.47083 c 0,0.0547 -0.04297,0.10156 -0.101562,0.10156 h 4 c -0.05469,0 -0.101561,-0.043 -0.101561,-0.10156 v 1.47083 c 0,0.0547 0.04297,0.10156 0.101561,0.10156 h 4 c 0.05469,0 0.101562,-0.043 0.101562,-0.10156 v -1.47083 c 0,0.0547 -0.04297,0.10156 -0.101562,0.10156 h 4 c -0.05469,0 -0.101562,-0.043 -0.101562,-0.10156 v 1.47083 c 0,0.0547 0.04297,0.10156 0.101562,0.10156 h 4 c 0.05469,0 0.101562,-0.043 0.101562,-0.10156 v -1.47083 c 0,0.0547 -0.04297,0.10156 -0.101562,0.10156 h 4 c -0.05469,0 -0.101562,-0.043 -0.101562,-0.10156 v 1.47083 c 0,0.0547 0.04297,0.10156 0.101562,0.10156 h 4 c 0.05469,0 0.101562,-0.043 0.101562,-0.10156 v -1.47083 c 0,0.0547 -0.04297,0.10156 -0.101562,0.10156 h 4 c -0.05469,0 -0.101562,-0.043 -0.101562,-0.10156 v 1.47083 c 0,0.0547 0.04297,0.10156 0.101562,0.10156 h 4 c 0.05469,0 0.101562,-0.043 0.101562,-0.10156 v -1.47083 c 0,0.0547 -0.04297,0.10156 -0.101562,0.10156 h 5.279167 1.470833 c 0.05469,0 0.101562,-0.043 0.101562,-0.10156 v 0 -4.52917 c 0,-0.0547 -0.04297,-0.10157 -0.101562,-0.10157 h -1.470833 c 0.05469,0 0.101562,0.043 0.101562,0.10157 v -4 c 0,0.0547 -0.04297,0.10156 -0.101562,0.10156 h 1.470833 c 0.05469,0 0.101562,-0.043 0.101562,-0.10156 v -4 c 0,-0.0547 -0.04297,-0.10157 -0.101562,-0.10157 h -1.470833 c 0.05469,0 0.101562,0.043 0.101562,0.10157 v -4 c 0,0.0547 -0.04297,0.10156 -0.101562,0.10156 h 1.470833 c 0.05469,0 0.101562,-0.043 0.101562,-0.10156 v -4 c 0,-0.0547 -0.04297,-0.10157 -0.101562,-0.10157 h -1.470833 c 0.05469,0 0.101562,0.043 0.101562,0.10157 v -4 c 0,0.0547 -0.04297,0.10156 -0.101562,0.10156 h 1.470833 c 0.05469,0 0.101562,-0.043 0.101562,-0.10156 v -4 c 0,-0.0547 -0.04297,-0.10157 -0.101562,-0.10157 h -1.470833 c 0.05469,0 0.101562,0.043 0.101562,0.10157 v -4 c 0,0.0547 -0.04297,0.10156 -0.101562,0.10156 h 1.470833 c 0.05469,0 0.101562,-0.043 0.101562,-0.10156 v -4 c 0,-0.0547 -0.04297,-0.10157 -0.101562,-0.10157 h -1.470833 c 0.05469,0 0.101562,0.043 0.101562,0.10157 v -4 c 0,0.0547 -0.04297,0.10156 -0.101562,0.10156 h 1.470833 c 0.05469,0 0.101562,-0.043 0.101562,-0.10156 v -2.94167 c 0,-0.0547 -0.04492,-0.0866 -0.101562,-0.10157 h -1.470833 -5.279167 c 0.05469,0 0.101562,0.043 0.101562,0.10157 v -3.05833 c 0,-0.0547 -0.04297,-0.10157 -0.101562,-0.10157 h -4 c -0.05469,0 -0.101563,0.043 -0.101563,0.10157 v 3.05833 c 0,-0.0547 0.04297,-0.10157 0.101563,-0.10157 h -4 c 0.05469,0 0.101562,0.043 0.101562,0.10157 v -3.05833 c 0,-0.0547 -0.04297,-0.10157 -0.101562,-0.10157 h -4 c -0.05469,0 -0.101563,0.043 -0.101563,0.10157 v 3.05833 c 0,-0.0547 0.04297,-0.10157 0.101563,-0.10157 h -4 c 0.05469,0 0.101562,0.043 0.101562,0.10157 v -3.05833 c 0,-0.0547 -0.04297,-0.10157 -0.101562,-0.10157 h -4 c -0.05469,0 -0.101563,0.043 -0.101563,0.10157 v 3.05833 c 0,-0.0547 0.04297,-0.10157 0.101563,-0.10157 h -4 c 0.05469,0 0.101562,0.043 0.101562,0.10157 v -3.05833 c 0,-0.0547 -0.04297,-0.10157 -0.101562,-0.10157 h -4 c -0.05469,0 -0.101563,0.043 -0.101563,0.10157 v 3.05833 c 0,-0.0547 0.04297,-0.10157 0.101563,-0.10157 h -4 c 0.05469,0 0.101562,0.043 0.101562,0.10157 v -3.05833 c 0,-0.0547 -0.04297,-0.10157 -0.101562,-0.10157 h -3.999999 c -0.05469,0 -0.101563,0.043 -0.101563,0.10157 v 3.05833 c 0,-0.0547 0.04297,-0.10157 0.101563,-0.10157 H 42.00543 40.534597 c -0.05469,0 -0.101563,0.043 -0.101563,0.10157 v 0 2.94167 c 0,0.0547 0.04297,0.10156 0.101563,0.10156 h 1.470833 c -0.05469,0 -0.101563,-0.043 -0.101563,-0.10156 v 4 c 0,-0.0547 0.04297,-0.10157 0.101563,-0.10157 h -1.470833 c -0.05469,0 -0.101563,0.043 -0.101563,0.10157 v 4 c 0,0.0547 0.04297,0.10156 0.101563,0.10156 h 1.470833 c -0.05469,0 -0.101563,-0.043 -0.101563,-0.10156 v 4 c 0,-0.0547 0.04297,-0.10157 0.101563,-0.10157 h -1.470833 c -0.05469,0 -0.101563,0.043 -0.101563,0.10157 v 4 c 0,0.0547 0.04297,0.10156 0.101563,0.10156 h 1.470833 c -0.05469,0 -0.101563,-0.043 -0.101563,-0.10156 v 4 c 0,-0.0547 0.04297,-0.10157 0.101563,-0.10157 h -1.470833 c -0.05469,0 -0.101563,0.043 -0.101563,0.10157 v 4 c 0,0.0547 0.04297,0.10156 0.101563,0.10156 h 1.470833 c -0.05469,0 -0.101563,-0.043 -0.101563,-0.10156 v 4 c 0,-0.0547 0.04297,-0.10157 0.101563,-0.10157 h -1.470833 c -0.05469,0 -0.101563,0.043 -0.101563,0.10157 v 4 c 0,0.0547 0.04297,0.10156 0.101563,0.10156 h 1.470833 c -0.05469,0 -0.101563,-0.043 -0.101563,-0.10156 v 4 c 0,-0.0547 0.04297,-0.10157 0.101563,-0.10157 h -1.470833 c -0.05469,0 -0.101563,0.043 -0.101563,0.10157 l 10e-7,4.52917 c 0,0.0547 0.04297,0.10156 0.101562,0.10156 h 1.470833"
       style="fill:none;stroke:#000000;stroke-width:0.2;stroke-linecap:butt;stroke-linejoin:miter;stroke-miterlimit:10;stroke-opacity:1"
       id="path117"
       sodipodi:nodetypes="cccssssccccssssccccssssccccssssccccsssscccsccssccccssssccccssssccccssssccccssssccccsssscccssssccccssssccccssssccccssssccccsssscccsccssccccssssccccssssccccssssccccssssccccssssc" />
    <path
       inkscape:connector-curvature="0"
       d="m 115.69559,166.64659 h 5.27917 c -0.0547,0 -0.10156,-0.043 -0.10156,-0.10156 v 3.05833 c 0,0.0547 0.043,0.10156 0.10156,0.10156 h 4 c 0.0547,0 0.10156,-0.043 0.10156,-0.10156 v -3.05833 c 0,0.0547 -0.043,0.10156 -0.10156,0.10156 h 4 c -0.0547,0 -0.10156,-0.043 -0.10156,-0.10156 v 3.05833 c 0,0.0547 0.043,0.10156 0.10156,0.10156 h 4 c 0.0547,0 0.10156,-0.043 0.10156,-0.10156 v -3.05833 c 0,0.0547 -0.043,0.10156 -0.10156,0.10156 h 4 c -0.0547,0 -0.10156,-0.043 -0.10156,-0.10156 v 3.05833 c 0,0.0547 0.043,0.10156 0.10156,0.10156 h 4 c 0.0547,0 0.10156,-0.043 0.10156,-0.10156 v -3.05833 c 0,0.0547 -0.043,0.10156 -0.10156,0.10156 h 4 c -0.0547,0 -0.10156,-0.043 -0.10156,-0.10156 v 3.05833 c 0,0.0547 0.043,0.10156 0.10156,0.10156 h 4 c 0.0547,0 0.10156,-0.043 0.10156,-0.10156 v -3.05833 c 0,0.0547 -0.043,0.10156 -0.10156,0.10156 h 4 c -0.0547,0 -0.10156,-0.043 -0.10156,-0.10156 v 3.05833 c 0,0.0547 0.043,0.10156 0.10156,0.10156 h 4 c 0.0547,0 0.10156,-0.043 0.10156,-0.10156 v -3.05833 c 0,0.0547 -0.043,0.10156 -0.10156,0.10156 h 5.27916 c 0.0547,0 0.10156,-0.043 0.10156,-0.10156 v 0 -2.94167 c 0,0.0547 -0.043,0.10156 -0.10156,0.10156 h 1.47083 c 0.0547,0 0.10156,-0.043 0.10156,-0.10156 v -4 c 0,-0.0547 -0.043,-0.10157 -0.10156,-0.10157 h -1.47083 c 0.0547,0 0.10156,0.043 0.10156,0.10157 v -4 c 0,0.0547 -0.043,0.10156 -0.10156,0.10156 h 1.47083 c 0.0547,0 0.10156,-0.043 0.10156,-0.10156 v -4 c 0,-0.0547 -0.043,-0.10157 -0.10156,-0.10157 h -1.47083 c 0.0547,0 0.10156,0.043 0.10156,0.10157 v -4 c 0,0.0547 -0.043,0.10156 -0.10156,0.10156 h 1.47083 c 0.0547,0 0.10156,-0.043 0.10156,-0.10156 v -4 c 0,-0.0547 -0.043,-0.10157 -0.10156,-0.10157 h -1.47083 c 0.0547,0 0.10156,0.043 0.10156,0.10157 v -4 c 0,0.0547 -0.043,0.10156 -0.10156,0.10156 h 1.47083 c 0.0547,0 0.10156,-0.043 0.10156,-0.10156 v -4 c 0,-0.0547 -0.043,-0.10157 -0.10156,-0.10157 h -1.47083 c 0.0547,0 0.10156,0.043 0.10156,0.10157 v -4 c 0,0.0547 -0.043,0.10156 -0.10156,0.10156 h 1.47083 c 0.0547,0 0.10156,-0.043 0.10156,-0.10156 v -4 c 0,-0.0547 -0.043,-0.10157 -0.10156,-0.10157 h -1.47083 c 0.0547,0 0.10156,0.043 0.10156,0.10157 v -4.52917 c 0,-0.0547 -0.043,-0.10157 -0.10156,-0.10157 v 0 h -5.27916 c 0.0547,0 0.10156,0.043 0.10156,0.10157 v -1.47083 c 0,-0.0547 -0.043,-0.10157 -0.10156,-0.10157 h -4 c -0.0547,0 -0.10156,0.043 -0.10156,0.10157 v 1.47083 c 0,-0.0547 0.043,-0.10157 0.10156,-0.10157 h -4 c 0.0547,0 0.10156,0.043 0.10156,0.10157 v -1.47083 c 0,-0.0547 -0.043,-0.10157 -0.10156,-0.10157 h -4 c -0.0547,0 -0.10156,0.043 -0.10156,0.10157 v 1.47083 c 0,-0.0547 0.043,-0.10157 0.10156,-0.10157 h -4 c 0.0547,0 0.10156,0.043 0.10156,0.10157 v -1.47083 c 0,-0.0547 -0.043,-0.10157 -0.10156,-0.10157 h -4 c -0.0547,0 -0.10156,0.043 -0.10156,0.10157 v 1.47083 c 0,-0.0547 0.043,-0.10157 0.10156,-0.10157 h -4 c 0.0547,0 0.10156,0.043 0.10156,0.10157 v -1.47083 c 0,-0.0547 -0.043,-0.10157 -0.10156,-0.10157 h -4 c -0.0547,0 -0.10156,0.043 -0.10156,0.10157 v 1.47083 c 0,-0.0547 0.043,-0.10157 0.10156,-0.10157 h -4 c 0.0547,0 0.10156,0.043 0.10156,0.10157 v -1.47083 c 0,-0.0547 -0.043,-0.10157 -0.10156,-0.10157 h -4 c -0.0547,0 -0.10156,0.043 -0.10156,0.10157 v 1.47083 c 0,-0.0547 0.043,-0.10157 0.10156,-0.10157 h -5.27917 c -0.0547,0 -0.10156,0.043 -0.10156,0.10157 v 0 4.52917 c 0,-0.0547 0.043,-0.10157 0.10156,-0.10157 h -1.47083 c -0.0547,0 -0.10156,0.043 -0.10156,0.10157 v 4 c 0,0.0547 0.043,0.10156 0.10156,0.10156 h 1.47083 c -0.0547,0 -0.10156,-0.043 -0.10156,-0.10156 v 4 c 0,-0.0547 0.043,-0.10157 0.10156,-0.10157 h -1.47083 c -0.0547,0 -0.10156,0.043 -0.10156,0.10157 v 4 c 0,0.0547 0.043,0.10156 0.10156,0.10156 h 1.47083 c -0.0547,0 -0.10156,-0.043 -0.10156,-0.10156 v 4 c 0,-0.0547 0.043,-0.10157 0.10156,-0.10157 h -1.47083 c -0.0547,0 -0.10156,0.043 -0.10156,0.10157 v 4 c 0,0.0547 0.043,0.10156 0.10156,0.10156 h 1.47083 c -0.0547,0 -0.10156,-0.043 -0.10156,-0.10156 v 4 c 0,-0.0547 0.043,-0.10157 0.10156,-0.10157 h -1.47083 c -0.0547,0 -0.10156,0.043 -0.10156,0.10157 v 4 c 0,0.0547 0.043,0.10156 0.10156,0.10156 h 1.47083 c -0.0547,0 -0.10156,-0.043 -0.10156,-0.10156 v 4 c 0,-0.0547 0.043,-0.10157 0.10156,-0.10157 h -1.47083 c -0.0547,0 -0.10156,0.043 -0.10156,0.10157 v 4 c 0,0.0547 0.043,0.10156 0.10156,0.10156 h 1.47083 c -0.0547,0 -0.10156,-0.043 -0.10156,-0.10156 v 2.94167 c 0,0.0547 0.043,0.10156 0.10156,0.10156 v 0"
       style="fill:none;stroke:#000000;stroke-width:0.2;stroke-linecap:butt;stroke-linejoin:miter;stroke-miterlimit:10;stroke-opacity:1"
       id="path119"
       sodipodi:nodetypes="cccssssccccssssccccssssccccssssccccssssccsccccssssccccssssccccssssccccssssccccssssccsccccssssccccssssccccssssccccssssccccssssccsccccssssccccssssccccssssccccssssccccssssccscc" />
    <path
       inkscape:connector-curvature="0"
       d="m 106.03482,278.34913 h 5.27526 c -0.0547,0 -0.10156,-0.043 -0.10156,-0.10156 v 1.47083 c 0,0.0547 0.043,0.10156 0.10156,0.10156 h 4 c 0.0547,0 0.10156,-0.043 0.10156,-0.10156 v -1.47083 c 0,0.0547 -0.043,0.10156 -0.10156,0.10156 h 4 c -0.0547,0 -0.10156,-0.043 -0.10156,-0.10156 v 1.47083 c 0,0.0547 0.043,0.10156 0.10156,0.10156 h 4 c 0.0547,0 0.10156,-0.043 0.10156,-0.10156 v -1.47083 c 0,0.0547 -0.043,0.10156 -0.10156,0.10156 h 4 c -0.0547,0 -0.10156,-0.043 -0.10156,-0.10156 v 1.47083 c 0,0.0547 0.043,0.10156 0.10156,0.10156 h 4 c 0.0547,0 0.10156,-0.043 0.10156,-0.10156 v -1.47083 c 0,0.0547 -0.043,0.10156 -0.10156,0.10156 h 4 c -0.0547,0 -0.10156,-0.043 -0.10156,-0.10156 v 1.47083 c 0,0.0547 0.043,0.10156 0.10156,0.10156 h 4 c 0.0547,0 0.10156,-0.043 0.10156,-0.10156 v -1.47083 c 0,0.0547 -0.043,0.10156 -0.10156,0.10156 h 4 c -0.0547,0 -0.10156,-0.043 -0.10156,-0.10156 v 1.47083 c 0,0.0547 0.043,0.10156 0.10156,0.10156 h 4 c 0.0547,0 0.10156,-0.043 0.10156,-0.10156 v -1.47083 c 0,0.0547 -0.043,0.10156 -0.10156,0.10156 h 5.27917 1.47083 c 0.0547,0 0.10156,-0.043 0.10156,-0.10156 v 0 -4.52917 c 0,-0.0547 -0.043,-0.10157 -0.10156,-0.10157 h -1.47083 c 0.0547,0 0.10156,0.043 0.10156,0.10157 v -4 c 0,0.0547 -0.043,0.10156 -0.10156,0.10156 h 1.47083 c 0.0547,0 0.10156,-0.043 0.10156,-0.10156 v -4 c 0,-0.0547 -0.043,-0.10157 -0.10156,-0.10157 h -1.47083 c 0.0547,0 0.10156,0.043 0.10156,0.10157 v -4 c 0,0.0547 -0.043,0.10156 -0.10156,0.10156 h 1.47083 c 0.0547,0 0.10156,-0.043 0.10156,-0.10156 v -4 c 0,-0.0547 -0.043,-0.10157 -0.10156,-0.10157 h -1.47083 c 0.0547,0 0.10156,0.043 0.10156,0.10157 v -4 c 0,0.0547 -0.043,0.10156 -0.10156,0.10156 h 1.47083 c 0.0547,0 0.10156,-0.043 0.10156,-0.10156 v -4 c 0,-0.0547 -0.043,-0.10157 -0.10156,-0.10157 h -1.47083 c 0.0547,0 0.10156,0.043 0.10156,0.10157 v -4 c 0,0.0547 -0.043,0.10156 -0.10156,0.10156 h 1.47083 c 0.0547,0 0.10156,-0.043 0.10156,-0.10156 v -4 c 0,-0.0547 -0.043,-0.10157 -0.10156,-0.10157 h -1.47083 c 0.0547,0 0.10156,0.043 0.10156,0.10157 v -4 c 0,0.0547 -0.043,0.10156 -0.10156,0.10156 h 1.47083 c 0.0547,0 0.10156,-0.043 0.10156,-0.10156 v -2.94167 c 0,-0.0547 -0.045,-0.0866 -0.10156,-0.10157 h -1.47083 -5.27917 c 0.0547,0 0.10156,0.043 0.10156,0.10157 v -3.05833 c 0,-0.0547 -0.043,-0.10157 -0.10156,-0.10157 h -4 c -0.0547,0 -0.10156,0.043 -0.10156,0.10157 v 3.05833 c 0,-0.0547 0.043,-0.10157 0.10156,-0.10157 h -4 c 0.0547,0 0.10156,0.043 0.10156,0.10157 v -3.05833 c 0,-0.0547 -0.043,-0.10157 -0.10156,-0.10157 h -4 c -0.0547,0 -0.10156,0.043 -0.10156,0.10157 v 3.05833 c 0,-0.0547 0.043,-0.10157 0.10156,-0.10157 h -4 c 0.0547,0 0.10156,0.043 0.10156,0.10157 v -3.05833 c 0,-0.0547 -0.043,-0.10157 -0.10156,-0.10157 h -4 c -0.0547,0 -0.10156,0.043 -0.10156,0.10157 v 3.05833 c 0,-0.0547 0.043,-0.10157 0.10156,-0.10157 h -4 c 0.0547,0 0.10156,0.043 0.10156,0.10157 v -3.05833 c 0,-0.0547 -0.043,-0.10157 -0.10156,-0.10157 h -4 c -0.0547,0 -0.10156,0.043 -0.10156,0.10157 v 3.05833 c 0,-0.0547 0.043,-0.10157 0.10156,-0.10157 h -4 c 0.0547,0 0.10156,0.043 0.10156,0.10157 v -3.05833 c 0,-0.0547 -0.043,-0.10157 -0.10156,-0.10157 h -4 c -0.0547,0 -0.10156,0.043 -0.10156,0.10157 v 3.05833 c 0,-0.0547 0.043,-0.10157 0.10156,-0.10157 h -5.27917 -1.47083 c -0.0547,0 -0.10156,0.043 -0.10156,0.10157 v 0 2.94167 c 0,0.0547 0.043,0.10156 0.10156,0.10156 h 1.47083 c -0.0547,0 -0.10156,-0.043 -0.10156,-0.10156 v 4 c 0,-0.0547 0.043,-0.10157 0.10156,-0.10157 h -1.47083 c -0.0547,0 -0.10156,0.043 -0.10156,0.10157 v 4 c 0,0.0547 0.043,0.10156 0.10156,0.10156 h 1.47083 c -0.0547,0 -0.10156,-0.043 -0.10156,-0.10156 v 4 c 0,-0.0547 0.043,-0.10157 0.10156,-0.10157 h -1.47083 c -0.0547,0 -0.10156,0.043 -0.10156,0.10157 v 4 c 0,0.0547 0.043,0.10156 0.10156,0.10156 h 1.47083 c -0.0547,0 -0.10156,-0.043 -0.10156,-0.10156 v 4 c 0,-0.0547 0.043,-0.10157 0.10156,-0.10157 h -1.47083 c -0.0547,0 -0.10156,0.043 -0.10156,0.10157 v 4 c 0,0.0547 0.043,0.10156 0.10156,0.10156 h 1.47083 c -0.0547,0 -0.10156,-0.043 -0.10156,-0.10156 v 4 c 0,-0.0547 0.043,-0.10157 0.10156,-0.10157 h -1.47083 c -0.0547,0 -0.10156,0.043 -0.10156,0.10157 v 4 c 0,0.0547 0.043,0.10156 0.10156,0.10156 h 1.47083 c -0.0547,0 -0.10156,-0.043 -0.10156,-0.10156 v 4 c 0,-0.0547 0.043,-0.10157 0.10156,-0.10157 h -1.47083 c -0.0547,0 -0.10156,0.043 -0.10156,0.10157 v 4.52917 c 0,0.0547 0.043,0.10156 0.10156,0.10156 h 1.47083"
       style="fill:none;stroke:#000000;stroke-width:0.2;stroke-linecap:butt;stroke-linejoin:miter;stroke-miterlimit:10;stroke-opacity:1"
       id="path121"
       sodipodi:nodetypes="cccssssccccssssccccssssccccssssccccsssscccsccssccccssssccccssssccccssssccccssssccccsssscccssssccccssssccccssssccccssssccccsssscccsccssccccssssccccssssccccssssccccssssccccssssc" />
    <path
       inkscape:connector-curvature="0"
       d="m 133.91477,225.8243 h 3.69167 c -0.0547,0 -0.10156,-0.043 -0.10156,-0.10156 v 1.47083 c 0,0.0547 0.043,0.10156 0.10156,0.10156 h 4 c 0.0547,0 0.10156,-0.043 0.10156,-0.10156 v -1.47083 c 0,0.0547 -0.043,0.10156 -0.10156,0.10156 h 4 c -0.0547,0 -0.10156,-0.043 -0.10156,-0.10156 v 1.47083 c 0,0.0547 0.043,0.10156 0.10156,0.10156 h 4 c 0.0547,0 0.10156,-0.043 0.10156,-0.10156 v -1.47083 c 0,0.0547 -0.043,0.10156 -0.10156,0.10156 h 4 c -0.0547,0 -0.10156,-0.043 -0.10156,-0.10156 v 1.47083 c 0,0.0547 0.043,0.10156 0.10156,0.10156 h 4 c 0.0547,0 0.10156,-0.043 0.10156,-0.10156 v -1.47083 c 0,0.0547 -0.043,0.10156 -0.10156,0.10156 h 4 c -0.0547,0 -0.10156,-0.043 -0.10156,-0.10156 v 1.47083 c 0,0.0547 0.043,0.10156 0.10156,0.10156 h 4 c 0.0547,0 0.10156,-0.043 0.10156,-0.10156 v -1.47083 c 0,0.0547 -0.043,0.10156 -0.10156,0.10156 h 4 c -0.0547,0 -0.10156,-0.043 -0.10156,-0.10156 v 1.47083 c 0,0.0547 0.043,0.10156 0.10156,0.10156 h 4 c 0.0547,0 0.10156,-0.043 0.10156,-0.10156 v -1.47083 c 0,0.0547 -0.043,0.10156 -0.10156,0.10156 h 5.27917 c 0.0547,0 0.10156,-0.043 0.10156,-0.10156 v 0 -4.52917 c 0,0.0547 -0.043,0.10156 -0.10156,0.10156 h 1.47083 c 0.0547,0 0.10156,-0.043 0.10156,-0.10156 v -4 c 0,-0.0547 -0.043,-0.10157 -0.10156,-0.10157 h -1.47083 c 0.0547,0 0.10156,0.043 0.10156,0.10157 v -4 c 0,0.0547 -0.043,0.10156 -0.10156,0.10156 h 1.47083 c 0.0547,0 0.10156,-0.043 0.10156,-0.10156 v -4 c 0,-0.0547 -0.043,-0.10157 -0.10156,-0.10157 h -1.47083 c 0.0547,0 0.10156,0.043 0.10156,0.10157 v -4 c 0,0.0547 -0.043,0.10156 -0.10156,0.10156 h 1.47083 c 0.0547,0 0.10156,-0.043 0.10156,-0.10156 v -4 c 0,-0.0547 -0.043,-0.10157 -0.10156,-0.10157 h -1.47083 c 0.0547,0 0.10156,0.043 0.10156,0.10157 v -4 c 0,0.0547 -0.043,0.10156 -0.10156,0.10156 h 1.47083 c 0.0547,0 0.10156,-0.043 0.10156,-0.10156 v -4 c 0,-0.0547 -0.043,-0.10157 -0.10156,-0.10157 h -1.47083 c 0.0547,0 0.10156,0.043 0.10156,0.10157 v -4 c 0,0.0547 -0.043,0.10156 -0.10156,0.10156 h 1.47083 c 0.0547,0 0.10156,-0.043 0.10156,-0.10156 v -4 c 0,-0.0547 -0.043,-0.10157 -0.10156,-0.10157 h -1.47083 c 0.0547,0 0.10156,0.043 0.10156,0.10157 v -4.52917 c 0,-0.0547 -0.043,-0.10157 -0.10156,-0.10157 v 0 h -5.27917 c 0.0547,0 0.10156,0.043 0.10156,0.10157 v -1.47083 c 0,-0.0547 -0.043,-0.10157 -0.10156,-0.10157 h -4 c -0.0547,0 -0.10156,0.043 -0.10156,0.10157 v 1.47083 c 0,-0.0547 0.043,-0.10157 0.10156,-0.10157 h -4 c 0.0547,0 0.10156,0.043 0.10156,0.10157 v -1.47083 c 0,-0.0547 -0.043,-0.10157 -0.10156,-0.10157 h -4 c -0.0547,0 -0.10156,0.043 -0.10156,0.10157 v 1.47083 c 0,-0.0547 0.043,-0.10157 0.10156,-0.10157 h -4 c 0.0547,0 0.10156,0.043 0.10156,0.10157 v -1.47083 c 0,-0.0547 -0.043,-0.10157 -0.10156,-0.10157 h -4 c -0.0547,0 -0.10156,0.043 -0.10156,0.10157 v 1.47083 c 0,-0.0547 0.043,-0.10157 0.10156,-0.10157 h -4 c 0.0547,0 0.10156,0.043 0.10156,0.10157 v -1.47083 c 0,-0.0547 -0.043,-0.10157 -0.10156,-0.10157 h -4 c -0.0547,0 -0.10156,0.043 -0.10156,0.10157 v 1.47083 c 0,-0.0547 0.043,-0.10157 0.10156,-0.10157 h -4 c 0.0547,0 0.10156,0.043 0.10156,0.10157 v -1.47083 c 0,-0.0547 -0.043,-0.10157 -0.10156,-0.10157 h -4 c -0.0547,0 -0.10156,0.043 -0.10156,0.10157 v 1.47083 c 0,-0.0547 0.043,-0.10157 0.10156,-0.10157 h -3.69167 c -0.0547,0 -0.10156,0.043 -0.10156,0.10157 v 0 4.52917 c 0,-0.0547 0.043,-0.10157 0.10156,-0.10157 h -3.05833 c -0.0547,0 -0.10156,0.043 -0.10156,0.10157 v 4 c 0,0.0547 0.043,0.10156 0.10156,0.10156 h 3.05833 c -0.0547,0 -0.10156,-0.043 -0.10156,-0.10156 v 4 c 0,-0.0547 0.043,-0.10157 0.10156,-0.10157 h -3.05833 c -0.0547,0 -0.10156,0.043 -0.10156,0.10157 v 4 c 0,0.0547 0.043,0.10156 0.10156,0.10156 h 3.05833 c -0.0547,0 -0.10156,-0.043 -0.10156,-0.10156 v 4 c 0,-0.0547 0.043,-0.10157 0.10156,-0.10157 h -3.05833 c -0.0547,0 -0.10156,0.043 -0.10156,0.10157 v 4 c 0,0.0547 0.043,0.10156 0.10156,0.10156 h 3.05833 c -0.0547,0 -0.10156,-0.043 -0.10156,-0.10156 v 4 c 0,-0.0547 0.043,-0.10157 0.10156,-0.10157 h -3.05833 c -0.0547,0 -0.10156,0.043 -0.10156,0.10157 v 4 c 0,0.0547 0.043,0.10156 0.10156,0.10156 h 3.05833 c -0.0547,0 -0.10156,-0.043 -0.10156,-0.10156 v 4 c 0,-0.0547 0.043,-0.10157 0.10156,-0.10157 h -3.05833 c -0.0547,0 -0.10156,0.043 -0.10156,0.10157 v 4 c 0,0.0547 0.043,0.10156 0.10156,0.10156 h 3.05833 c -0.0547,0 -0.10156,-0.043 -0.10156,-0.10156 v 4.52917 c 0,0.0547 0.043,0.10156 0.10156,0.10156 v 0"
       style="fill:none;stroke:#000000;stroke-width:0.2;stroke-linecap:butt;stroke-linejoin:miter;stroke-miterlimit:10;stroke-opacity:1"
       id="path123"
       sodipodi:nodetypes="cccssssccccssssccccssssccccssssccccssssccsccccssssccccssssccccssssccccssssccccssssccsccccssssccccssssccccssssccccssssccccssssccsccccssssccccssssccccssssccccssssccccssssccscc" />
    <g
       id="g153"
       transform="translate(-45.682673,27.169339)">
      <path
         id="path111"
         style="fill:none;stroke:#000000;stroke-width:0.2;stroke-linecap:butt;stroke-linejoin:miter;stroke-miterlimit:10;stroke-opacity:1"
         d="m 132.04943,228.94519 c 0,3.95703 -1.14063,7.83203 -3.28125,11.16407 -2.14063,3.32812 -5.19141,5.97656 -8.79297,7.62109 -3.60156,1.64453 -7.59766,2.21875 -11.51563,1.65625 -3.91797,-0.5625 -7.59375,-2.24219 -10.582029,-4.83203 -2.992187,-2.59375 -5.175781,-5.98828 -6.289062,-9.78906 -1.113282,-3.79688 -1.113282,-7.83594 0,-11.63672 1.113281,-3.79688 3.296875,-7.19532 6.289062,-9.78907 2.992189,-2.59375 6.664059,-4.26953 10.582029,-4.83203 3.91797,-0.5625 7.91407,0.0117 11.51563,1.65625 3.60156,1.64453 6.65234,4.28907 8.79297,7.6211 2.14062,3.32812 3.27734,7.20703 3.27734,11.16406"
         inkscape:connector-curvature="0" />
      <path
         sodipodi:nodetypes="cssccccssssccccssssccccssssccccssssccccsscsscssccccssssccccssssccccssssccccssssccccsscsscscccccssscccccssscccccssscccccssssccccsscsscssccccssssccccssssccccssssccccssssccccsscssc"
         id="path113"
         style="fill:none;stroke:#000000;stroke-width:0.2;stroke-linecap:butt;stroke-linejoin:miter;stroke-miterlimit:10;stroke-opacity:1"
         d="m 88.121851,253.7928 h 5.279167 c 0.05469,0 0.101562,-0.043 0.101562,-0.10156 v -1.47083 c 0,0.0547 -0.04297,0.10156 -0.101562,0.10156 h 4 c -0.05469,0 -0.101562,-0.043 -0.101562,-0.10156 v 1.47083 c 0,0.0547 0.04297,0.10156 0.101562,0.10156 h 4.000002 c 0.0547,0 0.10156,-0.043 0.10156,-0.10156 v -1.47083 c 0,0.0547 -0.043,0.10156 -0.10156,0.10156 h 4 c -0.0547,0 -0.10156,-0.043 -0.10156,-0.10156 v 1.47083 c 0,0.0547 0.043,0.10156 0.10156,0.10156 h 4 c 0.0547,0 0.10156,-0.043 0.10156,-0.10156 v -1.47083 c 0,0.0547 -0.043,0.10156 -0.10156,0.10156 h 4 c -0.0547,0 -0.10156,-0.043 -0.10156,-0.10156 v 1.47083 c 0,0.0547 0.043,0.10156 0.10156,0.10156 h 4 c 0.0547,0 0.10156,-0.043 0.10156,-0.10156 v -1.47083 c 0,0.0547 -0.043,0.10156 -0.10156,0.10156 h 4 c -0.0547,0 -0.10156,-0.043 -0.10156,-0.10156 v 1.47083 c 0,0.0547 0.043,0.10156 0.10156,0.10156 h 4 c 0.0547,0 0.10156,-0.043 0.10156,-0.10156 v -1.47083 c 0,0.0547 -0.043,0.10156 -0.10156,0.10156 h 4 c -0.0547,0 -0.10156,-0.043 -0.10156,-0.10156 v 1.47083 c 0,0.0547 0.043,0.10156 0.10156,0.10156 h 5.27917 1.47083 c 0.0547,0 0.10156,-0.043 0.10156,-0.10156 v -1.47083 -5.27917 c 0,-0.0547 -0.043,-0.10157 -0.10156,-0.10157 h -1.47083 c 0.0547,0 0.10156,0.043 0.10156,0.10157 v -4 c 0,0.0547 -0.043,0.10156 -0.10156,0.10156 h 1.47083 c 0.0547,0 0.10156,-0.043 0.10156,-0.10156 v -4 c 0,-0.0547 -0.043,-0.10157 -0.10156,-0.10157 h -1.47083 c 0.0547,0 0.10156,0.043 0.10156,0.10157 v -4 c 0,0.0547 -0.043,0.10156 -0.10156,0.10156 h 1.47083 c 0.0547,0 0.10156,-0.043 0.10156,-0.10156 v -4 c 0,-0.0547 -0.043,-0.10157 -0.10156,-0.10157 h -1.47083 c 0.0547,0 0.10156,0.043 0.10156,0.10157 v -4 c 0,0.0547 -0.043,0.10156 -0.10156,0.10156 h 1.47083 c 0.0547,0 0.10156,-0.043 0.10156,-0.10156 v -4 c 0,-0.0547 -0.043,-0.10157 -0.10156,-0.10157 h -1.47083 c 0.0547,0 0.10156,0.043 0.10156,0.10157 v -4 c 0,0.0547 -0.043,0.10156 -0.10156,0.10156 h 1.47083 c 0.0547,0 0.10156,-0.043 0.10156,-0.10156 v -4 c 0,-0.0547 -0.043,-0.10157 -0.10156,-0.10157 h -1.47083 c 0.0547,0 0.10156,0.043 0.10156,0.10157 v -4 c 0,0.0547 -0.043,0.10156 -0.10156,0.10156 h 1.47083 c 0.0547,0 0.10156,-0.043 0.10156,-0.10156 v -5.27917 -1.47083 c 0,-0.0547 -0.043,-0.10157 -0.10156,-0.10157 h -1.47083 -5.27917 c -0.0547,0 -0.10157,0.043 -0.10157,0.10157 l 1e-5,1.47083 c 0,-0.0547 0.043,-0.10157 0.10156,-0.10157 h -4 c 0.0547,0 0.10156,0.043 0.10156,0.10157 v -1.47083 c 0,-0.0547 -0.043,-0.10157 -0.10156,-0.10157 h -4 c -0.0547,0 -0.10157,0.043 -0.10157,0.10157 l 1e-5,1.47083 c 0,-0.0547 0.043,-0.10157 0.10156,-0.10157 h -4 c 0.0547,0 0.10156,0.043 0.10156,0.10157 v -1.47083 c 0,-0.0547 -0.043,-0.10157 -0.10156,-0.10157 h -4 c -0.0547,0 -0.10157,0.043 -0.10157,0.10157 l 1e-5,1.47083 c 0,-0.0547 0.043,-0.10157 0.10156,-0.10157 h -4 c 0.0547,0 0.10156,0.043 0.10156,0.10157 v -1.47083 c 0,-0.0547 -0.043,-0.10157 -0.10156,-0.10157 h -4 c -0.0547,0 -0.10157,0.043 -0.10157,0.10157 l 1e-5,1.47083 c 0,-0.0547 0.043,-0.10157 0.10156,-0.10157 h -4 c 0.0547,0 0.10156,0.043 0.10156,0.10157 v -1.47083 c 0,-0.0547 -0.043,-0.10157 -0.10156,-0.10157 h -4.000002 c -0.05469,0 -0.101563,0.043 -0.101563,0.10157 l 1e-6,1.47083 c 0,-0.0547 0.04297,-0.10157 0.101562,-0.10157 h -4 c 0.05469,0 0.101562,0.043 0.101562,0.10157 v -1.47083 c 0,-0.0547 -0.04297,-0.10157 -0.101562,-0.10157 h -5.279167 -1.470833 c -0.05469,0 -0.101563,0.043 -0.101563,0.10157 l 1e-6,1.47083 v 5.27917 c 0,0.0547 0.04297,0.10156 0.101562,0.10156 h 1.470833 c -0.05469,0 -0.101562,-0.043 -0.101562,-0.10156 v 4 c 0,-0.0547 0.04297,-0.10157 0.101562,-0.10157 h -1.470833 c -0.05469,0 -0.101562,0.043 -0.101562,0.10157 v 4 c 0,0.0547 0.04297,0.10156 0.101562,0.10156 h 1.470833 c -0.05469,0 -0.101562,-0.043 -0.101562,-0.10156 v 4 c 0,-0.0547 0.04297,-0.10157 0.101562,-0.10157 h -1.470833 c -0.05469,0 -0.101562,0.043 -0.101562,0.10157 v 4 c 0,0.0547 0.04297,0.10156 0.101562,0.10156 h 1.470833 c -0.05469,0 -0.101562,-0.043 -0.101562,-0.10156 v 4 c 0,-0.0547 0.04297,-0.10157 0.101562,-0.10157 h -1.470833 c -0.05469,0 -0.101562,0.043 -0.101562,0.10157 v 4 c 0,0.0547 0.04297,0.10156 0.101562,0.10156 h 1.470833 c -0.05469,0 -0.101562,-0.043 -0.101562,-0.10156 v 4 c 0,-0.0547 0.04297,-0.10157 0.101562,-0.10157 h -1.470833 c -0.05469,0 -0.101562,0.043 -0.101562,0.10157 v 4 c 0,0.0547 0.04297,0.10156 0.101562,0.10156 h 1.470833 c -0.05469,0 -0.101562,-0.043 -0.101562,-0.10156 v 4 c 0,-0.0547 0.04297,-0.10157 0.101562,-0.10157 h -1.470833 c -0.05469,0 -0.101562,0.043 -0.101562,0.10157 v 5.27917 1.47083 c 0,0.0547 0.04297,0.10156 0.101562,0.10156 h 1.470833"
         inkscape:connector-curvature="0" />
    </g>
    <g
       id="g44"
       transform="translate(0.00391,-0.003911)">
      <path
         sodipodi:type="inkscape:offset"
         inkscape:radius="-0.47310549"
         inkscape:original="M 62.777344 235.67773 C 58.859374 236.24023 55.187502 237.91602 52.195312 240.50977 C 49.203125 243.10352 47.019531 246.50195 45.90625 250.29883 C 44.792968 254.09961 44.792968 258.13867 45.90625 261.93555 C 47.019531 265.73633 49.203125 269.13086 52.195312 271.72461 C 55.183592 274.31445 58.859374 275.99414 62.777344 276.55664 C 66.695314 277.11914 70.691409 276.54492 74.292969 274.90039 C 77.894529 273.25586 80.945307 270.60742 83.085938 267.2793 C 85.226557 263.94726 86.367188 260.07226 86.367188 256.11523 L 86.363281 256.11914 C 86.363281 252.16211 85.226557 248.2832 83.085938 244.95508 C 80.945307 241.62305 77.894529 238.97851 74.292969 237.33398 C 70.691409 235.68943 66.695314 235.11523 62.777344 235.67773 z "
         xlink:href="#path111-0"
         style="fill:none;stroke:#000000;stroke-width:0.2;stroke-linecap:butt;stroke-linejoin:miter;stroke-miterlimit:10;stroke-opacity:1"
         id="path369"
         inkscape:href="#path111-0"
         d="m 65.722656,235.94141 c -0.959385,-4.2e-4 -1.92182,0.0677 -2.878906,0.20507 -3.828291,0.54963 -7.414241,2.18637 -10.337891,4.72071 -2.923716,2.53439 -5.058753,5.85471 -6.146484,9.56445 -1.087865,3.71401 -1.087793,7.66114 0,11.37109 1.087731,3.71355 3.222591,7.02991 6.146484,9.56446 2.919685,2.53039 6.509861,4.17111 10.337891,4.7207 3.828344,0.54963 7.732822,-0.0103 11.251953,-1.61719 3.518806,-1.60674 6.500025,-4.19511 8.591797,-7.44726 2.084682,-3.24497 3.197552,-7.01668 3.205078,-10.86914 a 0.4731528,0.4731528 0 0 1 -0.002,-0.0352 c 0,-3.86642 -1.111758,-7.65666 -3.203125,-10.9082 -2.091673,-3.25583 -5.072734,-5.84041 -8.591797,-7.44727 -2.639347,-1.20518 -5.494891,-1.82103 -8.373047,-1.82226 z" />
      <path
         id="path111-0"
         style="fill:none;stroke:#000000;stroke-width:0.2;stroke-linecap:butt;stroke-linejoin:miter;stroke-miterlimit:10;stroke-opacity:1"
         d="m 86.366757,256.11453 c 0,3.95703 -1.14063,7.83203 -3.28125,11.16407 -2.14063,3.32812 -5.19141,5.97656 -8.79297,7.62109 -3.60156,1.64453 -7.59766,2.21875 -11.51563,1.65625 -3.91797,-0.5625 -7.59375,-2.24219 -10.582029,-4.83203 -2.992187,-2.59375 -5.175781,-5.98828 -6.289062,-9.78906 -1.113282,-3.79688 -1.113282,-7.83594 0,-11.63672 1.113281,-3.79688 3.296875,-7.19532 6.289062,-9.78907 2.992189,-2.59375 6.664059,-4.26953 10.582029,-4.83203 3.91797,-0.5625 7.91407,0.0117 11.51563,1.65625 3.60156,1.64453 6.65234,4.28907 8.79297,7.6211 2.14062,3.32812 3.27734,7.20703 3.27734,11.16406"
         inkscape:connector-curvature="0" />
      <rect
         y="253.37814"
         x="64.554642"
         height="4.958571"
         width="2.158571"
         id="rect3762"
         style="fill:none;stroke:#000000;stroke-width:0.04142904;stroke-miterlimit:4;stroke-dasharray:none;stroke-opacity:1" />
    </g>
    <path
       sodipodi:type="inkscape:offset"
       inkscape:radius="-4.7443333"
       inkscape:original="M 113.63281 233.66797 C 109.33679 234.28471 105.31021 236.12294 102.0293 238.9668 C 98.748387 241.81065 96.355466 245.53622 95.134766 249.69922 C 93.914056 253.86649 93.914056 258.29599 95.134766 262.45898 C 96.355466 266.62624 98.748387 270.34756 102.0293 273.19141 C 105.30593 276.03098 109.33679 277.87349 113.63281 278.49023 C 117.92885 279.10698 122.31068 278.47694 126.25977 276.67383 C 130.20886 274.87073 133.55515 271.96739 135.90234 268.31836 C 138.24952 264.66502 139.5 260.41476 139.5 256.07617 L 139.49609 256.08203 C 139.49609 251.74344 138.24952 247.48887 135.90234 243.83984 C 133.55515 240.18652 130.20886 237.28748 126.25977 235.48438 C 122.31068 233.68122 117.92885 233.05123 113.63281 233.66797 z "
       style="fill:none;stroke:#000000;stroke-width:0.21929191;stroke-linecap:butt;stroke-linejoin:miter;stroke-miterlimit:10;stroke-opacity:1"
       id="path111-2-0"
       d="m 114.30664,238.36328 c -3.3962,0.48756 -6.57615,1.9412 -9.16992,4.18945 -2.59401,2.24845 -4.48453,5.19054 -5.44922,8.48047 -0.965745,3.29687 -0.965021,6.79884 0,10.08985 a 4.7448077,4.7448077 0 0 1 0,0.002 c 0.96469,3.29328 2.85345,6.23049 5.44922,8.48047 2.58895,2.24362 5.77634,3.70227 9.16992,4.18945 3.39698,0.48768 6.85967,-0.0117 9.98242,-1.4375 3.119,-1.42409 5.76445,-3.71809 7.6211,-6.60351 l 0.002,-0.002 c 1.85164,-2.88296 2.83525,-6.23454 2.83984,-9.65234 a 4.7448077,4.7448077 0 0 1 0,-0.0176 c 0,-3.42982 -0.9869,-6.79511 -2.83984,-9.67578 a 4.7448077,4.7448077 0 0 1 -0.002,-0.002 c -1.85573,-2.88837 -4.49866,-5.17786 -7.6211,-6.60352 -3.12269,-1.42583 -6.5854,-1.92518 -9.98242,-1.4375 z"
       transform="translate(-15.40771,-54.084737)" />
    <g
       id="g132">
      <path
         sodipodi:nodetypes="cccccccccc"
         inkscape:connector-curvature="0"
         id="path3858-2-7"
         transform="matrix(0.26458333,0,0,0.26458333,0,92)"
         d="m 368.12109,159.61719 -0.0215,22.95312 h 25.39062 c 0.0268,-3.84268 0.0614,-8.77331 0.0625,-9.66992 z m -0.0293,31.07617 -0.0234,24.01953 25.28906,-11.78711 c 0.002,-1.52197 0.0427,-6.88563 0.0801,-12.23242 z"
         style="fill:none;stroke:#000000;stroke-width:1.08728588px;stroke-linecap:butt;stroke-linejoin:miter;stroke-opacity:1" />
      <path
         sodipodi:nodetypes="ccccccccccccccccccccccc"
         inkscape:connector-curvature="0"
         id="path3768-3-9-0-1"
         d="m 95.599496,130.63126 -3.731869,7.654 2.578211,3.30301 -2.598732,3.26528 3.754218,7.86206 h 9.246456 l 3.01894,-8.44135 1.70791,0.0243 0.49403,-0.005 0.53117,0.24054 c 0.46122,-1e-4 1.00687,0.174 1.00688,-0.88184 -1e-5,-0.65493 0.15529,-1.12682 -0.30593,-1.12692 -0.0549,2.7e-4 -0.63871,-0.0508 -0.69246,-0.0353 h -1.90428 v -2.00453 l 1.77974,0.0118 c 0.087,0.0427 0.70744,0.0293 0.79943,0.0297 0.46122,-1e-4 0.30592,-0.49561 0.30593,-1.15054 0.0167,-1.05583 -0.62345,-0.73904 -1.08467,-0.73914 l -0.49607,0.20894 -2.07266,-0.0395 -3.0859,-8.17587 z"
         style="fill:none;stroke:#000000;stroke-width:0.26458332px;stroke-linecap:butt;stroke-linejoin:miter;stroke-opacity:1" />
    </g>
    <path
       inkscape:connector-curvature="0"
       d="m 78.349235,226.67299 h 5.279167 c 0.05469,0 0.101562,-0.043 0.101562,-0.10156 v -1.47083 c 0,0.0547 -0.04297,0.10156 -0.101562,0.10156 h 4 c -0.05469,0 -0.101563,-0.043 -0.101563,-0.10156 v 1.47083 c 0,0.0547 0.04297,0.10156 0.101563,0.10156 h 4 c 0.05469,0 0.101562,-0.043 0.101562,-0.10156 v -1.47083 c 0,0.0547 -0.04297,0.10156 -0.101562,0.10156 h 4 c -0.05469,0 -0.101562,-0.043 -0.101562,-0.10156 v 1.47083 c 0,0.0547 0.04297,0.10156 0.101562,0.10156 h 4 c 0.05469,0 0.101562,-0.043 0.101562,-0.10156 v -1.47083 c 0,0.0547 -0.04297,0.10156 -0.101562,0.10156 h 3.999998 c -0.0547,0 -0.10156,-0.043 -0.10156,-0.10156 v 1.47083 c 0,0.0547 0.043,0.10156 0.10156,0.10156 h 4 c 0.0547,0 0.10156,-0.043 0.10156,-0.10156 v -1.47083 c 0,0.0547 -0.043,0.10156 -0.10156,0.10156 h 4 c -0.0547,0 -0.10156,-0.043 -0.10156,-0.10156 v 1.47083 c 0,0.0547 0.043,0.10156 0.10156,0.10156 h 4 c 0.0547,0 0.10156,-0.043 0.10156,-0.10156 v -1.47083 c 0,0.0547 -0.043,0.10156 -0.10156,0.10156 h 4 c -0.0547,0 -0.10156,-0.043 -0.10156,-0.10156 v 1.47083 c 0,0.0547 0.043,0.10156 0.10156,0.10156 h 5.27917 1.47083 c 0.0547,0 0.10157,-0.043 0.10157,-0.10156 v -1.47083 -5.27917 c 0,-0.0547 -0.043,-0.10157 -0.10157,-0.10157 h -1.47083 c 0.0547,0 0.10156,0.043 0.10156,0.10157 v -4 c 0,0.0547 -0.043,0.10156 -0.10156,0.10156 h 1.47083 c 0.0547,0 0.10157,-0.043 0.10157,-0.10156 v -4 c 0,-0.0547 -0.043,-0.10157 -0.10157,-0.10157 h -1.47083 c 0.0547,0 0.10156,0.043 0.10156,0.10157 v -4 c 0,0.0547 -0.043,0.10156 -0.10156,0.10156 h 1.47083 c 0.0547,0 0.10157,-0.043 0.10157,-0.10156 v -4 c 0,-0.0547 -0.043,-0.10157 -0.10157,-0.10157 h -1.47083 c 0.0547,0 0.10156,0.043 0.10156,0.10157 v -4 c 0,0.0547 -0.043,0.10156 -0.10156,0.10156 h 1.47083 c 0.0547,0 0.10157,-0.043 0.10157,-0.10156 v -4 c 0,-0.0547 -0.043,-0.10157 -0.10157,-0.10157 h -1.47083 c 0.0547,0 0.10156,0.043 0.10156,0.10157 v -4 c 0,0.0547 -0.043,0.10156 -0.10156,0.10156 h 1.47083 c 0.0547,0 0.10157,-0.043 0.10157,-0.10156 v -4 c 0,-0.0547 -0.043,-0.10157 -0.10157,-0.10157 h -1.47083 c 0.0547,0 0.10156,0.043 0.10156,0.10157 v -4 c 0,0.0547 -0.043,0.10156 -0.10156,0.10156 h 1.47083 c 0.0547,0 0.10157,-0.043 0.10157,-0.10156 v -5.27917 -1.47083 c 0,-0.0547 -0.043,-0.10157 -0.10157,-0.10157 h -1.47083 -5.27917 c -0.0547,0 -0.10156,0.043 -0.10156,0.10157 v 1.47083 c 0,-0.0547 0.043,-0.10157 0.10156,-0.10157 h -4 c 0.0547,0 0.10156,0.043 0.10156,0.10157 v -1.47083 c 0,-0.0547 -0.043,-0.10157 -0.10156,-0.10157 h -4 c -0.0547,0 -0.10156,0.043 -0.10156,0.10157 v 1.47083 c 0,-0.0547 0.043,-0.10157 0.10156,-0.10157 h -4 c 0.0547,0 0.10156,0.043 0.10156,0.10157 v -1.47083 c 0,-0.0547 -0.043,-0.10157 -0.10156,-0.10157 h -4 c -0.0547,0 -0.10156,0.043 -0.10156,0.10157 v 1.47083 c 0,-0.0547 0.043,-0.10157 0.10156,-0.10157 h -3.999998 c 0.05469,0 0.101562,0.043 0.101562,0.10157 v -1.47083 c 0,-0.0547 -0.04297,-0.10157 -0.101562,-0.10157 h -4 c -0.05469,0 -0.101563,0.043 -0.101563,0.10157 v 1.47083 c 0,-0.0547 0.04297,-0.10157 0.101563,-0.10157 h -4 c 0.05469,0 0.101562,0.043 0.101562,0.10157 v -1.47083 c 0,-0.0547 -0.04297,-0.10157 -0.101562,-0.10157 h -4 c -0.05469,0 -0.101563,0.043 -0.101563,0.10157 v 1.47083 c 0,-0.0547 0.04297,-0.10157 0.101563,-0.10157 h -4 c 0.05469,0 0.101562,0.043 0.101562,0.10157 v -1.47083 c 0,-0.0547 -0.04297,-0.10157 -0.101562,-0.10157 h -5.279167 -1.470833 c -0.05469,0 -0.101563,0.043 -0.101563,0.10157 v 1.47083 5.27917 c 0,0.0547 0.04297,0.10156 0.101563,0.10156 h 1.470833 c -0.05469,0 -0.101563,-0.043 -0.101563,-0.10156 v 4 c 0,-0.0547 0.04297,-0.10157 0.101563,-0.10157 h -1.470833 c -0.05469,0 -0.101563,0.043 -0.101563,0.10157 v 4 c 0,0.0547 0.04297,0.10156 0.101563,0.10156 h 1.470833 c -0.05469,0 -0.101563,-0.043 -0.101563,-0.10156 v 4 c 0,-0.0547 0.04297,-0.10157 0.101563,-0.10157 h -1.470833 c -0.05469,0 -0.101563,0.043 -0.101563,0.10157 v 4 c 0,0.0547 0.04297,0.10156 0.101563,0.10156 h 1.470833 c -0.05469,0 -0.101563,-0.043 -0.101563,-0.10156 v 4 c 0,-0.0547 0.04297,-0.10157 0.101563,-0.10157 h -1.470833 c -0.05469,0 -0.101563,0.043 -0.101563,0.10157 v 4 c 0,0.0547 0.04297,0.10156 0.101563,0.10156 h 1.470833 c -0.05469,0 -0.101563,-0.043 -0.101563,-0.10156 v 4 c 0,-0.0547 0.04297,-0.10157 0.101563,-0.10157 h -1.470833 c -0.05469,0 -0.101563,0.043 -0.101563,0.10157 v 4 c 0,0.0547 0.04297,0.10156 0.101563,0.10156 h 1.470833 c -0.05469,0 -0.101563,-0.043 -0.101563,-0.10156 v 4 c 0,-0.0547 0.04297,-0.10157 0.101563,-0.10157 h -1.470833 c -0.05469,0 -0.101563,0.043 -0.101563,0.10157 v 5.27917 1.47083 c 0,0.0547 0.04297,0.10156 0.101563,0.10156 h 1.470833"
       style="fill:none;stroke:#000000;stroke-width:0.2;stroke-linecap:butt;stroke-linejoin:miter;stroke-miterlimit:10;stroke-opacity:1"
       id="path109-8"
       sodipodi:nodetypes="cssccccssssccccssssccccssssccccssssccccsscsscssccccssssccccssssccccssssccccssssccccsscsscssccccssssccccssssccccssssccccssssccccsscsscssccccssssccccssssccccssssccccssssccccsscssc" />
  </g>
</svg>
