<?xml version="1.0" encoding="utf-8"?>
<!-- Generator: Adobe Illustrator 21.0.0, SVG Export Plug-In . SVG Version: 6.00 Build 0)  -->
<svg version="1.1" id="Layer_1" xmlns="http://www.w3.org/2000/svg" xmlns:xlink="http://www.w3.org/1999/xlink" x="0px" y="0px"
	 viewBox="0 0 1000 1000" style="enable-background:new 0 0 1000 1000;" xml:space="preserve">
<path d="M10,18.2L10,18.2L10,18.2z"/>
<path d="M520.5,224.1H787V35.8H224.8v188.3h266.4v387.8c-6.2,0.8-12.2,2.1-18,3.9l-38.3-93.7l-18,7.4l38.3,93.7
	c-5.8,3-11.2,6.5-16.4,10.4L304.7,499.5L284,520.1l134.1,134.2c-3.7,4.9-7.1,10-9.9,15.5l-93.4-39.2l-7.5,18l93.4,39.2
	c-2,6.1-3.4,12.5-4.3,19H239.1v29.3h157.3c0.8,6.1,2.1,12.1,3.9,17.8l-93.7,38.2l7.4,18.1l93.7-38.2c3,5.8,6.5,11.3,10.5,16.5
	L284,922.5l20.7,20.7l134.1-134c4.9,3.7,10.1,7.1,15.5,9.9l-39.2,93.3l18,7.6l39.2-93.3c6.1,1.9,12.4,3.4,18.9,4.2v148.9h29.3V830.9
	c6.2-0.8,12.2-2.1,18.1-3.9l38.3,93.7l18-7.4l-38.3-93.7c5.8-3,11.2-6.5,16.4-10.4l134,134.1l20.8-20.7L593.7,788.5
	c3.7-4.9,7.1-10.1,10-15.6l93.2,39.1l7.5-18l-93.2-39.1c1.9-6.1,3.4-12.4,4.2-18.8h157.4v-29.3H615.4c-0.8-6.2-2.1-12.2-3.9-18
	l93.7-38.3l-7.4-18.1l-93.7,38.3c-3-5.8-6.5-11.3-10.4-16.4l134.2-134.1l-20.7-20.7L573,633.6c-4.8-3.7-10-7-15.4-9.9l39.2-93.3
	l-18-7.6l-39.2,93.3c-6.2-2-12.5-3.4-19.1-4.3V224.1z"/>
</svg>
