<svg width="76" height="76" viewBox="0 0 76 76" fill="none" xmlns="http://www.w3.org/2000/svg">
<path d="M25.0902 43.401L23 40.2656L27.64 41.4256L28.22 44.3256L25.7262 43.8269C25.4661 43.7748 25.2374 43.6217 25.0902 43.401Z" fill="#87C5FF"/>
<path d="M29.6008 50.108L28.22 47.8066L35.76 47.2266L37.5 50.1266L35.0437 52.0916C34.7685 52.3117 34.3978 52.3708 34.0679 52.247L30.6136 50.9517C30.1904 50.793 29.8334 50.4956 29.6008 50.108Z" fill="#87C5FF"/>
<path d="M37.4999 50.1264L40.9799 49.5464L38.6599 46.0664L35.1799 46.6464L37.4999 50.1264Z" fill="#8BC8FF"/>
<path d="M48.4418 47.8647L44.3744 50.9153C44.0714 51.1425 43.666 51.1791 43.3272 51.0097L40.4 49.5461L39.24 46.6461H41.56L45.62 43.7461L48.4632 47.7266C48.4948 47.7708 48.4853 47.8321 48.4418 47.8647Z" fill="#87C5FF"/>
<path d="M49.1 41.4253L47.94 44.3253L48.4897 47.6234C48.4981 47.6737 48.4346 47.7028 48.402 47.6637L45.62 44.3253L45.04 40.8453L47.94 37.9453L49.1 41.4253Z" fill="#87C5FF"/>
<path d="M49.1001 41.4252L52.0001 39.6852L50.8401 36.7852L47.3601 37.3652L49.1001 41.4252Z" fill="#87C5FF"/>
<path d="M50.8399 32.1445L51.9999 39.6845L50.8399 36.7845L49.6799 33.3045L50.8399 32.1445Z" fill="#8BC8FF"/>
<path d="M46.7799 27.9757V29.2436L44.4599 28.6636L43.8799 25.7636L45.6199 25.1836L46.5687 27.0813C46.7076 27.359 46.7799 27.6652 46.7799 27.9757Z" fill="#8BC8FF"/>
<path fill-rule="evenodd" clip-rule="evenodd" d="M40.5363 23.2191L38.08 25.1842L34.6 25.7642L32.2622 24.3615C31.9208 24.1566 31.4904 24.1738 31.1665 24.4052L28.0588 26.625C27.796 26.8127 27.64 27.1158 27.64 27.4388V30.4042L26.48 33.3042L23.4453 35.3273C23.1671 35.5128 23 35.825 23 36.1593V40.1234C23 40.5538 23.2754 40.936 23.6838 41.0721L26.48 42.0042L28.22 44.3242V47.6911C28.22 48.108 28.4786 48.4811 28.8689 48.6275L32.3279 49.9246C32.6579 50.0483 33.0286 49.9893 33.3037 49.7692L35.76 47.8041L39.24 47.2241L41.5634 48.6182C41.9121 48.8274 42.3527 48.8047 42.6779 48.5607L46.2937 45.8489C46.5924 45.6248 46.7415 45.2529 46.6801 44.8845L46.2 42.0042L47.94 38.5242L50.7963 37.096C51.1711 36.9086 51.3893 36.5075 51.343 36.0911L50.9062 32.1597C50.8654 31.793 50.6262 31.4786 50.2837 31.3416L47.94 30.4042L45.62 28.0842V25.2972C45.62 24.8803 45.3614 24.5072 44.9711 24.3608L41.5121 23.0637C41.1821 22.94 40.8114 22.999 40.5363 23.2191ZM34.5727 42.1623C37.6297 43.422 41.1869 41.8246 42.5179 38.5945C43.8489 35.3644 42.4497 31.7247 39.3927 30.465C36.3356 29.2054 32.7784 30.8027 31.4474 34.0328C30.1164 37.2629 31.5157 40.9026 34.5727 42.1623Z" fill="url(#paint0_linear_5467_87579)"/>
<path fill-rule="evenodd" clip-rule="evenodd" d="M42.947 34.4889C42.8225 34.4058 42.6946 34.3262 42.5631 34.2503C39.3099 32.3721 35.1586 33.4716 33.2911 36.7063C32.5696 37.9561 32.2945 39.3417 32.4162 40.68C30.677 38.7596 30.35 35.7306 31.8057 33.2092C33.5822 30.1322 37.3412 28.9765 40.2017 30.628C41.6671 31.474 42.6124 32.8927 42.947 34.4889Z" fill="#82C3FF"/>
<path d="M38 9V19" stroke="#B9BCBF" stroke-width="1.2" stroke-linecap="round" stroke-dasharray="3 3"/>
<path d="M38 67V57" stroke="#B9BCBF" stroke-width="1.2" stroke-linecap="round" stroke-dasharray="3 3"/>
<path d="M12 21L20.6603 26" stroke="#B9BCBF" stroke-width="1.2" stroke-linecap="round" stroke-dasharray="3 3"/>
<path d="M12 55L20.6603 50" stroke="#B9BCBF" stroke-width="1.2" stroke-linecap="round" stroke-dasharray="3 3"/>
<path d="M63.3923 21L54.7321 26" stroke="#B9BCBF" stroke-width="1.2" stroke-linecap="round" stroke-dasharray="3 3"/>
<path d="M64.3923 55L55.7321 50" stroke="#B9BCBF" stroke-width="1.2" stroke-linecap="round" stroke-dasharray="3 3"/>
<path d="M11.9 21.1077C11.9 20.669 12.1607 20.2722 12.5633 20.0981L37.8237 9.17287C38.1049 9.05125 38.424 9.05242 38.7043 9.17608L63.444 20.0909C63.8427 20.2668 64.1 20.6615 64.1 21.0973V53.9615C64.1 54.3852 63.8567 54.7712 63.4744 54.9539L38.7342 66.7798C38.4369 66.9219 38.0915 66.9232 37.793 66.7834L12.5332 54.9468C12.1468 54.7657 11.9 54.3775 11.9 53.9507V21.1077Z" stroke="#545659" stroke-width="1.8"/>
<defs>
<linearGradient id="paint0_linear_5467_87579" x1="51" y1="56" x2="29.7021" y2="27.5983" gradientUnits="userSpaceOnUse">
<stop stop-color="#72BCFF"/>
<stop offset="1" stop-color="#CAE5FF"/>
</linearGradient>
</defs>
</svg>
