<svg width="76" height="76" viewBox="0 0 76 76" fill="none" xmlns="http://www.w3.org/2000/svg">
<path d="M25.3578 29.5713L37.6059 23.4472C38.169 23.1657 38.8317 23.1657 39.3948 23.4472L51.6429 29.5713C51.7903 29.645 51.7903 29.8553 51.6429 29.929L38.5003 36.5003L25.3578 29.9291C25.2104 29.8553 25.2104 29.645 25.3578 29.5713Z" fill="url(#paint0_linear_5438_87859)"/>
<path d="M38.5003 52.675V36.4981L25.2894 29.8928C25.1565 29.8263 25 29.923 25 30.0717V45.0124C25 45.7699 25.428 46.4625 26.1056 46.8012L38.2109 52.8539C38.3439 52.9204 38.5003 52.8237 38.5003 52.675Z" fill="url(#paint1_linear_5438_87859)"/>
<path d="M38.5004 52.675V36.4982L51.7113 29.8928C51.8443 29.8263 52.0007 29.923 52.0007 30.0717V45.0124C52.0007 45.7699 51.5727 46.4625 50.8952 46.8012L38.7898 52.8539C38.6569 52.9204 38.5004 52.8237 38.5004 52.675Z" fill="url(#paint2_linear_5438_87859)"/>
<path d="M38 9V19" stroke="#B9BCBF" stroke-width="1.2" stroke-linecap="round" stroke-dasharray="3 3"/>
<path d="M38 67V57" stroke="#B9BCBF" stroke-width="1.2" stroke-linecap="round" stroke-dasharray="3 3"/>
<path d="M12 21L20.6603 26" stroke="#B9BCBF" stroke-width="1.2" stroke-linecap="round" stroke-dasharray="3 3"/>
<path d="M12 55L20.6603 50" stroke="#B9BCBF" stroke-width="1.2" stroke-linecap="round" stroke-dasharray="3 3"/>
<path d="M63.3923 21L54.7321 26" stroke="#B9BCBF" stroke-width="1.2" stroke-linecap="round" stroke-dasharray="3 3"/>
<path d="M64.3923 55L55.7321 50" stroke="#B9BCBF" stroke-width="1.2" stroke-linecap="round" stroke-dasharray="3 3"/>
<path d="M11.9 21.1077C11.9 20.669 12.1607 20.2722 12.5633 20.0981L37.8237 9.17287C38.1049 9.05125 38.424 9.05242 38.7043 9.17608L63.444 20.0909C63.8427 20.2668 64.1 20.6615 64.1 21.0973V53.9615C64.1 54.3852 63.8567 54.7712 63.4744 54.9539L38.7342 66.7798C38.4369 66.9219 38.0915 66.9232 37.793 66.7834L12.5332 54.9468C12.1468 54.7657 11.9 54.3775 11.9 53.9507V21.1077Z" stroke="#545659" stroke-width="1.8"/>
<defs>
<linearGradient id="paint0_linear_5438_87859" x1="32" y1="32" x2="44" y2="26" gradientUnits="userSpaceOnUse">
<stop stop-color="#E6F3FF"/>
<stop offset="1" stop-color="#ACD7FF"/>
</linearGradient>
<linearGradient id="paint1_linear_5438_87859" x1="38" y1="52" x2="42.7312" y2="38.3281" gradientUnits="userSpaceOnUse">
<stop stop-color="#9CCFFF"/>
<stop offset="1" stop-color="#D1E9FF"/>
</linearGradient>
<linearGradient id="paint2_linear_5438_87859" x1="41" y1="37" x2="52" y2="46" gradientUnits="userSpaceOnUse">
<stop stop-color="#74BCFF"/>
<stop offset="1" stop-color="#74BCFF" stop-opacity="0.85"/>
</linearGradient>
</defs>
</svg>
