<svg width="76" height="76" viewBox="0 0 76 76" fill="none" xmlns="http://www.w3.org/2000/svg">
<circle r="13.5" transform="matrix(-1 0 0 1 38.5 37.5)" fill="url(#paint0_radial_5451_88610)"/>
<circle r="13.5" transform="matrix(-1 0 0 1 38.5 37.5)" fill="url(#paint1_radial_5451_88610)" fill-opacity="0.5"/>
<circle r="13.5" transform="matrix(-1 0 0 1 38.5 37.5)" fill="url(#paint2_radial_5451_88610)" fill-opacity="0.6"/>
<ellipse opacity="0.6" cx="32.7687" cy="30.2958" rx="3.23205" ry="1.93923" transform="rotate(-30 32.7687 30.2958)" fill="#E7F3FF"/>
<path d="M38 9V19" stroke="#B9BCBF" stroke-width="1.2" stroke-linecap="round" stroke-dasharray="3 3"/>
<path d="M38 67V57" stroke="#B9BCBF" stroke-width="1.2" stroke-linecap="round" stroke-dasharray="3 3"/>
<path d="M12 21L20.6603 26" stroke="#B9BCBF" stroke-width="1.2" stroke-linecap="round" stroke-dasharray="3 3"/>
<path d="M12 55L20.6603 50" stroke="#B9BCBF" stroke-width="1.2" stroke-linecap="round" stroke-dasharray="3 3"/>
<path d="M63.3923 21L54.7321 26" stroke="#B9BCBF" stroke-width="1.2" stroke-linecap="round" stroke-dasharray="3 3"/>
<path d="M64.3923 55L55.7321 50" stroke="#B9BCBF" stroke-width="1.2" stroke-linecap="round" stroke-dasharray="3 3"/>
<path d="M11.9 21.1077C11.9 20.669 12.1607 20.2722 12.5633 20.0981L37.8237 9.17287C38.1049 9.05125 38.424 9.05242 38.7043 9.17608L63.444 20.0909C63.8427 20.2668 64.1 20.6615 64.1 21.0973V53.9615C64.1 54.3852 63.8567 54.7712 63.4744 54.9539L38.7342 66.7798C38.4369 66.9219 38.0915 66.9232 37.793 66.7834L12.5332 54.9468C12.1468 54.7657 11.9 54.3775 11.9 53.9507V21.1077Z" stroke="#545659" stroke-width="1.8"/>
<defs>
<radialGradient id="paint0_radial_5451_88610" cx="0" cy="0" r="1" gradientUnits="userSpaceOnUse" gradientTransform="translate(3.24 29.7) rotate(-56.6115) scale(28.4565)">
<stop stop-color="#1890FF"/>
<stop offset="1" stop-color="#B9DDFF"/>
</radialGradient>
<radialGradient id="paint1_radial_5451_88610" cx="0" cy="0" r="1" gradientUnits="userSpaceOnUse" gradientTransform="translate(19.5 3) rotate(127.235) scale(15.7003)">
<stop stop-color="white"/>
<stop offset="1" stop-color="#D1E9FF" stop-opacity="0"/>
</radialGradient>
<radialGradient id="paint2_radial_5451_88610" cx="0" cy="0" r="1" gradientUnits="userSpaceOnUse" gradientTransform="translate(5.5 21) rotate(110.772) scale(15.5081)">
<stop stop-color="#D1E9FF" stop-opacity="0.77"/>
<stop offset="1" stop-color="#D1E9FF" stop-opacity="0"/>
</radialGradient>
</defs>
</svg>
