<?xml version="1.0" encoding="utf-8"?>
<!-- Generator: Adobe Illustrator 23.0.6, SVG Export Plug-In . SVG Version: 6.00 Build 0)  -->
<svg version="1.1" id="图层_1" xmlns="http://www.w3.org/2000/svg" xmlns:xlink="http://www.w3.org/1999/xlink" x="0px" y="0px"
	 viewBox="0 0 36 36" style="enable-background:new 0 0 36 36;" xml:space="preserve">
<style type="text/css">
	.st0{fill:#00A7E0;}
</style>
<g>
	<path class="st0" d="M34.08,20.79v12.89H21.18V20.79H34.08 M35.83,19.02H19.41v16.42h16.42V19.02L35.83,19.02z"/>
</g>
<g>
	<g>
		<path class="st0" d="M19.15,3.6l7.32,10.34H11.81L19.15,3.6 M19.15,0.55L8.42,15.7h21.47L19.15,0.55L19.15,0.55z"/>
	</g>
</g>
<g>
	<g>
		<path class="st0" d="M8.34,20.79c3.56,0,6.45,2.89,6.45,6.45s-2.89,6.45-6.45,6.45s-6.45-2.89-6.45-6.45S4.78,20.79,8.34,20.79
			 M8.34,19.02c-4.53,0-8.22,3.67-8.22,8.22c0,4.53,3.67,8.22,8.22,8.22s8.22-3.67,8.22-8.22C16.56,22.71,12.86,19.02,8.34,19.02
			L8.34,19.02z"/>
	</g>
</g>
</svg>
